<svg width="78" height="93" viewBox="0 0 78 93" fill="none" xmlns="http://www.w3.org/2000/svg">
<path d="M77.8141 39.1449C77.8141 39.0614 77.8141 38.9779 77.8136 38.8943C77.8131 38.8117 77.8141 38.7292 77.8131 38.6466C77.8094 38.3344 77.803 38.0224 77.7947 37.7104C77.7915 37.6064 77.7884 37.5023 77.7846 37.3983C77.7735 37.0623 77.7573 36.7213 77.7394 36.378C77.7368 36.329 77.7347 36.2804 77.732 36.2313C77.7315 36.2257 77.7315 36.2204 77.731 36.2147C77.731 36.2135 77.731 36.2122 77.7304 36.211C77.7283 36.1721 77.7251 36.1322 77.723 36.0932C77.7078 35.8329 77.6909 35.5709 77.672 35.3067C77.6646 35.2075 77.6578 35.1082 77.6499 35.0085C77.6352 34.8176 77.6194 34.6256 77.6026 34.4332C77.6031 34.4369 77.6037 34.4406 77.6042 34.4441C77.5973 34.3601 77.5895 34.2758 77.5816 34.1914C77.581 34.1888 77.581 34.1863 77.5805 34.1836C77.5768 34.1432 77.5736 34.1031 77.5694 34.0625C77.5657 34.0226 77.563 33.9832 77.5588 33.9431C77.5245 33.5813 77.4862 33.2163 77.4447 32.8492C77.4352 32.7632 77.4242 32.6765 77.4142 32.5903C77.381 32.3096 77.3464 32.0276 77.3089 31.744C77.2943 31.6315 77.2794 31.5188 77.2643 31.406C77.2254 31.1228 77.1848 30.8383 77.1417 30.5528C77.1286 30.4618 77.1154 30.3712 77.1018 30.2799C77.0449 29.9128 76.9851 29.5441 76.9219 29.1738C76.9155 29.1369 76.9093 29.1002 76.903 29.0633C76.9035 29.0649 76.9035 29.0663 76.904 29.0679C76.8662 28.8482 76.8262 28.628 76.7857 28.4075C76.7642 28.2898 76.7416 28.1719 76.7195 28.0541C76.6937 27.9174 76.6669 27.7802 76.64 27.6432C76.6284 27.5844 76.618 27.5258 76.6058 27.4668C76.6063 27.4675 76.6063 27.4682 76.6068 27.4691C76.6042 27.455 76.601 27.441 76.5984 27.4269C76.5805 27.3381 76.5625 27.2494 76.5441 27.1604C76.5295 27.0864 76.5147 27.0124 76.4995 26.9385C76.4984 26.9362 76.4974 26.9337 76.4963 26.9312C76.4942 26.9189 76.4915 26.9065 76.4889 26.8943C76.4748 26.8267 76.461 26.7591 76.4468 26.6916C76.4332 26.624 76.419 26.5563 76.4043 26.4887C76.367 26.3125 76.3275 26.1359 76.2881 25.9593C76.2897 25.963 76.2913 25.9665 76.2929 25.9703C76.2772 25.9012 76.2597 25.8318 76.244 25.7626C76.2192 25.6533 76.1961 25.5442 76.1708 25.4349C76.1456 25.3263 76.1188 25.2173 76.093 25.1087C76.0635 24.9828 76.0335 24.8571 76.0031 24.7312C75.9925 24.6883 75.9826 24.6454 75.972 24.6024C75.962 24.5595 75.9521 24.5166 75.9415 24.4735C75.9252 24.4093 75.9088 24.3448 75.8926 24.2805C75.8537 24.1244 75.8131 23.9685 75.7732 23.8124C75.7253 23.6268 75.6769 23.4412 75.6275 23.2555C75.6038 23.1682 75.5812 23.081 75.5576 22.9938C75.527 22.8818 75.4961 22.7699 75.4651 22.6577C75.4504 22.606 75.4372 22.5544 75.4225 22.5027C75.3468 22.232 75.2689 21.9617 75.1894 21.6915C75.1846 21.6752 75.1799 21.659 75.1753 21.6427C75.1495 21.5555 75.1221 21.4685 75.0958 21.3812C75.0105 21.096 74.9228 20.8114 74.8329 20.5273C74.8039 20.4353 74.7755 20.3431 74.7457 20.2513C74.7435 20.2432 74.7409 20.235 74.7382 20.2269C74.7377 20.2257 74.7372 20.2243 74.7367 20.223C74.6298 19.8909 74.5194 19.5598 74.4068 19.2294C74.3709 19.1254 74.3353 19.0216 74.2989 18.9175C74.1926 18.6121 74.0844 18.3073 73.9733 18.0037C73.9738 18.0055 73.9743 18.0071 73.9754 18.0087C73.9728 18.0018 73.9701 17.9949 73.9674 17.9882C73.9549 17.9539 73.9427 17.9197 73.9302 17.8854C73.9108 17.8321 73.8903 17.7793 73.8702 17.726C73.754 17.4139 73.6346 17.1033 73.5129 16.7938C73.4824 16.7163 73.4524 16.6382 73.4215 16.5609C73.4172 16.5496 73.4125 16.5384 73.4079 16.5271C73.4068 16.5249 73.4057 16.5224 73.4052 16.5201C73.27 16.1825 73.1322 15.8466 72.9908 15.5129C72.9554 15.4288 72.9187 15.3455 72.8829 15.2618C72.8733 15.2395 72.864 15.2173 72.8539 15.1948C72.8377 15.157 72.8218 15.1189 72.8055 15.0811C72.6971 14.832 72.5873 14.584 72.4752 14.3373C72.4531 14.2886 72.4321 14.2393 72.4095 14.1908C72.3473 14.055 72.2837 13.9206 72.2207 13.7855C72.2029 13.747 72.1848 13.7085 72.1665 13.6702C72.0907 13.5086 72.0134 13.348 71.9355 13.1876C71.8951 13.1039 71.8539 13.0202 71.813 12.9369C71.7247 12.7576 71.6352 12.5796 71.5453 12.4022C71.5352 12.3828 71.5258 12.3626 71.5163 12.3432C71.5142 12.34 71.5121 12.3368 71.5099 12.3337C71.4453 12.2074 71.381 12.0808 71.3159 11.9554C71.2859 11.8987 71.2553 11.8428 71.2255 11.7863C71.0697 11.4914 70.911 11.1991 70.7489 10.9097C70.7141 10.847 70.6795 10.7836 70.6442 10.7211C70.4648 10.4043 70.2818 10.0914 70.0955 9.78151C70.0583 9.71918 70.0203 9.6572 69.983 9.59522C69.9705 9.57438 69.9573 9.5539 69.9447 9.53324C69.7581 9.22793 69.5691 8.92473 69.3751 8.62684C69.3655 8.61183 69.3551 8.59717 69.3456 8.58234C69.1731 8.31817 68.9968 8.05789 68.819 7.80008C68.8001 7.77324 68.7818 7.74675 68.7632 7.72008C68.7579 7.71302 68.7531 7.70596 68.7486 7.6989C68.7039 7.63497 68.6597 7.5707 68.6149 7.50713C68.4766 7.31165 68.3371 7.11847 68.1957 6.92705C68.1893 6.9184 68.1831 6.90922 68.1768 6.90056C68.1778 6.90198 68.1784 6.90357 68.1794 6.90498C68.1153 6.81792 68.0505 6.73105 67.9859 6.6447C67.9444 6.5896 67.9017 6.53521 67.8596 6.48047C67.6566 6.21454 67.45 5.95232 67.24 5.69486C67.2137 5.66272 67.1884 5.62987 67.1621 5.59791C66.9359 5.32333 66.7055 5.05527 66.4715 4.79111C66.42 4.73301 66.3684 4.67492 66.3168 4.61735C66.0811 4.35565 65.8429 4.09837 65.5999 3.8478C65.5688 3.81602 65.5374 3.78529 65.5063 3.75368C65.3854 3.6306 65.2649 3.50735 65.1418 3.3871C65.1418 3.3871 65.1419 3.38657 65.1413 3.38622C65.1403 3.38533 65.1397 3.38445 65.1387 3.38357C65.0313 3.27832 64.922 3.17608 64.8131 3.07296C64.7679 3.03022 64.7232 2.98678 64.6778 2.94458C64.4269 2.71043 64.1717 2.48299 63.913 2.26121C63.8588 2.21459 63.8035 2.16868 63.749 2.12259C63.6017 1.99845 63.4528 1.87626 63.3029 1.75636C63.3024 1.75512 63.3013 1.75388 63.3008 1.75265C63.1782 1.655 63.0562 1.55752 62.9321 1.46252C62.2893 0.969681 61.6676 0.611571 61.0668 0.373184C60.4661 0.134798 59.8866 0.0159585 59.3273 0.00147867C58.9549 -0.00805679 58.5915 0.0286721 58.2375 0.107428C57.7988 0.204549 57.3738 0.365769 56.9625 0.582965C56.9352 0.597445 56.9078 0.612101 56.8804 0.627111C56.7348 0.706926 56.5912 0.793805 56.449 0.887217C55.3796 1.58807 54.4083 2.66205 53.5319 3.94422C52.5526 5.37648 51.5731 6.80857 50.5937 8.24083L50.5743 8.26908C49.385 10.0086 48.1957 11.7483 47.0064 13.4878C44.5484 17.083 42.09 20.6781 39.6315 24.2733C38.9474 25.2738 38.2633 26.2743 37.5794 27.2749C34.2455 32.1501 30.9118 37.0256 27.5781 41.9012C20.2805 52.5739 12.983 63.2472 5.68523 73.9192C5.18479 74.6523 4.68329 75.3857 4.18197 76.1189C3.30082 77.4065 2.41968 78.6941 1.53942 79.9818L1.24152 80.4172C0.741966 81.1483 0.395505 81.837 0.197908 82.4859C0.192788 82.5032 0.187678 82.5202 0.182733 82.5369C0.147947 82.6558 0.118629 82.773 0.0937307 82.8894C0.0841953 82.9335 0.0785479 82.9766 0.0706017 83.0204C0.0665403 83.0425 0.0624801 83.0646 0.0585953 83.0861C0.0467642 83.1523 0.0359758 83.2177 0.0280295 83.2823C0.0218492 83.3338 0.0190325 83.3843 0.0147945 83.4354C0.0100267 83.4933 0.00544093 83.5511 0.00261561 83.6084C0.00173269 83.6273 0.000834778 83.6462 0.000481612 83.6658C-0.000754467 83.719 0.000676474 83.7716 0.00155939 83.8242C0.00297205 83.8963 0.00544041 83.9683 0.0109145 84.0393C0.0151525 84.0925 0.0209787 84.1456 0.0275122 84.1982C0.0338692 84.2498 0.0412774 84.3013 0.0499299 84.3524C0.0527553 84.3692 0.0557617 84.3866 0.0589401 84.4034C0.0686522 84.456 0.0790676 84.5081 0.0912518 84.5602C0.106791 84.627 0.125152 84.6928 0.144753 84.7585C0.159939 84.8096 0.174779 84.8606 0.192261 84.9111C0.203739 84.9443 0.215929 84.9768 0.228819 85.0094C0.24171 85.0421 0.254953 85.0741 0.268373 85.1067C0.288504 85.1551 0.307385 85.204 0.329634 85.2519C0.361066 85.3192 0.396914 85.385 0.432583 85.4513C0.456245 85.4949 0.477793 85.539 0.503221 85.5828C0.550545 85.6628 0.603338 85.7412 0.657019 85.8194C0.676267 85.8473 0.6927 85.8763 0.712654 85.9037C0.787172 86.0073 0.867868 86.1089 0.953688 86.2093C0.988828 86.2508 1.0282 86.2909 1.06528 86.3313C1.09265 86.3619 1.12002 86.3919 1.14792 86.4218C1.17582 86.4523 1.20425 86.4823 1.23374 86.5116C1.27859 86.5568 1.32734 86.601 1.37484 86.6458C1.40327 86.6727 1.43187 86.6995 1.46065 86.7264C1.48961 86.7527 1.51892 86.7795 1.54912 86.8058C1.60103 86.8516 1.65577 86.8962 1.71016 86.9406C1.77178 86.9916 1.83413 87.0421 1.89894 87.0921C1.95721 87.1367 2.01743 87.1809 2.07817 87.2252C2.11155 87.2494 2.14545 87.2736 2.17953 87.2978C2.21378 87.322 2.2482 87.3456 2.28317 87.3698C2.34709 87.4134 2.41191 87.4565 2.47848 87.4998C2.50885 87.5192 2.53693 87.5397 2.56783 87.5593C2.57048 87.5598 2.57331 87.5604 2.57596 87.5609C2.70415 87.6419 2.83606 87.7218 2.97327 87.8002C2.97097 87.7996 2.96849 87.7991 2.9662 87.7986C3.06402 87.8544 3.16345 87.91 3.26552 87.9653C3.28106 87.9737 3.29658 87.982 3.31229 87.9905C3.64285 88.1657 3.97519 88.3361 4.3091 88.5023C4.423 88.5586 4.53814 88.6123 4.65257 88.6674L4.7156 88.6979C4.71207 88.6968 4.70837 88.6958 4.70484 88.6947C4.73716 88.7104 4.76982 88.7253 4.80232 88.741C4.80408 88.7415 4.80583 88.7421 4.8076 88.7426C4.97694 88.8247 5.14646 88.9061 5.31704 88.985C5.45301 89.0481 5.59023 89.1081 5.72672 89.1692C5.75003 89.1798 5.77315 89.1902 5.79646 89.2008C5.79275 89.1998 5.78887 89.1987 5.78516 89.1976C5.81712 89.2123 5.84944 89.225 5.88141 89.2391C6.03256 89.3069 6.18372 89.3749 6.33575 89.4401C6.48143 89.5031 6.628 89.5626 6.77421 89.6237C6.78357 89.6274 6.79275 89.6317 6.80193 89.6354C6.83637 89.6495 6.87045 89.6654 6.90488 89.6795H6.90717C6.93524 89.6912 6.96333 89.7027 6.99141 89.7143C7.07387 89.7486 7.15633 89.7827 7.23897 89.8164C7.28047 89.8332 7.32195 89.8501 7.36363 89.8669C7.49395 89.919 7.62499 89.9689 7.75566 90.0194C7.76713 90.0237 7.7786 90.0285 7.79008 90.033C7.79132 90.033 7.79255 90.0336 7.79379 90.0336C7.80209 90.0373 7.81039 90.0399 7.81869 90.0436C8.01275 90.1183 8.20699 90.193 8.40193 90.2651C8.55574 90.3219 8.71007 90.3765 8.86441 90.4312C9.01044 90.4833 9.15683 90.5349 9.30321 90.5854C9.35195 90.6027 9.40087 90.6191 9.44996 90.6359C9.60465 90.6885 9.75987 90.739 9.91509 90.7895C10.1122 90.8542 10.3096 90.9179 10.5073 90.9788C10.6622 91.0272 10.8172 91.074 10.9724 91.1197C11.0724 91.1498 11.1725 91.1792 11.2727 91.2086C11.3728 91.2375 11.4731 91.2665 11.5735 91.2949C11.7277 91.338 11.8819 91.3807 12.0365 91.4228C12.2401 91.4775 12.4441 91.5312 12.6484 91.5833C12.801 91.6221 12.9535 91.6606 13.1065 91.6979C13.315 91.7484 13.5239 91.7973 13.7331 91.8451C13.8827 91.8794 14.0325 91.913 14.1824 91.9456C14.3971 91.9924 14.6124 92.0366 14.8278 92.0804C14.9729 92.1093 15.1179 92.1393 15.2634 92.167C15.3754 92.1886 15.4877 92.2091 15.5998 92.2296C15.7121 92.2495 15.8244 92.2695 15.9367 92.2896C16.0739 92.3138 16.211 92.3385 16.3485 92.3611C16.3554 92.3627 16.3621 92.3638 16.369 92.3648H16.3697C16.5996 92.4031 16.8301 92.4379 17.0605 92.4727C17.1873 92.4916 17.3139 92.5121 17.4409 92.5301C17.6974 92.5665 17.9547 92.599 18.212 92.6311C18.3201 92.6447 18.428 92.6595 18.5362 92.6721C18.8313 92.7069 19.1271 92.7378 19.423 92.7667C19.494 92.7736 19.5648 92.7819 19.6358 92.7888C19.7156 92.7962 19.7954 92.8035 19.875 92.8103C19.8987 92.8125 19.9224 92.8146 19.946 92.8167C20.0115 92.8225 20.0772 92.8284 20.1429 92.8335C20.1947 92.8377 20.2464 92.842 20.298 92.846C20.3116 92.8471 20.3252 92.8481 20.3387 92.8492C20.4744 92.8603 20.61 92.8702 20.7458 92.8803C21.0589 92.9018 21.3725 92.9207 21.6861 92.9366C21.6898 92.9371 21.6935 92.9371 21.6974 92.9371C21.809 92.943 21.9206 92.9483 22.0322 92.9528L22.0343 92.9534C22.0889 92.9555 22.1433 92.9576 22.1978 92.9603C22.2089 92.9603 22.2201 92.9608 22.231 92.9613C22.3239 92.965 22.4168 92.9682 22.5098 92.9714C22.5309 92.9725 22.5519 92.973 22.5729 92.9735C22.6215 92.9751 22.6698 92.9767 22.7184 92.9783C22.7767 92.9799 22.8349 92.9815 22.8932 92.983C22.9328 92.9841 22.9723 92.9852 23.0119 92.9862C23.0516 92.9873 23.0913 92.9878 23.1311 92.9889C23.1752 92.9899 23.2194 92.9905 23.2637 92.9915C23.3209 92.9926 23.3781 92.9936 23.4351 92.9942C23.4692 92.9947 23.5035 92.9952 23.5376 92.9958C23.5939 92.9963 23.6502 92.9968 23.7065 92.9979C23.7415 92.9979 23.7765 92.9984 23.8113 92.9984C23.8694 92.9989 23.9275 92.9995 23.9856 92.9995H24.065C24.1393 93 24.2135 93 24.2878 93C24.3078 92.9995 24.3278 92.9995 24.3479 92.9995C24.4129 92.9995 24.4782 92.9989 24.5432 92.9984L24.5971 92.9979C24.6749 92.9973 24.7526 92.9968 24.8307 92.9958C24.8499 92.9952 24.8694 92.9952 24.8886 92.9947C24.9695 92.9936 25.0502 92.992 25.1309 92.991C25.1469 92.9905 25.1632 92.9899 25.1793 92.9894C25.5264 92.9825 25.8737 92.9721 26.2211 92.9578C26.2707 92.9562 26.3203 92.9525 26.3699 92.9504C26.6837 92.9368 26.9973 92.9214 27.3111 92.902C27.3426 92.8999 27.3738 92.8978 27.4052 92.8956C27.4153 92.8951 27.4252 92.8946 27.4351 92.894C27.4365 92.8935 27.4381 92.8935 27.4397 92.893C27.4676 92.8914 27.4955 92.8887 27.5236 92.8866C27.8162 92.8677 28.1086 92.8472 28.401 92.8231C28.4663 92.8172 28.5317 92.8105 28.597 92.8052C28.5959 92.8052 28.5949 92.8052 28.594 92.8057C28.6182 92.8036 28.6424 92.8005 28.6666 92.7983C28.8041 92.7861 28.9417 92.7741 29.0794 92.7611C29.1059 92.759 29.1324 92.7563 29.1589 92.7537C29.1999 92.7494 29.2408 92.7457 29.2818 92.7415C29.3512 92.7346 29.4208 92.7279 29.4902 92.7205C29.5724 92.712 29.6546 92.7021 29.7367 92.6931C29.7649 92.6899 29.793 92.6867 29.8211 92.6836C30.0734 92.6557 30.3256 92.6272 30.5776 92.5958C30.6801 92.5833 30.7826 92.5684 30.885 92.5548C31.1447 92.5211 31.4047 92.4865 31.6641 92.4485C31.7714 92.4328 31.8786 92.4153 31.9858 92.3991C32.1943 92.3669 32.4029 92.335 32.6114 92.3013C32.6568 92.2938 32.7024 92.2866 32.7478 92.2787C32.8592 92.2603 32.9703 92.2398 33.0815 92.2207C33.1652 92.2061 33.2489 92.1918 33.3326 92.1771C33.3432 92.175 33.3538 92.1734 33.3644 92.1713C33.366 92.1713 33.3676 92.1708 33.3692 92.1702C33.3861 92.1676 33.4031 92.1644 33.4198 92.1612C33.5567 92.137 33.6934 92.1123 33.83 92.0865C33.9438 92.0655 34.0571 92.0424 34.1707 92.0203C34.2321 92.0087 34.2936 91.9966 34.355 91.9845C34.5394 91.9481 34.7235 91.9114 34.9074 91.873C35.0241 91.8489 35.1406 91.8231 35.2572 91.7978C35.3177 91.7853 35.3781 91.772 35.4387 91.759C35.5597 91.7327 35.6806 91.7058 35.8014 91.679C35.862 91.6654 35.9222 91.6516 35.9826 91.638C36.1 91.6112 36.2173 91.5827 36.3345 91.5548C36.5747 91.498 36.8148 91.4408 37.0542 91.3807C37.1719 91.3512 37.2891 91.3207 37.4064 91.2903C37.6447 91.2292 37.8828 91.1672 38.1205 91.1026C38.1579 91.0926 38.1957 91.0832 38.2331 91.0731C38.2769 91.0609 38.32 91.0473 38.3636 91.0353C38.6096 90.9675 38.855 90.8981 39.1001 90.827C39.3452 90.756 39.5898 90.6834 39.8339 90.6087C39.858 90.6013 39.8828 90.5946 39.9069 90.5872C40.1568 90.5104 40.4056 90.4314 40.6539 90.3511C40.7159 90.3311 40.778 90.3112 40.84 90.2905C41.0263 90.2294 41.2124 90.1674 41.398 90.1049C41.4881 90.0744 41.5779 90.0438 41.6684 90.0129C41.893 89.9356 42.1176 89.8572 42.3417 89.7779C42.6094 89.6827 42.8766 89.5859 43.1428 89.4865C43.1601 89.4796 43.1771 89.4729 43.1944 89.4666C43.6078 89.3114 44.0187 89.1505 44.4283 88.9857C44.4868 88.9621 44.5451 88.9384 44.6035 88.9147C44.6913 88.8789 44.7798 88.8438 44.8675 88.8074C45.3388 88.6133 45.8074 88.414 46.2734 88.2072C46.3471 88.1745 46.4207 88.1404 46.4944 88.1078C46.5906 88.0647 46.6863 88.0211 46.782 87.9773C46.8141 87.9631 46.8461 87.9483 46.8777 87.9336C46.9413 87.9047 47.0045 87.8757 47.0676 87.847C47.1064 87.8286 47.1459 87.8106 47.1848 87.7927C47.239 87.7675 47.2927 87.7422 47.3467 87.717C47.4299 87.6781 47.5124 87.6391 47.5955 87.5997C47.6561 87.5713 47.7165 87.5429 47.7765 87.5139C47.8406 87.4834 47.9049 87.4534 47.9685 87.423C48.0557 87.381 48.1426 87.3382 48.2293 87.2962C48.2713 87.2752 48.3135 87.2547 48.3555 87.2342C48.3997 87.2121 48.4438 87.1901 48.4882 87.1685C48.7301 87.0486 48.9709 86.9271 49.2114 86.8041L49.2189 86.7998C49.2556 86.7815 49.2914 86.762 49.3278 86.743C49.4219 86.6946 49.5155 86.6451 49.6098 86.5962C49.8929 86.4479 50.1747 86.2985 50.4556 86.1459C50.5681 86.0854 50.6803 86.0239 50.7917 85.9623C50.8475 85.9312 50.9036 85.9003 50.9589 85.8692C50.9621 85.8676 50.9647 85.8661 50.9674 85.8645C50.9684 85.8639 50.9695 85.8634 50.97 85.8634C51.2257 85.7204 51.4796 85.5757 51.7327 85.429C51.8169 85.3801 51.901 85.3306 51.9852 85.2817C52.0735 85.2302 52.1604 85.177 52.2476 85.1249C52.3244 85.0792 52.4012 85.0335 52.4775 84.9877C52.5038 84.9731 52.5307 84.9577 52.5564 84.9425C52.5655 84.9367 52.5738 84.9309 52.5828 84.9252C52.7164 84.8447 52.8499 84.7643 52.9831 84.6822C53.0936 84.6144 53.2029 84.5456 53.3129 84.4765C53.4229 84.4082 53.5322 84.3393 53.6417 84.2703C53.7512 84.2014 53.86 84.132 53.9689 84.0619C54.0857 83.9867 54.202 83.9104 54.3182 83.8341C54.5282 83.6969 54.7374 83.5579 54.9458 83.4181C55.0615 83.3397 55.1773 83.2613 55.2924 83.182C55.3445 83.1467 55.3966 83.111 55.4482 83.0752C55.6039 82.9678 55.7584 82.8595 55.9126 82.7506C56.0245 82.6717 56.1361 82.5933 56.247 82.514C56.4595 82.3614 56.6705 82.2067 56.8808 82.0517C56.9807 81.9775 57.0812 81.9044 57.1806 81.8297C57.4157 81.6535 57.6482 81.4751 57.8797 81.2954C57.9518 81.2396 58.0249 81.1848 58.0969 81.1282C58.2495 81.0088 58.402 80.8878 58.5536 80.7663C58.663 80.6786 58.7723 80.5901 58.8813 80.5013C59.2237 80.2225 59.5618 79.9396 59.8965 79.6528C59.9648 79.5944 60.0317 79.5345 60.0995 79.4755C60.2037 79.3856 60.3074 79.2945 60.4108 79.2041L60.4066 79.2083C60.4398 79.1794 60.4728 79.1499 60.506 79.1211C60.5685 79.0653 60.6317 79.01 60.6943 78.9544C60.7048 78.9449 60.7158 78.9355 60.7264 78.926C60.72 78.9318 60.7133 78.9377 60.707 78.9428C60.7232 78.9281 60.7396 78.9133 60.7559 78.8981C60.8516 78.8123 60.9462 78.725 61.0409 78.6387C61.2286 78.4683 61.4149 78.2968 61.5994 78.1238C61.7031 78.0265 61.8057 77.9287 61.9083 77.8308C61.9513 77.7893 61.995 77.7477 62.0382 77.7062C62.1249 77.623 62.2113 77.5395 62.2976 77.4558C62.3407 77.4137 62.384 77.3721 62.4265 77.33C62.5318 77.2264 62.6365 77.1227 62.7405 77.0187C62.9072 76.852 63.0725 76.6843 63.237 76.5153C63.3402 76.4095 63.4433 76.3034 63.5454 76.1966C63.711 76.023 63.8747 75.8478 64.0382 75.6721C64.1339 75.569 64.2301 75.4664 64.3243 75.3629C64.5 75.1704 64.673 74.9758 64.845 74.7807C64.924 74.6914 65.0039 74.6034 65.0816 74.5135C65.2058 74.371 65.3289 74.228 65.4514 74.0837C65.5734 73.9402 65.6949 73.7956 65.8153 73.6504C66.0732 73.3391 66.3265 73.025 66.5764 72.7078C66.62 72.6525 66.6631 72.5964 66.7058 72.5406C66.7489 72.4843 66.7917 72.4281 66.8348 72.3723C66.9951 72.1645 67.1561 71.9579 67.3135 71.7484C67.4145 71.6132 67.5118 71.476 67.6117 71.3404C67.6654 71.2667 67.7196 71.1931 67.7731 71.1195C67.8372 71.0306 67.9031 70.9432 67.9667 70.8544C67.9861 70.827 68.0055 70.8002 68.0246 70.7733C68.0525 70.7345 68.0793 70.6955 68.1067 70.6566C68.1883 70.5399 68.2681 70.4225 68.3496 70.3052C68.3571 70.2946 68.3638 70.2847 68.3712 70.2742C68.4071 70.2226 68.4432 70.171 68.4791 70.1195C68.5338 70.0416 68.588 69.9632 68.6416 69.8848C68.6642 69.8511 68.6867 69.818 68.7093 69.7848C68.8151 69.6286 68.9177 69.4703 69.0207 69.313C69.1127 69.1737 69.2059 69.0352 69.2963 68.8949C69.32 68.858 69.3442 68.8212 69.3678 68.7838C69.3915 68.7471 69.4146 68.7102 69.4383 68.6733C69.5167 68.5486 69.5946 68.4239 69.6719 68.2992C69.7586 68.1615 69.8455 68.0236 69.9308 67.8848C69.9534 67.8479 69.976 67.8106 69.9986 67.7737C70.0212 67.7368 70.0438 67.6996 70.0659 67.6623C70.148 67.5262 70.2289 67.3893 70.3099 67.2521C70.3888 67.1195 70.4678 66.9871 70.5449 66.8534C70.5638 66.8213 70.5824 66.7893 70.6013 66.7566C70.6249 66.7157 70.6486 66.6745 70.6717 66.6335C70.7589 66.481 70.8453 66.3279 70.9311 66.1744C71.001 66.0492 71.071 65.9246 71.14 65.7988C71.1469 65.7863 71.1547 65.7736 71.1616 65.761C71.1663 65.7515 71.1711 65.7422 71.1762 65.7332C71.2036 65.6832 71.2304 65.6332 71.2578 65.5832C71.3157 65.4764 71.3729 65.3697 71.4298 65.2624C71.5186 65.0957 71.6071 64.9288 71.6943 64.7616C71.7132 64.7252 71.7321 64.6885 71.7512 64.6521C71.8102 64.5386 71.8673 64.4248 71.9247 64.3113C71.9389 64.2839 71.9532 64.256 71.9668 64.2287C72.0146 64.1335 72.0651 64.0394 72.1124 63.9442C72.1087 63.9484 72.1056 63.9527 72.1024 63.9564C72.1197 63.9211 72.1377 63.8859 72.155 63.8501C72.2029 63.7533 72.2523 63.6565 72.2996 63.5592C72.3706 63.4141 72.44 63.2684 72.5091 63.1222C72.559 63.0164 72.609 62.9108 72.6584 62.8045C72.7132 62.6883 72.7685 62.5725 72.822 62.4558C72.8515 62.3922 72.8799 62.3285 72.9087 62.2649C72.9397 62.1965 72.9706 62.1277 73.0012 62.0586C73.0054 62.0512 73.0091 62.044 73.0128 62.0366C73.0838 61.8787 73.1527 61.72 73.2223 61.5616C73.2486 61.501 73.2754 61.4411 73.3017 61.3806C73.3159 61.3479 73.3307 61.3154 73.3448 61.2822C73.3432 61.2854 73.3416 61.288 73.3406 61.2907C73.4305 61.0807 73.5179 60.8694 73.6051 60.658C73.6662 60.5112 73.7282 60.3645 73.7882 60.2167C73.8765 59.9984 73.9618 59.7786 74.0471 59.5593C74.1091 59.4009 74.1718 59.2427 74.2318 59.0832C74.2717 58.9774 74.3113 58.8713 74.3501 58.765C74.3889 58.6587 74.428 58.5521 74.4668 58.4458C74.5279 58.2775 74.5899 58.1092 74.6494 57.9402C74.6863 57.8365 74.722 57.7329 74.7573 57.6294C74.7932 57.5258 74.8283 57.4216 74.8636 57.3181C74.9231 57.1424 74.9835 56.9667 75.0409 56.7905C75.0746 56.6879 75.1077 56.5853 75.1403 56.4827C75.173 56.3801 75.2049 56.277 75.2371 56.1744C75.2939 55.9939 75.3517 55.8136 75.4064 55.6326C75.4216 55.5816 75.437 55.5311 75.4522 55.48C75.4974 55.3275 75.542 55.1744 75.5864 55.0215C75.6159 54.9215 75.6464 54.8216 75.6747 54.7211C75.6757 54.7185 75.6768 54.7158 75.6778 54.7132C75.6794 54.7068 75.681 54.7001 75.6831 54.6937C75.7047 54.6185 75.7251 54.5427 75.7462 54.467C75.7603 54.4165 75.7741 54.3655 75.7882 54.315C75.8161 54.2134 75.8435 54.1114 75.8703 54.0098C75.8839 53.9588 75.8977 53.9078 75.9113 53.8573C75.9538 53.6967 75.998 53.5375 76.0397 53.377C76.0402 53.3732 76.0418 53.3695 76.0423 53.3658C76.0418 53.3685 76.0407 53.3717 76.0402 53.3743C76.0471 53.348 76.0527 53.3222 76.0596 53.2959C76.0727 53.2449 76.0854 53.1938 76.0979 53.1428C76.1362 52.9892 76.1737 52.8355 76.2115 52.6821C76.2572 52.4949 76.3029 52.307 76.3471 52.1188C76.3707 52.0157 76.3944 51.9126 76.4175 51.8096C76.4407 51.7059 76.4633 51.6023 76.4864 51.4993C76.5274 51.3122 76.5696 51.1248 76.6084 50.9371C76.6347 50.8124 76.6605 50.6878 76.6863 50.5631C76.6874 50.5594 76.6879 50.5562 76.689 50.553C76.6985 50.5078 76.7057 50.4621 76.7147 50.4169C76.7222 50.3805 76.7288 50.3438 76.7357 50.3074C76.7725 50.1216 76.8099 49.9366 76.8447 49.7508C76.8747 49.59 76.9037 49.4294 76.9319 49.2686C76.9415 49.2149 76.9508 49.1612 76.9604 49.1075C76.9609 49.1044 76.9614 49.1017 76.9619 49.0985C76.975 49.0222 76.9898 48.9465 77.0029 48.8707C77.0207 48.7671 77.0377 48.6634 77.055 48.5599C77.064 48.5052 77.0728 48.4505 77.0818 48.3954C77.0919 48.3323 77.1018 48.2691 77.1119 48.2056C77.1276 48.1045 77.1429 48.0035 77.1587 47.902C77.177 47.7832 77.1975 47.6643 77.215 47.5448C77.2229 47.4922 77.2286 47.439 77.2365 47.3859C77.2429 47.3438 77.2491 47.3016 77.2554 47.2596C77.2849 47.0512 77.3112 46.8425 77.3386 46.6336C77.3601 46.4664 77.3827 46.299 77.4027 46.1312C77.4184 46.0007 77.4343 45.871 77.449 45.7405C77.4516 45.7163 77.4543 45.6926 77.4569 45.6684C77.4649 45.5969 77.4716 45.5248 77.4795 45.4533C77.4816 45.4323 77.4838 45.4118 77.4864 45.3913C77.5042 45.2236 77.5231 45.0564 77.5401 44.8884C77.5454 44.8321 77.5507 44.776 77.5558 44.7196C77.5694 44.5771 77.5816 44.4345 77.5941 44.2918C77.5957 44.2697 77.5978 44.2476 77.5999 44.2256C77.6089 44.1205 77.6188 44.0158 77.6278 43.9107C77.6347 43.8214 77.6425 43.732 77.6494 43.6427C77.6589 43.5173 77.6672 43.3919 77.6757 43.2665C77.6842 43.1412 77.6919 43.0156 77.6999 42.8902C77.71 42.7303 77.722 42.5704 77.7304 42.4103C77.732 42.3863 77.7336 42.3621 77.7347 42.3381C77.7472 42.1023 77.7557 41.8666 77.7657 41.6307C77.7721 41.4691 77.7804 41.3075 77.7857 41.1458C77.7942 40.8818 77.7982 40.6178 77.8035 40.3538C77.8062 40.2016 77.8109 40.0492 77.8125 39.897C77.8152 39.6468 77.8141 39.3965 77.8131 39.1463L77.8141 39.1449Z" fill="#627C35"/>
<path d="M56.4492 0.887207C55.3798 1.58806 54.4084 2.66204 53.532 3.94421C52.5527 5.37647 51.5732 6.80856 50.5939 8.24082L50.5744 8.26907C47.6068 12.6102 44.6381 16.9516 41.671 21.2919C40.3065 23.2869 38.9426 25.2807 37.5797 27.2747C28.4423 40.6365 19.3061 54.0001 10.1688 67.363C8.67421 69.5486 7.17978 71.7334 5.68536 73.919C5.18493 74.6522 4.68342 75.3855 4.1821 76.1187C3.30096 77.4063 2.41982 78.694 1.53955 79.9816C3.35447 80.0074 5.14767 80.1788 6.7484 80.3888C17.7509 81.8368 29.2173 79.6166 38.8578 74.1122C39.0434 74.0048 39.2308 73.8976 39.4158 73.7876C54.9583 64.6401 64.0475 47.8704 64.8365 30.0389C65.291 19.7683 60.6764 10.04 56.449 0.887384L56.4492 0.887207Z" fill="#EE2B50"/>
<path d="M53.7106 19.4109C54.0051 19.4167 54.3002 19.4137 54.5937 19.3913C55.2984 19.3374 55.9975 19.2011 56.675 18.9768C59.3734 18.0839 57.8569 15.364 55.5884 15.3459C55.0413 15.3417 54.4806 15.4229 53.9267 15.569C53.6364 12.8731 52.4102 10.2801 50.5746 8.26904C47.607 12.6102 44.6383 16.9516 41.6711 21.2918C40.3067 23.2869 38.9428 25.2807 37.5799 27.2746C28.4425 40.6365 19.3063 54.0001 10.169 67.363C8.67439 69.5485 7.17997 71.7334 5.68555 73.919L5.73323 73.9174C9.7436 73.7196 13.6304 73.0059 17.4935 72.0837C17.4532 72.7823 17.4883 73.4833 17.6033 74.1709C17.7198 74.8684 17.918 75.5522 18.2017 76.2071C19.332 78.8156 21.9054 77.0618 21.721 74.8006C21.6242 73.6135 21.1173 72.3963 20.4305 71.3465C21.1694 71.1535 21.9082 70.9557 22.6477 70.7553C25.2385 70.052 27.874 69.3305 30.1454 67.8977C30.2688 67.8198 30.3879 67.7377 30.508 67.6568C30.5194 67.6852 30.5281 67.7147 30.5397 67.7432C30.8101 68.3965 31.1571 69.0181 31.5809 69.5925C33.2688 71.8796 35.382 69.5925 34.6937 67.4306C34.4339 66.6148 33.9637 65.8316 33.384 65.1331C37.0503 61.0719 38.9959 55.3213 42.1645 50.6773C45.6061 45.6336 50.8128 41.4226 51.9901 35.4299C52.3062 33.8193 52.3025 32.1778 52.2658 30.5315C52.8707 30.4944 53.4713 30.4062 54.0558 30.2536C54.74 30.0749 55.4035 29.8162 56.0298 29.4747C58.5262 28.115 56.5489 25.7094 54.3134 26.0958C53.6095 26.2176 52.9091 26.4887 52.2479 26.8526C52.2716 26.3073 52.3131 25.7634 52.3873 25.2224C52.6576 23.2549 53.3267 21.3536 53.7106 19.4109Z" fill="#EF3D66"/>
<path d="M19.9847 84.6805C24.3503 84.5842 28.6936 84.0555 32.8597 82.9584C36.2234 82.0727 39.4713 80.8167 42.5205 79.1165L42.5383 79.1065C47.5406 76.3156 51.8594 72.4037 55.5278 68.0028C57.6623 65.4423 59.5664 62.6797 61.218 59.7699C63.3334 56.046 65.0362 52.0805 66.2832 47.9871C68.5608 40.509 69.3161 32.6043 68.2762 24.9664C67.6602 20.4314 66.4109 15.9909 64.4717 11.7898C62.6229 7.7833 60.2111 4.04751 58.2376 0.107422C57.7695 0.211076 57.3171 0.387482 56.8806 0.627105C56.7349 0.70692 56.5913 0.793799 56.4492 0.887211C60.6766 10.0398 65.291 19.7683 64.8367 30.0387C64.0477 47.8702 54.9585 64.6399 39.416 73.7874C39.2308 73.8974 39.0436 74.0046 38.858 74.112C29.2175 79.6164 17.7511 81.8368 6.74857 80.3886C5.14785 80.1787 3.35447 80.0072 1.53973 79.9814L1.24183 80.4169C0.742278 81.1479 0.395838 81.8366 0.198242 82.4855C0.896274 82.6743 1.59147 82.8537 2.27979 82.9922C7.95481 84.1331 13.9913 84.8136 19.9847 84.6801V84.6805Z" fill="#F8EFAC"/>
<path d="M42.0525 21.7583C41.93 21.6008 41.8021 21.4449 41.6711 21.292C40.3067 23.287 38.9427 25.2808 37.5799 27.2748C28.4424 40.6366 19.3062 54.0002 10.1689 67.3631C13.5609 67.0444 17.2119 65.7363 19.7267 64.8615C19.9929 64.769 20.2589 64.6711 20.5244 64.5712C20.7026 64.8963 20.9004 65.2113 21.1208 65.5127C22.7976 67.8081 24.9219 65.5311 24.244 63.3662C24.1972 63.2163 24.1409 63.0685 24.0807 62.9212C25.9192 61.8712 27.5841 60.5426 28.8593 58.8275C30.8339 56.1706 31.6463 52.9374 32.478 49.6946C32.8958 50.0554 33.3468 50.3794 33.8301 50.6566C36.2958 52.0711 37.3099 49.1271 35.8096 47.425C35.2177 46.7533 34.4296 46.2073 33.5746 45.7939C33.7253 45.3369 33.8861 44.8845 34.0611 44.4386C35.1545 41.6504 36.8184 39.0876 38.9184 36.9535C40.8442 34.9966 43.2169 33.2742 44.1479 30.6913C45.2293 27.6868 44.0142 24.2782 42.0524 21.7585L42.0525 21.7583Z" fill="#F05E87"/>
<path d="M63.6643 61.9107C63.0279 61.2964 62.1653 60.3822 61.218 59.77C59.5664 62.6797 57.6623 65.4424 55.5278 68.0028C51.8594 72.4038 47.5406 76.3156 42.5383 79.1065L42.5205 79.1166C45.1094 81.1863 47.6984 83.2583 50.2873 85.3291C50.5103 85.5085 50.7371 85.6883 50.9684 85.8635C50.9694 85.8629 50.9705 85.8624 50.971 85.8624C51.3118 85.6721 51.6502 85.478 51.9862 85.2807C52.0745 85.2292 52.1614 85.176 52.2486 85.1239C52.4948 84.9777 52.7404 84.831 52.9839 84.6811C53.0945 84.6133 53.2038 84.5444 53.3138 84.4754C53.5331 84.3387 53.7524 84.2008 53.9698 84.0609C54.0865 83.9857 54.2029 83.9094 54.3191 83.8331C54.529 83.6959 54.7383 83.5569 54.9466 83.4171C55.0623 83.3387 55.1781 83.2603 55.2933 83.181C55.5016 83.039 55.7077 82.8949 55.9134 82.7496C56.0254 82.6707 56.137 82.5923 56.2479 82.513C56.4603 82.3604 56.6713 82.2057 56.8816 82.0507C56.9816 81.9765 57.082 81.9034 57.1815 81.8287C57.4165 81.6525 57.6491 81.4742 57.8806 81.2944C57.9526 81.2386 58.0257 81.1839 58.0977 81.1272C58.7089 80.6479 59.3091 80.1561 59.8971 79.6518C59.9655 79.5934 60.0324 79.5335 60.1002 79.4745C60.3206 79.2836 60.5399 79.0915 60.7566 78.8969C60.8523 78.8111 60.9469 78.7239 61.0416 78.6375C61.2293 78.4671 61.4156 78.2957 61.6001 78.1226C61.7037 78.0253 61.8063 77.9275 61.9089 77.8297C62.0825 77.664 62.2556 77.4966 62.427 77.3289C62.5323 77.2252 62.637 77.1216 62.741 77.0176C62.9077 76.8509 63.073 76.6831 63.2375 76.5141C63.3407 76.4083 63.4438 76.3022 63.5459 76.1954C63.7115 76.0218 63.8752 75.8466 64.0387 75.6709C64.1344 75.5678 64.2306 75.4652 64.3248 75.3617C64.5005 75.1693 64.6735 74.9747 64.8455 74.7795C64.9244 74.6902 65.0044 74.6023 65.0821 74.5124C65.3299 74.2274 65.575 73.9395 65.8158 73.6492C66.0736 73.3379 66.327 73.0238 66.5769 72.7066C66.6641 72.5956 66.7489 72.4826 66.8352 72.3711C66.9956 72.1633 67.1566 71.9567 67.314 71.7473C67.415 71.612 67.5122 71.4748 67.6122 71.3392C67.6659 71.2656 67.7201 71.1919 67.7736 71.1183C67.8377 71.0295 67.9036 70.9421 67.9671 70.8532C67.9866 70.8259 68.006 70.799 68.025 70.7722C68.1351 70.617 68.2417 70.4603 68.3501 70.3041C68.3576 70.2935 68.3643 70.2836 68.3717 70.273C68.4616 70.143 68.5537 70.0141 68.642 69.8838C68.6646 69.8501 68.6872 69.817 68.7098 69.7838C68.8292 69.6066 68.9454 69.4277 69.0623 69.249C69.1407 69.1307 69.2202 69.0134 69.297 68.8939C69.3206 68.857 69.3448 68.8202 69.3685 68.7828C69.499 68.5797 69.6258 68.3742 69.7529 68.1685C69.8119 68.0738 69.8728 67.9797 69.9313 67.884C69.9539 67.8471 69.9765 67.8098 69.9991 67.7729C70.1442 67.5342 70.2857 67.2937 70.4268 67.0528C70.4661 66.9855 70.5067 66.9197 70.5456 66.8524C70.5645 66.8203 70.583 66.7883 70.6019 66.7556C70.7644 66.4736 70.9233 66.1902 71.0801 65.905C71.1001 65.8692 71.1211 65.8335 71.1407 65.7977C71.1476 65.7851 71.1553 65.7724 71.1622 65.7599C68.3639 65.2277 65.7166 63.889 63.6642 61.9113L63.6643 61.9107Z" fill="#34471E"/>
<path d="M77.8138 39.0281C77.8133 38.9834 77.8138 38.9389 77.8138 38.8943C77.8133 38.8116 77.8144 38.7292 77.8133 38.6465C77.808 38.2303 77.7992 37.8143 77.7849 37.3983C77.7737 37.0622 77.7575 36.7212 77.7397 36.378C77.7349 36.2837 77.7285 36.1881 77.7234 36.0931C77.7082 35.8328 77.6913 35.5708 77.6724 35.3066C77.665 35.2074 77.6583 35.1081 77.6503 35.0084C77.6357 34.8175 77.6198 34.6255 77.603 34.4331C77.5956 34.3501 77.5883 34.2669 77.5809 34.1836C77.5772 34.1431 77.574 34.103 77.5698 34.0624C77.5661 34.0225 77.5634 33.9831 77.5592 33.9431C77.5249 33.5812 77.4866 33.2162 77.4451 32.8491C77.4356 32.7631 77.4246 32.6764 77.4146 32.5903C77.3814 32.3095 77.3468 32.0275 77.3093 31.7439C77.2947 31.6314 77.2798 31.5188 77.2646 31.4059C77.2258 31.1227 77.1852 30.8382 77.1421 30.5527C77.129 30.4617 77.1158 30.3711 77.1022 30.2799C77.0453 29.9127 76.9855 29.544 76.9223 29.1737C76.9065 29.0816 76.8891 28.9885 76.8728 28.8961C76.8444 28.7333 76.816 28.5707 76.7861 28.4074C76.7646 28.2898 76.742 28.1718 76.7199 28.054C76.6941 27.9173 76.6673 27.7801 76.6404 27.6431C76.6288 27.5843 76.6184 27.5257 76.6062 27.4667C76.6035 27.4533 76.6014 27.4402 76.5988 27.4268C76.5809 27.338 76.5629 27.2493 76.5445 27.1603C76.5294 27.0841 76.5129 27.0074 76.4967 26.9311C76.4946 26.9188 76.4919 26.9064 76.4893 26.8942C76.4614 26.759 76.4335 26.6241 76.4045 26.4886C76.3673 26.3124 76.3277 26.1358 76.2883 25.9592C76.2737 25.8937 76.2588 25.828 76.2442 25.7623C76.2195 25.653 76.1963 25.5439 76.1711 25.4346C76.1458 25.326 76.119 25.217 76.0932 25.1084C76.0637 24.9825 76.0337 24.8568 76.0033 24.7309C75.9823 24.6451 75.9629 24.5591 75.9419 24.4733C75.9256 24.409 75.9092 24.3446 75.893 24.2803C75.8541 24.1242 75.8135 23.9683 75.7736 23.8122C75.7257 23.6266 75.6774 23.441 75.6279 23.2552C75.6173 23.2157 75.6064 23.1763 75.5952 23.1367C75.5527 22.9769 75.5096 22.8171 75.4653 22.6575C75.4506 22.6057 75.4374 22.5542 75.4227 22.5024C73.0405 23.3234 70.6594 24.1441 68.2766 24.9658C69.3165 32.6039 68.5611 40.5084 66.2837 47.9865C69.0862 49.5365 74.3472 48.4956 77.2164 47.5426C77.2244 47.49 77.23 47.4368 77.238 47.3836C77.2385 47.3789 77.2391 47.3741 77.2401 47.3695C77.2754 47.1239 77.3079 46.8777 77.34 46.6316C77.3616 46.4644 77.3842 46.297 77.4042 46.1292C77.4342 45.8825 77.461 45.6358 77.4879 45.3892C77.5057 45.2214 77.5246 45.0542 77.5415 44.8862C77.5657 44.638 77.5873 44.3895 77.6083 44.1411C77.6146 44.0635 77.6229 43.9862 77.6293 43.9087C77.6362 43.8193 77.6439 43.73 77.6508 43.6406C77.6697 43.3901 77.6856 43.139 77.7013 42.8882C77.7114 42.7282 77.7234 42.5684 77.7319 42.4083C77.7324 42.4031 77.7324 42.398 77.7329 42.3931C77.7465 42.1384 77.7566 41.8836 77.7672 41.6286C77.7736 41.4671 77.7819 41.3055 77.7872 41.1438C77.7956 40.8798 77.7997 40.6158 77.805 40.3518C77.8076 40.1996 77.8124 40.0472 77.814 39.895C77.8172 39.6059 77.8156 39.3168 77.814 39.0278L77.8138 39.0281Z" fill="#34471E"/>
<path d="M33.2683 83.9017C33.1331 83.5934 32.9996 83.2752 32.8595 82.958C28.6936 84.0553 24.3502 84.5838 19.9845 84.68C19.9778 84.7989 19.9709 84.9121 19.9612 85.0161C19.821 86.5494 19.8523 88.0994 20.0516 89.626C20.1957 90.7264 20.4274 91.8145 20.7459 92.8791C22.2026 92.9812 23.6661 93.0174 25.1312 92.9897C25.1473 92.9891 25.1635 92.9886 25.1796 92.9881C25.5268 92.9812 25.8741 92.9708 26.2214 92.9565C26.2711 92.9549 26.3207 92.9512 26.3703 92.9491C26.6839 92.9355 26.9977 92.9201 27.3115 92.9007C27.3429 92.8986 27.3742 92.8964 27.4056 92.8943C27.4171 92.8933 27.4286 92.8922 27.44 92.8917C27.4679 92.8901 27.4958 92.8874 27.5239 92.8853C27.8163 92.8664 28.1089 92.8459 28.4013 92.8217C28.4667 92.8159 28.532 92.8092 28.5973 92.8039C28.6169 92.8018 28.6367 92.7997 28.6563 92.7981C28.9344 92.7739 29.2126 92.7481 29.4905 92.7191C29.5728 92.7107 29.6549 92.7008 29.737 92.6918C29.7497 92.6902 29.7624 92.6886 29.7752 92.6875C30.0429 92.658 30.3106 92.628 30.5779 92.5945C30.6805 92.5819 30.7829 92.5671 30.8853 92.5535C31.1451 92.5198 31.405 92.4852 31.6644 92.4472C31.7718 92.4315 31.879 92.414 31.9862 92.3978C32.2403 92.3589 32.4943 92.3199 32.7481 92.2773C32.8595 92.259 32.9706 92.2385 33.0818 92.2194C33.3315 92.1758 33.5812 92.1322 33.8304 92.0852C33.9441 92.0642 34.0575 92.0411 34.171 92.019C34.4168 91.9712 34.6624 91.9233 34.9077 91.8717C35.0244 91.8475 35.141 91.8218 35.2575 91.7965C35.4996 91.7444 35.7417 91.6918 35.9831 91.6365C36.1005 91.6097 36.2178 91.5813 36.335 91.5534C36.5752 91.4965 36.8153 91.4393 37.0548 91.3792C37.1724 91.3497 37.2896 91.3192 37.4069 91.2888C37.6453 91.2277 37.8833 91.1658 38.121 91.1011C38.1584 91.0911 38.1962 91.0817 38.2336 91.0716C36.2882 88.8751 34.4502 86.5723 33.2681 83.9013L33.2683 83.9017Z" fill="#34471E"/>
<path d="M75.6585 39.2052C76.6795 34.937 76.4607 30.0097 74.6139 25.9792C74.5429 25.8234 74.2967 25.9347 74.3419 26.0939C75.5644 30.4633 76.0903 34.6157 75.4118 39.1372C75.3882 39.2953 75.6191 39.3689 75.6585 39.2052Z" fill="#627C35"/>
<path d="M73.0032 26.9537C73.4703 28.2609 73.6181 29.5424 73.8201 30.9045C73.8517 31.1136 74.1415 31.0352 74.1609 30.8584C74.3129 29.488 73.9121 28.0439 73.3814 26.7942C73.2905 26.5802 72.9245 26.7331 73.0032 26.9537Z" fill="#627C35"/>
<path d="M71.7858 26.8037C71.9057 28.1081 72.0045 29.5481 72.4365 30.7879C72.4796 30.9121 72.6664 30.8947 72.6695 30.7565C72.7001 29.4439 72.3524 28.0385 72.0667 26.7659C72.0319 26.611 71.7711 26.6416 71.7858 26.8037Z" fill="#627C35"/>
<path d="M52.6118 82.0657C55.8519 80.5524 58.8353 78.3936 61.448 75.9605C62.7808 74.7191 64.0217 73.3753 65.1679 71.9599C66.2503 70.6233 67.4781 69.1605 68.1639 67.5767C68.2307 67.422 68.0372 67.2211 67.9056 67.3774C66.7899 68.7086 65.9183 70.2546 64.8196 71.6116C63.7162 72.974 62.5221 74.259 61.2534 75.4687C58.6055 77.9946 55.66 80.0475 52.5351 81.9343C52.4499 81.9859 52.5245 82.1068 52.6119 82.0659L52.6118 82.0657Z" fill="#627C35"/>
<path d="M57.9541 75.995C61.4619 74.0715 64.7121 70.5252 66.28 66.838C66.352 66.6692 66.1322 66.5277 66.028 66.6907C64.8761 68.4965 63.7698 70.2801 62.3107 71.8639C60.9468 73.3445 59.4026 74.5875 57.8319 75.8377C57.7404 75.9103 57.8579 76.048 57.9541 75.995Z" fill="#627C35"/>
<path d="M60.1237 72.4011C61.9715 70.8973 63.7982 68.8606 64.7488 66.6495C64.8277 66.4642 64.6026 66.3328 64.4806 66.4927C62.9893 68.4457 61.6296 70.4191 59.9645 72.2422C59.865 72.3511 60.0127 72.4915 60.1237 72.4011Z" fill="#627C35"/>
<path d="M21.9641 91.2287C25.9771 92.0398 30.3421 91.6431 34.3067 90.7537C34.3888 90.7359 34.3517 90.6195 34.2728 90.6306C30.1427 91.2208 26.159 91.0482 22.0169 90.8406C21.7967 90.8295 21.7443 91.1846 21.9641 91.2287Z" fill="#627C35"/>
<path d="M22.0642 89.8304C23.3409 90.0308 24.7855 90.0303 26.067 89.8867C26.2086 89.871 26.2741 89.6395 26.1041 89.6121C24.8339 89.4054 23.3935 89.324 22.1144 89.4601C21.923 89.4806 21.8357 89.7951 22.0642 89.8304Z" fill="#627C35"/>
<path d="M21.8028 88.2747C22.2547 88.2936 22.7524 88.321 23.1939 88.2053C23.3329 88.169 23.333 87.9602 23.1939 87.9239C22.7526 87.8087 22.2541 87.8361 21.8028 87.855C21.5328 87.8661 21.5323 88.2631 21.8028 88.2747Z" fill="#627C35"/>
<path d="M48.893 57.0687C49.3053 57.6432 49.7856 58.1692 50.3295 58.631C52.496 60.4715 54.0298 57.761 52.8647 55.8143C51.9641 54.3089 50.2368 53.1359 48.6216 52.5426C46.9732 51.9367 47.2824 53.5982 47.6253 54.6003C47.9272 55.4823 48.3523 56.3172 48.893 57.0687Z" fill="#34040C"/>
<path d="M42.2926 63.5204C42.5629 64.1738 42.9095 64.7953 43.3335 65.3698C45.0215 67.6569 47.1343 65.3698 46.4463 63.2079C45.9141 61.5363 44.5007 59.9994 43.0642 59.052C41.5977 58.0852 41.5188 59.7732 41.6235 60.8267C41.7155 61.7544 41.938 62.6647 42.2926 63.5204Z" fill="#34040C"/>
<path d="M31.311 63.2746C29.8447 62.3079 29.7659 63.9958 29.8705 65.0493C29.9593 65.9467 30.1735 66.8261 30.5076 67.6567C30.5191 67.6852 30.5277 67.7146 30.5394 67.7431C30.8097 68.3964 31.1567 69.018 31.5805 69.5924C33.2685 71.8795 35.3816 69.5924 34.6933 67.4305C34.4336 66.6147 33.9633 65.8316 33.3836 65.133C32.7752 64.3998 32.0467 63.7597 31.311 63.2746Z" fill="#34040C"/>
<path d="M30.4363 47.186C30.8938 47.9986 31.4642 48.7413 32.1327 49.3825C32.2447 49.4899 32.3605 49.5928 32.4781 49.6944C32.8959 50.0551 33.3469 50.3791 33.8302 50.6564C36.2958 52.0708 37.3099 49.1268 35.8097 47.4247C35.2178 46.753 34.4297 46.207 33.5747 45.7936C32.7541 45.397 31.8719 45.123 31.0411 44.9815C29.3095 44.6865 29.9168 46.2634 30.4363 47.186Z" fill="#34040C"/>
<path d="M41.6172 43.7496C42.2342 44.0949 42.8916 44.3677 43.5802 44.5557C46.3222 45.3048 46.5631 42.2 44.6832 40.93C43.2299 39.948 41.168 39.618 39.4537 39.7647C37.7034 39.9146 38.6875 41.2883 39.4226 42.0504C40.0696 42.7216 40.8088 43.2976 41.6172 43.7496Z" fill="#34040C"/>
<path d="M20.8818 59.194C19.4201 58.2198 19.3332 59.9072 19.4324 60.9619C19.52 61.8902 19.7385 62.8014 20.0884 63.6587C20.2158 63.9705 20.3618 64.2751 20.5243 64.5713C20.7024 64.8964 20.9002 65.2114 21.1206 65.5128C22.7974 67.8082 24.9217 65.5312 24.2438 63.3663C24.197 63.2164 24.1407 63.0686 24.0805 62.9213C23.466 61.4212 22.1859 60.0631 20.8818 59.1942V59.194Z" fill="#34040C"/>
<path d="M17.5573 71.3959C17.5278 71.6248 17.5068 71.854 17.4936 72.0839C17.4533 72.7824 17.4885 73.4835 17.6034 74.1711C17.72 74.8686 17.9181 75.5523 18.2019 76.2073C19.3322 78.8158 21.9055 77.0619 21.7211 74.8008C21.6244 73.6136 21.1174 72.3964 20.4307 71.3467C20.1059 70.8501 19.7415 70.391 19.3604 69.9907C18.1491 68.7187 17.6926 70.3456 17.5573 71.3959Z" fill="#34040C"/>
<path d="M50.6754 48.6427C51.4928 49.0909 52.369 49.4216 53.2754 49.6132C53.9671 49.7594 54.676 49.8246 55.3894 49.7993C58.2303 49.6999 57.5376 46.6639 55.3653 46.0095C53.6858 45.504 51.6191 45.8012 50.0254 46.4508C48.3991 47.1141 49.7471 48.1329 50.6756 48.6425L50.6754 48.6427Z" fill="#34040C"/>
<path d="M51.8258 19.1895C52.4465 19.3267 53.0781 19.3984 53.7105 19.4108C54.005 19.4166 54.3001 19.4136 54.5936 19.3912C55.2983 19.3373 55.9974 19.201 56.675 18.9768C59.3733 18.0838 57.8568 15.3639 55.5883 15.3459C55.0412 15.3416 54.4806 15.4229 53.9266 15.5689C52.7031 15.8915 51.514 16.5313 50.5866 17.2683C49.2117 18.3614 50.7918 18.9612 51.8258 19.1895Z" fill="#34040C"/>
<path d="M55.221 39.7239C56.1525 39.7595 57.0847 39.663 57.9808 39.429C58.6645 39.2503 59.328 38.9916 59.9548 38.6504C62.4507 37.2906 60.474 34.8848 58.2379 35.2715C56.5095 35.5703 54.7942 36.7605 53.6597 38.0545C52.5015 39.375 54.1626 39.6834 55.2208 39.7241L55.221 39.7239Z" fill="#34040C"/>
<path d="M49.7348 28.8784C48.5766 30.1993 50.2382 30.5079 51.2959 30.5484C51.62 30.5607 51.9435 30.5512 52.2659 30.5314C52.8709 30.4943 53.4714 30.4061 54.0559 30.2535C54.7402 30.0748 55.4036 29.8161 56.0299 29.4746C58.5263 28.1149 56.5491 25.7093 54.3136 26.0957C53.6097 26.2175 52.9092 26.4886 52.2481 26.8525C51.285 27.3826 50.4074 28.1115 49.7348 28.8784Z" fill="#34040C"/>
</svg>
