<svg width="1358" height="1219" viewBox="0 0 1358 1219" fill="none" xmlns="http://www.w3.org/2000/svg">
<path d="M1243.5 268L1243.45 268.055L1243.41 268.095L1243.36 268.15L1243.29 268.215L1243.22 268.293L1243.14 268.378L1243.04 268.48L1242.93 268.589L1242.81 268.711L1242.69 268.847L1242.54 268.99L1242.39 269.147L1242.23 269.317L1242.06 269.494L1241.87 269.685L1241.68 269.885L1241.47 270.096L1241.25 270.32L1241.02 270.552L1240.78 270.797L1240.53 271.052L1240 271.593L1239.71 271.882L1239.42 272.178L1239.12 272.488L1238.8 272.808L1238.48 273.134L1237.79 273.825L1237.44 274.182L1237.07 274.553L1236.69 274.934L1236.3 275.325L1235.9 275.723L1235.49 276.134L1235.07 276.553L1234.64 276.985L1234.2 277.424L1233.75 277.873L1233.29 278.332L1232.82 278.801L1232.34 279.277L1231.84 279.764L1231.34 280.265L1230.83 280.772L1230.31 281.285L1229.78 281.813L1229.23 282.347L1228.68 282.891L1228.12 283.443L1227.55 284.004L1226.97 284.576L1226.37 285.157L1225.77 285.746L1225.16 286.341L1224.54 286.951L1223.91 287.566L1223.26 288.188L1222.61 288.821L1221.95 289.461L1221.28 290.111L1220.6 290.77L1219.91 291.437L1219.35 291.982M1194.61 315.359L1193.92 316.002L1192.93 316.91L1191.94 317.825L1190.94 318.747L1189.93 319.676L1188.92 320.611L1187.89 321.554L1186.85 322.499L1185.81 323.455L1184.76 324.415L1183.7 325.381L1182.63 326.354L1181.56 327.334L1180.47 328.317L1179.38 329.307L1178.27 330.304L1177.16 331.307L1176.04 332.317L1174.92 333.331L1173.78 334.352L1172.64 335.376L1171.49 336.407L1170.33 337.445L1169.43 338.251M1143.84 360.689L1142.82 361.566L1141.48 362.716L1140.13 363.87L1138.78 365.03L1137.42 366.194L1136.05 367.361L1134.67 368.535L1133.29 369.709L1131.9 370.89L1130.5 372.074L1129.1 373.261L1127.68 374.452L1126.26 375.646L1124.84 376.844L1123.4 378.049L1121.96 379.253L1120.52 380.464L1119.06 381.675L1117.85 382.678M1091.49 404.204L1090.11 405.307L1088.52 406.579L1086.93 407.851L1085.32 409.126L1083.71 410.406L1082.1 411.686L1080.48 412.968L1078.85 414.254L1077.21 415.541L1075.57 416.83L1073.92 418.119L1072.27 419.412L1070.61 420.704L1068.95 422.001L1067.27 423.297L1065.6 424.597L1064.74 425.257M1037.61 445.81L1036.17 446.882L1034.38 448.203L1032.6 449.523L1030.8 450.843L1029.01 452.167L1027.2 453.487L1025.39 454.811L1023.57 456.135L1021.75 457.455L1019.93 458.779L1018.1 460.102L1016.26 461.426L1014.42 462.75L1012.57 464.073L1010.72 465.397L1010.09 465.843M982.17 485.311L980.386 486.525L978.448 487.842L976.504 489.154L974.561 490.468L972.61 491.777L970.652 493.09L968.691 494.397L966.726 495.706L964.759 497.013L962.784 498.32L960.806 499.623L958.821 500.926L956.833 502.226L954.841 503.526L953.837 504.179M925.083 522.399L924.453 522.79L922.393 524.056L920.33 525.321L918.264 526.58L916.194 527.843L914.12 529.099L912.043 530.35L909.959 531.602L907.875 532.851L905.785 534.096L903.692 535.338L901.598 536.577L899.497 537.812L897.393 539.048L895.898 539.919M866.263 556.669L865.416 557.135L863.257 558.313L861.098 559.483L858.933 560.65L856.764 561.816L854.595 562.973L852.42 564.13L850.244 565.28L848.065 566.427L845.882 567.57L843.696 568.71L841.507 569.843L839.318 570.972L837.122 572.095L836.173 572.582M805.608 587.569L803.892 588.371L801.656 589.416L799.419 590.454L797.178 591.488L794.934 592.512L792.69 593.533L790.443 594.55L788.193 595.557L785.942 596.561L783.689 597.561L781.432 598.551L779.175 599.537L776.914 600.517L774.653 601.49L774.56 601.528M743.025 614.354L742.78 614.446L740.492 615.324L738.201 616.192L735.91 617.053L733.615 617.907L731.317 618.754L729.023 619.594L726.725 620.428L724.423 621.251L722.121 622.071L719.819 622.881L717.514 623.683L715.209 624.479L712.901 625.265L711.004 625.908M678.505 636.043L678.158 636.142L675.836 636.802L673.51 637.452L671.185 638.095L668.859 638.727L666.53 639.354L664.205 639.969L661.876 640.579L659.547 641.177L657.215 641.766L654.886 642.348L652.557 642.92L650.225 643.485L647.893 644.039L645.561 644.584H645.554M612.188 651.341L610.537 651.627L608.201 652.018L605.866 652.399L603.53 652.77L601.192 653.131L598.856 653.481L596.521 653.822L594.186 654.151L591.85 654.471L589.515 654.781L587.179 655.081L584.844 655.37L582.512 655.649L580.176 655.914L578.484 656.101M544.539 658.636L542.89 658.7L540.565 658.779L538.239 658.843L535.917 658.898L533.591 658.942L531.273 658.973L528.951 658.994L526.633 659L524.314 658.997L521.996 658.98L519.678 658.953L517.363 658.912L515.048 658.857L512.736 658.793L510.5 658.718M476.561 656.128L475.894 656.05L473.606 655.767L471.318 655.475L469.03 655.169L466.745 654.849L464.46 654.512L462.179 654.165L459.897 653.804L457.619 653.43L455.342 653.042L453.068 652.644L450.797 652.229L448.526 651.801L446.255 651.358L443.991 650.899L442.963 650.688M409.985 642.281L408.007 641.675L405.78 640.975L403.55 640.264L401.326 639.532L399.106 638.787H399.004L398.967 638.784H398.926L398.878 638.781H398.827L398.769 638.777L398.704 638.774H398.636L398.484 638.768L398.31 638.761L398.215 638.758L398.113 638.751L398.01 638.748L397.898 638.745L397.782 638.738L397.662 638.732L397.537 638.728L397.407 638.722L397.271 638.715L397.131 638.709L396.985 638.698L396.835 638.692L396.679 638.685L396.518 638.675L396.355 638.665L396.185 638.658L396.011 638.648L395.83 638.638L395.65 638.624L395.268 638.603L394.866 638.576L394.659 638.567L394.448 638.553L394.233 638.536L394.011 638.522L393.787 638.508L393.559 638.491L393.089 638.456L392.599 638.422L392.347 638.402L392.092 638.385L391.833 638.364L391.571 638.344L391.302 638.323L391.03 638.303L390.754 638.279L390.475 638.256L390.192 638.232L389.903 638.208L389.317 638.161L388.711 638.106L388.404 638.079L388.091 638.052L387.778 638.021L387.458 637.994L387.134 637.964L386.807 637.933L386.477 637.899L386.144 637.868L385.463 637.801L385.119 637.766L384.769 637.732L384.418 637.695L383.703 637.619L383.339 637.582L382.603 637.5L381.854 637.419L381.092 637.33L380.315 637.242L379.525 637.147L379.126 637.099L378.721 637.052L378.316 637L377.907 636.95L377.495 636.898L377.083 636.844L376.664 636.789L376.579 636.779M343.128 630.55L342.726 630.451L342.168 630.311L341.61 630.168L340.486 629.883L339.363 629.59L337.667 629.141L337.098 628.988L336.533 628.832L335.964 628.675L335.392 628.515L334.823 628.355L334.251 628.195L333.683 628.032L333.111 627.865L332.539 627.698L331.963 627.532L331.391 627.362L330.816 627.192L330.241 627.019L328.515 626.488L327.94 626.308L327.361 626.127L326.786 625.944L325.628 625.57L325.053 625.383L324.474 625.188L323.896 624.998L323.317 624.804L322.739 624.606L322.16 624.408L321.582 624.208L321.003 624.007L320.421 623.802L319.842 623.598L319.263 623.391L318.685 623.184L318.106 622.973L317.528 622.759L316.949 622.544L316.371 622.33L315.792 622.109L315.214 621.891L314.635 621.666L314.06 621.442L313.481 621.217L312.903 620.99L311.752 620.526L311.177 620.291L310.758 620.122M280.81 604.076L280.411 603.797L279.903 603.436L279.399 603.075L278.895 602.711L278.391 602.343L277.396 601.602L276.903 601.225L276.409 600.851L275.429 600.089L274.945 599.704L274.461 599.317L273.978 598.925L273.498 598.534L273.021 598.14L272.548 597.742L272.078 597.344L271.609 596.939L271.142 596.534L270.675 596.125L270.212 595.717L269.756 595.302L269.296 594.888L268.843 594.47L268.391 594.05L267.498 593.2L267.052 592.771L266.613 592.339L266.175 591.904L265.742 591.469L265.31 591.03L264.881 590.588L264.452 590.142L264.03 589.693L263.61 589.243L263.191 588.791L262.776 588.336L262.364 587.876L261.956 587.413L261.55 586.95L261.148 586.484L260.75 586.014L260.355 585.541L259.96 585.065L259.184 584.106L258.802 583.622L258.425 583.136L258.047 582.646L257.672 582.153L257.305 581.659L256.937 581.159L256.576 580.658L256.474 580.515M242.977 549.558L242.885 549.103L242.756 548.429L242.63 547.755L242.511 547.075L242.395 546.395L242.283 545.707L242.181 545.02L242.079 544.326L241.986 543.632L241.895 542.931L241.813 542.23L241.731 541.523L241.66 540.815L241.593 540.1L241.528 539.386L241.47 538.665L241.419 537.944L241.372 537.215L241.331 536.487L241.293 535.752L241.267 535.017L241.24 534.276L241.222 533.531L241.205 532.786L241.199 532.034L241.195 531.279L241.199 530.52L241.209 529.758L241.222 528.993L241.243 528.224L241.27 527.455L241.301 526.676L241.338 525.897L241.383 525.115L241.433 524.329L241.488 523.54L241.549 522.743L241.617 521.947L241.688 521.145L241.77 520.342L241.855 519.532L241.947 518.719L242.043 517.905L242.148 517.086L242.257 516.262L242.335 515.708M251.007 482.876L251.276 482.165L251.65 481.188L252.028 480.212L252.413 479.232L252.808 478.245L253.21 477.256L253.618 476.262L254.034 475.265L254.459 474.261L254.888 473.258L255.327 472.248L255.773 471.234L256.226 470.213L256.689 469.192L257.156 468.165L257.632 467.134L258.116 466.1L258.61 465.062L259.11 464.018L259.618 462.97L260.132 461.918L260.652 460.863L261.184 459.805L261.721 458.74L262.27 457.672L262.824 456.6L263.387 455.521L263.955 454.443L264.534 453.358L265.12 452.269L265.259 452.007M296.682 444.812L296.729 444.808L297.131 444.791L297.945 444.757L298.357 444.74L298.765 444.722L299.181 444.709L299.596 444.692L300.011 444.678L300.848 444.651L301.274 444.641L301.697 444.63L302.122 444.616L302.551 444.607L302.98 444.6L303.409 444.59L303.842 444.584L304.277 444.574L304.713 444.567L305.148 444.564L305.588 444.558L306.031 444.554L307.362 444.544H309.16L310.065 444.55L310.521 444.554L310.977 444.557L311.436 444.563L311.896 444.57L312.355 444.576L312.819 444.583L313.282 444.593L313.749 444.603L314.682 444.624L315.148 444.638L315.618 444.651L316.091 444.669L316.561 444.683L317.512 444.717L318.465 444.758L319.422 444.798L319.902 444.822L320.382 444.846L320.863 444.873L321.346 444.896L321.83 444.923L323.777 445.046L324.264 445.08L324.755 445.114L325.245 445.149L325.735 445.186L326.229 445.224L326.722 445.265L327.213 445.306L327.709 445.346L328.203 445.39L328.7 445.435L329.193 445.479L329.69 445.526L330.191 445.573L330.688 445.621M364.024 452.238L364.129 452.272L364.629 452.432L365.63 452.759L366.131 452.926L366.628 453.096L367.129 453.265L367.626 453.435L368.62 453.789L369.114 453.966L369.611 454.146L370.104 454.33L370.598 454.517L371.088 454.704L371.582 454.891L372.072 455.085L372.562 455.275L373.049 455.472L373.54 455.67L374.027 455.871L374.514 456.075L374.997 456.279L375.484 456.487L375.968 456.694L376.452 456.905L376.932 457.119L377.892 457.555L378.373 457.776L378.849 457.997L379.326 458.222L379.799 458.45L380.275 458.681L380.748 458.912L381.218 459.147L381.691 459.385L382.158 459.624L382.628 459.866L383.094 460.111L383.561 460.355L384.024 460.604L384.488 460.855L384.951 461.11L385.411 461.366L385.87 461.624L386.329 461.886L386.785 462.152L387.241 462.417L387.694 462.686L388.147 462.958L388.596 463.23L389.046 463.505L389.495 463.784L389.941 464.067L390.387 464.352L390.83 464.638L391.269 464.927L391.712 465.22L392.151 465.512L392.586 465.808L393.022 466.108L393.454 466.411L394.319 467.023L394.471 467.136M417.199 492.129L417.26 492.231L417.546 492.732L417.829 493.236L418.108 493.743L418.384 494.253L418.66 494.767L418.928 495.28L419.197 495.801L419.463 496.325L419.725 496.853L419.984 497.384L420.239 497.918L420.491 498.455L420.743 498.996L420.988 499.54L421.233 500.088L421.475 500.639L421.713 501.194L421.949 501.751L422.18 502.313L422.408 502.878L422.633 503.447L422.854 504.018L423.072 504.596L423.287 505.175L423.501 505.756L423.709 506.345L423.913 506.933L424.117 507.529L424.315 508.124L424.513 508.726L424.703 509.332L424.89 509.941L425.077 510.554L425.258 511.17L425.439 511.788L425.613 512.411L425.786 513.037L425.953 513.67L426.116 514.303L426.279 514.942L426.436 515.581L426.589 516.228L426.739 516.878L426.885 517.531L427.028 518.188L427.168 518.848L427.304 519.515L427.437 520.182L427.566 520.856L427.689 521.529L427.812 522.209L427.928 522.894L428.044 523.584L428.132 524.146M429.017 558.077L428.962 558.721L428.884 559.599L428.799 560.48L428.71 561.364L428.619 562.256L428.523 563.151L428.52 563.154L428.514 563.164L428.507 563.178L428.493 563.202L428.476 563.229L428.456 563.26L428.435 563.301L428.408 563.345L428.34 563.45L428.303 563.511L428.262 563.579L428.218 563.65L428.17 563.729L428.116 563.814L428.061 563.902L428 563.997L427.938 564.099L427.87 564.205L427.799 564.313L427.728 564.429L427.65 564.552L427.568 564.677L427.483 564.811L427.395 564.95L427.303 565.09L427.208 565.239L427.109 565.389L427.007 565.549L426.898 565.709L426.789 565.875L426.677 566.048L426.557 566.226L426.438 566.406L426.312 566.593L426.186 566.783L426.053 566.977L425.917 567.178L425.777 567.382L425.637 567.593L425.491 567.807L425.341 568.025L425.189 568.246L425.032 568.474L424.872 568.705L424.705 568.94L424.538 569.182L424.368 569.427L424.195 569.675L424.014 569.926L423.834 570.182L423.647 570.444L423.46 570.709L423.266 570.978L423.068 571.25L422.87 571.525L422.666 571.804L422.458 572.09L422.248 572.379L422.033 572.668L421.815 572.965L421.593 573.264L421.368 573.567L421.14 573.873L420.909 574.183L420.674 574.496L420.432 574.812L420.19 575.135L419.945 575.459L419.693 575.785L419.442 576.115L419.183 576.448L418.92 576.785L418.658 577.125L418.389 577.469L418.117 577.816L417.845 578.163L417.565 578.516L417.283 578.87L416.997 579.231L416.707 579.592L416.415 579.956L416.119 580.324L415.816 580.691L415.513 581.065L415.206 581.439L414.897 581.817L414.58 582.198L414.263 582.583L413.94 582.967L413.616 583.355L413.286 583.746L412.953 584.138L412.619 584.536L412.279 584.935L411.935 585.333L411.591 585.738L411.24 586.143L411.148 586.248M387.039 610.231V610.235L386.49 610.701L385.942 611.167L385.387 611.637L384.832 612.103L384.271 612.569L383.71 613.039L383.141 613.505L382.572 613.971L381.997 614.437L381.418 614.904L380.84 615.37L380.254 615.836L379.665 616.299L379.072 616.765L378.477 617.228L377.878 617.691L377.279 618.158L376.672 618.617L376.06 619.08L375.447 619.543L374.831 620.002L374.211 620.462L373.589 620.921L372.962 621.377L372.329 621.836L371.695 622.292L371.059 622.747L370.415 623.2L369.772 623.652L369.125 624.105L368.471 624.557L367.817 625.006L367.157 625.455L366.493 625.901L365.828 626.347L365.157 626.793L363.809 627.677L363.128 628.115L362.444 628.554L361.756 628.993L361.065 629.428L360.371 629.863L359.673 630.295L359.615 630.332M329.264 645.657L328.876 645.814L327.187 646.473L326.34 646.797L325.485 647.12L324.63 647.437L323.769 647.754L322.908 648.063L322.039 648.373L321.171 648.676L320.296 648.978L319.42 649.275L318.539 649.567L317.657 649.856L316.768 650.142L315.876 650.425L314.983 650.704L314.084 650.979L313.182 651.248L312.277 651.513L311.368 651.778L310.46 652.037L309.544 652.289L308.624 652.54L307.702 652.785L306.776 653.027L305.847 653.265L304.914 653.501L303.977 653.728L303.037 653.953L302.095 654.174L301.148 654.388L300.199 654.599L299.242 654.806L298.285 655.007L297.325 655.205L296.671 655.338M262.859 658.9L262.583 658.903L261.501 658.917L260.415 658.92H259.325L258.233 658.913L257.136 658.904L256.036 658.883L254.93 658.86L253.824 658.829L252.714 658.791L251.601 658.747L250.484 658.696L249.364 658.638L248.237 658.577L247.11 658.506L245.98 658.431L244.846 658.346L243.705 658.258L242.564 658.162L241.42 658.06L240.27 657.948L239.119 657.832L237.961 657.709L236.803 657.58L235.642 657.444L234.474 657.298L233.307 657.148L232.132 656.991L230.957 656.825L229.775 656.655L228.934 656.526M195.776 648.935L195.34 648.802L194.06 648.408L192.776 648.003L191.489 647.591L190.199 647.173L188.905 646.745L187.608 646.309L186.307 645.863L185.003 645.411L183.696 644.948L182.385 644.478L181.071 643.998L179.753 643.508L178.432 643.012L177.107 642.508L175.779 641.995L174.448 641.47L173.11 640.94L171.772 640.398L170.43 639.847L169.085 639.289L167.737 638.721L166.385 638.143L165.031 637.557L163.89 637.061M133.475 621.798L132.9 621.475L131.463 620.658L130.023 619.832L128.575 618.995L127.128 618.151L125.678 617.294L124.221 616.426L122.764 615.548L121.3 614.659L119.835 613.761L118.368 612.853L116.894 611.935L115.42 611.002L113.938 610.063L112.457 609.113L110.973 608.151L109.481 607.178L107.99 606.194L106.492 605.201L104.994 604.197L104.538 603.891M76.991 583.906L75.8536 583.018L74.2839 581.793L72.7141 580.551L71.1379 579.299L69.5616 578.037L67.978 576.765L66.3952 575.479L64.805 574.179L63.2149 572.869L61.6182 571.549L60.0215 570.215L58.4174 568.868L56.8134 567.51L55.2028 566.142L53.5922 564.758L51.9751 563.366L50.7183 562.27M25.5945 539.314L23.9905 537.777L22.3153 536.158L20.6337 534.528L18.952 532.881L17.2662 531.224L15.5739 529.554L13.8816 527.87L12.1828 526.175L10.4839 524.464L8.77777 522.743L7.07239 521.007L5.36292 519.258L3.64695 517.496L1.93095 515.72L1.50195 515.274" stroke="#5B462B" stroke-width="4.17" stroke-miterlimit="2"/>
<path d="M451.827 707C389.049 707 338.154 777.917 338.154 865.393C338.154 898.02 345.24 928.331 357.372 953.53C328.836 958.763 307.502 979.647 307.502 1004.63C307.502 1033.55 336.092 1057 371.363 1057C399.517 1057 423.4 1042.05 431.896 1021.31C438.369 1022.91 445.022 1023.79 451.826 1023.79C514.607 1023.79 565.502 952.869 565.502 865.393C565.502 777.917 514.608 707 451.827 707Z" fill="#A8AA18"/>
<path d="M990.174 707C1052.96 707 1103.85 777.917 1103.85 865.393C1103.85 898.02 1096.76 928.331 1084.63 953.53C1113.17 958.763 1134.5 979.647 1134.5 1004.63C1134.5 1033.55 1105.91 1057 1070.64 1057C1042.49 1057 1018.6 1042.05 1010.11 1021.31C1003.63 1022.91 996.978 1023.79 990.175 1023.79C927.397 1023.79 876.502 952.869 876.502 865.393C876.502 777.917 927.396 707 990.174 707Z" fill="#A8AA18"/>
<path d="M1076.45 1057.25C1075.87 1056.14 1075.33 1055.01 1074.84 1053.85C1070.72 1044.18 1067 1034.33 1063.72 1024.34C1053.32 992.781 1047.86 958.962 1040.57 926.537C1030.66 882.395 1020.74 838.254 1010.83 794.113C1000.29 747.196 989.747 700.274 979.207 653.357C971.233 617.862 963.259 582.367 955.285 546.873C952.899 536.247 950.511 525.626 948.126 515L525.239 517.194C477.764 666.276 430.306 815.358 382.825 964.436C360.965 1033.06 301.304 1127.27 375.88 1184.99C419.286 1218.58 482.416 1209.73 516.883 1165.22C527.27 1151.81 533.844 1136.68 536.808 1121.18C547.654 1123.11 558.798 1124.91 570.36 1126.47C566.86 1103.3 564.996 1078.88 564.996 1053.69C564.996 902.781 631.912 780.425 714.465 780.425C797.018 780.425 863.937 902.781 863.937 1053.69C863.937 1078.78 862.097 1103.07 858.621 1126.13C871.243 1124.37 883.432 1122.41 895.185 1120.21L896.078 1123.07C896.443 1124.24 896.893 1125.35 897.383 1126.44C899.346 1144.83 906.301 1163.03 918.548 1178.85C953.02 1223.36 1016.15 1232.21 1059.55 1198.62C1083.79 1179.86 1097.73 1150.25 1097.5 1119.68C1097.38 1104.24 1093.72 1088.89 1086.89 1075.04C1083.81 1068.79 1079.61 1063.34 1076.45 1057.25Z" fill="#CFC12A"/>
<path d="M864.502 1054.05C864.502 1079.11 862.661 1103.38 859.185 1126.43C814.897 1132.55 765.627 1136 713.722 1136C662.843 1136 614.493 1132.71 570.866 1126.76C567.366 1103.61 565.502 1079.21 565.502 1054.05C565.502 903.257 632.431 781 715 781C797.57 781 864.502 903.256 864.502 1054.05Z" fill="#FFC04B"/>
<path d="M1033.91 269.722C1071.72 242.791 1096.42 198.594 1096.42 148.602C1096.42 66.5325 1029.95 0 947.964 0C879.144 0 821.281 46.885 804.461 110.477C760.706 97.5291 717.783 94.3904 673.584 101.648C653.947 42.599 598.331 0 532.737 0C450.75 0 384.286 66.5317 384.286 148.602C384.286 187.135 398.94 222.241 422.976 248.645C366.033 312.611 334.361 385.991 349.104 470.752C363.772 555.091 417.9 638.108 501.181 683.566C564.909 718.344 647.935 739.491 723.516 736.765C810.626 733.623 900.579 716.003 971.422 668.996C1039.55 623.787 1084.49 552.032 1095.11 477.604C1105.74 403.144 1080.22 331.058 1033.91 269.722H1033.91Z" fill="#CFC12A"/>
<path d="M1054.5 583.32C1033.41 616.199 1005.1 645.404 971.024 667.993C900.13 714.982 810.093 732.626 722.88 735.767C647.239 738.479 564.13 717.33 500.333 682.554C416.968 637.122 362.787 554.111 348.111 469.805C332.982 382.951 366.634 308.058 426.297 243C389.933 296.976 372.286 357.165 384.024 424.568C398.727 508.907 452.908 591.885 536.274 637.348C600.04 672.123 683.149 693.272 758.825 690.527C846.006 687.389 936.043 669.777 1006.96 622.791C1024.38 611.225 1040.31 597.936 1054.5 583.321L1054.5 583.32Z" fill="#A8AA18"/>
<path d="M563.416 130.707C561.908 154.958 540.797 173.41 516.269 171.915C491.738 170.421 473.076 149.551 474.588 125.293C476.103 101.041 497.21 82.5939 521.738 84.0843C546.269 85.5821 564.931 106.452 563.416 130.707Z" fill="#5B462B"/>
<path d="M550.484 115.615C550.161 121.127 545.655 125.32 540.418 124.981C535.184 124.641 531.198 119.898 531.52 114.385C531.843 108.872 536.349 104.683 541.586 105.019C546.823 105.358 550.806 110.102 550.484 115.615Z" fill="white"/>
<path d="M1010.42 135.704C1008.91 159.96 987.794 178.413 963.266 176.915C938.735 175.424 920.076 154.549 921.588 130.296C923.099 106.04 944.207 87.5872 968.738 89.0851C993.266 90.5797 1011.93 111.451 1010.42 135.704Z" fill="#5B462B"/>
<path d="M1004.48 119.083C1004.16 124.32 999.654 128.304 994.418 127.982C989.181 127.663 985.198 123.156 985.52 117.917C985.843 112.68 990.349 108.696 995.586 109.018C1000.82 109.337 1004.81 113.844 1004.48 119.083Z" fill="white"/>
<path d="M584.503 326.001C608.296 339.126 632.733 349.588 657.675 357.619C682.619 365.603 708.166 370.569 733.855 372.152C746.705 372.869 759.572 372.546 772.409 371.517C785.266 370.463 797.973 368.092 810.707 365.376C836.032 359.281 860.769 349.756 885.502 338.333C865.487 356.909 841.38 371.28 815.251 380.908C802.091 385.4 788.513 388.984 774.634 390.919C760.76 392.8 746.701 393.432 732.704 392.708C704.734 390.985 677.237 384.052 651.976 372.7C639.344 367.007 627.246 360.272 615.87 352.525C604.579 344.693 593.71 336.17 584.502 326L584.503 326.001Z" fill="#5B462B"/>
<path d="M563.503 335.381C567.649 333.147 571.154 331.098 574.539 328.971C577.903 326.865 581.055 324.725 584.144 322.441C587.152 320.062 590.265 317.763 593.316 315.1C594.968 313.892 596.368 312.404 598.137 311.124C599.839 309.785 601.41 308.293 603.502 307C603.378 309.369 602.884 311.641 602.253 313.882C601.441 316.018 600.662 318.253 599.406 320.19C597.127 324.246 593.84 327.709 590.126 330.581C586.336 333.382 581.948 335.401 577.358 336.383C572.788 337.314 567.891 337.348 563.503 335.381Z" fill="#5B462B"/>
<path d="M909.502 349.328C905.111 351.361 900.215 351.323 895.646 350.364C891.056 349.348 886.665 347.263 882.878 344.369C879.165 341.397 875.877 337.822 873.598 333.634C872.342 331.628 871.563 329.32 870.751 327.115C870.116 324.795 869.623 322.448 869.502 320C871.594 321.336 873.162 322.877 874.867 324.262C876.633 325.58 878.036 327.122 879.688 328.37C882.736 331.123 885.849 333.501 888.86 335.956C891.945 338.317 895.101 340.524 898.465 342.701C901.846 344.898 905.355 347.018 909.501 349.327L909.502 349.328Z" fill="#5B462B"/>
<path d="M530.502 1120.06L565.502 927L544.018 1122L530.502 1120.06Z" fill="#96960E"/>
<path d="M885.985 1122L864.502 927L899.502 1120.06L885.985 1122V1122Z" fill="#96960E"/>
<path d="M1241.05 203.283C1234.68 189.129 1240.66 172.6 1254.39 166.363C1260.42 163.629 1266.94 163.333 1272.89 165.049C1260.42 149.012 1262.32 125.498 1277.81 111.037C1294.15 95.802 1319.38 96.4129 1334.18 112.412C1348.97 128.409 1347.72 153.731 1331.38 168.973C1319.44 180.121 1302.74 182.746 1288.84 177.115C1289.56 178.255 1290.23 179.432 1290.8 180.698C1297.17 194.852 1291.2 211.381 1277.46 217.615C1263.72 223.852 1247.42 217.433 1241.05 203.283Z" fill="#6C97DC"/>
<path d="M1262.38 198.881C1257.69 188.622 1262.09 176.639 1272.2 172.116C1276.63 170.135 1281.42 169.915 1285.81 171.164C1276.63 159.537 1278.03 142.489 1289.43 132.006C1301.45 120.954 1320.02 121.401 1330.9 132.998C1341.79 144.598 1340.87 162.957 1328.85 174.004C1320.06 182.087 1307.77 183.993 1297.54 179.91C1298.07 180.736 1298.57 181.592 1298.99 182.507C1303.67 192.766 1299.28 204.749 1289.17 209.272C1279.06 213.792 1267.06 209.14 1262.38 198.88L1262.38 198.881Z" fill="#5681C1"/>
<path d="M1299.73 171.77C1277.43 196.67 1265.97 222.784 1274.13 230.087C1282.29 237.394 1306.98 223.127 1329.28 198.226C1351.57 173.322 1363.03 147.216 1354.87 139.913C1346.71 132.606 1322.02 146.869 1299.73 171.77Z" fill="#F8DC31"/>
</svg>
