<svg width="40" height="93" viewBox="0 0 40 93" fill="none" xmlns="http://www.w3.org/2000/svg">
<path d="M17.9933 24.1436C18.9468 19.4366 21.4689 14.6839 21.4689 14.6839C21.4689 14.6839 22.7019 18.6043 23.5323 22.4479C25.205 19.1457 27.2246 16.5183 27.2246 16.5183C27.2246 16.5183 28.5067 25.2484 28.003 29.4903C27.9079 30.2916 27.7769 31.0363 27.6241 31.7259C30.5086 30.233 33.2278 30.9193 33.2278 30.9193C33.2278 30.9193 30.3745 31.8914 28.5839 35.8562C27.4771 38.3081 27.2057 42.144 27.1437 44.2589C28.1617 44.6098 29.1382 45.0528 30.0645 45.5948C30.5802 43.7861 31.6144 40.7488 33.143 38.9831C35.7018 36.0272 38.6798 35.8508 38.6798 35.8508C38.6798 35.8508 35.1635 34.1671 31.2833 35.8048C32.1403 34.1215 33.0763 32.337 33.8015 31.0961C35.5873 28.0394 38.8026 26.2251 38.8026 26.2251C38.8026 26.2251 35.0031 25.7176 31.0768 27.5644C31.6008 26.7495 32.0546 26.0983 32.3885 25.7106C35.273 22.36 38.2412 21.6243 38.2412 21.6243C38.2412 21.6243 34.7998 19.3866 29.0464 22.3687C30.5556 19.7528 32.0556 17.2901 32.8607 16.3549C35.7456 13.0043 38.7138 12.2686 38.7138 12.2686C38.7138 12.2686 34.8832 9.77232 28.5452 13.5535C27.5848 14.1263 26.6784 14.9445 25.8475 15.872C25.9863 15.1941 26.1159 14.4415 26.2377 13.5769C27.0053 8.12856 23.6274 0 23.6274 0C23.6274 0 20.5604 7.30554 19.8016 11.6528C18.4778 7.30423 15.971 3.24093 15.971 3.24093C15.971 3.24093 14.589 8.83884 14.1152 13.239C15.5765 15.4668 17.0856 18.2656 17.5272 20.843C17.7131 21.9254 17.8698 23.0435 17.9937 24.1437L17.9933 24.1436Z" fill="#548F44"/>
<path d="M10.9751 22.0232C11.1194 22.8154 11.2959 23.5485 11.491 24.2249C12.4333 24.6284 13.4052 25.2473 14.332 26.1842C15.4773 27.342 16.3457 28.738 17.0029 30.124C17.8841 27.7218 19.0929 26.2127 19.0929 26.2127C19.0929 26.2127 22.6403 30.7986 23.0673 35.2645C23.1095 35.7071 23.1371 36.1354 23.1546 36.5515C23.6306 35.6183 24.2071 34.7096 24.9103 33.8947C25.7769 32.8901 26.7086 32.1992 27.6238 31.7256C27.7767 31.036 27.9078 30.2913 28.0028 29.49C28.5065 25.2481 27.2244 16.518 27.2244 16.518C27.2244 16.518 25.2048 19.1454 23.532 22.4475C22.7017 18.604 21.4686 14.6836 21.4686 14.6836C21.4686 14.6836 18.9467 19.4362 17.9931 24.1433C17.8693 23.043 17.7126 21.9249 17.5267 20.8426C17.085 18.2652 15.576 15.4664 14.1147 13.2386C12.5043 10.7835 10.9523 9.02246 10.9523 9.02246C10.9523 9.02246 10.6905 12.1329 10.6383 15.5369C10.6028 17.8608 10.6649 20.3216 10.9748 22.023L10.9751 22.0232Z" fill="#629944"/>
<path d="M11.7261 35.2443C9.91193 31.2929 7.0527 30.3418 7.0527 30.3418C7.0527 30.3418 9.18179 29.7886 11.6779 30.6828C11.4337 29.8606 11.1406 29.0819 10.7877 28.418C8.75723 24.5978 5.8506 23.8435 5.8506 23.8435C5.8506 23.8435 8.52152 22.9534 11.491 24.2251C11.2959 23.5487 11.1194 22.8156 10.9751 22.0233C10.6651 20.3217 10.603 17.8611 10.6387 15.5372C10.5926 15.513 10.547 15.4859 10.5007 15.4626C3.94438 12.1689 0.276462 14.9488 0.276462 14.9488C0.276462 14.9488 3.28331 15.4585 6.36769 18.5835C6.72462 18.945 7.21726 19.5606 7.79005 20.334C3.75917 18.7881 0 19.5813 0 19.5813C0 19.5813 3.31962 21.1487 5.28936 24.0635C6.08909 25.2467 7.13288 26.9564 8.09161 28.571C4.1197 27.2301 0.715356 29.1752 0.715356 29.1752C0.715356 29.1752 3.69742 29.1264 6.43252 31.882C7.25277 32.7084 7.96796 33.8644 8.55671 35.0343C4.85882 33.7403 1.63057 35.3134 1.63057 35.3134C1.63057 35.3134 4.60971 35.468 7.1863 38.4047C8.82794 40.2761 9.91652 43.5996 10.403 45.3384C11.3014 44.8521 12.2468 44.4591 13.2325 44.1494C13.1876 42.204 12.9465 37.902 11.7263 35.2445L11.7261 35.2443Z" fill="#548F44"/>
<path d="M16.1704 36.3646C15.9173 33.9798 16.3778 31.8279 17.0029 30.1245C16.3457 28.7385 15.4773 27.3423 14.332 26.1847C13.4054 25.248 12.4333 24.6289 11.491 24.2254C8.5215 22.9539 5.85059 23.8438 5.85059 23.8438C5.85059 23.8438 8.75741 24.5981 10.7878 28.4183C11.1406 29.0822 11.4337 29.8609 11.6779 30.6831C9.18177 29.7889 7.05272 30.3422 7.05272 30.3422C7.05272 30.3422 9.91192 31.2932 11.7261 35.2446C12.9463 37.9021 13.1874 42.2043 13.2324 44.1496C14.6583 43.7022 16.1677 43.4277 17.7362 43.2917C17.0301 41.5161 16.523 39.6857 16.1704 36.3646Z" fill="#719C42"/>
<path d="M28.5836 35.856C30.3743 31.8915 33.2275 30.9192 33.2275 30.9192C33.2275 30.9192 30.5081 30.2329 27.6238 31.7258C26.7085 32.1995 25.7769 32.8904 24.9102 33.8949C24.2071 34.7098 23.6305 35.6185 23.1545 36.5517C23.2845 39.6263 22.7915 41.9616 22.4023 43.2789C24.0552 43.423 25.6444 43.7414 27.1434 44.2586C27.2054 42.1437 27.4766 38.308 28.5836 35.856Z" fill="#719C42"/>
<path d="M23.1545 36.5516C23.1371 36.1354 23.1094 35.7073 23.0672 35.2647C22.6402 30.7988 19.0929 26.2129 19.0929 26.2129C19.0929 26.2129 17.8841 27.7219 17.0029 30.1242C16.3778 31.8276 15.9172 33.9795 16.1704 36.3643C16.5229 39.6854 17.0301 41.5158 17.7361 43.2914C18.5601 43.22 19.4001 43.1862 20.2532 43.1862C20.9801 43.1862 21.697 43.2171 22.4025 43.2787C22.7917 41.9616 23.2847 39.6261 23.1547 36.5515L23.1545 36.5516Z" fill="#87A73F"/>
<path d="M7.29876 60.4902C6.90354 60.683 6.5085 60.8755 6.11865 61.0614C6.56894 61.3919 7.02605 61.7213 7.48855 62.0494C7.41198 61.5394 7.3486 61.0207 7.29891 60.4922C7.29875 60.4917 7.29876 60.4907 7.29876 60.4902Z" fill="#FDB732"/>
<path d="M8.10629 51.1257C7.51183 51.442 6.91884 51.7545 6.32959 52.0578C6.73589 52.383 7.15181 52.7077 7.57309 53.0317C7.71613 52.3489 7.89452 51.7157 8.10549 51.1279C8.10582 51.127 8.10612 51.1265 8.10629 51.1255V51.1257Z" fill="#FDB732"/>
<path d="M8.95502 67.6247C8.12401 68.0197 7.30477 68.3987 6.50488 68.7567C7.97954 69.787 9.50666 70.7978 11.0646 71.7843C10.2538 70.5225 9.54152 69.1337 8.95553 67.626C8.95537 67.6255 8.95538 67.625 8.95521 67.6245L8.95502 67.6247Z" fill="#FDB732"/>
<path d="M34.7272 51.6005V51.6015C34.8656 51.8426 34.9995 52.0907 35.1295 52.3444C35.658 52.607 36.1835 52.8655 36.7012 53.1179C36.2586 52.1735 35.7448 51.269 35.5084 50.9399C35.2526 51.1612 34.9911 51.3806 34.7271 51.6004L34.7272 51.6005Z" fill="#FDB732"/>
<path d="M35.8052 53.8091C35.8052 53.8096 35.8057 53.8101 35.8057 53.8105C36.2962 54.9956 36.7087 56.298 37.0299 57.7209C37.3846 57.4249 37.733 57.1289 38.0732 56.8329C37.9451 56.3893 37.4341 54.7787 37.3007 54.5254C36.8077 54.2939 36.3078 54.0538 35.8052 53.8091Z" fill="#FDB732"/>
<path d="M30.7232 46.0063C30.5204 46.1684 30.3142 46.3305 30.1069 46.4931C30.1074 46.4931 30.1074 46.4931 30.1079 46.4936C31.6448 47.5457 33.0302 48.9443 34.1885 50.7198C34.4413 50.5072 34.6907 50.2948 34.9357 50.0812C33.7429 48.4119 32.3492 47.0861 30.8003 46.0583C30.7285 46.0112 30.7674 46.0365 30.7232 46.0063Z" fill="#FDB732"/>
<path d="M17.6697 43.297C16.125 43.435 14.6383 43.7081 13.2324 44.1492C12.2466 44.4588 11.3012 44.8519 10.4028 45.3381C10.1203 45.491 9.84319 45.6545 9.57031 45.8264C10.0164 46.1792 10.4749 46.5319 10.9401 46.8838C12.8015 45.2854 15.2309 44.4998 17.9553 44.1702C18.1294 44.0572 18.3062 43.9461 18.4799 43.832C18.2172 43.652 17.9543 43.4751 17.6971 43.2949C17.6971 43.2949 17.6917 43.2954 17.6694 43.2974L17.6697 43.297Z" fill="#FDB732"/>
<path d="M27.1436 44.2585C25.6447 43.7412 24.0554 43.4229 22.4026 43.2787C22.0304 43.2463 21.6549 43.2223 21.2767 43.2072L21.2437 43.2056C20.9399 43.4169 20.6279 43.6311 20.3188 43.8373C20.3951 43.8873 20.4721 43.9364 20.5484 43.9857C20.9074 43.9755 21.2699 43.9712 21.6353 43.9712C24.2903 43.9712 26.882 44.5875 29.186 45.9133C29.3879 45.7566 29.5888 45.5994 29.7878 45.4422C28.9435 44.9705 28.0618 44.575 27.1436 44.2586V44.2585Z" fill="#FDB732"/>
<path d="M7.05425 47.8481C6.63948 48.9147 6.2682 50.0061 5.94287 51.116C6.87911 50.6346 7.82205 50.1357 8.76937 49.6204C9.17763 48.8528 9.6556 48.1836 10.195 47.6017C10.1955 47.6007 10.1961 47.6002 10.1966 47.5997C9.6846 47.21 9.17908 46.8194 8.68856 46.4282C8.68856 46.4282 7.8869 47.0178 7.14012 47.7559L7.05425 47.8481Z" fill="#FDB732"/>
<path d="M8.60592 66.6689C8.25859 65.6529 7.96729 64.5861 7.73954 63.4715C7.73938 63.471 7.73939 63.4705 7.73923 63.4695C6.82726 62.8358 5.93387 62.1957 5.06752 61.5508C4.82511 61.6638 4.58513 61.773 4.34532 61.8826C4.34532 61.8826 4.34532 61.8831 4.34532 61.8836C4.3406 63.8004 4.49258 65.7027 4.8158 67.5521C5.05707 67.7272 5.29705 67.9025 5.54141 68.0771C6.53484 67.6404 7.56085 67.1668 8.60592 66.6689Z" fill="#FDB732"/>
<path d="M11.7743 73.4179C9.58527 72.0688 7.44771 70.668 5.41834 69.2358C5.33982 69.2702 5.26374 69.3018 5.18555 69.3354C5.18571 69.3359 5.1857 69.3364 5.18587 69.3368C5.69431 71.4501 6.44206 73.4795 7.45161 75.3678C8.83472 74.7801 10.2772 74.1323 11.7743 73.4179Z" fill="#FDB732"/>
<path d="M9.86035 78.9805C9.86182 78.9819 9.86294 78.9839 9.86441 78.9854C10.3245 79.5458 10.8145 80.0845 11.3376 80.6027C11.5593 80.5027 11.7819 80.4019 12.006 80.2989C11.2863 79.8651 10.5715 79.4244 9.86035 78.9805Z" fill="#FDB732"/>
<path d="M7.21565 59.3994C7.09803 57.419 7.15828 55.6837 7.37446 54.1652C7.37446 54.1648 7.37462 54.1643 7.37462 54.1643C6.73732 53.6799 6.1155 53.1943 5.51094 52.708C5.51094 52.7085 5.51078 52.709 5.51078 52.709C4.9331 55.0256 4.55808 57.4029 4.41309 59.7739C4.6713 59.9733 4.9323 60.1724 5.19637 60.3713C5.86105 60.0598 6.53631 59.7327 7.21565 59.3994Z" fill="#FDB732"/>
<path d="M13.1131 79.779C14.3877 79.1787 15.6956 78.5339 17.0225 77.8529C15.4914 76.8605 14.0428 75.5916 12.7526 74.0688L12.7524 74.0684C11.095 74.8676 9.48546 75.6009 7.95264 76.2564C7.95296 76.2569 7.95311 76.2574 7.95343 76.2579C8.05167 76.4234 8.15172 76.587 8.25435 76.7499C9.84142 77.7879 11.4681 78.8045 13.1135 79.7788L13.1131 79.779Z" fill="#FDB732"/>
<path d="M26.6768 80.334C26.6763 80.3345 26.6758 80.335 26.6748 80.335C28.6683 81.2676 30.5793 82.0916 32.346 82.7817C34.2361 81.5506 36.0749 80.2889 37.8159 79.0116C36.527 78.6146 35.1057 78.1062 33.583 77.5059V77.5063C31.8967 78.9748 29.6354 79.9642 26.6768 80.334Z" fill="#FDB732"/>
<path d="M37.8215 64.6745C38.1538 64.4076 38.4834 64.1406 38.8051 63.8733C38.4684 63.7374 38.1248 63.5942 37.7798 63.4492V63.4512C37.7997 63.8514 37.8134 64.2602 37.8215 64.6745Z" fill="#FDB732"/>
<path d="M36.8703 72.3571C37.3303 72.013 37.784 71.6675 38.228 71.3215C37.9121 71.205 37.5879 71.0813 37.2628 70.9561C37.2623 70.9565 37.2622 70.957 37.2622 70.9575C37.1497 71.4374 37.0193 71.9047 36.8703 72.3571Z" fill="#FDB732"/>
<path d="M37.2629 58.8552V58.8566C37.4632 59.9436 37.6128 61.0962 37.7082 62.3165C38.2173 62.533 38.721 62.744 39.2116 62.9416C39.0873 61.8294 38.5347 58.5067 38.3672 57.9351C38.0067 58.2418 37.6371 58.5484 37.2629 58.8552Z" fill="#FDB732"/>
<path d="M36.1299 74.1684C36.1294 74.1689 36.1294 74.1694 36.1289 74.1704C35.6592 75.1123 35.0822 75.9687 34.3843 76.7268C35.8765 77.3033 37.2609 77.7823 38.5061 78.1516C38.5061 78.1516 39.1957 74.5732 39.3654 71.7329L39.361 71.7285C38.3279 72.5466 37.2469 73.3609 36.1299 74.1684Z" fill="#FDB732"/>
<path d="M37.9962 80.1396C36.5593 81.1854 35.0555 82.2156 33.5151 83.225C33.997 83.4036 34.4652 83.571 34.9214 83.7277C35.725 83.2968 36.5044 82.8174 37.2526 82.2914C37.4535 81.756 37.9962 80.1396 37.9962 80.1396Z" fill="#FDB732"/>
<path d="M37.8258 65.9718V65.9757C37.8045 67.3646 37.6914 68.6932 37.4702 69.9433C38.0487 70.1684 38.6169 70.3844 39.1604 70.5799C39.2531 70.5076 39.3409 70.4357 39.4282 70.3587C39.4282 69.6701 39.3613 65.1998 39.3613 64.7393C38.8639 65.1503 38.3484 65.5613 37.8258 65.9718Z" fill="#FDB732"/>
<path d="M16.7823 84.5833C17.2676 84.3417 17.7568 84.095 18.2483 83.8432C16.5229 82.9159 14.7821 81.9423 13.0565 80.9224C12.7436 81.0685 12.4368 81.2073 12.1284 81.3479C12.1291 81.3489 12.1298 81.3493 12.1304 81.3498C12.6278 81.7947 13.1504 82.2209 13.7004 82.6275C14.6734 83.4059 15.7063 84.0556 16.7821 84.5831L16.7823 84.5833Z" fill="#FDB732"/>
<path d="M33.6465 84.3599C33.2563 84.2177 32.8608 84.0713 32.4541 83.915C31.4477 84.558 30.4301 85.1903 29.4048 85.8115C29.4067 85.811 29.4087 85.8105 29.4107 85.81C30.8573 85.4728 32.2795 84.9855 33.6445 84.3611C33.645 84.3606 33.646 84.3599 33.6465 84.3599Z" fill="#FDB732"/>
<path d="M19.33 84.4199C18.8778 84.6548 18.4275 84.8854 17.9785 85.1129H17.9795C19.5983 85.7559 21.2954 86.1417 23.0224 86.2906C23.0243 86.2911 23.0263 86.2911 23.0282 86.2911C21.8136 85.6996 20.5795 85.0779 19.33 84.4199Z" fill="#FDB732"/>
<path d="M31.2849 83.457C29.5078 82.7407 27.5969 81.9013 25.6141 80.959C23.8832 81.9684 22.1425 82.9369 20.4224 83.8482C22.1528 84.7435 23.8508 85.5806 25.49 86.3464C25.8811 86.3309 26.2723 86.3037 26.6629 86.2655C28.2202 85.3605 29.7652 84.42 31.285 83.4572L31.2849 83.457Z" fill="#FDB732"/>
<path d="M18.0379 78.4644C16.7281 79.1452 15.4352 79.7931 14.1689 80.3971C15.8893 81.4065 17.6249 82.3698 19.3403 83.2762C21.0504 82.3799 22.7862 81.4274 24.5113 80.4277C24.4973 80.4209 24.4831 80.4142 24.4691 80.4074H24.4686C22.3213 80.287 20.1202 79.6236 18.0379 78.4644Z" fill="#FDB732"/>
<path d="M20.5449 43.9857H20.5483C20.4721 43.9362 20.3951 43.8871 20.3188 43.8373C20.6279 43.631 20.94 43.4168 21.2437 43.2055C21.2437 43.2055 20.7225 43.1692 20.3721 43.1726C20.0212 43.176 19.4942 43.1952 19.4942 43.1952L19.4102 43.1974L19.3394 43.1987C18.7779 43.2089 18.2432 43.2483 17.6973 43.2948C17.9545 43.4751 18.2174 43.6519 18.48 43.8319C18.3064 43.9459 18.1296 44.057 17.9555 44.1701C17.9579 44.1701 17.9604 44.1696 17.9623 44.1691C18.7979 44.0686 19.6621 44.0109 20.5449 43.9857Z" fill="#E0861C"/>
<path d="M5.51123 52.7078C6.11579 53.194 6.73761 53.6797 7.37491 54.164C7.43063 53.7724 7.49678 53.3954 7.57286 53.0324C7.57286 53.0319 7.57302 53.0315 7.57318 53.0315C7.15189 52.7073 6.73598 52.3826 6.32968 52.0576C6.91892 51.7542 7.51208 51.4418 8.10638 51.1254C8.29991 50.5873 8.521 50.087 8.76748 49.6231C8.76813 49.6221 8.76878 49.6211 8.76943 49.6201C7.82211 50.1354 6.87917 50.6344 5.94293 51.1156C5.9426 51.1166 5.94229 51.1176 5.94213 51.1186C5.78802 51.6446 5.64417 52.1745 5.51123 52.7078Z" fill="#E0861C"/>
<path d="M37.7085 62.3161V62.318C37.7377 62.6893 37.7614 63.0653 37.7798 63.4491C38.1249 63.5943 38.4685 63.7373 38.8052 63.8732C38.4834 64.1405 38.1541 64.4075 37.8216 64.6744V64.6758C37.826 64.9064 37.8284 65.1388 37.8294 65.3731C37.8303 65.574 37.8289 65.7734 37.8259 65.9715C38.3486 65.5609 38.864 65.1499 39.3614 64.7389C39.3459 64.4691 39.3256 64.2026 39.3042 63.9382C39.2964 63.8401 39.2878 63.7437 39.2794 63.6466C39.2581 63.4092 39.2368 63.1725 39.212 62.941C38.7215 62.7436 38.2177 62.5324 37.7087 62.3159L37.7085 62.3161Z" fill="#E0861C"/>
<path d="M35.1305 52.3467C35.3697 52.8136 35.5945 53.3002 35.8055 53.8093C36.3082 54.0538 36.808 54.2941 37.301 54.5256C37.2272 54.3311 37.1491 54.1423 37.071 53.9544C37.0317 53.8598 36.9918 53.7656 36.9515 53.6729C36.9044 53.5648 36.8564 53.4589 36.8079 53.3527C36.773 53.2754 36.7389 53.1954 36.7031 53.1192C36.7026 53.1187 36.7021 53.1187 36.7011 53.1182C36.1834 52.8659 35.6579 52.6072 35.1294 52.3447C35.1299 52.3452 35.13 52.3462 35.1305 52.3467Z" fill="#E0861C"/>
<path d="M34.1893 50.7198C34.3747 51.0038 34.5537 51.2973 34.7274 51.6005C34.9913 51.3808 35.2529 51.1613 35.5087 50.9401C35.4204 50.794 35.3287 50.6524 35.235 50.5126C35.2287 50.5033 35.2225 50.4937 35.2161 50.4844C35.1362 50.3655 35.0545 50.2485 34.973 50.1321C34.961 50.1151 34.9488 50.0972 34.9372 50.0796C34.9367 50.0801 34.9363 50.0801 34.9363 50.0806C34.6912 50.2941 34.4418 50.5066 34.189 50.7192L34.1895 50.7197L34.1893 50.7198Z" fill="#E0861C"/>
<path d="M11.066 71.7869C11.0655 71.786 11.065 71.785 11.0645 71.7845C9.50658 70.7979 7.97946 69.7872 6.5048 68.757C7.30468 68.3989 8.12397 68.0198 8.95497 67.6249C8.83344 67.3124 8.71713 66.9936 8.60668 66.6709C8.60651 66.6699 8.6062 66.6694 8.60604 66.6689C7.56097 67.1668 6.53496 67.6404 5.54154 68.0771C5.29701 67.9025 5.05702 67.7272 4.81592 67.5521C4.81608 67.5531 4.81627 67.554 4.81644 67.555C4.92135 68.1553 5.04384 68.7478 5.18525 69.3355C5.26345 69.3019 5.33952 69.2705 5.41804 69.2359C7.44741 70.6679 9.58493 72.0689 11.774 73.418C10.2768 74.1323 8.83442 74.7801 7.45131 75.3679C7.45164 75.3683 7.45198 75.3688 7.45231 75.3698C7.61229 75.6687 7.77928 75.9648 7.95245 76.2569C9.48527 75.6013 11.0948 74.868 12.7523 74.0688C12.1534 73.3623 11.5896 72.6018 11.0658 71.7871L11.066 71.7869Z" fill="#E0861C"/>
<path d="M37.0303 57.7209C37.0303 57.7209 37.0308 57.7209 37.0308 57.7214C37.1142 58.0907 37.1914 58.4686 37.2627 58.8549C37.637 58.5481 38.0066 58.2415 38.3673 57.9348C38.3362 57.8013 38.3018 57.6704 38.2682 57.5392C38.2415 57.4359 38.2143 57.333 38.1863 57.231C38.1499 57.0976 38.113 56.9642 38.0737 56.8325C37.7336 57.1285 37.3851 57.4245 37.0304 57.7205L37.0303 57.7209Z" fill="#E0861C"/>
<path d="M39.1603 70.58C38.6169 70.3845 38.0486 70.1685 37.4702 69.9434C37.4702 69.9443 37.4696 69.9453 37.4696 69.9463C37.409 70.2889 37.3402 70.6251 37.2629 70.9562C37.5881 71.0814 37.9123 71.2051 38.2281 71.3216C37.7841 71.6676 37.3303 72.0131 36.8705 72.3572C36.8705 72.3577 36.8705 72.3582 36.87 72.3582C36.6613 72.9909 36.4153 73.5956 36.1299 74.1688C37.247 73.3612 38.3282 72.547 39.3612 71.7288L39.3666 71.7342C39.3724 71.6474 39.3763 71.5581 39.3816 71.4708C39.3918 71.2927 39.4014 71.1142 39.4092 70.9332C39.4171 70.7434 39.4238 70.5528 39.4282 70.3591C39.3409 70.4363 39.253 70.508 39.1603 70.5803V70.58Z" fill="#E0861C"/>
<path d="M33.6467 84.3599C34.0771 84.1629 34.5026 83.9518 34.921 83.7276H34.9214C34.4653 83.5709 33.9971 83.4034 33.5152 83.2249C35.0553 82.2155 36.5593 81.1852 37.9962 80.1395L38.5063 78.1514C37.2611 77.7821 35.8766 77.3031 34.3845 76.7266C34.384 76.7266 34.384 76.727 34.384 76.727C34.1326 76.9998 33.8663 77.2594 33.5833 77.5059C35.106 78.1062 36.5274 78.6147 37.8162 79.0117C36.075 80.2889 34.2364 81.5507 32.3463 82.7818C30.5794 82.0917 28.6685 81.2677 26.6751 80.335C26.6761 80.335 26.6766 80.3345 26.6771 80.334C26.6692 80.335 26.6626 80.336 26.6548 80.337C26.1675 80.3971 25.6735 80.4272 25.1762 80.4272C24.9412 80.4272 24.706 80.4204 24.4696 80.4073C24.4836 80.4142 24.4978 80.4209 24.5118 80.4277C22.7868 81.4273 21.051 82.3799 19.3409 83.2762C17.6255 82.3698 15.8898 81.4065 14.1695 80.3971C15.4358 79.7929 16.7285 79.1451 18.0384 78.4643C17.6963 78.2736 17.3581 78.0702 17.0229 77.8529C15.696 78.5337 14.3883 79.1787 13.1135 79.779C11.4681 78.8046 9.84146 77.7879 8.25439 76.75C8.25537 76.7515 8.25632 76.753 8.2573 76.7549C8.74244 77.5255 9.27664 78.2695 9.86035 78.9808C10.5714 79.4248 11.2863 79.8653 12.006 80.2992C11.7819 80.402 11.5592 80.503 11.3376 80.603C11.3376 80.6035 11.3378 80.6035 11.3378 80.6035C11.5932 80.8568 11.8578 81.1057 12.1287 81.3478C12.4373 81.2071 12.7438 81.0683 13.0568 80.9223C14.7823 81.9423 16.5232 82.9158 18.2486 83.8431C17.7571 84.095 17.2679 84.3415 16.7825 84.5832C17.1755 84.7759 17.5751 84.9525 17.9788 85.1132C18.4276 84.8856 18.878 84.6551 19.3303 84.4202C20.5798 85.0781 21.8139 85.6998 23.0285 86.2913C23.5793 86.3389 24.134 86.3627 24.6891 86.3627C24.9539 86.3627 25.22 86.3573 25.4853 86.3467C25.4868 86.3467 25.4888 86.3462 25.4902 86.3462C23.851 85.5806 22.153 84.7434 20.4226 83.848C22.1429 82.9367 23.8835 81.968 25.6144 80.9588C27.5971 81.9012 29.5081 82.7407 31.2851 83.4569C29.7653 84.4197 28.2201 85.3601 26.663 86.2651C26.6645 86.2646 26.6665 86.2646 26.6684 86.2646C27.5856 86.1744 28.5003 86.022 29.4053 85.8114C30.4306 85.1902 31.4482 84.558 32.4546 83.915C32.8613 84.0712 33.2568 84.2178 33.647 84.3599H33.6467Z" fill="#E0861C"/>
<path d="M10.9393 46.8851C10.9396 46.8846 10.9399 46.8846 10.9402 46.8841C10.4746 46.5317 10.0159 46.179 9.56937 45.8257L8.68848 46.4284C9.179 46.8196 9.68468 47.2103 10.1965 47.5999C10.4326 47.3451 10.6806 47.1075 10.9393 46.8851Z" fill="#E0861C"/>
<path d="M5.06774 61.5506C5.9341 62.1956 6.82748 62.8357 7.73945 63.4694C7.64447 63.0044 7.56073 62.5314 7.4884 62.05V62.0495C7.0259 61.7214 6.56879 61.392 6.1185 61.0614C6.50835 60.8755 6.90339 60.683 7.29861 60.4903C7.27661 60.2573 7.25739 60.0225 7.24093 59.7862C7.23181 59.6571 7.22369 59.5294 7.21604 59.4019C7.21604 59.4009 7.21604 59.4004 7.21588 59.3994C6.53638 59.7327 5.86128 60.0599 5.19661 60.3713C4.93237 60.1724 4.67153 59.9733 4.41332 59.7739V59.7744C4.37031 60.478 4.3475 61.1812 4.3457 61.8825C4.58551 61.7729 4.82517 61.6637 5.06774 61.5506Z" fill="#E0861C"/>
<path d="M30.1075 46.4925C30.3147 46.3299 30.5209 46.1678 30.7237 46.0057C30.4199 45.8049 30.1055 45.6141 29.7916 45.439C29.5917 45.5972 29.3893 45.7553 29.1865 45.913L29.187 45.9135C29.4995 46.0935 29.8061 46.2863 30.1075 46.4925Z" fill="#E0861C"/>
<path d="M7.52466 88.6949C8.76603 88.2213 10.0844 87.6801 11.4597 87.0775C9.68269 86.0372 7.91609 84.9506 6.20081 83.8325C5.54673 84.0746 4.91826 84.3012 4.3106 84.5074C4.3106 84.5074 4.30504 84.5006 4.40343 84.6764C5.25887 86.2094 6.25702 87.4934 7.37491 88.5571C7.38012 88.562 7.38537 88.5668 7.39058 88.5721C7.41013 88.5905 7.42918 88.6098 7.44889 88.6284C7.51894 88.6939 7.52466 88.6949 7.52466 88.6949Z" fill="#F79427"/>
<path d="M14.8229 92.4291C15.9252 91.924 17.0586 91.3834 18.2072 90.8167C16.3374 89.8433 14.4367 88.8028 12.5412 87.7109C11.0992 88.3549 9.70856 88.9367 8.40039 89.4467C8.43949 89.4774 8.47941 89.5069 8.51883 89.5375C8.59573 89.5966 8.67228 89.6569 8.75031 89.7146C8.75145 89.7155 8.75244 89.716 8.75342 89.717C8.82412 89.7695 8.89596 89.8195 8.96747 89.8698C9.02384 89.9101 9.07973 89.9518 9.13659 89.9912C9.16379 90.0101 9.19163 90.0275 9.219 90.0461C9.29899 90.101 9.37946 90.1547 9.46026 90.2072C9.48356 90.2227 9.50637 90.2388 9.52966 90.2538C9.57251 90.2815 9.6162 90.3072 9.6592 90.3343C9.74457 90.3882 9.8296 90.442 9.91594 90.4939C9.96905 90.526 10.0229 90.5565 10.0765 90.5881C10.1564 90.6347 10.2359 90.6818 10.3164 90.7269C10.3739 90.759 10.432 90.7899 10.49 90.8211C10.5676 90.8632 10.6451 90.9059 10.7233 90.9467C10.7833 90.9783 10.844 91.0077 10.9045 91.0384C10.9818 91.0776 11.0593 91.1171 11.1373 91.1549C11.1992 91.1845 11.2617 91.213 11.324 91.2422C11.4014 91.2785 11.4786 91.315 11.5565 91.3499C11.6206 91.3785 11.6856 91.4062 11.7501 91.4342C11.827 91.4673 11.9041 91.5007 11.9816 91.5328C12.0479 91.5605 12.1147 91.5867 12.1815 91.6133C12.2584 91.6439 12.3351 91.6749 12.4125 91.704C12.4808 91.7303 12.5495 91.7555 12.6181 91.7808C12.695 91.8089 12.7719 91.8371 12.8491 91.8637C12.9187 91.8884 12.9887 91.9117 13.0588 91.9355C13.1363 91.9613 13.2139 91.9875 13.2919 92.0123C13.3624 92.0351 13.4333 92.0569 13.5042 92.0787C13.5827 92.1025 13.6614 92.1268 13.7406 92.1496C13.8118 92.1704 13.8833 92.1908 13.955 92.2107C14.0343 92.2325 14.1138 92.2543 14.1936 92.2757C14.266 92.2946 14.3386 92.3135 14.4113 92.3316C14.4914 92.3519 14.5719 92.3718 14.6525 92.3907C14.6879 92.3995 14.7227 92.4086 14.7581 92.4169C14.7623 92.4179 14.8226 92.429 14.8226 92.429L14.8229 92.4291Z" fill="#F79427"/>
<path d="M3.84185 83.5855C4.26411 83.4462 4.69697 83.2973 5.14497 83.1377C4.4342 82.669 3.73891 82.1948 3.05371 81.7212C3.12425 81.9177 3.6677 83.1726 3.84185 83.5855Z" fill="#F79427"/>
<path d="M25.4898 86.3463C25.4883 86.3463 25.4863 86.3468 25.4849 86.3468C25.6781 86.437 25.8706 86.5263 26.0619 86.6141C26.2642 86.4981 26.4661 86.3816 26.6679 86.2646C26.666 86.2646 26.664 86.2646 26.6625 86.2651C26.2719 86.3034 25.8807 86.3306 25.4896 86.3461L25.4898 86.3463Z" fill="#F79427"/>
<path d="M4.413 59.7745V59.774C4.55799 57.403 4.93302 55.0257 5.5107 52.7091C5.45205 52.662 5.3937 52.615 5.33538 52.5679C4.68146 52.8974 4.03259 53.2167 3.38893 53.5307C2.89352 54.7321 2.46852 56.0598 2.12184 57.5259C2.12087 57.5298 2.11988 57.5342 2.1189 57.5384C2.09332 57.6466 2.06968 57.7587 2.04492 57.869C2.80457 58.5071 3.59389 59.1423 4.413 59.7745Z" fill="#F79427"/>
<path d="M35.8756 85.1193C35.1715 84.8991 34.4258 84.6448 33.6449 84.3608C32.2799 84.9854 30.8575 85.4725 29.4111 85.8098C28.6768 86.2552 27.9379 86.6934 27.1953 87.1238C29.0329 87.9419 30.7775 88.6573 32.3833 89.2498C33.7042 88.1594 34.8811 86.8006 35.8758 85.1192L35.8756 85.1193Z" fill="#F79427"/>
<path d="M7.9532 76.2578C7.86148 76.2966 7.77027 76.3355 7.6792 76.3743C7.87111 76.5014 8.06381 76.6281 8.25702 76.7547C8.25604 76.7527 8.25505 76.7513 8.25408 76.7498C8.15161 76.5867 8.05159 76.4232 7.9532 76.2578Z" fill="#F79427"/>
<path d="M1.0376 68.2156C1.0376 68.9827 1.06283 69.7034 1.06544 69.9102C2.1369 69.5084 3.26997 69.055 4.4496 68.5505C3.28039 67.7057 2.15241 66.8559 1.08111 66.0063C1.08111 66.0063 1.06886 66.1525 1.06707 66.2519C1.06528 66.3514 1.0376 67.4815 1.0376 68.2157V68.2156Z" fill="#F79427"/>
<path d="M4.25995 51.6774C4.19039 51.8074 4.12376 51.9433 4.05615 52.0772C4.1943 52.0053 4.33733 51.9335 4.48053 51.8622C4.40869 51.8006 4.33179 51.7388 4.25995 51.6772V51.6774Z" fill="#F79427"/>
<path d="M17.9793 85.1133C16.5132 85.8557 15.0722 86.5531 13.6797 87.1966C15.5701 88.2729 17.4655 89.3032 19.325 90.2557C21.1846 89.3133 23.0848 88.2987 24.9856 87.2272C24.3382 86.9253 23.6832 86.6134 23.0222 86.2911C21.2952 86.1422 19.5982 85.7563 17.9793 85.1135V85.1133Z" fill="#F79427"/>
<path d="M13.7002 82.6273C13.1502 82.2207 12.6276 81.7945 12.1302 81.3496C10.4667 82.1096 8.87133 82.7918 7.375 83.379C9.08507 84.4815 10.8364 85.5476 12.5979 86.5725C13.9517 85.9611 15.3514 85.2948 16.7821 84.5829C15.7061 84.0554 14.6731 83.4057 13.7002 82.6273Z" fill="#F79427"/>
<path d="M19.3198 91.3888C18.3774 91.8624 17.4452 92.3156 16.5337 92.748C17.4364 92.8775 18.3614 92.9547 19.3046 92.9849C19.3162 92.9853 19.3279 92.9853 19.3395 92.9853C19.6424 92.9951 19.947 92.9998 20.2533 92.9998H20.3838C20.4002 92.9998 20.4168 92.9989 20.4338 92.9984C20.7818 92.9964 21.1273 92.9886 21.4703 92.9746C21.5034 92.9731 21.5364 92.9717 21.5694 92.9702C21.8571 92.9576 22.1415 92.9376 22.4253 92.9158C21.4073 92.4319 20.3688 91.9233 19.3196 91.3887L19.3198 91.3888Z" fill="#F79427"/>
<path d="M26.1136 87.7471C24.2133 88.834 22.3126 89.8589 20.4429 90.8222C21.7716 91.4865 23.074 92.1144 24.3405 92.6963C24.4681 92.6764 24.5958 92.6555 24.7228 92.6332C24.7461 92.6293 24.7699 92.6249 24.7932 92.6207C24.9426 92.5935 25.0912 92.5653 25.2386 92.5358C25.2595 92.5314 25.2798 92.527 25.3002 92.5233C25.4559 92.4912 25.6107 92.4573 25.7651 92.4218C25.7754 92.4193 25.785 92.4174 25.7953 92.4149C27.8364 91.9413 29.7341 91.1571 31.4267 89.9819C29.7738 89.3486 27.9824 88.5968 26.1136 87.7471Z" fill="#F79427"/>
<path d="M1.87443 77.4922C3.00763 77.1214 4.23353 76.6736 5.53143 76.1581C4.04797 75.1433 2.61095 74.1133 1.24609 73.0728C1.24609 73.0728 1.25535 73.2459 1.27946 73.4926C1.27963 73.494 1.27962 73.495 1.27978 73.4965C1.43618 75.1008 1.87443 77.4922 1.87443 77.4922Z" fill="#F79427"/>
<path d="M11.3373 80.6035L11.3371 80.6031C10.814 80.0848 10.324 79.5461 9.86391 78.9857C8.74098 78.2845 7.63173 77.5711 6.54578 76.8486C4.9491 77.4975 3.4503 78.0535 2.09033 78.4966L2.51276 80.0936C3.74371 80.9743 5.02125 81.8444 6.3242 82.6996C7.88944 82.1046 9.57246 81.4 11.3371 80.6037L11.3373 80.6035Z" fill="#F79427"/>
<path d="M5.18553 69.3366C3.75062 69.9592 2.3822 70.5076 1.10156 70.9817C1.10156 70.9817 1.11443 71.3 1.13919 71.7091C2.86929 73.0581 4.72842 74.3915 6.66445 75.6999C6.92461 75.5922 7.18738 75.482 7.45227 75.3693C7.45194 75.3683 7.4516 75.3678 7.45127 75.3674C6.44172 73.4792 5.69397 71.4499 5.18553 69.3364V69.3366Z" fill="#F79427"/>
<path d="M5.47475 51.3577C5.63033 51.2785 5.78609 51.199 5.94216 51.1189C5.94248 51.1179 5.94279 51.1169 5.94295 51.116C6.26829 50.0062 6.63956 48.9147 7.05433 47.8481C6.22072 48.6862 5.45717 49.6573 4.7749 50.7758C5.0064 50.9666 5.23804 51.1621 5.47475 51.3576V51.3577Z" fill="#F79427"/>
<path d="M36.383 84.2034C36.694 83.6031 36.9843 82.9664 37.2526 82.2915C36.5044 82.8175 35.725 83.297 34.9214 83.7279H34.9209C35.4246 83.9011 35.9123 84.0597 36.383 84.2034Z" fill="#F79427"/>
<path d="M1.35416 62.0917C2.26076 61.7103 3.19292 61.2983 4.151 60.8605C3.34752 60.2477 2.56458 59.6294 1.81259 59.0117C1.87237 58.6618 1.9449 58.3211 2.01837 57.9878C1.99784 58.0805 1.97632 58.1712 1.95644 58.2649C1.954 58.2766 1.95157 58.2877 1.94913 58.299C1.897 58.5459 1.847 58.7968 1.7991 59.0511C1.79796 59.057 1.79678 59.0627 1.79564 59.0685C1.64902 59.8503 1.52264 60.668 1.4174 61.522C1.41251 61.5622 1.40809 61.6034 1.4032 61.6443C1.38219 61.818 1.35416 62.0917 1.35416 62.0917Z" fill="#F79427"/>
<path d="M4.81619 67.5518C4.49314 65.7024 4.34099 63.8001 4.34572 61.8833C3.28045 62.3696 2.24176 62.8228 1.241 63.2348C1.241 63.2348 1.22616 63.4052 1.21785 63.509C1.20286 63.6963 1.18869 63.8851 1.17549 64.0753C1.16767 64.1893 1.16003 64.3038 1.15286 64.4188C1.14635 64.5236 1.14079 64.63 1.13477 64.7352C2.29729 65.6811 3.53281 66.6228 4.81671 67.5545C4.81654 67.5535 4.81635 67.5526 4.81619 67.5516V67.5518Z" fill="#F79427"/>
<path d="M1.24587 73.0729C2.61073 74.1132 4.04775 75.1435 5.53121 76.1582C4.23314 76.6735 3.00724 77.1215 1.8742 77.4923C1.94116 77.8378 2.01331 78.1672 2.09053 78.4968C3.45034 78.0537 4.94913 77.4977 6.54597 76.8488C7.63193 77.5713 8.74117 78.2847 9.86411 78.9859C9.86281 78.9844 9.86152 78.9824 9.86005 78.981C9.27635 78.2695 8.74215 77.5257 8.25701 76.7551C8.06379 76.6285 7.87109 76.5018 7.67918 76.3747C7.77025 76.336 7.86162 76.297 7.95318 76.2582C7.95302 76.2578 7.95271 76.2573 7.95238 76.2568C7.77921 75.9647 7.61222 75.6687 7.45224 75.3697C7.18735 75.4823 6.92458 75.5924 6.66442 75.7003C4.7284 74.3919 2.86943 73.0585 1.13916 71.7095C1.14193 71.7541 1.14486 71.7988 1.14763 71.8434C1.14959 71.8745 1.15136 71.9059 1.15348 71.9371C1.15364 71.94 1.15383 71.9429 1.15415 71.9459C1.1812 72.3287 1.21182 72.7063 1.24603 73.0732L1.24587 73.0729Z" fill="#DD701D"/>
<path d="M34.9213 83.7275C34.5029 83.9517 34.0774 84.1628 33.647 84.3598C33.6465 84.3598 33.6455 84.3603 33.645 84.3608C34.4258 84.6447 35.1716 84.8989 35.8757 85.1193V85.1188C36.0504 84.8238 36.2198 84.5185 36.3833 84.2031C35.9127 84.0594 35.425 83.9007 34.9213 83.7275Z" fill="#DD701D"/>
<path d="M20.4427 90.8222C22.3125 89.8589 24.2133 88.834 26.1135 87.7471C27.9822 88.5968 29.7739 89.3485 31.4266 89.9817C31.4421 89.9705 31.4582 89.9594 31.4737 89.9487L32.3141 89.3071L32.3875 89.2512C32.386 89.2508 32.3845 89.2503 32.3831 89.2498C30.7773 88.6573 29.0328 87.9419 27.195 87.1238C27.9374 86.6934 28.6766 86.2552 29.4108 85.8098C29.4088 85.8103 29.4069 85.8108 29.4049 85.8112C28.4999 86.0219 27.5852 86.1742 26.668 86.2645C26.4662 86.3814 26.2643 86.4979 26.062 86.6139C25.8707 86.5261 25.6782 86.4368 25.485 86.3466C25.2196 86.3573 24.9536 86.3625 24.6887 86.3625C24.1335 86.3625 23.5789 86.3387 23.0281 86.2912C23.0262 86.2912 23.0242 86.2912 23.0223 86.2907C23.6832 86.6129 24.3382 86.9249 24.9857 87.2268C23.0848 88.2982 21.1846 89.313 19.325 90.2553C17.4656 89.3027 15.5701 88.2725 13.6797 87.1961C15.0723 86.5526 16.5132 85.8554 17.9794 85.1128H17.9784C17.5747 84.9522 17.1753 84.7756 16.7823 84.5829C15.3516 85.2948 13.9519 85.9611 12.5981 86.5725C10.8366 85.5476 9.08546 84.4816 7.37523 83.379C8.87156 82.7919 10.467 82.1096 12.1304 81.3496C12.1298 81.3491 12.1291 81.3486 12.1285 81.3477C11.8575 81.1056 11.5931 80.8567 11.3375 80.6033C9.57272 81.3996 7.8897 82.1042 6.32462 82.6992C5.02151 81.8441 3.74413 80.9741 2.51318 80.0933C2.59382 80.3704 2.67857 80.6411 2.76654 80.9065C2.76751 80.9094 2.76846 80.9129 2.76944 80.9158C2.77188 80.9231 2.77436 80.9303 2.7768 80.9376C2.77859 80.943 2.78054 80.9479 2.78233 80.9531C2.86948 81.2137 2.95973 81.4698 3.05406 81.7207C3.73909 82.1943 4.43438 82.6684 5.14532 83.1372C4.69715 83.2969 4.26446 83.4458 3.8422 83.5851C3.91094 83.7322 3.98116 83.8762 4.05252 84.0184C4.05398 84.0213 4.05546 84.0243 4.05693 84.0277C4.07241 84.0583 4.08838 84.0878 4.10402 84.1184C4.10744 84.1253 4.11102 84.1315 4.11444 84.1378C4.17879 84.2631 4.24348 84.3872 4.31092 84.5071C4.91874 84.3009 5.54709 84.0743 6.20117 83.8322C7.91629 84.9503 9.68305 86.0367 11.4601 87.0772C10.0848 87.68 8.76618 88.221 7.52497 88.6946C7.6105 88.7755 7.69681 88.8552 7.78413 88.9329C7.78527 88.9339 7.78657 88.9354 7.78771 88.9363C7.80824 88.9543 7.82943 88.9704 7.84996 88.9883C7.85159 88.9898 7.85322 88.9912 7.85485 88.9927C8.00407 89.1222 8.15493 89.2485 8.30806 89.3711C8.32012 89.3809 8.33152 89.3915 8.34358 89.4013C8.35238 89.4081 8.36083 89.4158 8.36963 89.4231C8.37061 89.4236 8.37175 89.4246 8.37273 89.4256C8.37648 89.4285 8.38024 89.4314 8.38399 89.4339C8.38953 89.4383 8.39492 89.4427 8.40045 89.4469H8.40077C9.70894 88.9368 11.0995 88.3551 12.5416 87.7111C14.4371 88.8029 16.3376 89.8434 18.2076 90.8168C17.0591 91.3836 15.9257 91.9241 14.8233 92.4293C14.9585 92.4614 15.0941 92.4918 15.2301 92.5205C15.2304 92.5205 15.2308 92.521 15.2311 92.521C15.2577 92.5264 15.2847 92.5308 15.3114 92.536C15.3749 92.549 15.4393 92.5603 15.5031 92.5723C15.6002 92.5912 15.697 92.6106 15.7946 92.6282C15.8032 92.6297 15.8119 92.6316 15.8205 92.6331C15.8448 92.6375 15.8687 92.6424 15.893 92.6466C16.0859 92.6802 16.2802 92.7101 16.4754 92.7388C16.476 92.7388 16.4767 92.7393 16.4773 92.7393C16.4962 92.7422 16.5148 92.7457 16.5337 92.7481C17.4452 92.3157 18.3774 91.8625 19.3198 91.3889C20.3689 91.9238 21.4075 92.4322 22.4255 92.9161C22.4275 92.9166 22.4294 92.9175 22.4309 92.9185C22.5037 92.9131 22.576 92.9078 22.6477 92.9021C22.6507 92.9016 22.6531 92.9011 22.6556 92.9011C22.7623 92.8918 22.8672 92.8778 22.9734 92.867C23.1694 92.8476 23.3655 92.8283 23.56 92.8045C23.6037 92.7991 23.6483 92.7962 23.692 92.7905C23.8963 92.7637 24.0991 92.7341 24.3 92.7031C24.3053 92.7022 24.3107 92.7017 24.3154 92.7007C24.3242 92.6997 24.3329 92.6983 24.3416 92.6973C24.3416 92.6968 24.3412 92.6968 24.3412 92.6968C24.3407 92.6968 24.3407 92.6963 24.3402 92.6963C23.0738 92.1146 21.7714 91.4865 20.4427 90.8222Z" fill="#DD701D"/>
<path d="M5.94198 51.1188C5.78591 51.1988 5.63014 51.2785 5.47456 51.3576C5.23786 51.1621 5.00621 50.9665 4.77472 50.7759C4.59747 51.0665 4.42594 51.3669 4.25994 51.6774C4.33178 51.739 4.40868 51.8007 4.48052 51.8623C4.33732 51.9337 4.19429 52.0055 4.05614 52.0774C4.055 52.0779 4.05402 52.0783 4.05304 52.0788C4.01052 52.1618 3.96866 52.2458 3.92712 52.3302C3.88215 52.4224 3.83914 52.518 3.79515 52.6122C3.7554 52.6971 3.71501 52.7807 3.67607 52.8665C3.5837 53.0713 3.49311 53.279 3.40498 53.4916C3.3996 53.5046 3.39405 53.5178 3.38867 53.5313C3.38867 53.5313 3.38902 53.5313 3.38935 53.5308C4.03301 53.2169 4.68188 52.8976 5.3358 52.5681C5.39396 52.6151 5.45243 52.6622 5.51108 52.7093C5.51108 52.7093 5.51123 52.7088 5.51123 52.7083C5.64417 52.1749 5.78802 51.6452 5.94213 51.1191L5.94198 51.1188Z" fill="#DD701D"/>
<path d="M4.41305 59.7742C3.59394 59.142 2.80462 58.5068 2.04497 57.8687C2.04481 57.8682 2.0445 57.8682 2.04418 57.8677C2.03538 57.9069 2.02708 57.9482 2.01828 57.9876C1.94481 58.3209 1.87229 58.6615 1.8125 59.0115C2.56449 59.6292 3.34727 60.2475 4.15091 60.8603C3.19284 61.2981 2.26067 61.7101 1.35408 62.0914C1.31286 62.4676 1.27689 62.8431 1.24072 63.2347C2.24164 62.8227 3.28033 62.3695 4.34544 61.8832C4.34544 61.8828 4.34544 61.8823 4.34544 61.8823C4.34723 61.1811 4.37004 60.478 4.41305 59.7742Z" fill="#DD701D"/>
<path d="M1.08106 66.0064C2.15236 66.8561 3.28035 67.7059 4.44955 68.5505C3.26992 69.0552 2.13689 69.5084 1.06543 69.9102C1.06804 70.0922 1.07328 70.2717 1.07963 70.4493C1.07979 70.4522 1.07978 70.4546 1.07995 70.4576C1.0863 70.6342 1.09397 70.8085 1.10162 70.9816C2.38226 70.5076 3.75068 69.9592 5.18559 69.3366C5.18543 69.3361 5.18543 69.3356 5.18527 69.3351C5.04386 68.7475 4.92137 68.155 4.81646 67.5547C3.53256 66.623 2.29704 65.681 1.13452 64.7353C1.13386 64.7349 1.13322 64.7344 1.13257 64.7339C1.13045 64.7746 1.12863 64.8158 1.12668 64.8567C1.12538 64.8844 1.12425 64.9121 1.12278 64.9396C1.10568 65.2901 1.08954 65.6442 1.0809 66.0062L1.08106 66.0064Z" fill="#DD701D"/>
<path d="M34.1161 69.6701C32.8404 71.3743 30.8333 72.6074 27.8319 72.9762C27.7833 72.9821 27.7348 72.9874 27.6862 72.9926C27.4339 73.1489 27.1811 73.3041 26.9272 73.4591C28.6942 74.3093 30.4094 75.0919 32.0268 75.7771C33.704 74.6546 35.3295 73.5113 36.8698 72.3579C36.8703 72.3579 36.8703 72.3575 36.8703 72.357C37.0192 71.9047 37.1498 71.4373 37.2624 70.9574C36.2569 70.5697 35.2063 70.1407 34.116 69.6699L34.1161 69.6701Z" fill="#FFCA55"/>
<path d="M36.0215 62.6924C36.0404 63.9507 35.9254 65.1997 35.6323 66.3727C36.383 65.8093 37.1138 65.2434 37.8213 64.6761V64.6747C37.813 64.2602 37.7995 63.8516 37.7796 63.4514C37.2046 63.2098 36.6184 62.9565 36.0215 62.6924Z" fill="#FFCA55"/>
<path d="M24.8157 73.5471C23.0232 72.6508 21.1893 71.6823 19.3507 70.6626C17.5067 71.6774 15.673 72.6353 13.8857 73.516C15.6937 74.6029 17.5222 75.6483 19.3404 76.6323C21.1582 75.6589 22.9975 74.6288 24.8157 73.5471Z" fill="#FFCA55"/>
<path d="M10.8622 65.568C9.80056 64.8784 8.75744 64.1787 7.73975 63.4712C7.96749 64.5858 8.2588 65.6524 8.60612 66.6686C8.60628 66.6691 8.60643 66.6696 8.60676 66.6706C9.34865 66.3169 10.1015 65.9486 10.8622 65.568Z" fill="#FFCA55"/>
<path d="M21.3672 45.7264C20.7043 45.3039 20.0473 44.8762 19.397 44.4453C17.3157 45.8152 15.168 47.139 12.9995 48.4008C13.7088 48.9103 14.4325 49.4168 15.1682 49.9186C16.5506 47.1947 18.8758 45.9793 21.3672 45.7264Z" fill="#FFCA55"/>
<path d="M12.562 56.6315C12.9981 56.3932 13.4348 56.1521 13.8715 55.9076C13.9173 53.887 14.233 52.2211 14.7509 50.8642C13.8249 50.2359 12.917 49.6 12.0314 48.9619C10.7193 49.7116 9.40745 50.4346 8.10547 51.1276C7.8945 51.7153 7.71611 52.3485 7.57307 53.0314C7.57291 53.0314 7.57292 53.0319 7.57275 53.0324C9.14809 54.2446 10.823 55.449 12.562 56.6315Z" fill="#FFCA55"/>
<path d="M32.1346 76.9204C30.3586 78.0943 28.5305 79.2375 26.6768 80.3342C29.6354 79.9644 31.8967 78.975 33.583 77.5066C33.1099 77.3197 32.6268 77.1242 32.1346 76.9204Z" fill="#FFCA55"/>
<path d="M24.4688 80.4075C22.7931 79.5943 21.0768 78.7154 19.3405 77.7808C18.9047 78.0118 18.4704 78.2398 18.0381 78.4645C20.1204 79.6238 22.3216 80.2871 24.4688 80.4075Z" fill="#FFCA55"/>
<path d="M11.5526 57.1722C10.1067 56.1822 8.70718 55.1772 7.37474 54.165C7.1584 55.6834 7.09831 57.4187 7.21593 59.3992C7.21609 59.4002 7.21609 59.4006 7.21609 59.4016C8.6365 58.7044 10.0864 57.9592 11.5526 57.1722Z" fill="#FFCA55"/>
<path d="M12.8507 72.8974C14.6328 72.0273 16.4613 71.0844 18.3105 70.0799C16.1368 68.8493 13.9683 67.5512 11.8514 66.2017C10.8736 66.6985 9.90598 67.1741 8.95557 67.626C9.54155 69.1337 10.2539 70.5225 11.0646 71.7843C11.0651 71.7847 11.0655 71.7857 11.066 71.7867C11.6566 72.1609 12.252 72.531 12.8507 72.8974Z" fill="#FFCA55"/>
<path d="M12.7989 74.0461C12.7834 74.0539 12.7679 74.0611 12.7524 74.0689C14.0429 75.5916 15.4913 76.8607 17.0223 77.8529C17.4377 77.6399 17.8554 77.4235 18.2743 77.2036C16.4456 76.1991 14.6121 75.1431 12.7989 74.0459V74.0461Z" fill="#FFCA55"/>
<path d="M11.9131 65.0376C12.9293 64.5174 13.9571 63.9768 14.9896 63.4177C14.4872 62.011 14.1358 60.4658 13.9763 58.7937C13.4787 58.4705 12.9847 58.1443 12.4952 57.8164C10.7409 58.7685 8.99684 59.6633 7.29883 60.4922C7.34852 61.0207 7.41206 61.5394 7.48847 62.0495V62.0499C8.91474 63.0623 10.3962 64.0619 11.9129 65.0377L11.9131 65.0376Z" fill="#FFCA55"/>
<path d="M15.3584 64.3643C14.5337 64.8101 13.712 65.2445 12.8965 65.6662C14.6377 66.7678 16.4173 67.8344 18.1979 68.8519C17.072 67.6078 16.0962 66.1033 15.3584 64.3643Z" fill="#FFCA55"/>
<path d="M20.4113 77.2091C22.1626 78.1359 23.8883 79.0119 25.5673 79.815C27.4112 78.7333 29.2348 77.6056 31.0114 76.4415C29.379 75.7359 27.6587 74.9477 25.8918 74.0825C24.0735 75.169 22.2347 76.2201 20.4111 77.2091H20.4113Z" fill="#FFCA55"/>
<path d="M13.8739 57.062C13.7507 57.1299 13.6274 57.1979 13.5044 57.2653C13.6326 57.3507 13.7612 57.4357 13.8899 57.5206C13.8832 57.3663 13.8778 57.2129 13.8739 57.062Z" fill="#FFCA55"/>
<path d="M35.1306 52.3464C35.1301 52.3459 35.1301 52.3449 35.1297 52.3444C34.9997 52.0906 34.8657 51.8427 34.7274 51.6016C34.5925 51.7136 34.4562 51.8262 34.3188 51.9393C34.5901 52.0766 34.8608 52.2125 35.1306 52.3464Z" fill="#FFCA55"/>
<path d="M33.5264 52.6768C34.4541 54.3898 35.1773 56.4434 35.6178 58.8693C36.0997 58.4874 36.5713 58.1046 37.0309 57.7211C37.0309 57.7206 37.0304 57.7206 37.0304 57.7206C36.7091 56.2978 36.2966 54.9953 35.8061 53.8103C35.0554 53.4454 34.2945 53.0664 33.5264 52.6768Z" fill="#FFCA55"/>
<path d="M28.792 47.5022C30.1445 48.3471 31.3979 49.499 32.4708 50.9893C32.7561 51.1392 33.0405 51.2878 33.3245 51.4347C33.618 51.1954 33.9062 50.9577 34.1892 50.7199L34.1887 50.7194C33.0304 48.9438 31.6449 47.5452 30.1082 46.4932C29.6778 46.8299 29.2385 47.1666 28.7922 47.5021L28.792 47.5022Z" fill="#FFCA55"/>
<path d="M35.0519 68.0675C34.9394 68.3189 34.8156 68.5649 34.6807 68.8037C35.6425 69.2152 36.5751 69.5976 37.4695 69.946C37.4695 69.9451 37.47 69.9441 37.47 69.9431C37.6913 68.6931 37.8043 67.3644 37.8256 65.9756C36.9337 66.6758 36.0074 67.3742 35.0519 68.0675Z" fill="#FFCA55"/>
<path d="M35.8018 60.0239C35.8425 60.3184 35.879 60.6178 35.9119 60.9226C35.9342 61.1343 35.9536 61.3462 35.9696 61.5588C36.5591 61.8222 37.1391 62.076 37.7083 62.3183V62.3163C37.6126 61.0958 37.4633 59.9434 37.2629 58.8564C36.7869 59.2466 36.2996 59.6358 35.8018 60.024V60.0239Z" fill="#FFCA55"/>
<path d="M33.1543 76.2405C33.5717 76.4099 33.9812 76.5724 34.3834 76.7273C34.3834 76.7273 34.3834 76.7268 34.3839 76.7268C35.0817 75.9688 35.6587 75.1124 36.1285 74.1704C35.1638 74.8672 34.1705 75.5582 33.1543 76.2405Z" fill="#FFCA55"/>
<path d="M12.1038 47.7522C14.0831 46.6088 16.0491 45.4098 17.9625 44.1694C17.9605 44.1699 17.9581 44.1704 17.9556 44.1704C15.2311 44.5 12.8018 45.2855 10.9404 46.884C10.9401 46.8845 10.9398 46.8845 10.9395 46.885C11.3225 47.1746 11.711 47.464 12.1038 47.7522Z" fill="#FFCA55"/>
<path d="M11.1355 48.3081C10.8189 48.0732 10.5053 47.8375 10.1951 47.6016C9.65575 48.1833 9.17762 48.8525 8.76953 49.6203C8.76888 49.6213 8.76823 49.6223 8.76758 49.6233C9.55476 49.1953 10.3445 48.7561 11.1353 48.3083L11.1355 48.3081Z" fill="#FFCA55"/>
<path d="M23.2357 45.7046C24.7896 45.8113 26.3496 46.2166 27.82 46.9555C28.283 46.6095 28.7386 46.262 29.1865 45.9137L29.186 45.9132C26.882 44.5875 24.2902 43.9712 21.6353 43.9712C21.2699 43.9712 20.9074 43.9756 20.5483 43.9857H20.5449C21.4305 44.5671 22.3293 45.1401 23.2357 45.7046Z" fill="#FFCA55"/>
<path d="M35.6322 66.3727C35.4851 66.9598 35.294 67.527 35.0518 68.0677C36.0072 67.3742 36.9335 66.676 37.8254 65.9758V65.9719C37.8284 65.774 37.8298 65.5744 37.8289 65.3735C37.8279 65.1391 37.8255 64.9066 37.8211 64.6763C37.1136 65.2435 36.3827 65.8093 35.632 66.3728L35.6322 66.3727Z" fill="#EEA41F"/>
<path d="M12.4952 57.8164C12.9848 58.1445 13.4787 58.4705 13.9764 58.7937C13.9596 58.6181 13.9449 58.4408 13.9326 58.2628C13.915 58.0104 13.9008 57.7635 13.8904 57.5204C13.7617 57.4355 13.633 57.3505 13.5049 57.2651C13.6281 57.1977 13.7513 57.1297 13.8744 57.0618C13.8642 56.6648 13.8634 56.2805 13.8718 55.9079C13.4351 56.1524 12.9985 56.3937 12.5623 56.6319C10.8233 55.4493 9.14841 54.2449 7.57307 53.0327C7.49699 53.3957 7.43084 53.7728 7.37512 54.1643C7.37512 54.1643 7.37496 54.1648 7.37496 54.1653C8.7074 55.1776 10.107 56.1826 11.5528 57.1724C10.0866 57.9594 8.63672 58.7044 7.21631 59.4017C7.2238 59.5292 7.23208 59.657 7.24121 59.786C7.25782 60.0224 7.27705 60.2571 7.29888 60.4901C7.29888 60.4906 7.29904 60.4915 7.29904 60.492C8.99705 59.6632 10.7412 58.7685 12.4954 57.8162L12.4952 57.8164Z" fill="#EEA41F"/>
<path d="M34.6805 68.8037C34.5106 69.1041 34.3229 69.3928 34.1157 69.6699C35.2061 70.1405 36.2567 70.5697 37.2622 70.9574C37.2622 70.9569 37.2622 70.9564 37.2627 70.9559C37.3399 70.625 37.4088 70.2886 37.4694 69.946C36.575 69.5976 35.6424 69.2152 34.6805 68.8037Z" fill="#EEA41F"/>
<path d="M35.9697 61.5591C35.9984 61.9361 36.0163 62.3151 36.0217 62.6926C36.6186 62.9565 37.2047 63.2098 37.7798 63.4516V63.4497C37.7614 63.0658 37.7376 62.6897 37.7084 62.3186C37.1392 62.0765 36.5593 61.8227 35.9697 61.5591Z" fill="#EEA41F"/>
<path d="M33.3243 51.4349C33.0404 51.2878 32.7561 51.1394 32.4707 50.9895C32.8459 51.5102 33.1986 52.0727 33.5262 52.6773C34.2943 53.0669 35.0553 53.4459 35.8059 53.8108C35.8059 53.8103 35.8055 53.8098 35.8055 53.8093C35.5943 53.3002 35.3697 52.8136 35.1305 52.3467C34.8607 52.2128 34.59 52.0769 34.3188 51.9396C34.4561 51.8265 34.5925 51.714 34.7273 51.6019V51.6009C34.5537 51.2976 34.3745 51.004 34.1893 50.7202C33.9063 50.9581 33.6181 51.1957 33.3245 51.4351L33.3243 51.4349Z" fill="#EEA41F"/>
<path d="M25.5676 79.8148C23.8886 79.0117 22.1629 78.1359 20.4116 77.2089C22.2353 76.2199 24.0738 75.1688 25.8922 74.0823C27.6592 74.9475 29.3793 75.7357 31.0118 76.4413C29.2353 77.6054 27.4115 78.7333 25.5676 79.8148ZM13.8859 73.5156C15.6732 72.6349 17.5069 71.677 19.3509 70.6622C21.1895 71.6817 23.0234 72.6504 24.8159 73.5467C22.9977 74.6284 21.1584 75.6585 19.3406 76.632C17.5224 75.6479 15.6937 74.6025 13.8859 73.5156ZM32.0269 75.7769C30.4096 75.0917 28.6941 74.3089 26.9274 73.4589C27.1812 73.3041 27.434 73.1489 27.6863 72.9925C27.3864 73.0241 27.0836 73.0396 26.779 73.0396C23.8135 73.0396 20.6506 71.5615 18.1985 68.8518C16.4179 67.8342 14.6382 66.7675 12.8971 65.6661C13.7126 65.2443 14.5343 64.8102 15.359 64.3641C15.2281 64.056 15.1052 63.741 14.9898 63.4178C13.9573 63.9769 12.9295 64.5174 11.9133 65.0376C10.3964 64.0617 8.91505 63.0621 7.48877 62.0498C7.5611 62.5312 7.64484 63.0043 7.73982 63.4692C7.73998 63.4702 7.73997 63.4707 7.74013 63.4712C8.75783 64.1787 9.80094 64.8784 10.8626 65.568C10.1018 65.9484 9.34904 66.3167 8.60714 66.6706C8.7176 66.9933 8.83395 67.3121 8.95548 67.6246C8.95564 67.6251 8.95563 67.6256 8.95579 67.6261C9.90621 67.1743 10.8737 66.6988 11.8517 66.2017C13.9685 67.5513 16.137 68.8493 18.3107 70.08C16.4615 71.0845 14.633 72.0274 12.851 72.8975C12.2523 72.5311 11.657 72.1608 11.0665 71.7868C11.5902 72.6015 12.154 73.362 12.7529 74.0685L12.753 74.069C12.7685 74.0612 12.7842 74.054 12.7995 74.0462C14.6125 75.1434 16.4462 76.1994 18.2749 77.2039C17.8562 77.4236 17.4384 77.6401 17.0229 77.8532C17.3582 78.0705 17.6964 78.274 18.0385 78.4646C18.4709 78.24 18.9052 78.0119 19.341 77.7809C21.0773 78.7155 22.7937 79.5944 24.4692 80.4076H24.4697C24.7061 80.4207 24.9413 80.4275 25.1762 80.4275C25.6736 80.4275 26.1677 80.3974 26.6548 80.3373C26.6627 80.3363 26.6693 80.3353 26.6771 80.3343C28.5309 79.2376 30.3589 78.0943 32.135 76.9206C32.6269 77.1244 33.1103 77.3198 33.5835 77.5067V77.5062C33.8665 77.2597 34.1329 77.0001 34.3842 76.7273C33.982 76.5726 33.5725 76.41 33.1551 76.2406C34.1712 75.5583 35.1646 74.8672 36.1293 74.1705C36.1298 74.1695 36.1298 74.169 36.1303 74.1685C36.4156 73.5954 36.6617 72.9908 36.8704 72.3579C35.3302 73.5113 33.7046 74.6546 32.0274 75.7771L32.0269 75.7769Z" fill="#EEA41F"/>
<path d="M35.6177 58.8694C35.6856 59.2451 35.7472 59.6303 35.8016 60.0238C36.2995 59.6355 36.7867 59.2464 37.2628 58.8562V58.8547C37.1914 58.4685 37.1143 58.0905 37.0308 57.7212C36.5712 58.1045 36.0996 58.4874 35.6177 58.8694Z" fill="#EEA41F"/>
<path d="M8.76737 49.6232C8.52089 50.0871 8.2998 50.5874 8.10626 51.1255C8.1061 51.1265 8.10563 51.127 8.10547 51.128C9.40745 50.435 10.7195 49.712 12.0314 48.9623C12.917 49.6004 13.8249 50.236 14.7509 50.8646C14.8783 50.5307 15.0177 50.2157 15.1686 49.9187C14.4329 49.4169 13.7092 48.9103 12.9999 48.4009C15.1684 47.1391 17.3161 45.8153 19.3974 44.4454C20.0477 44.8763 20.7048 45.3038 21.3676 45.7265C21.7068 45.6926 22.0494 45.6755 22.393 45.6755C22.6735 45.6755 22.9544 45.6853 23.2359 45.7047C22.3295 45.1404 21.4307 44.5673 20.5451 43.9858C19.6624 44.0111 18.7982 44.0688 17.9625 44.1693C16.0491 45.4097 14.0831 46.6087 12.1038 47.752C11.711 47.4638 11.3225 47.1745 10.9395 46.8848C10.6807 47.107 10.4329 47.3449 10.1969 47.5997C10.1962 47.6002 10.1957 47.6006 10.1953 47.6016C10.5054 47.8375 10.819 48.0732 11.1356 48.3082C10.3448 48.756 9.55503 49.1952 8.76785 49.6232H8.76737Z" fill="#EEA41F"/>
<path d="M29.1863 45.9137C28.7385 46.2622 28.2828 46.6097 27.8198 46.9555C28.1489 47.1211 28.4729 47.303 28.7918 47.5019C29.2381 47.1667 29.6773 46.8298 30.1077 46.493C30.1072 46.4926 30.1073 46.4926 30.1068 46.4926C29.8054 46.2863 29.4988 46.0936 29.1861 45.9136L29.1863 45.9137Z" fill="#EEA41F"/>
<path d="M18.3668 61.5299C16.8853 60.6418 15.4155 59.7281 13.9761 58.7935C14.1356 60.4657 14.487 62.0108 14.9894 63.4175C16.113 62.8095 17.2421 62.1791 18.3668 61.5299Z" fill="#FFD87A"/>
<path d="M19.3662 60.9481C21.3593 59.779 23.3323 58.5533 25.2432 57.2964C23.2808 56.2046 21.313 55.0559 19.3817 53.8608C17.5615 54.9711 15.7144 56.0455 13.874 57.0622C13.8779 57.213 13.8833 57.3665 13.89 57.5208C15.6752 58.698 17.5115 59.8432 19.366 60.9482L19.3662 60.9481Z" fill="#FFD87A"/>
<path d="M27.6893 58.6212C27.2118 58.3673 26.7324 58.1091 26.2525 57.8477C24.3416 59.1146 22.3689 60.3506 20.3701 61.5356C22.5233 62.7871 24.6866 63.9716 26.8141 65.0688C27.4289 64.6777 28.0388 64.2821 28.643 63.8833C28.3024 62.5921 28.1799 60.7926 27.6893 58.6212Z" fill="#FFD87A"/>
<path d="M25.82 65.6975C23.6877 64.5848 21.5192 63.3846 19.3665 62.1177C18.0306 62.8936 16.6907 63.6443 15.3589 64.3645C16.0967 66.1038 17.0725 67.6081 18.1984 68.8522C18.5827 69.0715 18.967 69.289 19.3508 69.5038C21.519 68.3039 23.693 67.0262 25.8198 65.6975H25.82Z" fill="#FFD87A"/>
<path d="M27.686 72.9926C27.7346 72.9873 27.7831 72.9819 27.8317 72.9762C30.833 72.6074 32.84 71.3743 34.1159 69.6701C33.8461 69.5536 33.5735 69.4347 33.2988 69.313C31.496 70.5698 29.6084 71.8019 27.6862 72.9928L27.686 72.9926Z" fill="#FFD87A"/>
<path d="M27.3074 57.1411C27.2715 57.1654 27.236 57.1897 27.2002 57.2139C27.2507 57.2416 27.3017 57.2688 27.352 57.2964C27.3375 57.2444 27.3224 57.1931 27.3074 57.1411Z" fill="#FFD87A"/>
<path d="M24.1943 50.772C22.9379 51.6183 21.6506 52.4504 20.3442 53.2634C22.276 54.4479 24.2433 55.5863 26.2008 56.6631C26.4643 56.4865 26.7264 56.3098 26.9871 56.1322C26.1557 53.7262 24.9999 52.0114 24.1943 50.772Z" fill="#FFD87A"/>
<path d="M25.8406 72.9287C28.0242 71.6102 30.1671 70.235 32.217 68.8238C30.492 68.0406 28.6993 67.1753 26.8708 66.2378C24.7434 67.5771 22.57 68.865 20.3965 70.0854C22.2351 71.0948 24.0636 72.0478 25.8406 72.9285V72.9287Z" fill="#FFD87A"/>
<path d="M19.3815 52.6659C20.8324 51.7671 22.263 50.8467 23.6548 49.9081C23.1734 49.0721 23.0525 48.5252 23.6776 48.1456C23.992 47.9548 24.373 47.8569 24.802 47.8486C23.6452 47.1576 22.4979 46.4486 21.3673 45.7266C18.876 45.9794 16.5507 47.195 15.1685 49.9187C16.5374 50.8524 17.9476 51.771 19.3815 52.6659Z" fill="#FFD87A"/>
<path d="M26.6905 47.7877C27.0719 47.5111 27.4485 47.2335 27.8201 46.9556C26.3497 46.2165 24.7897 45.8113 23.2358 45.7046C24.3772 46.4146 25.5316 47.1103 26.6905 47.7879V47.7877Z" fill="#FFD87A"/>
<path d="M34.6462 62.0718C34.4807 64.3049 33.5539 66.1155 31.3877 66.1204H31.3761C30.1082 66.1204 29.4252 65.6768 29.0031 64.8645C28.6247 65.114 28.2432 65.3624 27.8599 65.6094C29.6884 66.5314 31.4756 67.3864 33.1857 68.1488C34.0213 67.5607 34.8381 66.9682 35.6325 66.3728C35.9255 65.1998 36.0405 63.9508 36.0216 62.6925C35.5689 62.4916 35.1102 62.2849 34.6462 62.0718Z" fill="#FFD87A"/>
<path d="M32.3159 53.5286C32.8444 54.386 33.3253 55.3334 33.7334 56.3661C34.1206 57.3463 34.4186 58.5104 34.5675 59.6866C34.9231 59.4149 35.273 59.1427 35.6176 58.8695C35.1769 56.4436 34.4539 54.39 33.5262 52.677C33.5019 52.6649 33.4776 52.6522 33.4533 52.6401C33.0801 52.9366 32.7012 53.2326 32.3159 53.5286Z" fill="#FFD87A"/>
<path d="M27.6538 48.3439C29.2658 49.2702 30.878 50.152 32.4711 50.989C31.3981 49.4987 30.1447 48.3468 28.7922 47.502C28.4175 47.784 28.0376 48.0648 27.6538 48.3439Z" fill="#FFD87A"/>
<path d="M34.6665 60.893C34.6675 60.9173 34.668 60.9421 34.6689 60.9664C35.1072 61.1692 35.541 61.3666 35.9695 61.5589C35.9535 61.3463 35.9341 61.1343 35.9118 60.9227C35.8787 60.6179 35.8424 60.3185 35.8017 60.0239C35.4289 60.3141 35.0503 60.6044 34.6665 60.893Z" fill="#FFD87A"/>
<path d="M13.8716 55.9081C15.3899 55.0593 16.9103 54.1743 18.4185 53.2581C17.1729 52.4772 15.947 51.6765 14.751 50.8647C14.2331 52.2216 13.9174 53.8875 13.8716 55.9081Z" fill="#FFD87A"/>
<path d="M34.6806 68.8036C34.8154 68.5648 34.9393 68.3188 35.0518 68.0674C34.7941 68.2542 34.5341 68.4411 34.272 68.6273C34.4088 68.6864 34.5447 68.7453 34.6806 68.8034V68.8036Z" fill="#FFD87A"/>
<path d="M31.7546 52.6761C31.992 52.4927 32.2267 52.3088 32.4592 52.1248C31.7963 51.7808 31.1305 51.4281 30.4624 51.0669C30.9078 51.5522 31.3416 52.0888 31.7546 52.676V52.6761Z" fill="#FFD87A"/>
<path d="M34.5674 59.6868C34.6189 60.09 34.6523 60.4943 34.6665 60.8931C35.0503 60.6045 35.4289 60.3142 35.8015 60.024C35.747 59.6304 35.6854 59.2451 35.6175 58.8696C35.273 59.1428 34.923 59.4151 34.5674 59.6868Z" fill="#F7BC2C"/>
<path d="M34.6693 60.9663C34.68 61.342 34.6732 61.7121 34.6465 62.0718C35.1105 62.2849 35.569 62.4916 36.0218 62.6925C36.0164 62.315 35.9985 61.9359 35.9698 61.559C35.5414 61.3667 35.1075 61.1693 34.6693 60.9665V60.9663Z" fill="#F7BC2C"/>
<path d="M26.8707 66.2377C28.6992 67.1752 30.4917 68.0404 32.2169 68.8237C30.1672 70.2348 28.0243 71.6101 25.8405 72.9285C24.0635 72.0478 22.235 71.0946 20.3964 70.0854C22.5699 68.8649 24.7433 67.5769 26.8707 66.2377ZM18.4185 53.2578C16.9103 54.174 15.3898 55.0591 13.8715 55.9079C13.863 56.2806 13.8638 56.6649 13.8741 57.0617C15.7145 56.0452 17.5614 54.9708 19.3818 53.8604C21.3131 55.0557 23.2809 56.2042 25.2433 57.296C23.3323 58.5529 21.3592 59.7786 19.3663 60.9476C17.5116 59.8426 15.6754 58.6975 13.8902 57.5202C13.9008 57.7632 13.9149 58.0104 13.9324 58.2626C13.945 58.4406 13.9595 58.6177 13.9762 58.7935C15.4157 59.7281 16.8855 60.6419 18.367 61.5299C17.2421 62.1792 16.1132 62.8095 14.9896 63.4175C15.1049 63.7407 15.2279 64.0556 15.3587 64.3639C16.6903 63.6438 18.0303 62.8929 19.3663 62.117C21.519 63.384 23.6877 64.5841 25.8198 65.6968C23.6929 67.0255 21.519 68.3032 19.3508 69.5032C18.967 69.2881 18.5827 69.0708 18.1984 68.8515C20.6505 71.5612 23.8134 73.0393 26.7789 73.0393C27.0837 73.0393 27.3863 73.0238 27.6862 72.9922C29.6084 71.8014 31.4961 70.5693 33.2988 69.3124C33.5735 69.4343 33.8462 69.553 34.116 69.6695C34.3232 69.3924 34.511 69.1037 34.6808 68.8033C34.5449 68.7452 34.4091 68.6864 34.2722 68.6272C34.5343 68.4408 34.7944 68.254 35.0521 68.0673C35.2942 67.5268 35.4854 66.9595 35.6325 66.3722C34.8382 66.9676 34.0215 67.5602 33.1858 68.1483C31.4757 67.3858 29.6884 66.5309 27.8599 65.6088C28.2433 65.3618 28.6246 65.1134 29.0032 64.864C28.8561 64.5805 28.7406 64.2526 28.6432 63.8828C28.039 64.2818 27.429 64.6771 26.8142 65.0683C24.6868 63.9711 22.5235 62.7866 20.3703 61.5351C22.369 60.3501 24.3417 59.1141 26.2527 57.8471C26.7326 58.1088 27.212 58.3668 27.6895 58.6206C27.5929 58.1932 27.4818 57.751 27.3523 57.2958C27.3018 57.2682 27.2508 57.2409 27.2005 57.2134C27.2363 57.1891 27.2718 57.1649 27.3076 57.1406C27.2247 56.8566 27.1345 56.568 27.0359 56.2744C27.02 56.2263 27.0034 56.1788 26.9874 56.1317C26.7267 56.3093 26.4648 56.4859 26.2012 56.6626C24.2436 55.5858 22.2763 54.4474 20.3446 53.2628C21.6509 52.4501 22.9383 51.6178 24.1946 50.7715C23.9879 50.4536 23.804 50.1667 23.6551 49.9077C22.2633 50.8462 20.8328 51.7668 19.3818 52.6655C17.9478 51.7706 16.5375 50.8519 15.1686 49.9183C15.0179 50.2153 14.8783 50.5302 14.7509 50.8642C15.947 51.6759 17.1729 52.4766 18.4185 53.2575V53.2578Z" fill="#F7BC2C"/>
<path d="M24.802 47.8488C24.8223 47.8484 24.8422 47.8479 24.8626 47.8479C26.401 47.8479 28.5375 48.9723 30.4621 51.0671C31.1304 51.4281 31.7962 51.781 32.4589 52.1251C32.2264 52.309 31.9915 52.4929 31.7543 52.6764C31.9466 52.9496 32.1342 53.234 32.3157 53.529C32.701 53.233 33.0799 52.937 33.4532 52.6405C33.4774 52.6526 33.5017 52.6653 33.526 52.6773C33.1984 52.0726 32.8457 51.5102 32.4705 50.9896C30.8774 50.1525 29.2652 49.2707 27.6532 48.3444C28.037 48.0653 28.4171 47.7845 28.7916 47.5025C28.4728 47.3036 28.1486 47.1216 27.8197 46.9561C27.448 47.2342 27.0715 47.5118 26.6901 47.7882C25.5313 47.1109 24.3768 46.4149 23.2354 45.7049C22.9539 45.6856 22.6731 45.6758 22.3925 45.6758C22.049 45.6758 21.7064 45.6927 21.3672 45.7268C22.4978 46.4488 23.6452 47.1578 24.802 47.8488Z" fill="#F7BC2C"/>
<path d="M32.6343 61.1231C31.0193 60.3496 29.3635 59.5111 27.6895 58.6211C28.18 60.7927 28.3023 62.592 28.643 63.8832C30.0114 62.9788 31.3478 62.0562 32.6343 61.1231Z" fill="#FFE299"/>
<path d="M31.7547 52.6757C31.3417 52.0886 30.9078 51.5518 30.4624 51.0667C29.2304 50.4013 27.9914 49.7093 26.7527 48.9985C25.9181 49.5945 25.0639 50.1865 24.1948 50.7716C25.0004 52.0111 26.1563 53.726 26.9876 56.1319C28.6496 54.9988 30.2474 53.8414 31.7547 52.6757Z" fill="#FFE299"/>
<path d="M31.3761 66.12H31.3876C33.5539 66.1151 34.4806 64.3047 34.6462 62.0714C34.3264 61.9243 34.0041 61.7749 33.6799 61.6226C32.1829 62.7193 30.6144 63.8023 29.0029 64.8641C29.425 65.6764 30.1081 66.12 31.3761 66.12Z" fill="#FFE299"/>
<path d="M25.7891 48.4318C25.459 48.2386 25.1301 48.0441 24.802 47.8486C24.3731 47.8569 23.9922 47.9548 23.6776 48.1456C23.0525 48.525 23.1734 49.0719 23.6548 49.9081C24.3773 49.4209 25.0897 48.9284 25.7889 48.432L25.7891 48.4318Z" fill="#FFE299"/>
<path d="M33.5562 60.4487C33.8978 60.1954 34.2351 59.9416 34.5676 59.6868C34.4187 58.5106 34.1207 57.3464 33.7335 56.3662C33.3254 55.3335 32.8445 54.3864 32.316 53.5288C30.734 54.7449 29.053 55.9542 27.3076 57.1412C27.3226 57.1931 27.3378 57.2445 27.3523 57.2964C29.4594 58.4344 31.5492 59.4933 33.5562 60.4487Z" fill="#FFE299"/>
<path d="M34.669 60.9664C34.668 60.9421 34.6675 60.9173 34.6666 60.8931C34.6467 60.9081 34.6268 60.9227 34.6069 60.9377C34.6278 60.9475 34.6481 60.9571 34.669 60.9664Z" fill="#FFE299"/>
<path d="M33.68 61.6226C34.0042 61.7749 34.3264 61.9245 34.6462 62.0714C34.6729 61.7119 34.6798 61.3416 34.669 60.9659C34.6481 60.9567 34.6278 60.947 34.607 60.9373C34.6268 60.9223 34.6467 60.9076 34.6666 60.8926C34.6526 60.4937 34.619 60.0895 34.5675 59.6863C34.2352 59.9411 33.8978 60.1949 33.5562 60.4482C31.5491 59.4927 29.4591 58.4338 27.3521 57.2959C27.4816 57.7511 27.5927 58.1932 27.6893 58.6207C29.3635 59.5107 31.0192 60.3492 32.6341 61.1227C31.3476 62.0558 30.0112 62.9784 28.6428 63.8828C28.7404 64.2526 28.8559 64.5806 29.0028 64.864C30.6143 63.8024 32.1828 62.7192 33.6798 61.6225L33.68 61.6226Z" fill="#FBCE4C"/>
<path d="M32.3159 53.5285C32.1344 53.2334 31.9466 52.949 31.7545 52.6758C30.2473 53.8414 28.6493 54.9987 26.9873 56.1319C27.0033 56.179 27.0199 56.2266 27.0358 56.2746C27.1344 56.5682 27.2246 56.8569 27.3076 57.1408C29.053 55.9539 30.7341 54.7446 32.3159 53.5285Z" fill="#FBCE4C"/>
<path d="M26.7527 48.9988C27.9916 49.7097 29.2304 50.4016 30.4625 51.0669C28.5378 48.9721 26.4013 47.8477 24.8629 47.8477C24.8426 47.8477 24.8227 47.8481 24.8023 47.8486C25.1304 48.0441 25.4593 48.2388 25.7894 48.4319C25.0902 48.9282 24.3778 49.4209 23.6553 49.908C23.8042 50.1672 23.9881 50.4539 24.1948 50.7717C25.064 50.1866 25.9179 49.5945 26.7527 48.9986V48.9988Z" fill="#FBCE4C"/>
</svg>
