<svg width="666" height="1206" viewBox="0 0 666 1206" fill="none" xmlns="http://www.w3.org/2000/svg">
<path d="M141.414 845.51C141.414 845.51 155.735 860.556 159.643 853.814C163.547 847.072 145.318 839.689 141.414 828.926V845.51Z" fill="#E69683"/>
<path d="M141.414 852.529C141.414 852.529 155.735 867.579 159.643 860.837C163.547 854.091 145.318 846.712 141.414 835.949V852.529Z" fill="#F8A78F"/>
<path d="M136.469 803.574C136.469 803.574 126.261 863.349 147.927 868.191C157.106 870.241 137.506 847.133 144.456 824.987C149.664 819.199 150.706 840.662 155.914 836.008C161.122 831.35 147.581 803.575 147.581 803.575H136.469V803.574Z" fill="#F9B29B"/>
<path d="M587.044 304.633C587.04 304.625 585.594 302.354 583.211 298.57C576.057 287.216 560.473 262.316 550.386 244.928C549.807 243.932 548.532 243.595 547.54 244.174C546.544 244.749 546.203 246.024 546.782 247.02C560.311 270.341 583.519 306.853 583.528 306.866C584.145 307.837 585.432 308.124 586.403 307.508C587.374 306.891 587.66 305.604 587.044 304.633Z" fill="#1A161C"/>
<path d="M564.917 292.191C564.917 292.191 563.996 306.416 564.45 315.162C564.45 315.162 595.113 375.054 630.546 397.025L662.471 373.004L665.046 360.329L564.917 292.191Z" fill="#323036"/>
<path d="M564.914 292.19C564.914 292.19 608.543 367.015 630.164 384.403L665.043 360.328C665.043 360.328 618.697 296.857 609.014 271.27C609.014 271.27 588.064 278.194 564.914 292.19Z" fill="#4B4A4E"/>
<path d="M571.879 295.027C571.879 295.027 586.191 320.11 595.212 330.477L627.433 311.448C627.433 311.448 623.558 282.519 608.187 277.277C608.187 277.277 588.862 283.319 571.879 295.027Z" fill="#323036"/>
<path d="M588.55 376.67C588.55 376.67 570.497 362.207 575.359 350.445C580.388 342.124 616.68 355.482 613.555 366.42C610.43 377.358 597.404 370.237 597.404 370.237C597.404 370.237 610.425 373.249 610.425 381.12" fill="#F9B29B"/>
<path d="M170.202 809.369L204.227 974.061C204.923 977.44 208.231 979.615 211.61 978.919C214.989 978.219 217.164 974.911 216.468 971.531L182.443 806.839C181.743 803.456 178.435 801.285 175.055 801.981C171.676 802.681 169.501 805.985 170.201 809.368L170.202 809.369Z" fill="#110D18"/>
<path d="M391.281 841.271C391.281 841.271 380.223 902.821 384.039 903.896C387.856 904.975 399.66 907.675 402.439 905.246C405.218 902.817 420.497 844.242 420.497 844.242C420.497 844.242 418.064 829.667 412.51 826.429C406.956 823.187 393.372 826.429 393.372 826.429C393.372 826.429 389.502 832.9 391.281 841.271Z" fill="#110D18"/>
<path d="M202.539 859.207C202.539 859.207 197.744 1051.21 230.128 1171.66C230.128 1171.66 236.464 1174.13 252.089 1171.66C252.089 1171.66 230.214 927.528 252.089 874.403L202.539 859.207Z" fill="#151228"/>
<path d="M74.4338 260.243C74.4338 260.243 94.8008 410.86 51.0508 429.61C51.0508 429.61 78.9588 420.635 81.9178 396.277C81.9178 396.277 93.2139 462.923 59.1139 491.577C59.1139 491.577 66.6889 490.864 79.7809 489.881C84.6139 482.331 89.3388 473.439 90.2938 466.31V489.127C92.3188 488.985 94.4269 488.844 96.6189 488.698L108.344 477.869V487.956H108.348C114.402 487.594 120.915 487.227 127.79 486.877V466.31L137.594 486.397C180.623 484.397 235.961 483.13 289.59 485.709L74.4358 260.242L74.4338 260.243Z" fill="#F89932"/>
<path d="M499.574 252.406C499.574 252.406 479.203 403.023 522.953 421.773C522.953 421.773 495.045 412.798 492.086 388.44C492.086 388.44 480.79 455.086 514.89 483.744C514.89 483.744 507.315 483.032 494.223 482.044C489.39 474.494 484.669 465.602 483.71 458.473V481.29C481.689 481.148 479.577 481.007 477.389 480.861L465.66 470.032V480.12H465.656C459.602 479.757 453.089 479.395 446.214 479.045V458.474L436.414 478.561C393.381 476.561 338.043 475.294 284.414 477.873L499.572 252.406H499.574Z" fill="#F89932"/>
<path d="M550.487 188.353C550.487 188.353 458.341 163.274 425.487 34.8196C425.487 34.8196 314.254 60.7776 283.458 1.9866L282.541 0.174597C282.399 0.495597 282.479 0.337602 282.549 0.178602C282.62 0.0246021 282.686 -0.129403 282.541 0.174597C282.391 -0.129403 282.462 0.0246021 282.533 0.178602C282.604 0.336602 282.679 0.495597 282.541 0.174597L281.624 1.9866C250.828 60.7786 139.591 34.8196 139.591 34.8196C120.841 136.032 21.8828 168.391 21.8828 168.391C76.0498 218.166 66.6409 269.903 66.6409 269.903L74.0529 273.699L282.54 102.062L491.028 273.699L498.436 269.903C498.436 269.903 496.32 238.128 550.487 188.353Z" fill="#22233E"/>
<path d="M90.292 309.611C90.292 334.54 86.4919 358.424 61.5499 358.424C36.6209 358.424 0 334.541 0 309.611C0 284.678 20.213 264.465 45.142 264.465C70.084 264.465 90.292 284.678 90.292 309.611Z" fill="#F9AC95"/>
<path d="M81.9167 314.27C81.9167 326.862 78.6877 341.049 66.0917 341.049C53.4917 341.049 36.3047 326.862 36.3047 314.27C36.3047 301.666 46.5128 291.457 59.1088 291.457C71.7048 291.457 81.9167 301.665 81.9167 314.27Z" fill="#F0947F"/>
<path d="M469.789 309.411C469.789 333.961 473.535 357.478 498.089 357.478C522.635 357.478 558.693 333.961 558.693 309.411C558.693 284.861 538.793 264.961 514.247 264.961C489.689 264.961 469.789 284.861 469.789 309.411Z" fill="#F9AC95"/>
<path d="M478.035 313.997C478.035 326.397 481.223 340.368 493.618 340.368C506.03 340.368 522.947 326.397 522.947 313.997C522.947 301.589 512.897 291.539 500.493 291.539C488.093 291.539 478.035 301.589 478.035 313.997Z" fill="#F0947F"/>
<path d="M89.891 355.035C89.891 366.985 80.2039 376.668 68.2579 376.668C56.3079 376.668 46.625 366.985 46.625 355.035C46.625 343.089 56.3079 333.402 68.2579 333.402C80.2039 333.402 89.891 343.089 89.891 355.035Z" fill="white"/>
<path d="M514.489 359.485C514.489 371.435 504.806 381.122 492.856 381.122C480.906 381.122 471.223 371.434 471.223 359.485C471.223 347.539 480.906 337.852 492.856 337.852C504.806 337.852 514.489 347.54 514.489 359.485Z" fill="white"/>
<path d="M380.406 525.9C344.16 513.821 319.16 509.238 319.16 509.238L285.981 510.25L285.973 509.238H260.015C260.015 509.238 235.015 513.821 198.765 525.9C198.765 525.9 179.057 700.467 187.657 842.95C187.657 842.95 201.682 859.208 289.586 859.208C377.503 859.208 391.507 842.95 391.507 842.95C400.12 700.467 380.406 525.9 380.406 525.9Z" fill="#22233E"/>
<path d="M194.762 847.255C194.762 847.255 211.049 890.451 289.587 890.451C368.12 890.451 387.129 845.934 387.129 845.934L194.762 847.255Z" fill="#151228"/>
<path d="M185.718 1203.34C185.718 1203.34 169.756 1202.65 190.281 1188.29C212.506 1172.76 238.843 1170.54 238.843 1170.54L251.943 1169.59C251.943 1169.59 258.826 1187.08 258.21 1190.84C257.585 1194.59 248.202 1193.34 250.697 1195.21C253.205 1197.09 251.335 1209.58 185.718 1203.34Z" fill="#100B13"/>
<path d="M373.792 858.598C373.792 858.598 378.588 1050.6 346.204 1171.06C346.204 1171.06 339.867 1173.52 324.242 1171.06C324.242 1171.06 346.117 926.923 324.242 873.798L373.792 858.598Z" fill="#151228"/>
<path d="M390.61 1202.73C390.61 1202.73 399.46 1202.02 379.168 1187.33C359.03 1172.76 337.485 1169.93 337.485 1169.93L324.385 1168.99C324.385 1168.99 317.497 1186.48 318.118 1190.23C318.743 1193.99 328.126 1192.73 325.631 1194.61C323.123 1196.48 324.994 1208.98 390.61 1202.73Z" fill="#100B13"/>
<path d="M326.666 510.474C326.666 510.474 320.845 488.812 322.508 466.312H252.512C252.512 466.312 259.174 494.649 252.512 510.474C252.512 510.474 290.816 559.049 326.666 510.474Z" fill="#F9B29B"/>
<path d="M255.448 493.858L255.352 487.266C255.456 489.424 255.502 491.645 255.452 493.858M323.535 493.846C323.21 491.4 322.918 488.771 322.689 486H322.697L323.535 493.846Z" fill="#1F879A"/>
<path d="M290.931 497.446C280.844 497.446 268.823 496.55 255.448 493.858C255.502 491.646 255.456 489.425 255.352 487.266L255.348 487.145L259.352 487.058C267.069 487.458 275.094 487.658 283.452 487.658C297.423 487.658 310.481 487.095 322.689 486C322.918 488.771 323.21 491.4 323.535 493.846L323.539 493.858C323.539 493.858 311.106 497.446 290.931 497.446Z" fill="#F29B81"/>
<path d="M492.859 273.7C492.859 391.867 465.551 487.658 283.455 487.658C101.363 487.658 74.0547 391.866 74.0547 273.7C74.0547 173.804 128.784 101.262 276.009 101.262C417.671 101.262 492.859 139.42 492.859 273.7Z" fill="#F9B29B"/>
<path d="M283.453 487.656C154.52 487.656 103.19 439.639 84.2073 369.648C81.2533 358.76 79.0823 347.34 77.5243 335.485C77.4953 335.247 77.4613 334.993 77.4323 334.756C75.8743 322.71 74.9492 310.231 74.4702 297.402C74.4322 296.394 74.3952 295.389 74.3662 294.377C74.3662 294.406 74.3662 294.431 74.3702 294.46C74.3702 294.456 74.3663 294.422 74.3623 294.356C74.2993 292.273 74.2412 290.181 74.1992 288.081C74.2162 287.077 74.2533 286.081 74.3123 285.085C77.3293 394.718 110.833 480.827 283.454 480.827C463.987 480.827 492.362 386.665 492.837 269.902C492.845 271.177 492.858 272.419 492.858 273.698C492.858 296.173 491.871 317.84 489.021 338.19C487.104 351.852 484.35 364.911 480.488 377.236C465.938 423.678 435.692 459.54 375.538 476.64C350.409 483.786 320.051 487.657 283.455 487.657L283.453 487.656Z" fill="#F29B81"/>
<path d="M359.42 261.938C359.42 259.195 362.016 256.87 365.67 255.941C363.278 252.653 359.891 250.562 356.091 250.562C348.874 250.562 343.008 258.037 343.008 267.258C343.008 276.475 348.875 283.946 356.091 283.946C363.024 283.946 368.633 277.067 369.095 268.383C363.741 268.35 359.42 265.484 359.42 261.938Z" fill="#130E14"/>
<path d="M210.463 264.586C210.463 261.844 213.066 259.524 216.72 258.586C214.328 255.298 210.941 253.211 207.149 253.211C199.916 253.211 194.062 260.686 194.062 269.903C194.062 279.124 199.916 286.595 207.149 286.595C214.074 286.595 219.683 279.716 220.146 271.033C214.792 271 210.463 268.133 210.463 264.587V264.586Z" fill="#130E14"/>
<path d="M243.371 316.138C243.371 316.138 244.617 316.35 246.804 316.717C248.958 317.088 252.021 317.571 255.637 318.121C257.433 318.371 259.387 318.642 261.449 318.925C263.495 319.267 265.686 319.342 267.891 319.687C270.116 319.862 272.416 320.041 274.754 320.229C277.083 320.283 279.442 320.575 281.796 320.5C284.158 320.587 286.509 320.587 288.825 320.471C289.983 320.446 291.133 320.421 292.275 320.396C293.404 320.304 294.525 320.213 295.625 320.121C297.846 319.979 299.971 319.742 301.996 319.446C304.034 319.192 305.975 318.971 307.734 318.575C309.534 318.258 311.188 317.963 312.651 317.704C314.08 317.316 315.376 317.046 316.443 316.808C318.585 316.346 319.881 316.137 319.881 316.137C319.881 316.137 318.927 316.962 317.143 318.308C316.247 318.97 315.156 319.8 313.847 320.662C312.518 321.479 310.951 322.274 309.214 323.125C308.347 323.542 307.447 324.029 306.493 324.442C305.51 324.779 304.489 325.134 303.443 325.496C301.351 326.238 299.114 327.004 296.718 327.379C294.347 327.879 291.876 328.412 289.335 328.541C286.793 328.858 284.206 328.874 281.623 328.829C279.035 328.854 276.477 328.521 273.952 328.262C271.44 327.962 269.006 327.379 266.656 326.9C261.989 325.746 257.743 324.325 254.277 322.687C247.26 319.604 243.373 316.137 243.373 316.137L243.371 316.138Z" fill="#D47D6D"/>
<path d="M186.907 255.742C186.907 255.742 206.069 247.817 219.224 248.934C219.224 248.934 219.699 229.555 208.145 225.83C196.599 222.105 182.808 244.834 182.437 245.58C182.066 246.326 185.174 256.422 186.907 255.742Z" fill="#F89932"/>
<path d="M381.462 250.482C381.462 250.482 364.42 243.432 352.729 244.428C352.729 244.428 352.304 227.195 362.575 223.878C372.85 220.566 385.112 240.782 385.437 241.445C385.77 242.107 383.004 251.087 381.462 250.483V250.482Z" fill="#F89932"/>
<path d="M74.0534 253.21C74.0534 253.21 68.2575 162.602 289.587 162.602C510.915 162.602 492.836 269.902 492.836 269.902L500.49 223.019L478.036 150.102L350.007 61.9062L207.103 83.4352L111.811 127.877L77.7824 180.656L74.0405 255.656L74.0534 253.21Z" fill="#22233E"/>
<path d="M253.423 346.742C251.11 354.034 249.781 362.254 249.781 370.988C249.781 400.713 264.86 424.809 283.46 424.809C302.06 424.809 317.143 400.713 317.143 370.988C317.143 362.38 315.843 354.267 313.593 347.051C286.893 353.18 265.593 350.005 253.422 346.743L253.423 346.742Z" fill="white"/>
<path d="M352.787 154.263C352.787 154.263 299.554 198.709 249.779 198.709C249.779 198.709 266.671 186.205 268.062 176.484C268.062 176.484 163.895 229.959 100.008 223.709C100.008 223.709 71.6579 257.046 74.3699 294.463C74.3699 294.463 72.2278 261.213 75.0078 241.767C75.0078 241.767 86.8159 191.767 121.537 177.875C156.258 163.987 352.787 154.262 352.787 154.262V154.263Z" fill="#F89932"/>
<path d="M356.048 159.988C356.048 159.988 376.931 191.221 403.402 201.563C403.402 201.563 380.198 178.359 385.423 165.905L437.506 180.776C437.506 180.776 441.673 209.038 458.339 224.363C458.339 224.363 493.964 249.401 492.822 280.655C492.822 280.655 500.764 231.588 461.459 203.992C422.159 176.392 436.809 174.405 436.809 174.405L356.048 159.988Z" fill="#F89932"/>
<path d="M74.0518 253.214L74.0399 255.66L74.4318 247.848C73.9278 251.223 74.0528 253.215 74.0528 253.215L74.0518 253.214Z" fill="#131123"/>
<path d="M500.489 223.02L497.718 214.02L491.751 250.562C491.751 250.562 509.834 143.262 288.501 143.262C124.639 143.262 85.2796 192.92 75.8796 218.712L74.4297 247.845C77.3047 228.391 100.976 162.603 289.584 162.603C510.913 162.603 492.834 269.903 492.834 269.903L500.489 223.02Z" fill="#131123"/>
<path d="M141.496 136.441C142.875 133.574 143.996 132.112 143.996 132.112C143.996 132.112 143.988 132.116 143.967 132.12C169.771 120.374 205.125 109.524 253.484 101.262C253.38 101.283 183.129 114.808 141.496 136.441Z" fill="#1F1E38"/>
<path d="M66.6409 269.903C69.3739 238.328 57.1118 212.103 44.7368 194.22C72.9828 234.462 66.6789 269.703 66.6409 269.903ZM21.8828 168.391C88.5618 141.67 117.787 96.9075 130.383 66.6445C99.6748 142.949 21.8828 168.391 21.8828 168.391Z" fill="#0A87A5"/>
<path d="M73.6158 273.478L66.6738 269.92C66.6618 269.912 66.6529 269.908 66.6409 269.903C66.6789 269.703 72.9828 234.461 44.7368 194.22C33.3578 177.778 21.8828 168.391 21.8828 168.391C21.8828 168.391 99.6748 142.949 130.383 66.6453C138.154 47.9743 139.591 34.8203 139.591 34.8203C139.591 34.8203 139.07 66.0703 119.279 104.612C113.892 115.108 113.271 121.924 115.216 126.291L111.812 127.878L77.7828 180.657L77.0449 195.469C74.8909 204.077 75.4988 210.761 76.1118 214.161L75.8828 218.711L75.2079 232.257L74.5459 245.544C73.6499 254.111 73.4998 264.486 73.6168 273.477L73.6158 273.478Z" fill="#1F1E38"/>
<path d="M66.6736 269.919L66.6406 269.902C66.6526 269.906 66.6616 269.91 66.6736 269.919Z" fill="#CE9487"/>
<path d="M74.543 245.546L75.205 232.259L74.543 245.534V245.546ZM75.8799 218.713L76.1089 214.163C76.3799 215.68 76.655 216.542 76.684 216.638C76.392 217.346 76.1259 218.038 75.8799 218.713ZM77.0419 195.471L77.7799 180.659L111.809 127.88L115.213 126.293C117.817 132.122 124.996 133.58 131.534 133.58C137.822 133.58 143.509 132.234 143.963 132.122C96.4509 153.747 81.3129 178.397 77.0419 195.472V195.471ZM112.921 177.567L113.892 176.488C105.625 161.421 119.609 147.813 141.492 136.442C138.98 141.659 135.621 151.542 136.621 165.775C127.475 169.479 119.634 173.463 112.921 177.567Z" fill="#1F1E38"/>
<path d="M74.0545 273.701L73.6165 273.479C73.4995 264.487 73.6496 254.113 74.5456 245.547V245.534L74.4326 247.846C75.4746 240.779 79.2655 227.597 92.7115 213.676C84.6035 222.13 77.9906 232.509 75.5366 244.934L74.0545 273.701ZM74.4326 247.846C73.9286 251.221 74.0545 253.214 74.0545 253.214L74.0425 255.659L74.4345 247.848L74.4326 247.846ZM139.945 184.225C139.974 184.213 140.009 184.201 140.038 184.188C140.038 184.192 140.038 184.191 140.042 184.191C140.042 184.191 140.008 184.203 139.945 184.224V184.225Z" fill="#CC8635"/>
<path d="M74.0408 255.657L74.0528 253.211C74.0528 253.211 73.9278 251.219 74.4318 247.844L74.0399 255.656L74.0408 255.657Z" fill="#120F20"/>
<path d="M74.4336 247.845L74.5466 245.532L75.2086 232.257L75.8835 218.711C76.1295 218.036 76.3966 217.344 76.6876 216.636C76.6876 216.64 76.6917 216.644 76.6917 216.644L75.8835 218.711L112.926 177.565C119.638 173.461 127.48 169.477 136.626 165.773C137.014 171.269 138.051 177.415 140.039 184.186C140.01 184.198 139.977 184.211 139.947 184.224C138.151 184.837 111.447 194.128 92.7136 213.674C79.2676 227.595 75.4756 240.778 74.4336 247.845Z" fill="#120F20"/>
<path d="M76.1095 214.161C75.4975 210.761 74.8886 204.078 77.0426 195.469L76.1095 214.161Z" fill="#1B1932"/>
<path d="M76.6844 216.638C76.6554 216.542 76.3804 215.68 76.1094 214.163L77.0425 195.471C81.3135 178.396 96.4504 153.746 143.963 132.121C143.984 132.117 143.992 132.113 143.992 132.113C143.992 132.113 142.871 133.575 141.492 136.442C119.609 147.813 105.625 161.421 113.892 176.488L112.921 177.567C91.1214 190.909 81.1974 205.605 76.6844 216.638Z" fill="#1B1932"/>
<path d="M75.8828 218.712L76.6909 216.645C76.6909 216.645 76.6869 216.641 76.6869 216.637C81.1999 205.604 91.1248 190.908 112.925 177.566L75.8828 218.712Z" fill="#110D1D"/>
<path d="M322.478 74.6223C320.64 74.6223 319.19 75.9973 318.932 77.7643L295.507 74.4353L284.982 53.2814C286.178 52.6814 287.019 51.4734 287.019 50.0484C287.019 48.0314 285.386 46.4023 283.373 46.4023C281.36 46.4023 279.727 48.0314 279.727 50.0484C279.727 51.4814 280.577 52.6983 281.781 53.2903L271.393 74.5154L247.989 77.9904C247.722 76.2364 246.277 74.8694 244.447 74.8694C242.434 74.8694 240.801 76.5024 240.801 78.5154C240.801 80.5324 242.434 82.1613 244.447 82.1613C245.476 82.1613 246.397 81.7284 247.06 81.0444L264.018 97.4653L260.089 120.807L259.497 120.686C257.48 120.686 255.851 122.315 255.851 124.332C255.851 126.345 257.48 127.978 259.497 127.978C261.51 127.978 263.143 126.345 263.143 124.332C263.143 123.711 262.947 123.157 262.676 122.645L283.568 111.578L304.526 122.511C304.264 123.019 304.076 123.569 304.076 124.178C304.076 126.195 305.705 127.824 307.722 127.824C309.735 127.824 311.368 126.195 311.368 124.178C311.368 122.165 309.735 120.532 307.722 120.532L307.105 120.657L303.03 97.3443L319.876 80.8154C320.538 81.4904 321.455 81.9153 322.476 81.9153C324.489 81.9153 326.122 80.2823 326.122 78.2693C326.122 76.2523 324.489 74.6234 322.476 74.6234L322.478 74.6223Z" fill="#D2862D"/>
<path d="M322.464 72.7161C320.627 72.7161 319.177 74.0911 318.918 75.8581L295.493 72.5291L284.968 51.3751C286.164 50.7751 287.006 49.5671 287.006 48.1421C287.006 46.1251 285.377 44.4961 283.36 44.4961C281.347 44.4961 279.714 46.1251 279.714 48.1421C279.714 49.5751 280.564 50.7921 281.768 51.3841L271.381 72.6091L247.977 76.0841C247.71 74.3301 246.264 72.9631 244.435 72.9631C242.422 72.9631 240.789 74.5961 240.789 76.6091C240.789 78.6261 242.422 80.2551 244.435 80.2551C245.464 80.2551 246.385 79.8221 247.048 79.1381L264.006 95.5591L260.077 118.901L259.485 118.78C257.468 118.78 255.839 120.409 255.839 122.426C255.839 124.439 257.468 126.072 259.485 126.072C261.498 126.072 263.131 124.439 263.131 122.426C263.131 121.805 262.935 121.251 262.664 120.739L283.556 109.672L304.514 120.605C304.252 121.113 304.064 121.663 304.064 122.272C304.064 124.289 305.693 125.918 307.71 125.918C309.723 125.918 311.356 124.289 311.356 122.272C311.356 120.259 309.723 118.626 307.71 118.626L307.093 118.751L303.018 95.4381L319.864 78.9091C320.526 79.5841 321.443 80.0091 322.464 80.0091C324.477 80.0091 326.11 78.3761 326.11 76.3631C326.11 74.3461 324.477 72.7161 322.464 72.7161Z" fill="#FAA62B"/>
<path d="M283.417 64.2988L281.55 65.2278L288.887 79.9738L301.016 81.6989L292.27 90.2778L294.382 102.345L283.515 96.6778L272.69 102.415L274.719 90.3318L265.923 81.8109L278.04 80.0069L285.286 65.2148L283.415 64.2979L281.544 63.3808L275.261 76.2098L256.961 78.9268L270.248 91.8018L267.177 110.044L283.531 101.386L299.939 109.944L296.751 91.7188L309.955 78.7608L291.638 76.1568L283.396 59.5898L281.542 63.3819L283.413 64.2988H283.417Z" fill="#FDBB56"/>
<path d="M195.53 855.55L185.484 841.658C186.347 841.575 287.313 835.087 393.684 841.658L386.613 854.25C281.575 847.779 196.384 855.475 195.53 855.55Z" fill="#0D090F"/>
<path d="M392.125 831.785L393.104 831.918C395.971 780.626 395.3 725.539 393.242 676.089C383.492 664.093 376.367 626.106 376.367 581.064C376.367 557.747 378.28 536.335 381.475 519.418C365.204 514.01 351.237 510.118 340.779 507.464C344.196 517.585 346.158 528.856 346.158 540.81C346.158 583.668 321.6 618.414 291.296 618.414C261 618.414 236.434 583.668 236.434 540.81C236.434 528.781 238.43 517.435 241.88 507.277C232.301 509.685 219.651 513.173 204.901 517.952C208.263 535.085 210.284 557.077 210.284 581.065C210.284 633.382 200.667 676.19 188.501 679.777C186.693 724.848 186.409 782.935 188.634 831.548C201.009 829.756 287.067 818.381 392.126 831.786L392.125 831.785Z" fill="#110D18"/>
<path d="M256.953 826.486L261.924 858.599C261.924 858.599 289.295 863.628 317.22 858.599L320.841 826.486C320.841 826.486 288.899 817.457 256.953 826.486Z" fill="#A2A5A7"/>
<path d="M378.807 577.566C377.853 577.566 377.095 578.287 376.961 579.208L364.757 577.475L359.278 566.45C359.899 566.137 360.341 565.508 360.341 564.767C360.341 563.717 359.491 562.867 358.441 562.867C357.391 562.867 356.541 563.717 356.541 564.767C356.541 565.517 356.983 566.146 357.608 566.454L352.2 577.508L340.008 579.325C339.87 578.408 339.112 577.696 338.158 577.696C337.116 577.696 336.262 578.546 336.262 579.596C336.262 580.646 337.116 581.496 338.158 581.496C338.695 581.496 339.179 581.271 339.525 580.917L348.358 589.471L346.312 601.629L345.999 601.567C344.949 601.567 344.099 602.413 344.099 603.467C344.099 604.513 344.949 605.363 345.999 605.363C347.049 605.363 347.899 604.513 347.899 603.467L347.657 602.588L358.54 596.821L369.457 602.513L369.224 603.384C369.224 604.434 370.074 605.284 371.124 605.284C372.174 605.284 373.024 604.434 373.024 603.384C373.024 602.334 372.174 601.484 371.124 601.484L370.803 601.551L368.682 589.409L377.453 580.801C377.799 581.151 378.274 581.368 378.807 581.368C379.857 581.368 380.707 580.518 380.707 579.468C380.707 578.418 379.857 577.568 378.807 577.568V577.566Z" fill="#D2862D"/>
<path d="M378.803 576.575C377.849 576.575 377.09 577.292 376.957 578.208L364.753 576.475L359.27 565.458C359.891 565.146 360.333 564.516 360.333 563.771C360.333 562.725 359.483 561.875 358.433 561.875C357.383 561.875 356.533 562.725 356.533 563.771C356.533 564.521 356.975 565.154 357.604 565.463L352.196 576.517L340 578.33C339.863 577.417 339.108 576.705 338.158 576.705C337.108 576.705 336.254 577.555 336.254 578.601C336.254 579.651 337.108 580.501 338.158 580.501C338.691 580.501 339.17 580.276 339.516 579.922L348.349 588.472L346.303 600.635L345.991 600.573C344.941 600.573 344.095 601.423 344.095 602.473C344.095 603.523 344.941 604.373 345.991 604.373C347.041 604.373 347.891 603.523 347.891 602.473L347.653 601.594L358.532 595.827L369.453 601.527L369.22 602.394C369.22 603.44 370.07 604.29 371.12 604.29C372.166 604.29 373.016 603.44 373.016 602.394C373.016 601.344 372.166 600.494 371.12 600.494L370.799 600.561L368.674 588.415L377.449 579.802C377.795 580.152 378.27 580.373 378.803 580.373C379.853 580.373 380.699 579.523 380.699 578.477C380.699 577.427 379.853 576.577 378.803 576.577V576.575Z" fill="#FAA62B"/>
<path d="M358.46 572.193L357.527 572.656L361.34 580.318L367.723 581.226L363.119 585.743L364.231 592.093L358.51 589.106L352.814 592.127L353.885 585.769L349.252 581.286L355.627 580.34L359.394 572.652L358.461 572.194L357.523 571.736L354.24 578.44L344.773 579.844L351.648 586.502L350.056 595.944L358.519 591.461L367.011 595.894L365.361 586.461L372.194 579.757L362.715 578.411L358.453 569.844L357.523 571.736L358.461 572.194L358.46 572.193Z" fill="#FDBB56"/>
<path d="M196.249 855.548C196.249 859.286 191.432 862.319 185.482 862.319C179.536 862.319 174.719 859.286 174.719 855.548C174.719 851.806 179.536 848.777 185.482 848.777C191.432 848.777 196.249 851.806 196.249 855.548Z" fill="#110D18"/>
<path d="M381.07 532.06C381.07 532.06 529.174 525.81 588.549 376.668C588.549 376.668 601.049 372.205 610.424 381.118C610.424 381.118 553.216 540.81 385.466 572.189C376.462 572.222 381.07 532.06 381.07 532.06Z" fill="#22233E"/>
<path d="M622.926 275.863L627.434 249.755L632.301 258.434L634.384 232.738V262.946L628.655 257.392L622.926 275.863Z" fill="#F89932"/>
<path d="M632.646 283.778L647.229 273.699V280.653L662.507 278.74L642.715 283.778L643.411 278.74L632.646 283.778Z" fill="#F89932"/>
<path d="M198.764 525.899C198.764 525.899 127.089 544.578 132.647 808.103C132.647 808.103 146.539 814.024 154.872 808.103C154.872 808.103 147.072 650.532 193.334 572.19C193.334 572.19 206.551 537.111 198.763 525.898L198.764 525.899Z" fill="#22233E"/>
</svg>
