<svg width="1065" height="653" viewBox="0 0 1065 653" fill="none" xmlns="http://www.w3.org/2000/svg">
<path d="M665.815 181.106C664.432 190.19 661.787 198.805 658.02 206.809C658.983 203.377 659.724 199.874 660.276 196.263C669.621 134.56 617.348 73.3953 543.553 59.664C525.606 56.3033 508.04 56.1284 491.577 58.5591C456.064 21.6621 395.771 5.43487 333.255 21.197C274.573 35.9613 228.652 75.2144 208.637 121.585C224.43 68.7829 273.799 22.4129 338.795 6.00727C401.347 -9.75828 461.605 6.47218 497.117 43.3974C513.587 40.9342 531.146 41.1487 549.128 44.4699C622.895 58.2012 675.16 119.365 665.815 181.105L665.815 181.106Z" fill="black"/>
<path d="M660.274 196.264C659.723 199.874 658.982 203.378 658.018 206.81C636.46 253.141 578.229 279.668 515.325 267.978C494.279 264.081 475.008 256.288 458.416 245.777C439.625 258.758 417.845 268.911 393.901 274.913C305.12 297.328 220.819 255.286 205.577 181.003C201.513 161.087 202.806 140.924 208.635 121.587C228.65 75.216 274.571 35.9629 333.253 21.1986C395.769 5.43652 456.063 21.6638 491.575 58.5607C508.038 56.1301 525.605 56.305 543.551 59.6657C617.347 73.397 669.619 134.561 660.274 196.264L660.274 196.264Z" fill="#D87907"/>
<path d="M1065 375.608C1065 474.219 1010.52 554.134 943.324 554.134C939.164 554.134 935.213 553.727 931.442 552.976C989.351 539.273 1033.55 465.597 1033.55 376.766C1033.55 284.686 986.055 208.894 925.007 199.288C930.971 197.833 937.094 197.079 943.323 197.079C1010.52 197.079 1065 276.997 1065 375.608Z" fill="black"/>
<path d="M159.409 588.099C62.5143 538.254 0 459.673 0 371.25C0 295.604 45.7662 227.122 119.687 177.716C161.554 228.313 242.649 363.85 159.408 588.099H159.409Z" fill="#F9910A"/>
<path d="M198.662 579.392C195.862 586.909 192.878 594.542 189.688 602.264C179.272 597.882 169.17 593.123 159.409 588.1C242.65 363.85 161.555 228.314 119.688 177.717C129.423 171.215 139.681 165.005 150.383 159.167C152.948 161.984 155.851 165.262 158.938 169.009C200.809 219.609 281.899 355.143 198.662 579.392Z" fill="black"/>
<path d="M266.696 559.071C263.895 566.589 260.912 574.221 257.721 581.943C252.539 594.541 246.861 607.461 240.607 620.61C222.944 615.297 205.91 609.141 189.688 602.264C192.878 594.542 195.862 586.909 198.663 579.391C281.9 355.141 200.809 219.608 158.938 169.009C155.851 165.262 152.947 161.983 150.383 159.167C169.409 148.803 189.843 139.572 211.485 131.618C213.418 133.534 215.748 135.944 218.417 138.847C220.982 141.664 223.886 144.942 226.976 148.689C268.84 199.289 349.934 334.823 266.697 559.072L266.696 559.071Z" fill="white"/>
<path d="M641.668 593.148C636.409 595.676 631.098 598.114 625.761 600.437C619.977 602.962 614.167 605.343 608.305 607.638C610.844 566.966 605.611 525.718 588.235 492.738C564.71 447.976 509.944 409.281 535.557 350.409C549.301 318.799 584.391 315.375 601.634 288.842C614.299 269.39 617.437 233.133 620.422 210.142C622.961 190.724 625.288 164.161 622.88 139.08C631.281 142.651 639.55 146.541 647.713 150.691C662.391 225.965 675.423 368.031 641.667 593.149L641.668 593.148Z" fill="white"/>
<path d="M1033.55 376.767C1033.55 465.597 989.353 539.273 931.444 552.976C901.168 547.138 881.962 519.504 857.887 498.837C855.167 496.484 852.238 494.336 849.151 492.392C871.209 385.854 857.026 307.388 843.26 263.498C843.759 263.237 844.255 262.948 844.726 262.655C859.879 253.51 867.596 235.978 880.654 223.96C893.634 212.03 908.706 203.147 925.009 199.289C986.056 208.895 1033.55 284.686 1033.55 376.767Z" fill="#F9910A"/>
<path d="M881.833 327.707C889.039 321.061 896.763 316.1 904.648 311.648C912.55 307.266 920.658 303.54 928.943 300.387C937.225 297.227 945.691 294.664 954.356 292.755C963.044 290.913 971.893 289.59 981.267 289.973C974.068 296.64 966.344 301.61 958.458 306.053C950.553 310.44 942.445 314.161 934.154 317.293C925.865 320.428 917.403 322.995 908.734 324.901C900.044 326.739 891.197 328.069 881.833 327.707Z" fill="#DB7C14"/>
<path d="M881.833 432.214C890.882 432.832 899.247 435.063 907.407 437.781C915.541 440.566 923.406 443.979 931.044 447.941C938.681 451.898 946.077 456.42 953.208 461.576C960.314 466.792 967.21 472.505 973.416 479.848C964.357 479.25 955.989 477.023 947.83 474.303C939.699 471.518 931.83 468.104 924.202 464.122C916.578 460.143 909.179 455.621 902.047 450.465C894.945 445.242 888.046 439.536 881.832 432.215L881.833 432.214Z" fill="#DB7C14"/>
<path d="M881.833 375.608C889.606 371.904 897.381 369.985 905.157 368.604C912.933 367.293 920.706 366.681 928.482 366.671C936.257 366.656 944.03 367.271 951.806 368.58C959.582 369.956 967.357 371.883 975.13 375.608C967.357 379.334 959.582 381.257 951.806 382.637C944.03 383.946 936.257 384.556 928.482 384.543C920.706 384.532 912.933 383.921 905.157 382.612C897.381 381.228 889.606 379.308 881.833 375.608Z" fill="#DB7C14"/>
<path d="M776.063 484.291C768.213 489.982 761.778 498.429 754.267 507.138C740.713 522.814 727.052 538.43 710.908 550.856C702.878 557.037 694.631 562.843 686.181 568.273C671.815 577.561 656.898 585.804 641.669 593.147C675.425 368.029 662.393 225.964 647.715 150.689C660.511 157.221 672.966 164.478 685.028 172.46C711.25 189.82 735.532 210.752 757.12 235.773C758.509 237.4 759.894 239.141 761.254 240.967C772.637 288.404 785.929 372.5 776.065 484.29L776.063 484.291Z" fill="#F9910A"/>
<path d="M489.037 346.869C463.418 405.741 518.188 444.432 541.709 489.198C561.885 527.514 565.707 576.949 559.926 623.745C511.83 637.13 462.058 643.543 412.602 644.094H412.499C410.195 644.126 407.894 644.126 405.591 644.126H403.654C383.664 644.065 364.039 643.022 344.856 641.077C333.213 639.886 321.699 638.377 310.394 636.547C286.216 632.658 262.875 627.288 240.608 620.61C246.863 607.461 252.541 594.542 257.723 581.943C260.913 574.221 263.897 566.589 266.697 559.071C349.935 334.821 268.84 199.288 226.977 148.688C223.886 144.941 220.983 141.664 218.417 138.846C215.749 135.943 213.42 133.533 211.485 131.617C223.547 127.177 236.002 123.141 248.77 119.541C261.385 115.974 274.311 112.839 287.523 110.136C311.65 105.203 336.744 101.749 362.573 99.9473C364.168 99.8041 365.789 99.6865 367.413 99.6007C379.975 98.789 392.716 98.3813 405.591 98.3813C461.456 98.3813 519.419 105.027 574.447 121.515C579.654 150.282 576.906 183.494 573.896 206.599C570.915 229.589 567.776 265.85 555.108 285.298C537.861 311.831 502.774 315.255 489.037 346.869Z" fill="#F9910A"/>
<path d="M535.557 350.408C509.944 409.281 564.711 447.976 588.235 492.738C605.611 525.716 610.844 566.965 608.305 607.637C592.425 613.846 576.277 619.216 559.926 623.746C565.707 576.949 561.885 527.515 541.709 489.198C518.187 444.433 463.418 405.741 489.037 346.869C502.775 315.256 537.861 311.831 555.108 285.297C567.776 265.849 570.914 229.589 573.896 206.598C576.906 183.494 579.654 150.282 574.447 121.514C590.904 126.451 607.079 132.257 622.881 139.078C625.289 164.16 622.962 190.722 620.423 210.141C617.439 233.132 614.3 269.389 601.635 288.84C584.392 315.373 549.301 318.797 535.558 350.407L535.557 350.408Z" fill="black"/>
<path d="M849.15 492.391C834.234 482.899 815.681 477.73 799.144 477.208C796.711 477.123 794.436 477.266 792.29 477.555C809.666 397.93 799.667 324.107 784.987 269.65C787.318 271.366 789.776 272.638 792.341 273.6C808.643 279.609 829.052 271.856 843.259 263.497C857.026 307.387 871.209 385.854 849.15 492.391Z" fill="white"/>
<path d="M792.289 477.555C788.989 478.021 785.983 478.921 783.208 480.141C780.672 481.274 778.313 482.665 776.064 484.292C785.928 372.503 772.635 288.406 761.253 240.969C768.398 250.465 775.49 262.133 783.862 268.811C784.226 269.1 784.594 269.39 784.986 269.651C799.665 324.109 809.664 397.93 792.289 477.555Z" fill="black"/>
<path d="M141.3 317.547C141.3 347.209 119.629 371.251 92.8914 371.251C66.1571 371.251 44.4824 347.209 44.4824 317.547C44.4824 287.889 66.1571 263.848 92.8914 263.848C119.629 263.848 141.3 287.89 141.3 317.547Z" fill="white"/>
<path d="M122.984 321.902C122.984 344.348 106.585 362.542 86.3507 362.542C66.12 362.542 49.7168 344.349 49.7168 321.902C49.7168 299.458 66.1192 281.265 86.3507 281.265C106.585 281.265 122.984 299.457 122.984 321.902Z" fill="black"/>
<path d="M65.027 462.955C82.335 462.547 101.593 455.561 114.006 441.916C119.629 435.735 123.651 428.088 125.958 419.704C127.779 413.091 118.45 410.259 116.635 416.851C113.219 429.271 105.099 438.161 94.9283 443.868C90.6839 446.249 86.1757 448.014 81.2522 449.43C79.1447 450.038 77.0209 450.557 74.8817 450.989C73.983 451.171 73.0774 451.339 72.1717 451.493C71.7525 451.561 71.3372 451.628 70.9211 451.693C71.9977 451.524 71.0533 451.671 70.563 451.735C68.7262 451.968 66.8762 452.186 65.027 452.229C58.8173 452.376 58.7949 463.101 65.027 462.955Z" fill="black"/>
<path d="M108.06 404.05C110.503 414.107 117.422 423.763 125.832 428.325C130.363 430.781 135.204 432.003 140.24 432.161C142.77 432.243 145.19 429.637 145.074 426.798C144.955 423.828 142.953 421.522 140.24 421.436C139.879 421.426 137.317 421.028 137.215 421.203C137.228 421.182 138.159 421.375 137.598 421.261L136.893 421.135C136.377 421.035 135.862 420.924 135.352 420.792C134.537 420.585 133.728 420.335 132.932 420.042C132.571 419.913 132.214 419.774 131.863 419.627L131.266 419.37C131.276 419.481 132.211 419.845 131.411 419.431C129.964 418.676 128.572 417.825 127.254 416.814L126.439 416.167C127.202 416.528 127.099 416.75 126.751 416.431L126.32 416.042C125.762 415.527 125.221 414.987 124.695 414.426C123.735 413.396 122.952 411.977 121.941 411.037C121.966 411.062 122.688 412.149 122.25 411.476L121.96 411.051L121.486 410.303C121.141 409.753 120.806 409.191 120.487 408.619C119.923 407.597 119.394 406.55 118.911 405.474C118.715 405.038 118.521 404.598 118.34 404.151L118.076 403.5C117.835 402.907 118.617 404.998 118.282 404.026C117.957 403.096 117.619 402.163 117.384 401.197C116.726 398.491 113.913 396.568 111.438 397.455C108.934 398.356 107.358 401.147 108.06 404.05Z" fill="black"/>
<path fill-rule="evenodd" clip-rule="evenodd" d="M243.675 391.33C244.017 389.197 244.567 387.141 245.177 385.067C245.828 383.03 246.359 380.835 247.41 379.018C249.43 375.322 251.484 371.393 254.542 368.397C256.04 366.885 257.384 365.079 259.16 363.9C260.858 362.595 262.653 361.419 264.441 360.204C268.212 358.27 272.172 356.457 276.319 355.785C278.946 355.245 281.595 354.988 284.224 354.988C289.845 354.988 295.378 356.168 300.421 358.302C301.139 358.616 301.852 358.946 302.557 359.292C302.702 363.55 302.786 367.872 302.798 372.248C301.091 372.137 299.412 372.051 297.752 371.99C296.569 371.951 295.399 371.93 294.246 371.93C288.981 371.93 283.995 372.377 279.217 373.363C277.76 373.657 276.255 373.799 274.879 374.408C273.465 374.873 271.992 375.205 270.574 375.734C269.182 376.346 267.796 376.996 266.317 377.514C265.557 377.736 264.877 378.14 264.193 378.558L262.066 379.707C259.034 380.99 256.404 383.181 253.243 384.958C250.188 386.895 247.356 389.316 243.676 391.332L243.675 391.33Z" fill="#D4D4D4"/>
<path d="M319.049 373.681C313.203 373.109 307.873 372.576 302.798 372.247C302.785 367.872 302.701 363.549 302.557 359.292C309.073 362.503 314.934 367.143 319.049 373.681Z" fill="#CF7908"/>
<path d="M692.951 563.812C699.048 559.693 705.035 555.375 710.907 550.856C727.052 538.43 740.712 522.814 754.266 507.138C761.777 498.429 768.213 489.982 776.063 484.291C777.529 467.682 778.483 451.694 779.008 436.336C778.483 451.694 777.528 467.681 776.063 484.291C776.568 483.926 777.081 483.572 777.596 483.233C769.814 488.949 763.391 497.35 755.915 505.998C742.348 521.695 728.717 537.318 712.575 549.72C706.153 554.65 699.627 559.354 692.95 563.812L692.951 563.812Z" fill="#CFCFCF"/>
<path d="M608.334 607.158C608.715 600.962 608.911 594.753 608.911 588.561C608.911 579.684 608.508 570.847 607.654 562.135C610.555 560.937 613.445 559.707 616.32 558.442C621.669 556.119 626.986 553.69 632.239 551.149C637.743 548.496 643.211 545.722 648.628 542.823C646.585 558.996 644.288 575.655 641.723 592.78C636.992 595.042 632.213 597.216 627.402 599.304C621.637 601.842 615.836 604.205 609.968 606.525C609.426 606.739 608.879 606.95 608.334 607.158Z" fill="#CFCFCF"/>
<path d="M641.724 592.78C644.289 575.656 646.587 558.997 648.629 542.824C658.178 537.712 667.572 532.213 676.743 526.307C685.186 520.87 693.435 515.046 701.459 508.862C717.604 496.453 731.264 480.83 744.834 465.172C752.339 456.452 758.785 448.016 766.618 442.297C768.871 440.684 771.223 439.293 773.769 438.145C775.426 437.42 777.172 436.812 779.009 436.337C778.484 451.695 777.53 467.682 776.064 484.292C768.214 489.983 761.778 498.43 754.267 507.139C740.713 522.815 727.052 538.431 710.908 550.857C705.037 555.376 699.05 559.694 692.952 563.813C691.254 564.946 689.546 566.065 687.829 567.166C673.453 576.428 658.565 584.683 643.322 592.016C642.791 592.27 642.259 592.526 641.724 592.78Z" fill="#CA7608"/>
<path d="M407.242 642.994H405.308C393.082 642.969 380.995 642.561 369.052 641.803C384.239 636.523 398.08 629.702 410.368 622.366C419.433 616.946 426.851 609.617 432.507 601.098C472.221 598.757 511.9 592.508 550.479 581.75C554.434 580.663 558.374 579.523 562.299 578.333C562.348 580.478 562.373 582.623 562.373 584.771C562.38 597.534 561.545 610.386 560.008 623.045C512.412 636.157 463.165 642.424 414.263 642.953H414.134C411.847 642.993 409.558 642.994 407.242 642.994Z" fill="#CA7608"/>
<path d="M560.009 623.046C561.546 610.387 562.38 597.535 562.374 584.772C562.374 582.624 562.348 580.479 562.299 578.334C574.635 574.595 586.833 570.355 598.881 565.664C601.807 564.517 604.737 563.344 607.653 562.136C608.507 570.848 608.91 579.685 608.91 588.562C608.91 594.754 608.714 600.964 608.333 607.159C592.975 613.083 577.375 618.263 561.565 622.613C561.046 622.76 560.528 622.902 560.009 623.046Z" fill="black"/>
<path d="M160.028 586.43C74.3282 542.065 15.7204 475.124 3.84473 398.82C27.0824 458.272 79.4164 509.826 149.99 546.112C156.628 549.547 163.447 552.854 170.417 555.993C167.291 565.942 163.83 576.103 160.028 586.43Z" fill="#CA7608"/>
<path d="M190.329 600.705C180.274 596.462 170.523 591.85 161.071 586.97C160.726 586.792 160.372 586.609 160.027 586.431C163.83 576.102 167.291 565.943 170.416 555.994C173.662 557.456 176.939 558.883 180.248 560.27C187.482 563.341 194.875 566.269 202.409 569.039C201.197 572.471 199.95 575.914 198.661 579.393C196.051 586.403 193.28 593.517 190.328 600.707L190.329 600.705Z" fill="black"/>
<path d="M241.273 619.209C223.962 613.951 207.276 607.902 191.334 601.127C190.999 600.988 190.663 600.845 190.328 600.705C193.28 593.516 196.051 586.401 198.662 579.391C199.951 575.913 201.198 572.47 202.41 569.038C211.781 572.484 221.374 575.687 231.164 578.644C239.381 581.096 247.753 583.381 256.258 585.479C251.662 596.504 246.684 607.769 241.273 619.208V619.209Z" fill="#CFCFCF"/>
<path d="M345.679 639.869C334.323 638.704 323.093 637.227 312.049 635.411C287.88 631.553 264.517 626.151 242.246 619.502C241.921 619.406 241.595 619.306 241.273 619.209C246.684 607.769 251.663 596.504 256.258 585.479C270.788 589.068 285.715 592.114 300.964 594.549C312.275 596.408 323.776 597.91 335.413 599.09C354.619 601.06 374.241 602.093 394.224 602.132H401.674C396.045 610.529 388.69 617.759 379.723 623.117C369.433 629.263 358.044 635.05 345.679 639.869Z" fill="#CA7608"/>
<path d="M963.788 538.272C1005.03 509.705 1033.55 448.13 1033.55 376.766C1033.55 349.396 1029.35 323.475 1021.85 300.291C1021.38 296.763 1020.84 293.274 1020.23 289.824C1029.8 315.274 1035.21 344.556 1035.21 375.655C1035.21 447.937 1005.92 510.203 963.788 538.272Z" fill="black"/>
<path d="M933.09 551.863C902.834 546.001 883.628 518.366 859.553 497.703C856.813 495.343 853.881 493.198 850.788 491.268C850.376 491.004 849.959 490.743 849.541 490.486C851.5 480.862 853.167 471.453 854.562 462.294C875.918 482.085 894.341 505.644 922.006 511.003C940.961 506.513 958.439 495.605 973.389 479.843C973.399 479.843 973.409 479.846 973.419 479.846C973.413 479.84 973.409 479.836 973.406 479.828C1004.13 447.432 1024.13 394.551 1024.13 334.792C1024.13 323.002 1023.35 311.462 1021.86 300.29C1029.35 323.474 1033.55 349.395 1033.55 376.765C1033.55 448.128 1005.03 509.704 963.789 538.271C954.16 544.685 943.863 549.311 933.09 551.863Z" fill="#CA7608"/>
<path d="M973.417 479.847C973.407 479.847 973.398 479.843 973.388 479.843C973.391 479.84 973.401 479.833 973.404 479.829C973.407 479.835 973.41 479.84 973.417 479.847Z" fill="#B26510"/>
<path d="M849.539 490.486C834.87 481.481 816.879 476.597 800.809 476.075C800.387 476.065 799.971 476.057 799.562 476.057C797.587 476.057 795.734 476.197 793.945 476.433C793.448 476.504 792.962 476.583 792.479 476.673C795.45 462.913 797.602 449.324 799.055 435.982C812.98 437.802 827.539 442.657 839.701 450.411C842.795 452.341 845.731 454.518 848.47 456.842C850.533 458.615 852.56 460.439 854.56 462.294C853.165 471.453 851.499 480.863 849.539 490.486Z" fill="#CFCFCF"/>
<path d="M776.062 484.29C777.529 467.681 778.483 451.694 779.008 436.336C780.248 436.017 781.534 435.76 782.858 435.574C784.618 435.334 786.49 435.199 788.476 435.199C788.885 435.199 789.301 435.202 789.722 435.217C792.777 435.314 795.9 435.57 799.055 435.982C797.602 449.324 795.45 462.912 792.478 476.672C789.752 477.172 787.209 477.974 784.854 479.01C782.308 480.15 779.956 481.545 777.703 483.153C777.667 483.178 777.632 483.203 777.596 483.232C777.08 483.572 776.568 483.926 776.062 484.29Z" fill="black"/>
<path d="M313.574 652.245C309.89 652.245 306.288 651.913 302.769 651.287C317.06 649.231 330.524 645.563 343.021 640.884C343.63 640.948 344.242 641.012 344.855 641.077C351.844 641.785 358.892 642.374 365.994 642.839C350.71 647.883 334.111 651.333 316.4 652.177C315.452 652.223 314.508 652.245 313.574 652.245Z" fill="#D4D4D4"/>
<path d="M365.995 642.84C358.893 642.375 351.844 641.785 344.855 641.078C344.243 641.013 343.631 640.949 343.021 640.885C343.911 640.552 344.797 640.213 345.68 639.87C345.95 639.898 346.224 639.927 346.498 639.956C353.955 640.703 361.473 641.325 369.053 641.804C368.041 642.154 367.019 642.501 365.995 642.84Z" fill="#CF7908"/>
<path d="M302.15 397.413C302.043 397.37 301.937 397.33 301.834 397.287C301.944 397.23 302.057 397.177 302.166 397.119C302.16 397.22 302.156 397.316 302.15 397.413Z" fill="#D4D4D4"/>
<path d="M403.178 602.132H401.673C418.279 577.358 419.9 542.363 403.726 514.864C396.833 503.174 388.164 492.949 380.269 482.01C360.68 454.865 332.386 409.721 302.149 397.412C302.156 397.315 302.159 397.219 302.166 397.119C307.286 394.606 312.419 393.461 317.531 393.461C353.356 393.461 388.075 449.588 410.913 481.258C418.78 492.198 427.477 502.422 434.373 514.113C450.485 541.507 448.938 576.342 432.508 601.098C422.727 601.677 412.947 602.017 403.179 602.131L403.178 602.132Z" fill="#CF7908"/>
<path d="M369.053 641.803C361.473 641.324 353.955 640.701 346.498 639.954C346.224 639.926 345.95 639.897 345.68 639.869C358.045 635.049 369.433 629.262 379.723 623.116C388.691 617.757 396.045 610.529 401.674 602.132H403.179C412.947 602.018 422.727 601.678 432.507 601.099C426.852 609.618 419.434 616.947 410.369 622.367C398.081 629.702 384.241 636.523 369.053 641.803Z" fill="#A86207"/>
<path d="M392.613 623.117C371.309 635.844 345.274 647.033 315.659 651.284C310.116 652.106 304.442 652.642 298.641 652.928C257.88 654.895 225.007 616.11 228.684 571.027C231.358 538.141 231.745 501.529 240.12 468.246C243.893 453.339 249.21 439.111 257.074 426.17C275.925 395.104 295.68 389.669 314.725 397.287C345.081 409.403 373.5 454.769 393.161 482.01C401.056 492.95 409.725 503.174 416.618 514.864C438.276 551.69 428.025 601.953 392.613 623.117Z" fill="#F9910A"/>
<path d="M323.584 458.257C329.578 466.251 334.047 474.823 338.06 483.568C342.014 492.338 345.368 501.332 348.214 510.52C351.059 519.707 353.373 529.099 355.091 538.716C356.753 548.354 357.942 558.171 357.601 568.567C351.591 560.581 347.111 552.011 343.103 543.267C339.152 534.497 335.794 525.503 332.971 516.305C330.145 507.11 327.831 497.719 326.113 488.102C324.46 478.464 323.262 468.649 323.584 458.257Z" fill="#DB7C14"/>
<path d="M280.408 458.257C283.744 466.884 285.477 475.51 286.721 484.137C287.9 492.759 288.451 501.386 288.461 510.009C288.474 518.638 287.922 527.261 286.743 535.888C285.502 544.514 283.765 553.137 280.407 561.763C277.049 553.137 275.313 544.514 274.072 535.888C272.892 527.262 272.341 518.639 272.354 510.009C272.363 501.386 272.911 492.759 274.094 484.137C275.341 475.51 277.069 466.884 280.407 458.257H280.408Z" fill="#DB7C14"/>
</svg>
