<svg width="1147" height="1124" viewBox="0 0 1147 1124" fill="none" xmlns="http://www.w3.org/2000/svg">
<path d="M860.986 829.317C888.923 830.411 918.171 824.827 939.231 805.177C957.14 788.468 964.715 765.304 967.433 741.609C972.805 694.752 958.534 647.066 949.722 601.455C948.786 596.615 947.93 591.763 947.11 586.905C945.579 577.861 947.13 590.223 946.408 581.658C945.314 568.693 945.364 555.541 947.125 542.626C948.165 534.989 952.437 517.87 956.359 507.049C959.834 497.465 965.89 485.522 973.486 475.527C978.222 469.29 987.568 460.992 995.403 456.726C1001.13 453.614 1001.07 453.762 1008.8 451.931C1017.95 449.767 1004.23 451.809 1013.87 451.104C1018.45 450.771 1023.19 450.775 1027.75 451.292C1049.68 453.766 1065.98 465.197 1076.91 483.287C1083.16 493.63 1087.11 504.877 1087.25 513.846C1087.29 516.733 1087.34 519.587 1087.14 522.474C1086.56 530.774 1088.69 517.8 1086.49 525.744C1085.75 528.437 1085.09 531.184 1083.98 533.761C1086.24 528.535 1081.01 538.108 1080.3 539.044C1083.71 534.555 1077.48 541.631 1077.25 541.815C1074.62 544.101 1074.22 544.481 1076.05 542.956C1074.26 544.187 1072.42 545.332 1070.52 546.39C1065.84 549.009 1058.39 551.949 1051.02 551.482C1036.35 550.545 1023.79 537.666 1015.57 526.375C1006.14 513.41 989.739 507.027 974.895 515.708C962.097 523.194 954.732 543.33 964.228 556.384C990.806 592.916 1031.16 621.495 1078.36 607.115C1111.59 596.992 1138.8 570.942 1144.91 536.019C1157.39 464.656 1100.74 399.914 1031.37 392.224C957.426 384.024 907.091 448.938 892.253 514.424C885.475 544.338 885.049 573.761 889.967 603.88C894.019 628.713 900.209 653.156 904.552 677.942C905.225 681.78 905.857 685.625 906.452 689.474C906.675 690.907 906.886 692.343 907.088 693.785C907.775 698.714 906.595 689.56 907.151 694.46C907.992 701.896 908.682 709.337 908.929 716.816C909.146 723.431 908.944 729.996 908.504 736.598C908.468 737.166 908.016 741.406 908.48 737.642C909 733.382 908.047 740.134 907.865 740.966C907.282 743.674 906.614 746.335 905.888 749.008C905.49 750.491 904.925 751.918 904.449 753.378C903.159 757.341 906.762 748.895 904.83 752.498C903.433 755.094 902.002 757.606 900.427 760.103C898.679 762.883 901.625 758.577 901.774 758.417C900.79 759.493 899.848 760.608 898.795 761.618C893.331 766.86 899.776 761.966 896.007 763.907C893.988 764.947 886.767 768.161 892.24 766.181C888.863 767.403 885.432 768.265 881.939 769.092C881.776 769.13 877.144 769.96 880.128 769.508C882.875 769.094 876.977 769.76 876.424 769.787C871.254 770.01 866.161 770.058 860.988 769.856C822.724 768.355 822.789 827.816 860.988 829.315L860.986 829.317Z" fill="#BA5102"/>
<path d="M299.574 705.73C239.476 705.73 190.758 773.606 190.758 857.336C190.758 888.564 197.542 917.58 209.154 941.699C181.839 946.709 161.412 966.696 161.412 990.607C161.412 1018.29 188.784 1040.73 222.548 1040.73C249.498 1040.73 272.36 1026.43 280.49 1006.57C286.692 1008.1 293.06 1008.94 299.574 1008.94C359.669 1008.94 408.39 941.066 408.39 857.336C408.39 773.606 359.669 705.73 299.574 705.73Z" fill="#BA5102"/>
<path d="M815.53 705.73C875.628 705.73 924.343 773.606 924.343 857.336C924.343 888.564 917.561 917.58 905.946 941.699C933.265 946.709 953.689 966.696 953.689 990.607C953.689 1018.29 926.317 1040.73 892.557 1040.73C865.607 1040.73 842.745 1026.43 834.611 1006.57C828.412 1008.1 822.041 1008.94 815.53 1008.94C755.432 1008.94 706.715 941.066 706.715 857.336C706.715 773.606 755.432 705.73 815.53 705.73Z" fill="#BA5102"/>
<path d="M882.017 1083.77L760.216 1122.68C745.52 1127.37 729.823 1119.18 725.251 1104.44L724.394 1101.7C713.145 1103.8 701.482 1105.69 689.4 1107.37C692.727 1085.29 694.486 1062.03 694.486 1038.02C694.486 893.553 630.446 776.425 551.44 776.425C472.431 776.425 408.39 893.553 408.39 1038.02C408.39 1062.13 410.174 1085.51 413.525 1107.69C400.809 1105.98 388.534 1103.99 376.722 1101.82C371.318 1115.12 356.5 1122.24 342.56 1117.79L220.785 1078.88C205.748 1074.09 197.727 1057.73 203.156 1042.89L216.02 1007.77C216.727 1004.57 217.854 1001.39 219.492 998.286L370.34 524.437L775.063 522.335L882.948 1002.71C882.996 1002.86 883.044 1003 883.091 1003.15L883.29 1003.17L899.647 1047.78C905.076 1062.62 897.058 1078.98 882.018 1083.77L882.017 1083.77Z" fill="#D86A0B"/>
<path d="M414.499 865.896C414.172 886.008 412.451 905.897 410.516 925.754C408.497 945.592 405.869 965.339 402.887 985.026C396.828 1024.38 389.485 1063.54 379.293 1102.23L379.127 1102.85L379.065 1102.95C378.239 1104.26 377.394 1105.35 376.448 1106.46C375.524 1107.55 374.561 1108.61 373.534 1109.61C371.501 1111.6 369.134 1113.37 366.519 1114.34C368.567 1112.46 369.979 1110.18 371.258 1107.87C371.891 1106.71 372.456 1105.5 372.97 1104.29C373.464 1103.09 373.975 1101.82 374.359 1100.69L374.133 1101.4C376.538 1061.46 381.791 1021.97 388.328 982.689C391.646 963.059 395.315 943.482 399.593 924.003C403.954 904.537 408.533 885.105 414.5 865.897L414.499 865.896Z" fill="#873B03"/>
<path d="M239.125 1084.9C241.051 1080.72 243.023 1076.9 245.08 1072.99C247.128 1069.12 249.242 1065.29 251.433 1061.52C255.785 1053.96 260.435 1046.61 265.338 1039.51C262.65 1047.72 260.317 1055.97 258.33 1064.29C257.326 1068.43 256.409 1072.6 255.571 1076.76C254.742 1080.9 253.945 1085.16 253.371 1089.14L239.124 1084.9L239.125 1084.9Z" fill="#873B03"/>
<path d="M301.711 1105.47C303.513 1101.87 305.291 1097.91 306.965 1094.04C308.653 1090.14 310.276 1086.2 311.816 1082.22C314.923 1074.26 317.718 1066.15 320.188 1057.87C320.17 1066.5 319.795 1075.19 319.061 1083.88C318.707 1088.23 318.261 1092.57 317.733 1096.93C317.198 1101.31 316.633 1105.57 315.833 1110.11L301.711 1105.47Z" fill="#873B03"/>
<path d="M685.926 865.896C692.035 885.503 696.753 905.338 701.258 925.207C705.676 945.086 709.487 965.071 712.944 985.108C719.764 1025.2 725.3 1065.51 727.987 1106.29L727.761 1105.57C728.148 1106.7 728.659 1107.98 729.152 1109.18C729.67 1110.4 730.228 1111.6 730.862 1112.76C732.143 1115.08 733.558 1117.35 735.607 1119.23C732.987 1118.27 730.621 1116.48 728.588 1114.5C727.562 1113.5 726.602 1112.44 725.671 1111.35C724.731 1110.24 723.884 1109.15 723.055 1107.84L722.995 1107.74L722.832 1107.13C712.358 1067.63 704.736 1027.67 698.391 987.495C695.273 967.401 692.502 947.247 690.338 926.995C688.263 906.729 686.399 886.427 685.926 865.896L685.926 865.896Z" fill="#873B03"/>
<path d="M848.753 1094.04C848.18 1090.05 847.383 1085.78 846.553 1081.65C845.714 1077.49 844.802 1073.32 843.797 1069.17C841.808 1060.86 839.474 1052.61 836.784 1044.4C841.692 1051.5 846.339 1058.85 850.695 1066.41C852.88 1070.18 854.994 1074.01 857.048 1077.88C859.105 1081.79 861.07 1085.61 863.003 1089.79L848.753 1094.04Z" fill="#873B03"/>
<path d="M786.291 1115C785.491 1110.47 784.927 1106.2 784.388 1101.82C783.861 1097.47 783.415 1093.12 783.062 1088.77C782.331 1080.08 781.956 1071.39 781.936 1062.77C784.406 1071.04 787.201 1079.15 790.304 1087.11C791.847 1091.09 793.471 1095.04 795.156 1098.93C796.836 1102.8 798.611 1106.76 800.413 1110.36L786.291 1115Z" fill="#873B03"/>
<path d="M694.486 1038.02C694.486 1062.03 692.726 1085.29 689.399 1107.37C647.023 1113.24 599.88 1116.54 550.214 1116.54C501.53 1116.54 455.264 1113.39 413.524 1107.69C410.173 1085.51 408.39 1062.13 408.39 1038.02C408.39 893.554 472.43 776.426 551.44 776.426C630.446 776.426 694.486 893.553 694.486 1038.02Z" fill="#FFC04B"/>
<path d="M980.064 168.584C1007.88 286.235 935.06 404.163 817.408 431.981C699.75 459.802 581.825 386.976 554.004 269.322C526.187 151.67 599.012 33.7419 716.663 5.92436C834.315 -21.8968 952.244 50.9289 980.064 168.584Z" fill="#BA5102"/>
<path d="M5.92323 398.919C33.7408 516.571 151.669 589.393 269.321 561.576C386.972 533.758 459.8 415.829 431.98 298.175C404.162 180.524 286.234 107.701 168.582 135.519C50.9278 163.34 -21.8943 281.268 5.92323 398.919Z" fill="#BA5102"/>
<path d="M923.019 195.174C943.007 279.701 890.685 364.427 806.158 384.412C721.631 404.398 636.906 352.078 616.918 267.554C596.934 183.024 649.252 98.3011 733.782 78.3107C818.306 58.3267 903.031 110.645 923.019 195.174Z" fill="#FFC04B"/>
<path d="M380.274 310.403C400.262 394.93 347.94 479.653 263.413 499.643C178.886 519.63 94.16 467.309 74.1761 382.779C54.1886 298.255 106.51 213.529 191.034 193.541C275.564 173.554 360.287 225.876 380.274 310.403Z" fill="#FFC04B"/>
<path d="M587.6 693.697C511.412 713.063 422.422 709.837 350.049 688.53C255.468 660.685 182.262 588.314 148.854 505.937C109.635 409.239 138.116 314.381 199.475 225.605C213.54 205.255 229.014 185.572 246.106 167.07C272.585 138.399 303.32 112.897 337.105 91.2451C413.403 42.3519 489.787 29.399 577.715 46.3862C739.842 77.7063 897.117 192.489 908.248 349.051C913.79 426.921 883.885 509.617 824.586 570.47C762.93 633.738 675.41 671.378 587.6 693.696L587.6 693.697Z" fill="#D86A0B"/>
<path d="M769.437 261.043C764.068 174.433 659.242 115.669 548.538 103.2C487.723 96.3505 434.026 106.116 379.255 136.263C354.999 149.617 332.749 165.053 313.375 182.153C300.865 193.189 289.449 204.84 278.992 216.83C233.387 269.124 210.525 323.826 234.838 377.432C236.452 380.991 238.254 384.502 240.204 387.965C211.352 435.342 201.684 483.723 223.3 531.377C247.993 585.824 306.171 632 383.804 647.257C443.209 658.932 517.114 657.755 581.217 641.781C655.103 623.369 729.326 594.612 782.994 549.497C834.611 506.106 862.595 449.053 860.912 396.601C859.131 340.849 822.921 294.542 769.437 261.043Z" fill="#FFC04B"/>
<path d="M369.008 351.554C373.137 369.032 362.321 386.549 344.846 390.685C327.368 394.814 309.849 383.998 305.716 366.52C301.586 349.045 312.402 331.525 329.877 327.396C347.355 323.261 364.875 334.08 369.008 351.554Z" fill="#5B462B"/>
<path d="M356.93 343.578C357.849 347.464 355.444 351.355 351.559 352.274C347.679 353.19 343.784 350.788 342.869 346.905C341.947 343.019 344.352 339.128 348.235 338.209C352.121 337.293 356.009 339.695 356.93 343.578Z" fill="white"/>
<path d="M717.253 264.509C721.385 281.984 710.567 299.504 693.091 303.633C675.613 307.768 658.099 296.949 653.964 279.471C649.831 261.996 660.65 244.479 678.128 240.347C695.604 236.215 713.124 247.031 717.253 264.509Z" fill="#5B462B"/>
<path d="M710.109 253.816C711.027 257.701 708.626 261.596 704.74 262.512C700.857 263.43 696.962 261.026 696.044 257.146C695.129 253.26 697.53 249.366 701.416 248.45C705.299 247.528 709.191 249.934 710.109 253.817V253.816Z" fill="white"/>
<path d="M499.109 349.497L552.518 336.868C568.774 333.025 581.142 349.607 571.952 362.926L550.957 393.37C545.442 401.361 534.317 403.992 525.811 399.315L493.4 381.501C479.222 373.706 482.853 353.338 499.109 349.497Z" fill="#5B462B"/>
<path d="M458.6 466.171C475.385 468.972 491.671 470.485 507.775 470.669C523.862 470.835 539.657 469.337 554.995 466.037C562.655 464.352 570.162 462.086 577.568 459.464C584.985 456.833 592.123 453.476 599.294 449.965C613.445 442.565 626.898 433.343 640.604 423.137C632.535 438.204 620.744 451.321 606.739 461.851C599.627 466.947 592.038 471.516 583.966 475.128C575.885 478.698 567.454 481.504 558.823 483.452C541.536 487.172 523.639 487.489 506.502 484.591C489.426 481.573 472.759 475.896 458.6 466.171Z" fill="#5B462B"/>
<path d="M535.652 384.795L556.924 474.745" stroke="#5B462B" stroke-width="25" stroke-miterlimit="2"/>
<path d="M901.843 427.858C891.268 467.499 872.31 505.773 845.464 539.278C789.605 608.973 705.203 655.44 618.987 686.496C544.203 713.422 454.312 718.868 379.376 704.503C281.456 685.738 200.693 620.045 159.027 540.408C116.089 458.367 125.765 372.681 164.616 288.504C145.524 354.135 147.147 419.995 180.461 483.661C222.166 563.319 302.92 628.985 400.846 647.777C475.759 662.151 565.646 656.705 640.452 629.743C726.638 598.696 811.049 552.256 866.937 482.552C880.654 465.41 892.324 447.022 901.843 427.858Z" fill="#BA5102"/>
</svg>
