<svg width="1009" height="1337" viewBox="0 0 1009 1337" fill="none" xmlns="http://www.w3.org/2000/svg">
<path d="M245.026 992.053L0 1082.93L16.1143 1247.6L139.838 1255.93L245.026 992.053Z" fill="#E6E6E6"/>
<path d="M937.302 1084.17L921.168 1248.84L797.464 1257.15L692.263 993.275L792.228 1030.36L798.9 1070C799.759 1075.13 806.534 1076.38 809.191 1071.9L826.261 1043L863.683 1056.86L867.721 1080.89C868.579 1086.02 875.355 1087.27 878.011 1082.79L887.993 1065.88L937.302 1084.17Z" fill="#E6E6E6"/>
<path d="M937.295 1084.16C937.686 1080.16 974.866 1084.34 977.775 1085.02C987.417 1087.29 996.974 1091.54 1003.12 1099.62C1013.63 1113.44 1007.3 1134.29 1005.02 1149.81C1002.79 1164.92 999.916 1179.96 995.222 1194.51C986.955 1220.15 972.183 1247.99 941.944 1248.49C941.921 1248.49 921.178 1248.83 921.178 1248.83C921.178 1248.83 937.286 1084.24 937.295 1084.16Z" fill="#5B462B"/>
<path d="M790.976 1297.7L672.482 1335.56C658.179 1340.13 642.907 1332.15 638.45 1317.79L637.62 1315.13C626.674 1317.19 615.337 1319.02 603.584 1320.66C606.819 1299.19 608.536 1276.54 608.536 1253.19C608.536 1112.63 546.199 998.643 469.354 998.643C392.479 998.643 330.172 1112.63 330.172 1253.19C330.172 1276.65 331.892 1299.39 335.149 1320.97C322.795 1319.31 310.832 1317.37 299.344 1315.27C294.079 1328.19 279.666 1335.12 266.117 1330.8L147.624 1292.93C133.004 1288.27 125.189 1272.37 130.477 1257.91L142.985 1223.74C143.663 1220.64 144.757 1217.54 146.375 1214.52L218.582 987.646H312.763C319.096 987.646 320.242 974.489 314.119 972.142L233.36 941.263L244.306 906.862H394.851C401.184 906.862 402.327 893.705 396.207 891.357L265.204 841.271L293.139 753.479L686.921 751.445L706.625 839.108L556.338 896.57C550.215 898.917 551.386 912.074 557.72 912.074H722.988L729.814 942.408L638.426 977.355C632.3 979.698 633.471 992.858 639.805 992.858H741.152L791.889 1218.82C791.941 1218.97 791.993 1219.1 792.047 1219.26L792.227 1219.29L808.148 1262.68C813.413 1277.11 805.623 1293.03 790.975 1297.7H790.976Z" fill="#F2F2F2"/>
<path d="M608.526 1253.18C608.526 1276.55 606.816 1299.17 603.578 1320.66C562.346 1326.37 516.473 1329.58 468.153 1329.58C420.782 1329.58 375.767 1326.51 335.152 1320.97C331.895 1299.39 330.158 1276.64 330.158 1253.18C330.158 1112.62 392.468 998.655 469.344 998.655C546.213 998.655 608.526 1112.62 608.526 1253.18Z" fill="#E6E6E6"/>
<path d="M808.181 270.796L805.918 158.998C805.511 138.832 792.196 123.463 775.303 123.664L675.464 124.846C675.464 124.846 703.747 260.445 808.18 270.797L808.181 270.796Z" fill="#E6E6E6"/>
<path d="M248.066 171.323L289.601 67.5034C297.094 48.7745 314.974 39.0935 330.71 45.2394L423.722 81.5484C423.722 81.5484 349.432 198.463 248.066 171.323Z" fill="#E6E6E6"/>
<path d="M785.637 201.592C751.401 164.864 705.595 136.651 660.829 114.529C624.352 96.4912 582.14 78.8531 541.245 73.8429C538.023 73.4494 534.759 73.1039 531.496 72.794C438.106 64.0497 325.43 91.4811 254.349 153.291C214.709 187.76 221.462 244.291 216.067 293.845C206.422 382.46 198.243 471.237 188.885 559.888C313.05 813.284 768.126 664.408 768.126 664.408L772.155 631.525L809.122 329.867C815.514 277.683 824.862 243.65 785.639 201.592H785.637Z" fill="#F2F2F2"/>
<path d="M446.134 849.299C381.558 843.259 312.62 820.28 261.247 790.078C194.111 750.613 154.916 688.754 149.419 630.117C142.972 561.283 189.123 509.554 259.51 469.329C275.647 460.107 292.716 451.63 310.761 444.26C338.715 432.843 369.211 424.382 401.132 419.01C473.211 406.879 536.331 416.918 600.982 448.126C720.184 505.666 814.622 613.491 784.021 712.581C768.8 761.867 724.589 805.771 662.832 829.274C598.616 853.714 520.564 856.261 446.135 849.298L446.134 849.299Z" fill="#5B462B"/>
<path d="M407.117 356.63C405.193 372.357 390.877 383.548 375.15 381.621C359.42 379.69 348.232 365.377 350.159 349.65C352.086 333.92 366.4 322.732 382.13 324.659C397.857 326.586 409.049 340.9 407.118 356.63H407.117Z" fill="#5B462B"/>
<path d="M399.566 346.332C399.137 349.824 395.954 352.314 392.458 351.884C388.966 351.455 386.48 348.275 386.91 344.779C387.336 341.284 390.518 338.798 394.011 339.227C397.507 339.656 399.993 342.836 399.566 346.332Z" fill="white"/>
<path d="M656.839 383.161C654.912 398.888 640.598 410.077 624.865 408.149C609.138 406.222 597.95 391.908 599.877 376.182C601.804 360.452 616.121 349.263 631.851 351.191C647.577 353.117 658.763 367.431 656.839 383.161Z" fill="#5B462B"/>
<path d="M654.195 372.125C653.769 375.621 650.586 378.106 647.09 377.677C643.598 377.251 641.112 374.068 641.542 370.575C641.968 367.079 645.151 364.594 648.643 365.02C652.14 365.449 654.624 368.628 654.195 372.125Z" fill="white"/>
<path d="M770.554 604.593C740.559 542.54 674.781 485.64 599.027 449.09C534.398 417.888 471.275 407.852 399.174 419.963C367.268 425.331 336.766 433.805 308.815 445.209C290.777 452.588 273.714 461.058 257.554 470.294C233.257 484.164 211.829 499.443 194.481 516.299C212.781 487.034 242.182 461.975 278.32 440.218C293.498 431.093 309.528 422.668 326.479 415.353C352.745 404 381.391 395.552 411.344 390.116C478.967 377.823 538.056 387.343 598.504 417.577C682.926 459.825 753.878 530.484 770.554 604.593Z" fill="#E6E6E6"/>
<path d="M768.39 747.691C746.914 783.344 709.662 813.73 661.894 831.929C597.679 856.361 519.606 858.892 445.175 851.936C380.599 845.902 311.661 822.909 260.287 792.708C193.167 753.259 153.959 691.388 148.472 632.767C144.805 593.494 158.244 559.791 183.564 530.616C169.564 554.035 162.866 580.112 165.587 609.248C171.068 667.869 210.283 729.739 277.399 769.189C328.773 799.39 397.708 822.383 462.29 828.417C536.722 835.373 614.788 832.843 679.006 808.406C715.85 794.365 746.465 773.069 768.39 747.691Z" fill="#513307"/>
<path d="M431.385 530.279C427.777 559.751 409.645 581.775 390.89 579.48C372.135 577.181 359.862 551.429 363.474 521.956C367.083 492.488 385.212 470.46 403.967 472.758C422.721 475.057 434.998 500.81 431.385 530.279Z" fill="#513307"/>
<path d="M625.42 554.055C621.812 583.524 603.68 605.552 584.925 603.253C566.173 600.955 553.897 575.202 557.509 545.733C561.118 516.264 579.25 494.233 598.002 496.532C616.76 498.83 629.033 524.583 625.42 554.055Z" fill="#513307"/>
<path d="M643.783 71.3475C639.418 61.9509 633.52 53.3096 625.967 46.1884C612.436 33.4217 594.732 26.6266 576.536 23.9445C559.764 21.4716 542.371 22.2595 525.682 25.0129C507.473 28.018 477.058 43.5001 468.698 17.5499C468.333 16.4235 467.859 14.0087 467.459 11.0485C466.416 3.33687 456.341 0.79267 451.935 7.21048C441.735 22.0557 444.453 40.9946 436.234 56.2474C423.816 48.6969 425.975 17.5949 427.457 5.30313C428.041 0.458009 421.921 -1.97309 419.042 1.96173C405.675 20.2227 397.84 44.4971 396.191 66.9672C391.481 130.995 475.064 139.646 520.799 138.126C523.998 138.019 527.2 137.868 530.392 137.68C589.323 137.722 653.515 108.728 653.593 108.695C657.24 107.046 645.484 75.0143 643.783 71.3475Z" fill="#5B462B"/>
<path d="M798.504 424.806L719.524 386.673C709.453 381.792 712.507 366.724 723.669 366.159L806.335 362.004C805.17 372.818 803.478 384.327 801.925 396.896L798.504 424.806Z" fill="#5B462B"/>
<path d="M290.269 330.108L211.986 342.581C212.329 339.166 212.697 335.754 213.068 332.341C214.844 316.078 215.298 299.077 216.522 282.346L292.199 309.268C302.725 313.019 301.319 328.329 290.269 330.108Z" fill="#5B462B"/>
<path d="M247.552 425.1L202.67 432.247C204.136 417.882 205.598 403.518 207.057 389.156L249.447 404.257C260.006 408.011 258.602 423.324 247.552 425.1Z" fill="#5B462B"/>
<path d="M741.736 487.961L785.734 508.159C788.514 493.988 791.287 479.818 794.062 465.649L745.997 467.467C734.024 467.912 730.909 482.971 741.736 487.961Z" fill="#5B462B"/>
<path d="M151.991 1196.84C151.991 1196.84 316.258 1248.82 316.307 1248.83C319.586 1249.87 317.35 1268.12 317.068 1270.1C314.595 1287.64 305.716 1310.78 294.618 1324.79C285.382 1336.44 269.752 1333.68 257.463 1329.58L147.627 1292.94C147.627 1292.94 121.822 1283.31 133.801 1248.83L151.991 1196.84Z" fill="#5B462B"/>
<path d="M789.23 1199.45C789.23 1199.45 624.966 1251.43 624.917 1251.44C621.634 1252.48 623.871 1270.72 624.152 1272.71C626.625 1290.25 635.505 1313.38 646.606 1327.39C655.839 1339.04 671.469 1336.29 683.761 1332.19L793.597 1295.55C793.597 1295.55 819.398 1285.91 807.423 1251.44L789.23 1199.45Z" fill="#5B462B"/>
<path d="M316.307 1248.83C318.324 1234.39 321.293 1220.21 324.615 1206.12C326.194 1199.06 328.102 1192.09 329.874 1185.08C331.737 1178.09 333.761 1171.15 335.701 1164.19C339.762 1150.32 344.255 1136.56 349.133 1122.93C354.056 1109.32 359.308 1095.76 365.973 1082.76C363.123 1097.05 359.921 1111.13 356.364 1125.13C352.835 1139.14 349.094 1153.09 344.984 1166.92L338.651 1187.63C336.378 1194.49 334.28 1201.4 331.847 1208.21C327.16 1221.89 322.175 1235.49 316.307 1248.83Z" fill="#B7B7B7"/>
<path d="M623.963 1256.65C618.095 1243.3 613.111 1229.71 608.424 1216.03C605.989 1209.22 603.888 1202.31 601.615 1195.45L595.279 1174.74C591.173 1160.9 587.435 1146.96 583.907 1132.95C580.346 1118.95 577.147 1104.87 574.294 1090.58C580.964 1103.57 586.215 1117.14 591.135 1130.75C596.016 1144.38 600.509 1158.13 604.566 1172.01C606.51 1178.97 608.534 1185.91 610.396 1192.9C612.169 1199.91 614.076 1206.88 615.655 1213.94C618.976 1228.03 621.946 1242.21 623.964 1256.65L623.963 1256.65Z" fill="#B7B7B7"/>
<path d="M722.989 912.075H557.721C551.387 912.075 550.215 898.918 556.339 896.571L706.626 839.109L722.989 912.075Z" fill="#5B462B"/>
<path d="M741.152 992.859H639.805C633.472 992.859 632.3 979.698 638.427 977.355L729.815 942.408L741.152 992.859Z" fill="#5B462B"/>
<path d="M394.851 906.862H244.306L265.204 841.271L396.206 891.357C402.327 893.704 401.184 906.862 394.851 906.862Z" fill="#5B462B"/>
<path d="M312.762 987.645H218.581L233.359 941.262L314.118 972.141C320.241 974.487 319.095 987.645 312.762 987.645Z" fill="#5B462B"/>
<path d="M826.262 1043L809.193 1071.9C806.536 1076.38 799.76 1075.13 798.901 1070L792.229 1030.36L826.262 1043Z" fill="#5B462B"/>
<path d="M887.995 1065.88L878.013 1082.79C875.357 1087.27 868.581 1086.02 867.722 1080.89L863.685 1056.86L887.995 1065.88Z" fill="#5B462B"/>
<path d="M111.273 1040.39L128.34 1069.29C130.996 1073.77 137.775 1072.52 138.634 1067.39L145.307 1027.75L111.273 1040.39Z" fill="#5B462B"/>
<path d="M49.5361 1063.27L59.5169 1080.18C62.1735 1084.66 68.9522 1083.41 69.8083 1078.28L73.8493 1054.26L49.5361 1063.27Z" fill="#5B462B"/>
</svg>
