<svg width="57" height="93" viewBox="0 0 57 93" fill="none" xmlns="http://www.w3.org/2000/svg">
<path d="M45.0188 43.4614C42.7696 39.0933 43.8739 31.4418 40.6567 25.0948C38.3074 20.46 33.8243 18.6393 29.7317 18.377C29.848 18.8589 29.5488 19.1532 29.1555 19.2105C29.1494 19.2114 29.1431 19.2121 29.1369 19.2129C29.038 19.2253 28.9347 19.2229 28.8298 19.2046C28.8061 19.2005 28.7825 19.1959 28.7587 19.1901C28.7347 19.1843 28.7111 19.1782 28.6871 19.1707C28.649 19.1588 28.6112 19.1445 28.5736 19.1282C28.5573 19.1211 28.5411 19.1139 28.525 19.1059C28.4836 19.0857 28.4435 19.0625 28.4039 19.0367C28.3891 19.027 28.3748 19.0166 28.3603 19.0061C28.3243 18.98 28.2894 18.9515 28.2555 18.9205C28.2453 18.9111 28.2348 18.9028 28.2249 18.8929C28.1829 18.8516 28.1431 18.806 28.106 18.7563C28.0978 18.7453 28.0905 18.733 28.0825 18.7218C28.0535 18.6801 28.0266 18.6357 28.0016 18.5886C27.9927 18.572 27.984 18.5556 27.9757 18.5383C27.9466 18.4772 27.9199 18.4134 27.8983 18.3435C27.8981 18.3428 27.8978 18.3423 27.8976 18.3418C26.82 18.3418 25.6982 18.4473 24.5811 18.6817C22.9928 20.8782 21.8606 23.4035 21.174 26.0234C20.7124 27.7852 20.3786 29.6681 20.4001 31.4947C20.4217 33.3432 20.8866 35.1288 21.4966 36.8622C22.0928 38.5559 22.7798 40.2225 23.1549 41.9844C23.5795 43.9799 23.2759 46.027 22.6664 47.9517C22.0365 49.9403 21.0473 51.7737 20.2102 53.677C19.408 55.5005 18.6519 57.3468 18.0102 59.2338C16.7748 62.8669 15.9455 66.7208 16.1889 70.5771C16.439 74.5385 17.8497 78.3892 20.2527 81.5537C22.3651 84.3351 25.1283 86.5761 28.3751 87.8937C31.607 89.2054 35.251 89.4461 38.6753 88.8929C45.2528 87.8297 50.6987 83.5085 54.7159 78.3822C55.1517 77.2866 55.5139 76.1447 55.7936 74.955C59.1542 60.6387 50.8728 54.8315 45.0188 43.4618V43.4614Z" fill="#AEBC36"/>
<path d="M46.395 49.3338C44.6508 46.9743 43.1147 44.2099 42.1892 41.4132C40.603 36.6217 41.8401 31.2627 39.8167 26.5485C38.864 24.329 35.6253 19.9289 33.006 22.0901C31.5753 23.2703 31.2715 25.6322 30.9052 27.2694C30.1782 30.5188 30.0721 33.9502 30.3805 37.2662C30.9689 43.6004 33.0164 50.628 38.3707 54.5241C41.0607 56.4817 47.5194 58.7795 48.3467 53.7484C48.6382 51.9759 47.3453 50.6192 46.3952 49.334L46.395 49.3338Z" fill="#C3C72F"/>
<path d="M54.7163 78.3822C50.6992 83.5083 45.2531 87.8297 38.6757 88.8929C35.2511 89.446 31.6073 89.2053 28.3754 87.8937C25.1286 86.576 22.3654 84.3351 20.2531 81.5537C17.85 78.3892 16.4393 74.5385 16.1892 70.5771C15.9458 66.7208 16.7751 62.8671 18.0105 59.2338C18.6522 57.3466 19.4083 55.5005 20.2105 53.6769C21.0474 51.7736 22.0368 49.9404 22.6667 47.9517C23.2762 46.0271 23.5798 43.9801 23.1552 41.9844C22.7801 40.2224 22.0931 38.5559 21.4969 36.8622C20.8869 35.1288 20.422 33.3432 20.4004 31.4947C20.3789 29.6681 20.7127 27.7852 21.1743 26.0234C21.8609 23.4036 22.9931 20.8784 24.5814 18.6816L24.5811 18.6818C24.3843 18.7231 24.1878 18.7694 23.9916 18.8187C23.958 18.8273 23.9244 18.8359 23.8909 18.8448C23.6987 18.8948 23.5066 18.9475 23.3154 19.0057C23.3143 19.006 23.3132 19.0064 23.312 19.0067C23.1186 19.0656 22.9263 19.1297 22.7347 19.1971C22.6992 19.2095 22.664 19.2224 22.6284 19.2352C22.4415 19.3027 22.2552 19.3731 22.0706 19.4492C22.0681 19.4502 22.0657 19.451 22.0632 19.452C21.8759 19.5291 21.6904 19.6119 21.506 19.698C21.4688 19.7154 21.4319 19.7331 21.3948 19.7508C21.2162 19.8363 21.0386 19.9248 20.8632 20.0192C20.8591 20.0214 20.8549 20.0234 20.8506 20.0256C20.672 20.1219 20.4958 20.2242 20.3209 20.33C20.283 20.3529 20.2452 20.3762 20.2076 20.3995C20.0385 20.5042 19.871 20.6122 19.7064 20.726C19.7016 20.7292 19.6968 20.7323 19.692 20.7355C19.524 20.8518 19.359 20.9748 19.1958 21.1011C19.1581 21.1301 19.1205 21.1599 19.0831 21.1895C18.9254 21.3145 18.7696 21.4428 18.6172 21.5773C18.6124 21.5816 18.6075 21.5855 18.6027 21.5898C18.4471 21.7275 18.2953 21.8721 18.1455 22.02C18.1094 22.0557 18.0737 22.0916 18.0379 22.128C17.8925 22.2756 17.7491 22.4265 17.6098 22.5842C17.6064 22.5881 17.6028 22.5917 17.5994 22.5956C17.4579 22.7563 17.3209 22.9241 17.1862 23.0955C17.1532 23.1374 17.1207 23.1796 17.0882 23.2221C16.9566 23.3946 16.8271 23.5706 16.7028 23.7538C16.7011 23.7564 16.6994 23.7586 16.6977 23.7612C16.5725 23.9461 16.4526 24.1385 16.3352 24.3346C16.3063 24.3829 16.2777 24.4315 16.2493 24.4805C16.1336 24.6802 16.0205 24.8835 15.9135 25.0946C12.6961 31.4416 13.8006 39.0931 11.5515 43.4613C5.69711 54.8309 -2.58397 60.6382 0.776634 74.9544C1.73773 79.0485 3.62523 82.6093 6.4216 85.4617C6.42806 85.4681 6.43502 85.4743 6.44149 85.4807C7.10966 86.1605 7.83093 86.7989 8.60253 87.3956C8.67431 87.4507 8.74697 87.5055 8.8196 87.5603C9.86796 88.3504 11.0066 89.0648 12.2399 89.6946C12.2607 89.7051 12.2826 89.7145 12.3035 89.7252C12.8489 90.0016 13.4143 90.2598 13.9954 90.5033C14.1579 90.571 14.3217 90.6376 14.4868 90.7031C15.8958 91.2609 17.4063 91.7227 19.0176 92.0825C19.5648 92.2045 20.1241 92.3144 20.6943 92.4127C22.9206 92.7961 25.3197 93.0001 27.8981 93.0001H28.6726C29.1297 93.0001 29.5803 92.9926 30.0261 92.9802C30.174 92.9759 30.3187 92.9686 30.4652 92.963C30.761 92.9519 31.056 92.9402 31.3467 92.9235C31.5197 92.9138 31.6898 92.9007 31.8609 92.8892C32.1205 92.8711 32.3792 92.8526 32.6347 92.8303C32.8147 92.8145 32.9926 92.797 33.1707 92.7793C33.4122 92.7548 33.653 92.7293 33.8908 92.7008C34.0716 92.6796 34.251 92.6573 34.4291 92.6337C34.66 92.603 34.8881 92.5702 35.1154 92.5358C35.2935 92.5095 35.4714 92.4821 35.6471 92.4528C35.8701 92.4163 36.0907 92.3759 36.3102 92.3351C36.4832 92.3036 36.6565 92.272 36.8271 92.2382C37.0474 92.1936 37.2634 92.146 37.4795 92.0982C37.6441 92.0616 37.81 92.0272 37.9723 91.9888C38.2041 91.934 38.4309 91.8743 38.658 91.8149C38.9046 91.751 39.149 91.6846 39.3901 91.6156C39.6298 91.547 39.8694 91.4788 40.1042 91.4055C40.285 91.3485 40.4612 91.2873 40.6392 91.2279C40.8047 91.1728 40.9716 91.1185 41.1349 91.0605C41.3203 90.9947 41.5021 90.9251 41.6848 90.856C41.8337 90.7999 41.983 90.7443 42.1295 90.6859C42.3154 90.6118 42.4986 90.5347 42.6813 90.4573C42.8176 90.3993 42.9535 90.3415 43.0878 90.2816C43.2738 90.1991 43.4578 90.1147 43.64 90.0285C43.7634 89.9701 43.8853 89.9111 44.0068 89.8514C44.1936 89.7592 44.3794 89.666 44.5627 89.5701C44.6698 89.5139 44.775 89.4559 44.8808 89.3984C45.0726 89.2945 45.2637 89.1897 45.4506 89.0818C45.5322 89.0346 45.6115 88.9854 45.6922 88.9376C45.8985 88.8148 46.1043 88.6915 46.3047 88.5639C46.3176 88.5555 46.3297 88.5472 46.3423 88.5389C47.3512 87.893 48.2854 87.1823 49.1457 86.4126C49.1758 86.3857 49.2064 86.3596 49.2357 86.3328C49.4267 86.1603 49.6131 85.9837 49.7966 85.8051C49.8324 85.7699 49.8684 85.735 49.9042 85.6998C50.0858 85.5209 50.2634 85.3387 50.4374 85.1536C50.4689 85.1197 50.5005 85.0864 50.532 85.0526C50.7096 84.861 50.8845 84.6668 51.0541 84.4693C51.0735 84.4465 51.093 84.4238 51.1124 84.4011C52.6304 82.6216 53.8336 80.6038 54.7164 78.3832C54.717 78.3827 54.7169 78.3824 54.7173 78.3819H54.7168L54.7163 78.3822Z" fill="#93AB3D"/>
<path d="M54.7154 78.3838C53.8325 80.6042 52.6293 82.622 51.1113 84.4016C52.6302 82.6221 53.8325 80.6047 54.7154 78.3838Z" fill="#AEBC36"/>
<path d="M49.145 86.4126C48.7393 86.7751 48.316 87.1238 47.8779 87.4599C48.3161 87.1238 48.7399 86.7751 49.145 86.4126Z" fill="#AEBC36"/>
<path d="M47.8779 87.46C47.3859 87.8369 46.8749 88.1977 46.3418 88.5389C46.8754 88.1977 47.3859 87.8369 47.8779 87.46Z" fill="#AEBC36"/>
<path d="M29.7314 18.3758C29.6253 17.9387 28.8714 15.4089 29.1067 12.9757C29.0516 12.985 28.9988 12.9879 28.9493 12.9847C28.5832 12.9607 28.5555 12.5128 28.5555 12.5128C28.5555 12.5128 28.8464 12.3272 29.255 12.0262C29.8854 9.01154 31.9074 6.31197 31.735 5.8469C31.58 5.43048 31.0039 5.13382 30.3913 4.98242C29.7701 5.81509 29.2252 6.69709 28.8578 7.68676C28.4235 8.85641 28.2553 10.174 28.1859 11.4139C28.1141 12.6969 28.2437 14.013 28.3961 15.2867C28.5547 16.6119 28.8894 17.871 29.5462 19.0399C29.7155 18.8977 29.8039 18.6744 29.7321 18.3772C29.7316 18.3769 29.7321 18.3764 29.7316 18.376L29.7314 18.3758Z" fill="#7F5B35"/>
<path d="M28.8572 7.68668C29.2246 6.69684 29.7694 5.81501 30.3906 4.98235C30.3906 4.98235 30.3907 4.98235 30.3902 4.98235C30.2204 4.94033 30.0476 4.90971 29.8802 4.89066C29.8788 4.89049 29.8775 4.89032 29.8759 4.89015C29.7967 4.8813 29.7193 4.87552 29.6434 4.87212C29.6371 4.87178 29.6306 4.87127 29.6245 4.8711C29.5554 4.86838 29.4891 4.86872 29.4245 4.87076C29.4127 4.8711 29.4005 4.87093 29.3889 4.87144C29.3314 4.87399 29.2775 4.87943 29.2247 4.8859C29.2091 4.88777 29.1923 4.88879 29.1772 4.891C29.1302 4.89797 29.0878 4.90801 29.0458 4.91822C29.0291 4.9223 29.0106 4.92519 28.9948 4.92978C28.9557 4.94135 28.9222 4.95598 28.8888 4.97078C28.8752 4.97673 28.8592 4.98133 28.8468 4.98796C28.8039 5.01059 28.7669 5.03627 28.7378 5.06553C28.7094 5.09377 28.6794 5.12966 28.6478 5.17252C28.3634 5.55815 27.9568 6.5218 27.622 7.91224C27.4732 8.53024 27.3386 9.23243 27.2352 10.0057C27.1835 10.3924 27.1396 10.7967 27.1056 11.2172C27.0609 11.7699 27.0539 12.3432 27.0729 12.9137C27.0794 13.1039 27.0888 13.2939 27.1005 13.4827C27.1065 13.5771 27.1129 13.6712 27.1201 13.7651C27.1344 13.9525 27.1509 14.1386 27.1694 14.3222C27.2155 14.7811 27.2735 15.2253 27.3369 15.6413C27.3623 15.8079 27.3885 15.9698 27.4152 16.1263C27.6016 17.2226 27.8098 18.0577 27.8974 18.3424C27.8976 18.3431 27.898 18.3436 27.8981 18.3441C27.9197 18.4139 27.9466 18.4778 27.9755 18.5389C27.9837 18.5561 27.9925 18.5726 28.0014 18.5893C28.0264 18.6364 28.0533 18.6809 28.0823 18.7225C28.0903 18.7338 28.0976 18.7461 28.1058 18.757C28.1429 18.8067 28.1827 18.8522 28.2247 18.8936C28.2346 18.9033 28.2451 18.9118 28.2553 18.9211C28.2892 18.9521 28.3241 18.9807 28.3601 19.0067C28.3746 19.0171 28.389 19.0276 28.4037 19.0373C28.4431 19.0632 28.4834 19.0863 28.5248 19.1065C28.5409 19.1145 28.5571 19.1219 28.5734 19.1288C28.611 19.1452 28.6488 19.1595 28.6869 19.1714C28.7107 19.1788 28.7345 19.185 28.7585 19.1908C28.7823 19.1965 28.8059 19.2011 28.8296 19.2052C28.9342 19.2231 29.0382 19.2263 29.1367 19.2135C29.143 19.2127 29.1492 19.2122 29.1553 19.2112C29.3056 19.1887 29.442 19.1316 29.5466 19.0422C28.8893 17.8728 28.5542 16.613 28.3957 15.2872C28.2433 14.0134 28.1136 12.6973 28.1854 11.4144C28.2548 10.1743 28.4231 8.85667 28.8573 7.6872L28.8572 7.68668Z" fill="#6A4A32"/>
<path d="M42.2031 4.64833C36.4292 7.46222 32.7528 11.0647 28.5898 12.7001C28.5898 12.7001 28.6948 12.9789 28.909 12.9951C28.9585 12.9988 29.0515 12.9849 29.1068 12.9755C29.8855 12.845 31.2268 11.4774 32.9573 11.8057C35.8496 12.3541 39.5421 14.21 43.0116 12.8835C48.1646 10.9131 51.6708 1.40935 51.6708 1.40918C51.6694 1.40952 46.9085 2.35514 42.2031 4.64833Z" fill="#0D7F40"/>
<path d="M42.4302 0.0228521C41.9054 0.0495587 41.3832 0.102632 40.8686 0.183432C40.1778 0.291959 39.5013 0.451008 38.8591 0.67946C38.3124 0.87389 37.79 1.11629 37.3022 1.41483C33.3402 3.83815 32.8966 6.60049 31.7443 9.39737C31.1396 10.865 28.5552 12.5127 28.5552 12.5127C28.5552 12.5127 28.5543 12.6006 28.5894 12.7C32.7523 11.0646 36.4287 7.46208 42.2026 4.64819C46.9082 2.355 51.6689 1.40921 51.6703 1.40904C51.6703 1.40904 46.9971 -0.209682 42.4302 0.0228521Z" fill="#369147"/>
<path d="M46.7449 3.19805C46.7871 3.38738 46.9717 3.55323 47.1367 3.65223C46.6429 3.75838 46.3986 3.39962 45.8389 3.58861C45.1151 3.83288 43.6296 4.16391 43.1103 4.73546C43.1844 4.82851 43.228 5.02634 43.3008 5.11157C43.055 5.0408 42.8881 4.90591 42.6355 4.927C42.2132 4.96204 41.4332 5.44804 41.0804 5.64927C39.9955 6.26794 41.373 6.75104 41.5074 7.59647C40.9617 7.5269 40.7529 6.70511 40.211 6.55474C39.7376 6.42342 38.8311 7.01556 38.3676 7.23669C37.9197 7.45018 37.4662 7.75348 37.0679 8.04623C36.8245 8.22535 36.4457 8.4504 36.3307 8.73056C36.1461 9.181 36.5462 9.35468 36.7082 9.78079C36.3489 9.83199 36.1109 9.28 35.886 9.0672C34.7047 9.52717 33.6582 10.7228 32.5278 11.3172C32.7231 11.3396 33.4403 11.3788 33.8288 11.4293C34.3522 11.4975 34.8632 11.5914 35.3848 11.7086C36.3571 11.9272 37.3058 12.2713 38.2873 12.4424C39.7408 12.6959 41.4856 12.9099 42.9024 12.4705C42.9043 12.1647 42.4744 12.1925 42.2477 12.0733C41.7261 11.7986 41.281 11.2971 40.9179 10.8627C40.4338 10.2836 39.9437 9.69489 39.4032 9.16705C39.0031 8.77649 38.4485 8.40872 38.1657 7.91899C38.8946 7.8273 40.3393 9.30773 40.8484 9.71785C41.5934 10.3182 42.2017 11.0938 42.964 11.6632C43.6497 12.1754 44.2641 11.7227 44.9466 11.233C45.7362 10.666 46.7427 9.73861 47.1623 8.83416C46.4076 8.17755 45.3477 7.80366 44.431 7.44933C43.622 7.13667 42.4299 6.80956 41.9041 6.06365C42.3241 6.10039 42.7104 6.32357 43.111 6.45506C43.7711 6.67177 44.4643 6.78336 45.1185 7.02372C45.7051 7.23925 46.2688 7.62249 46.8735 7.78563C47.7438 8.0202 48.3943 6.87539 48.7722 6.1715C48.5525 5.91617 48.2585 5.83486 47.9654 5.67955C47.5125 5.43936 46.5546 5.15477 46.2406 4.79738C47.0594 4.26325 48.1898 5.88963 48.9539 5.21261C49.3865 4.82919 49.8196 3.64883 50.0732 3.13783C50.254 2.77313 50.7733 2.24529 50.9685 1.89453C50.2916 1.92668 49.1203 2.5986 48.4239 2.75135C47.8911 2.86822 47.2059 2.93336 46.7446 3.19771L46.7449 3.19805Z" fill="#369147"/>
<path d="M31.1096 58.9482C31.1509 58.9931 31.2004 59.0248 31.2574 59.0433C31.3122 59.0721 31.371 59.0855 31.4345 59.0831C31.5532 59.0775 31.6766 59.0385 31.7594 58.9482C31.8397 58.8606 31.8994 58.7456 31.8938 58.6231C31.8883 58.5823 31.8827 58.542 31.8771 58.5012C31.8632 58.4413 31.8358 58.3889 31.795 58.3449C31.7625 58.2948 31.7194 58.2554 31.6662 58.2261L31.663 58.2248C31.599 58.1742 31.5155 58.1367 31.4343 58.1404C31.3472 58.1446 31.2712 58.1761 31.2043 58.2299C31.0676 58.3115 30.9744 58.4617 30.9744 58.623C30.972 58.6864 30.9854 58.7455 31.0142 58.8001C31.0327 58.857 31.0642 58.9062 31.1093 58.9479L31.1096 58.9482Z" fill="#93AB3D"/>
<path d="M29.2199 65.8249C29.2687 65.8625 29.3175 65.9001 29.3664 65.9381C29.4791 66.0034 29.6009 66.0364 29.7314 66.0369C29.8311 66.0406 29.9243 66.0197 30.01 65.9743C30.1 65.945 30.1774 65.8955 30.2428 65.8249C30.3137 65.7591 30.3633 65.6817 30.3924 65.5917C30.4378 65.5055 30.4588 65.4128 30.4551 65.3131C30.4462 65.2491 30.4379 65.1852 30.429 65.1207C30.3947 64.9982 30.3326 64.8921 30.2426 64.8017C30.1939 64.7641 30.1453 64.7262 30.0964 64.6886C29.9838 64.6233 29.8619 64.5903 29.7311 64.5898C29.6316 64.586 29.5387 64.6065 29.4524 64.6519C29.3628 64.6811 29.2852 64.7312 29.2195 64.8016C29.149 64.8669 29.0991 64.9448 29.07 65.0343C29.0246 65.1205 29.0039 65.2132 29.0078 65.3129L29.0336 65.5053C29.068 65.6278 29.1299 65.7343 29.2197 65.8248L29.2199 65.8249Z" fill="#93AB3D"/>
<path d="M37.1972 63.2113C38.3694 63.2113 38.3716 61.3896 37.1972 61.3896C36.025 61.3896 36.0233 63.2113 37.1972 63.2113Z" fill="#93AB3D"/>
<path d="M37.8524 67.3608C37.4531 67.3608 37.4526 67.9812 37.8524 67.9812C38.2516 67.9812 38.2521 67.3608 37.8524 67.3608Z" fill="#93AB3D"/>
<path d="M32.4819 71.3763C33.2047 71.3763 33.2063 70.2524 32.4819 70.2524C31.7587 70.2524 31.7573 71.3763 32.4819 71.3763Z" fill="#93AB3D"/>
<path d="M33.9228 66.5526C34.3382 66.5526 34.3392 65.9067 33.9228 65.9067C33.5074 65.9067 33.5064 66.5526 33.9228 66.5526Z" fill="#93AB3D"/>
<path d="M27.6971 75.0698L27.7998 75.0986C28.0307 75.1639 28.2659 74.9809 28.2659 74.7439C28.2659 74.6493 28.2249 74.5502 28.1581 74.4833C28.0657 74.3911 27.9262 74.353 27.7998 74.3887L27.6971 74.4175C27.5855 74.449 27.4894 74.54 27.461 74.6539C27.4446 74.7193 27.4446 74.7684 27.461 74.8339C27.4896 74.948 27.5855 75.0384 27.6971 75.0698Z" fill="#93AB3D"/>
<path d="M23.951 66.3468C23.8248 66.3417 23.7069 66.3681 23.5975 66.4256C23.4839 66.4627 23.3854 66.5258 23.3024 66.6152C23.2129 66.6983 23.1496 66.7966 23.1127 66.9105C23.0554 67.0196 23.0289 67.1378 23.0338 67.2639C23.0447 67.345 23.0556 67.4266 23.0665 67.5078C23.11 67.6631 23.1886 67.798 23.3024 67.9126C23.3643 67.9604 23.4261 68.0081 23.488 68.0559C23.6311 68.1389 23.7853 68.1806 23.951 68.1811C24.0772 68.1857 24.1951 68.1598 24.3043 68.1023C24.4181 68.0652 24.5164 68.0021 24.5995 67.9126C24.6889 67.8296 24.7522 67.731 24.7891 67.6173C24.8466 67.508 24.873 67.3901 24.8681 67.264C24.8572 67.1829 24.8463 67.1012 24.8354 67.0201C24.7918 66.8648 24.7133 66.7299 24.5995 66.6152C24.5375 66.5674 24.4758 66.5198 24.4139 66.472C24.2708 66.389 24.1165 66.3473 23.951 66.3468Z" fill="#93AB3D"/>
<path d="M38.1142 76.9391C38.5797 76.9391 38.5806 76.2153 38.1142 76.2153C37.6486 76.2153 37.6477 76.9391 38.1142 76.9391Z" fill="#93AB3D"/>
<path d="M47.3141 67.7707C47.3512 67.9242 47.5158 68.0531 47.6752 68.0456C47.8367 68.0381 47.9966 67.9352 48.0364 67.7707C48.0423 67.7457 48.049 67.7202 48.0544 67.6952C48.0711 67.6219 48.0735 67.5681 48.0641 67.4977C48.0526 67.4109 48.0093 67.3341 47.9733 67.2551C47.8698 67.0289 47.4805 67.0289 47.3771 67.2551C47.3408 67.3339 47.2978 67.4109 47.2862 67.4977C47.2769 67.5681 47.2792 67.6219 47.2956 67.6952C47.3015 67.7202 47.3081 67.7457 47.3141 67.7707Z" fill="#93AB3D"/>
<path d="M49.7717 75.0122C50.9606 75.0122 50.9625 73.165 49.7717 73.165C48.5829 73.165 48.581 75.0122 49.7717 75.0122Z" fill="#93AB3D"/>
<path d="M44.008 83.3668C44.8226 83.3668 44.824 82.1011 44.008 82.1011C43.1933 82.1011 43.192 83.3668 44.008 83.3668Z" fill="#93AB3D"/>
<path d="M44.2701 73.1617C44.5941 73.1617 44.5946 72.6577 44.2701 72.6577C43.946 72.6577 43.9455 73.1617 44.2701 73.1617Z" fill="#93AB3D"/>
<path d="M34.6223 83.3562C34.6529 83.4285 34.6835 83.5008 34.7141 83.5736C34.7619 83.6348 34.8093 83.6964 34.8565 83.7576C34.939 83.8466 35.0368 83.9092 35.1499 83.9463C35.2209 83.9871 35.2975 84.008 35.3794 84.0084C35.4601 84.0296 35.5412 84.0296 35.622 84.0084C35.704 84.0079 35.7805 83.9871 35.8515 83.9463C35.9289 83.9245 35.9957 83.8856 36.0527 83.8289C36.1519 83.7649 36.2298 83.6796 36.2873 83.5734C36.3179 83.5006 36.3485 83.4283 36.3791 83.356C36.3899 83.2754 36.4009 83.1946 36.4116 83.1134C36.4009 83.0328 36.3899 82.952 36.3791 82.8714C36.3485 82.7991 36.3179 82.7263 36.2873 82.654C36.2395 82.5928 36.1922 82.5312 36.1449 82.4694C36.0624 82.3808 35.9646 82.3179 35.8515 82.2811C35.7805 82.2398 35.704 82.2194 35.622 82.219C35.5011 82.1922 35.3795 82.1973 35.2585 82.2352C35.1991 82.2532 35.1398 82.2709 35.0801 82.2884C34.9076 82.3403 34.7249 82.4647 34.6386 82.6283C34.5505 82.7952 34.4963 83.0122 34.5645 83.1971C34.5839 83.25 34.6034 83.3028 34.6225 83.3557L34.6223 83.3562Z" fill="#93AB3D"/>
<path d="M32.2648 76.9187L32.2323 76.9386C32.2044 76.9512 32.1775 76.9641 32.1567 76.9752C31.9611 77.0786 31.7988 77.3057 31.7408 77.5158C31.6786 77.7415 31.7135 78.0101 31.8322 78.2127C31.9421 78.4 32.1573 78.5789 32.3728 78.6281C32.6041 78.681 32.8637 78.6694 33.0692 78.5367C33.2626 78.4126 33.4327 78.227 33.4851 77.9966C33.531 77.794 33.5203 77.5998 33.4397 77.4077C33.3475 77.1893 33.1619 76.9789 32.926 76.9037C32.722 76.7976 32.4623 76.7999 32.2648 76.9187Z" fill="#93AB3D"/>
<path d="M46.6276 60.1806C46.7222 60.1806 46.8214 60.1392 46.8877 60.0726C46.9239 60.0392 46.9494 59.9998 46.9642 59.9538C46.987 59.9103 46.9976 59.863 46.9957 59.812C46.9915 59.7169 46.96 59.6182 46.8877 59.5519C46.8159 59.4855 46.7273 59.4438 46.6276 59.4438C46.533 59.4438 46.4342 59.4852 46.3675 59.5519C46.3313 59.5852 46.3058 59.6247 46.291 59.6701C46.2682 59.7141 46.2576 59.7614 46.2595 59.812C46.2637 59.9074 46.2952 60.0062 46.3675 60.0726C46.4393 60.1389 46.5279 60.1806 46.6276 60.1806Z" fill="#93AB3D"/>
<path d="M51.4741 63.3182C52.4467 63.3182 52.4483 61.8066 51.4741 61.8066C50.5018 61.8066 50.4999 63.3182 51.4741 63.3182Z" fill="#93AB3D"/>
<path d="M50.6881 58.4514C51.129 58.4514 51.1295 57.7671 50.6881 57.7671C50.2477 57.7671 50.2467 58.4514 50.6881 58.4514Z" fill="#93AB3D"/>
<path d="M27.8974 82.6724C27.4818 82.6724 27.4811 83.3183 27.8974 83.3183C28.3129 83.3183 28.3136 82.6724 27.8974 82.6724Z" fill="#93AB3D"/>
<path d="M24.0993 75.945C24.465 75.945 24.4657 75.3765 24.0993 75.3765C23.7335 75.3765 23.7329 75.945 24.0993 75.945Z" fill="#93AB3D"/>
<path d="M27.6666 55.3282C27.7136 55.3645 27.7607 55.4005 27.8078 55.4373C27.9165 55.5004 28.034 55.5319 28.1599 55.5324C28.256 55.5361 28.3455 55.5162 28.4287 55.4725C28.5151 55.4443 28.5899 55.3959 28.6532 55.3282C28.7213 55.2648 28.7692 55.1901 28.7975 55.1034C28.8412 55.0204 28.8613 54.9309 28.8575 54.8349C28.8492 54.7729 28.841 54.7111 28.8327 54.6495C28.7995 54.5313 28.7396 54.4289 28.6532 54.3416C28.6061 54.3051 28.5591 54.2688 28.512 54.2323C28.4033 54.1691 28.2859 54.1377 28.1599 54.1372C28.064 54.1334 27.9743 54.1533 27.8912 54.1974C27.8046 54.2253 27.7297 54.2734 27.6666 54.3416C27.5986 54.4047 27.5506 54.4794 27.5223 54.566C27.4786 54.649 27.4588 54.7385 27.4623 54.8349L27.4873 55.0204C27.5205 55.1386 27.58 55.241 27.6666 55.3282Z" fill="#93AB3D"/>
<path d="M26.3259 30.887C27.3649 30.887 27.3666 29.272 26.3259 29.272C25.2867 29.272 25.285 30.887 26.3259 30.887Z" fill="#93AB3D"/>
<path d="M29.7309 22.3012C29.8515 22.3012 29.9655 22.2357 30.0267 22.1316C30.0579 22.0782 30.0732 22.0205 30.0735 21.9588C30.073 21.8971 30.0577 21.8394 30.0267 21.786C30.0119 21.7509 29.9971 21.7161 29.9822 21.681C29.9561 21.6373 29.9214 21.6026 29.8779 21.5767C29.8325 21.5504 29.7833 21.5373 29.7309 21.5371C29.6785 21.5373 29.6297 21.5505 29.5843 21.5767C29.5406 21.6026 29.5059 21.6373 29.48 21.681C29.4651 21.7161 29.4502 21.7509 29.4353 21.786C29.4043 21.8394 29.3888 21.8971 29.3887 21.9588C29.3888 22.0205 29.4045 22.0782 29.4353 22.1316C29.4962 22.2357 29.6103 22.3012 29.7309 22.3012Z" fill="#93AB3D"/>
<path d="M44.8048 0.378882C44.2868 0.367995 44.8714 2.22691 43.9901 2.64962C43.8474 2.19612 44.017 0.916074 44.0471 0.404056C44.0661 0.073031 41.8743 -0.00164473 41.7483 0.615498C41.6226 1.22924 41.5768 2.0602 41.4567 2.6736C41.3232 3.35743 41.0505 3.99175 40.8643 4.37007C40.7025 3.97389 40.7243 3.45558 40.8768 2.60182C41.0493 1.63443 41.246 1.51672 41.0762 0.530445C40.0854 0.420217 36.6199 1.95763 36.6455 2.63975C36.6807 3.59047 36.8593 3.75854 36.9858 4.70688C37.0726 5.35464 37.38 6.21945 36.9233 6.79526C36.8096 6.34908 36.62 5.64722 36.4939 5.10271C36.3233 4.36666 35.8267 3.59473 35.8625 3.00599C35.8783 2.75032 34.0886 4.49884 33.5511 5.87312C33.1881 6.80121 32.7671 7.40033 32.4495 8.34458C32.2794 8.85133 32.0943 9.33715 31.881 9.82008C31.7229 10.1783 31.3839 10.812 31.3018 10.9902C32.396 10.3324 33.5678 9.62531 34.5738 8.85388C34.5088 8.55109 34.3312 7.89669 34.5612 7.61619C34.8417 7.97511 34.8769 8.71507 35.1171 8.51299C35.3489 8.31822 38.2208 6.52292 38.6534 6.29005C38.9822 6.11314 38.6571 5.36535 38.881 4.86286C39.5339 5.41622 39.1207 6.11076 39.5755 5.79742C40.3461 5.26686 42.2911 3.8902 44.7416 3.28394C45.038 3.21063 45.0643 2.72889 45.4112 2.36197C45.4103 2.55436 45.4784 2.91447 45.6184 3.04886C46.0839 2.79166 47.0176 2.42457 47.5077 2.18523C48.2068 1.84349 50.3624 1.86288 50.7413 1.30102C50.3398 1.28588 47.7619 0.641014 47.3562 0.606312C46.7877 0.557832 45.4112 0.391469 44.8048 0.378882Z" fill="#64A044"/>
<path d="M32.3686 32.5278C31.7116 32.5278 31.7106 33.5485 32.3686 33.5485C33.0252 33.5485 33.026 32.5278 32.3686 32.5278Z" fill="#AEBC36"/>
<path d="M36.2055 32.1956C36.3167 32.2344 36.4655 32.1918 36.5443 32.1059C36.6074 32.0377 36.6467 31.9539 36.6467 31.8593C36.6467 31.7698 36.6077 31.6759 36.5443 31.6126C36.4608 31.5291 36.3204 31.4828 36.2055 31.523C36.1716 31.5347 36.1378 31.5464 36.1039 31.5582C36.0794 31.5687 36.0542 31.5791 36.0292 31.5897C35.993 31.6092 35.9639 31.6361 35.9416 31.6701C35.9013 31.7228 35.8715 31.7909 35.8748 31.8594C35.8771 31.9149 35.8914 31.968 35.9174 32.0171C35.9554 32.0891 36.0301 32.135 36.1039 32.1607C36.1378 32.1724 36.1716 32.1842 36.2055 32.1959V32.1956Z" fill="#AEBC36"/>
<path d="M34.3331 38.0405C33.1861 38.0405 33.1842 39.8231 34.3331 39.8231C35.4802 39.8231 35.482 38.0405 34.3331 38.0405Z" fill="#AEBC36"/>
<path d="M39.2331 41.2713C39.1321 41.2992 39.062 41.3766 39.03 41.4744C39.0133 41.5255 38.9967 41.5768 38.98 41.6279C38.9322 41.7743 39.0875 41.9296 39.2345 41.882L39.3879 41.832C39.4852 41.8005 39.5628 41.7304 39.5905 41.6289C39.6184 41.5292 39.5891 41.4198 39.5158 41.3465C39.4425 41.2729 39.3331 41.2441 39.2329 41.2713H39.2331Z" fill="#AEBC36"/>
<path d="M37.1641 46.9927C37.12 46.9454 37.0681 46.9121 37.0083 46.8925C36.9503 46.8624 36.8882 46.8485 36.8215 46.8508C36.7788 46.8568 36.7357 46.8624 36.6931 46.8685C36.6111 46.8913 36.5401 46.933 36.4792 46.9927C36.4542 47.0252 36.4292 47.058 36.4037 47.0905C36.3602 47.1661 36.3379 47.2477 36.3379 47.3348C36.3421 47.3719 36.3462 47.4085 36.35 47.4455C36.3476 47.5105 36.361 47.5712 36.3908 47.6272C36.4099 47.6856 36.4423 47.7362 36.4881 47.7788C36.5308 47.8247 36.5813 47.8572 36.6401 47.8761C36.6963 47.9057 36.7565 47.9191 36.8215 47.9169C36.9435 47.9113 37.07 47.8715 37.1552 47.7788C37.1797 47.7473 37.2044 47.7153 37.2289 47.6832C37.2716 47.6099 37.2929 47.5306 37.2929 47.4454C37.2971 47.4083 37.3012 47.3717 37.3054 47.3346C37.3082 47.2679 37.2944 47.2057 37.2638 47.1482C37.2444 47.088 37.2109 47.0359 37.1641 46.9924V46.9927Z" fill="#AEBC36"/>
<path d="M41.7988 47.8291C41.7293 47.8291 41.6564 47.8597 41.6073 47.9089C41.56 47.9557 41.5248 48.0331 41.5275 48.1004C41.5307 48.1708 41.5539 48.2436 41.6073 48.2923C41.6602 48.3409 41.7255 48.3721 41.7988 48.3721C41.8684 48.3721 41.9417 48.3415 41.9907 48.2923C42.0375 48.2455 42.0732 48.1681 42.07 48.1004C42.0673 48.0303 42.044 47.9577 41.9907 47.9089C41.9378 47.8602 41.8725 47.8291 41.7988 47.8291Z" fill="#AEBC36"/>
<path d="M36.2978 42.7661C36.0071 42.7661 36.0066 43.2183 36.2978 43.2183C36.589 43.2183 36.5894 42.7661 36.2978 42.7661Z" fill="#AEBC36"/>
<path d="M35.3813 25.7842C35.1486 25.7842 35.148 26.146 35.3813 26.146C35.614 26.146 35.6145 25.7842 35.3813 25.7842Z" fill="#AEBC36"/>
<path d="M41.7987 52.9854C41.566 52.9854 41.5655 53.347 41.7987 53.347C42.0314 53.347 42.032 52.9854 41.7987 52.9854Z" fill="#AEBC36"/>
<path d="M33.0231 26.8311C32.2832 26.8311 32.2821 27.9808 33.0231 27.9808C33.7631 27.9808 33.7641 26.8311 33.0231 26.8311Z" fill="#AEBC36"/>
<path d="M38.7966 35.4756C38.0566 35.4756 38.0556 36.6253 38.7966 36.6253C39.5365 36.6253 39.5375 35.4756 38.7966 35.4756Z" fill="#AEBC36"/>
<path d="M46.1214 50.8589C45.3814 50.8589 45.3801 52.0088 46.1214 52.0088C46.8608 52.0088 46.8624 50.8589 46.1214 50.8589Z" fill="#AEBC36"/>
</svg>
