<svg width="527" height="1162" viewBox="0 0 527 1162" fill="none" xmlns="http://www.w3.org/2000/svg">
<path d="M117.261 975.27C117.261 975.27 114.524 1002.82 168.819 991.933C224.202 980.829 410.311 991.933 410.311 991.933C410.311 991.933 435.811 990.987 433.832 975.27C431.857 959.557 361.699 775.137 361.699 775.137H201.978L117.261 975.27Z" fill="#B1B4B4"/>
<path d="M363.742 466.214C327.492 454.135 302.496 449.543 302.496 449.543L269.317 450.564L269.309 449.543H243.351C243.351 449.543 218.351 454.135 182.101 466.214C182.101 466.214 162.393 640.781 170.993 783.26C170.993 783.26 185.018 799.522 272.922 799.522C360.839 799.522 374.843 783.26 374.843 783.26C383.456 640.781 363.743 466.214 363.743 466.214H363.742Z" fill="#B2E1E9"/>
<path d="M178.098 787.563C178.098 787.563 194.385 830.763 272.923 830.763C351.456 830.763 370.465 786.246 370.465 786.246L178.098 787.563Z" fill="#37314A"/>
<path d="M370.815 788.797C370.815 788.797 416.961 926.11 387.848 1127.35C387.848 1127.35 381.877 1129.59 340.219 1126.27C340.219 1126.27 372.486 986.626 309.152 818.347L370.815 788.797Z" fill="#37314A"/>
<path d="M406.446 1160.01C406.446 1160.01 437.054 1124.06 413.95 1114.38C390.846 1104.73 353.321 1127.21 353.321 1127.21L340.221 1126.27C340.221 1126.27 333.333 1143.75 333.954 1147.51C334.579 1151.27 343.962 1150.01 341.462 1151.88C338.958 1153.76 340.83 1166.25 406.446 1160.01Z" fill="#100B13"/>
<path d="M176.553 788.797C176.553 788.797 130.411 926.11 159.52 1127.35C159.52 1127.35 165.495 1129.59 207.153 1126.27C207.153 1126.27 174.886 986.626 238.216 818.347L176.553 788.797Z" fill="#37314A"/>
<path d="M140.929 1160.01C140.929 1160.01 110.321 1124.06 133.425 1114.38C156.529 1104.73 194.054 1127.21 194.054 1127.21L207.154 1126.27C207.154 1126.27 214.037 1143.75 213.421 1147.51C212.796 1151.27 203.413 1150.01 205.909 1151.88C208.417 1153.76 206.545 1166.25 140.929 1160.01Z" fill="#100B13"/>
<path d="M238.683 511.093C238.683 511.093 230.466 710.285 244.004 958.055C244.004 958.055 122.817 955.826 117.262 975.272C117.262 975.272 147.82 736.384 147.82 665.551C147.82 594.718 151.987 472.714 156.153 468.439L224.207 449.543L238.683 511.093Z" fill="white"/>
<path d="M312.407 511.093C312.407 511.093 320.628 710.285 307.09 958.055C307.09 958.055 428.277 955.826 433.832 975.272C433.832 975.272 403.274 736.384 403.274 665.551C403.274 594.718 399.107 472.714 394.941 468.439L326.883 449.543L312.408 511.093H312.407Z" fill="white"/>
<path d="M272.923 495.408L230.46 514.858C230.46 514.858 206.443 464.091 218.452 449.541C218.452 449.541 225.391 440.558 238.686 441.249L272.923 495.408Z" fill="#96BFCA"/>
<path d="M274.098 495.408L316.556 514.858C316.556 514.858 340.577 464.091 328.568 449.541C328.568 449.541 321.63 440.558 308.331 441.249L274.098 495.408Z" fill="#96BFCA"/>
<path d="M371.599 537.074H360.141V569.366H371.599V537.074Z" fill="#CD2A2E"/>
<path d="M382.019 547.492H349.727V558.95H382.019V547.492Z" fill="#CD2A2E"/>
<path d="M73.625 241.589C73.625 261.922 70.525 281.397 50.187 281.397C29.862 281.397 0 261.922 0 241.589C0 221.26 16.479 204.777 36.808 204.777C57.145 204.777 73.625 221.26 73.625 241.589Z" fill="#F9AC95"/>
<path d="M66.8005 245.389C66.8005 255.656 64.1635 267.226 53.8925 267.226C43.6175 267.226 29.6055 255.655 29.6055 245.389C29.6055 235.114 37.9305 226.789 48.2015 226.789C58.4685 226.789 66.8015 235.114 66.8015 245.389H66.8005Z" fill="#F0947F"/>
<path d="M453.125 242.082C453.125 262.415 456.225 281.89 476.563 281.89C496.888 281.89 526.751 262.415 526.751 242.082C526.751 221.753 510.272 205.27 489.943 205.27C469.606 205.27 453.125 221.753 453.125 242.082Z" fill="#F9AC95"/>
<path d="M459.953 245.885C459.953 256.152 462.59 267.722 472.861 267.722C483.132 267.722 497.149 256.151 497.149 245.885C497.149 235.61 488.824 227.285 478.553 227.285C468.282 227.285 459.953 235.61 459.953 245.885Z" fill="#F0947F"/>
<path d="M305.84 406.625H235.844C235.844 406.625 242.506 434.958 235.844 450.787L272.919 495.408L309.998 450.787C309.998 450.787 304.177 429.125 305.84 406.625Z" fill="#F9B29B"/>
<path d="M238.787 434.171H238.784L238.688 427.583C238.792 429.745 238.837 431.958 238.787 434.171ZM306.87 434.163C306.562 431.83 306.278 429.317 306.049 426.68H306.074L306.87 434.163Z" fill="#1F879A"/>
<path d="M274.267 437.759C264.18 437.759 252.159 436.863 238.788 434.172C238.838 431.959 238.792 429.747 238.688 427.584L238.684 427.459L239.134 427.447C246.184 427.793 253.505 427.972 261.092 427.972C261.646 427.972 262.184 427.964 262.721 427.955C264.067 427.963 265.421 427.972 266.788 427.972C267.388 427.972 267.971 427.972 268.571 427.968L268.65 427.972L268.588 427.968C269.275 427.964 269.963 427.964 270.642 427.955C271.146 427.963 271.654 427.972 272.175 427.972C284.142 427.972 295.425 427.535 306.05 426.68C306.279 429.317 306.562 431.83 306.871 434.163L306.875 434.171C306.875 434.171 294.442 437.759 274.267 437.759Z" fill="#F29B81"/>
<path d="M476.191 214.012C476.191 332.174 448.883 427.97 266.787 427.97C84.6947 427.97 57.3867 332.174 57.3867 214.012C57.3867 114.116 112.116 41.5742 259.341 41.5742C401.003 41.5742 476.191 79.7322 476.191 214.012Z" fill="#F9B29B"/>
<path d="M266.786 427.971C265.419 427.971 264.065 427.963 262.719 427.954C263.927 427.933 265.115 427.896 266.34 427.879L268.569 427.967C267.969 427.971 267.386 427.971 266.786 427.971Z" fill="#F29B81"/>
<path d="M268.588 427.967L266.93 427.879C268.184 427.896 269.401 427.933 270.642 427.954C269.963 427.962 269.275 427.962 268.588 427.967Z" fill="#F29B81"/>
<path d="M464.688 314.707C471.546 290.982 474.555 264.59 475.517 236.582C475.738 231.986 475.901 227.336 476.005 222.653C476.051 222.278 476.1 221.836 476.158 221.336C475.995 237.294 475.279 252.807 473.683 267.698C473.183 272.361 472.596 276.973 471.917 281.506C470.184 293.043 467.829 304.135 464.688 314.706L464.688 314.707Z" fill="#F29B81"/>
<path d="M342.756 202.25C342.756 199.508 345.352 197.183 349.006 196.25C346.614 192.962 343.227 190.875 339.427 190.875C332.21 190.875 326.344 198.346 326.344 207.567C326.344 216.788 332.211 224.259 339.427 224.259C346.36 224.259 351.969 217.38 352.431 208.697C347.077 208.664 342.756 205.796 342.756 202.25Z" fill="#130E14"/>
<path d="M193.796 204.902C193.796 202.16 196.4 199.84 200.054 198.902C197.662 195.614 194.275 193.527 190.483 193.527C183.25 193.527 177.395 201.002 177.395 210.214C177.395 219.435 183.249 226.91 190.483 226.91C197.408 226.91 203.016 220.031 203.479 211.347C198.125 211.314 193.796 208.448 193.796 204.902Z" fill="#130E14"/>
<path d="M306.077 426.678L306.031 426.307C403.906 417.532 446.893 374.632 464.689 314.707C447.122 375.515 404.298 418.799 306.077 426.678Z" fill="#3D848E"/>
<path d="M306.048 426.68C306.044 426.559 306.027 426.434 306.023 426.313L306.027 426.309L306.073 426.68H306.048Z" fill="#477379"/>
<path d="M272.174 427.971C271.653 427.971 271.145 427.964 270.641 427.955C283.17 427.863 294.945 427.304 306.024 426.312C306.028 426.433 306.045 426.559 306.049 426.68C295.424 427.534 284.141 427.971 272.174 427.971ZM268.649 427.971L268.57 427.968H268.587L268.649 427.971Z" fill="#C48268"/>
<path d="M238.68 427.424C113.059 421.116 72.405 360.624 61.168 278.816C61.201 278.799 61.23 278.779 61.264 278.762C72.651 359.516 113.485 419.508 238.664 427.145C238.672 427.237 238.676 427.332 238.68 427.424Z" fill="#3D848E"/>
<path d="M61.1647 278.816C60.5687 274.495 60.0607 270.112 59.6227 265.679C59.6397 265.667 59.6607 265.654 59.6807 265.641C60.1267 270.066 60.6517 274.445 61.2597 278.762C61.2267 278.779 61.1977 278.8 61.1637 278.816H61.1647ZM57.5527 229.308C57.5487 229.304 57.5487 229.304 57.5447 229.304C57.4367 224.254 57.3867 219.154 57.3867 214.012C57.3867 219.154 57.4357 224.254 57.5527 229.308Z" fill="#CD8D75"/>
<path d="M59.6259 265.68C58.4629 253.909 57.8219 241.755 57.5469 229.305C57.5509 229.305 57.5509 229.305 57.5549 229.309C57.8339 241.742 58.4918 253.884 59.6838 265.642C59.6628 265.654 59.6419 265.667 59.6259 265.68Z" fill="#C37C67"/>
<path d="M239.135 427.445C238.985 427.441 238.831 427.432 238.681 427.424C238.677 427.332 238.673 427.237 238.664 427.145C239.993 427.224 241.343 427.303 242.689 427.37L239.135 427.445Z" fill="#D29379"/>
<path d="M261.091 427.971C253.504 427.971 246.183 427.792 239.133 427.446L242.687 427.371C249.141 427.704 255.816 427.9 262.72 427.954C262.183 427.962 261.645 427.971 261.091 427.971Z" fill="#C48268"/>
<path d="M266.789 421.141C87.2309 421.141 58.1969 327.974 57.4219 212.074C57.4549 210.837 57.5179 209.053 57.6349 206.857H67.3219C64.4299 288.565 86.3259 310.782 110.243 310.778C125.922 310.774 142.472 301.224 153.46 292.628C184.535 268.324 228.406 259.878 228.406 259.878L263.923 263.874L304.86 259.878C304.86 259.878 348.735 268.324 379.814 292.628C390.806 301.224 407.347 310.778 423.031 310.778C446.714 310.774 468.427 288.982 466.023 209.153H475.144C475.594 214.09 475.84 219.153 475.811 224.257V224.236C475.753 228.386 475.657 232.499 475.519 236.582C470.469 340.836 433.515 421.14 266.79 421.14L266.789 421.141ZM329.756 324.228C329.756 324.228 309.964 335.336 295.385 335.336C295.385 335.336 296.664 335.565 298.927 335.565C304.581 335.565 316.373 334.149 329.756 324.228ZM266.635 317.007C265.622 317.007 264.735 317.745 264.577 318.778C264.406 319.916 265.185 320.978 266.323 321.149C266.394 321.162 275.14 322.491 286.906 322.491C295.619 322.487 305.977 321.766 315.76 319.191C325.518 316.612 334.772 312.179 341.002 304.537C341.731 303.645 341.594 302.333 340.702 301.604C340.315 301.291 339.852 301.137 339.389 301.137C338.781 301.137 338.181 301.399 337.772 301.908C332.364 308.566 323.968 312.725 314.697 315.162C305.451 317.604 295.41 318.325 286.943 318.325H286.905C281.18 318.325 276.172 318 272.605 317.675C270.822 317.512 269.401 317.35 268.426 317.229C267.455 317.108 266.951 317.033 266.951 317.033C266.843 317.016 266.739 317.008 266.634 317.008L266.635 317.007ZM474.714 204.986H465.876C465.251 189.236 463.722 171.315 461.126 150.961C461.126 150.961 471.31 175.211 474.714 204.986ZM67.4889 202.69H57.9019C58.9599 188.14 62.2059 163.278 72.1439 150.961C69.6729 170.34 68.1639 187.499 67.4889 202.69Z" fill="#D29379"/>
<path d="M268.571 427.966L266.342 427.878C265.117 427.895 263.93 427.932 262.721 427.953C111.375 426.745 69.0417 358.04 59.6827 265.64C58.4907 253.882 57.8327 241.74 57.5537 229.307C57.4367 224.253 57.3867 219.153 57.3867 214.011C57.3867 213.986 57.3907 213.294 57.4197 212.074C58.1947 327.974 87.2277 421.141 266.787 421.141C433.512 421.141 470.466 340.837 475.516 236.583C474.553 264.591 471.545 290.983 464.687 314.708C444.874 381.416 393.845 427.029 270.641 427.954C269.399 427.933 268.183 427.896 266.929 427.879L268.587 427.967H268.57L268.571 427.966Z" fill="#C48268"/>
<path d="M218.453 255.581C218.453 255.581 220.007 255.789 222.72 256.16C225.42 256.531 229.253 257.018 233.812 257.564C236.083 257.814 238.545 258.085 241.154 258.372C243.737 258.714 246.5 258.772 249.308 259.13C252.129 259.305 255.041 259.484 258.004 259.667C260.967 259.721 263.962 260.017 266.962 259.942C269.962 260.021 272.958 260.038 275.904 259.917C277.379 259.896 278.842 259.871 280.292 259.85C281.734 259.758 283.154 259.662 284.559 259.571C287.376 259.425 290.088 259.221 292.659 258.904C295.238 258.625 297.705 258.446 299.938 258.037C302.18 257.662 304.284 257.433 306.138 257.174C307.955 256.77 309.571 256.495 310.913 256.249C313.6 255.787 315.192 255.578 315.192 255.578C315.192 255.578 313.879 256.428 311.488 257.807C310.288 258.482 308.825 259.332 307.105 260.211C305.355 261.003 303.347 261.828 301.122 262.674C298.918 263.616 296.455 264.361 293.805 265.016C292.484 265.37 291.122 265.733 289.734 266.103C288.334 266.441 286.884 266.599 285.413 266.857C282.471 267.361 279.426 267.865 276.296 267.99C273.175 268.303 269.996 268.307 266.821 268.269C263.642 268.29 260.483 267.965 257.375 267.711C254.271 267.432 251.25 266.836 248.329 266.382C242.512 265.232 237.162 263.849 232.725 262.199C223.771 259.128 218.454 255.578 218.454 255.578L218.453 255.581Z" fill="#D47D6D"/>
<path d="M286.903 322.492C275.136 322.492 266.39 321.163 266.32 321.15C265.183 320.979 264.403 319.917 264.574 318.779C264.732 317.746 265.62 317.008 266.632 317.008C266.736 317.008 266.84 317.016 266.949 317.033C266.949 317.033 267.453 317.108 268.424 317.229C269.399 317.35 270.82 317.512 272.603 317.675C276.17 318 281.178 318.325 286.903 318.325H286.941C295.408 318.325 305.449 317.604 314.695 315.162C323.966 312.724 332.362 308.566 337.77 301.908C338.178 301.4 338.778 301.137 339.387 301.137C339.85 301.137 340.312 301.291 340.7 301.604C341.592 302.333 341.729 303.646 341 304.537C334.771 312.179 325.517 316.612 315.758 319.191C305.975 321.766 295.616 322.487 286.904 322.491L286.903 322.492Z" fill="#C46753"/>
<path d="M298.925 335.567C296.662 335.567 295.383 335.338 295.383 335.338C309.962 335.338 329.754 324.23 329.754 324.23C316.371 334.151 304.579 335.567 298.925 335.567Z" fill="#C46753"/>
<path d="M158.234 185.183C158.234 185.183 193.942 170.408 218.451 172.491C218.451 172.491 219.343 136.378 197.818 129.437C176.293 122.491 150.593 164.854 149.901 166.241C149.209 167.633 155.001 186.445 158.234 185.183Z" fill="#683E2A"/>
<path d="M378.347 185.183C378.347 185.183 342.639 170.408 318.13 172.491C318.13 172.491 317.238 136.378 338.763 129.437C360.288 122.491 385.988 164.854 386.68 166.241C387.372 167.633 381.576 186.445 378.347 185.183Z" fill="#683E2A"/>
<path d="M72.1431 150.962C72.1431 150.962 128.376 119.02 141.568 82.9077C141.568 82.9077 337.476 121.933 377.022 90.6157C377.022 90.6157 418.884 141.933 461.126 150.962C461.126 150.962 476.022 186.441 475.809 224.258C475.809 224.258 497.122 65.5498 415.872 64.8538C415.872 64.8538 433.234 42.6328 420.039 28.7418C420.039 28.7418 400.597 44.6837 370.735 41.5747C340.873 38.4667 181.843 -21.9542 128.372 8.60378C128.372 8.60378 99.2051 17.6288 99.2051 56.5208C99.2051 56.5208 68.6551 65.6998 57.3881 92.6328C44.3421 123.808 57.3881 214.012 57.3881 214.012C57.3881 214.012 57.5811 169.016 72.1431 150.962Z" fill="#683E2A"/>
<path d="M225.826 209.074L225.989 208.924C227.781 207.274 243.997 193.257 266.91 193.295C279.139 193.303 293.356 197.199 308.718 209.208C309.622 209.916 310.931 209.758 311.635 208.85C312.352 207.946 312.189 206.637 311.285 205.929C295.298 193.4 280.043 189.116 266.91 189.129C240.61 189.175 223.135 205.917 222.952 206.058C222.119 206.854 222.085 208.17 222.881 209.004C223.673 209.837 224.994 209.871 225.827 209.075L225.826 209.074Z" fill="#7B8082"/>
<path d="M127.849 202.691H51.5869C50.4369 202.691 49.5039 203.624 49.5039 204.774C49.5039 205.924 50.4369 206.857 51.5869 206.857H127.849C128.999 206.857 129.932 205.924 129.932 204.774C129.932 203.624 128.999 202.691 127.849 202.691Z" fill="#7B8082"/>
<path d="M178.122 243.686C148.035 243.686 125.81 239.974 125.81 239.974C124.997 228.112 124.689 216.807 124.656 206.857H127.852C129.002 206.857 129.935 205.924 129.935 204.774C129.935 203.624 129.002 202.691 127.852 202.691H124.656C124.731 183.024 125.81 169.637 125.81 169.637C133.906 168.633 142.018 167.954 149.931 167.516C150.598 171.874 155.06 185.241 157.914 185.241C158.022 185.241 158.131 185.224 158.235 185.183C158.235 185.183 189.393 172.291 213.477 172.291C215.177 172.291 216.835 172.353 218.452 172.491C218.452 172.491 218.485 171.07 218.377 168.737C224.094 169.233 227.373 169.637 227.373 169.637C229.39 179.562 230.106 190.412 230.148 200.558C225.573 203.566 223.019 206.004 222.952 206.058C222.119 206.854 222.085 208.17 222.881 209.004C223.289 209.433 223.839 209.65 224.389 209.65C224.906 209.65 225.422 209.458 225.827 209.075L225.99 208.925C226.452 208.5 227.869 207.254 230.115 205.637C229.794 224.633 227.373 239.974 227.373 239.974C210.181 242.757 193.172 243.686 178.122 243.686ZM190.485 193.524C183.252 193.524 177.397 200.999 177.397 210.211C177.397 219.432 183.251 226.907 190.485 226.907C197.41 226.907 203.018 220.028 203.481 211.344C198.127 211.311 193.798 208.444 193.798 204.898C193.798 202.156 196.402 199.836 200.056 198.898C197.664 195.61 194.277 193.524 190.485 193.524Z" fill="#F3D3C7"/>
<path d="M190.483 226.91C183.25 226.91 177.395 219.435 177.395 210.214C177.395 201.002 183.249 193.527 190.483 193.527C194.275 193.527 197.662 195.614 200.054 198.902C196.4 199.84 193.796 202.16 193.796 204.902C193.796 208.448 198.125 211.315 203.479 211.348C203.017 220.031 197.408 226.911 190.483 226.911V226.91Z" fill="#8A979A"/>
<path d="M157.913 185.242C155.059 185.242 150.596 171.875 149.93 167.517C158.472 167.046 166.78 166.859 174.592 166.859C193.242 166.859 209.05 167.926 218.375 168.738C218.483 171.071 218.45 172.492 218.45 172.492C216.833 172.354 215.175 172.292 213.475 172.292C189.392 172.292 158.233 185.184 158.233 185.184C158.129 185.226 158.022 185.242 157.913 185.242Z" fill="#ADA79E"/>
<path d="M224.389 209.651C223.839 209.651 223.289 209.434 222.881 209.005C222.085 208.172 222.119 206.855 222.952 206.059C223.019 206.005 225.573 203.567 230.148 200.559C230.156 202.276 230.144 203.972 230.115 205.638C227.869 207.255 226.453 208.501 225.99 208.926L225.827 209.076C225.423 209.459 224.906 209.651 224.389 209.651Z" fill="#B4BCBD"/>
<path d="M127.849 206.858H124.653C124.645 205.446 124.649 204.05 124.653 202.691H127.849C128.999 202.691 129.932 203.624 129.932 204.774C129.932 205.924 128.999 206.858 127.849 206.858Z" fill="#B4BCBD"/>
<path d="M405.313 209.154H481.571C482.725 209.154 483.654 208.221 483.654 207.071C483.654 205.921 482.725 204.988 481.571 204.988H405.313C404.159 204.988 403.23 205.921 403.23 207.071C403.23 208.221 404.159 209.154 405.313 209.154Z" fill="#7B8082"/>
<path d="M355.037 245.983C339.991 245.983 322.979 245.054 305.791 242.266C305.791 242.266 303.124 225.366 303.016 205.083C304.895 206.337 306.795 207.708 308.716 209.208C309.095 209.508 309.549 209.65 309.995 209.65C310.612 209.65 311.228 209.375 311.633 208.85C312.35 207.946 312.187 206.637 311.283 205.929C308.508 203.754 305.762 201.833 303.041 200.137C303.195 190.791 303.949 180.975 305.791 171.929C305.791 171.929 310.37 171.371 318.137 170.754C318.112 171.862 318.129 172.492 318.129 172.492C319.746 172.354 321.404 172.292 323.104 172.292C347.187 172.292 378.346 185.184 378.346 185.184C378.45 185.226 378.558 185.242 378.667 185.242C381.096 185.242 384.692 175.55 386.121 169.984C393.113 170.417 400.238 171.051 407.354 171.93C407.354 171.93 408.433 185.318 408.508 204.988H405.312C404.158 204.988 403.229 205.921 403.229 207.071C403.229 208.221 404.158 209.154 405.312 209.154H408.508C408.47 219.1 408.166 230.408 407.354 242.267C407.354 242.267 385.129 245.984 355.037 245.984V245.983ZM339.424 190.875C332.207 190.875 326.341 198.346 326.341 207.567C326.341 216.788 332.208 224.259 339.424 224.259C346.357 224.259 351.966 217.38 352.428 208.697C347.074 208.664 342.753 205.797 342.753 202.251C342.753 199.509 345.349 197.184 349.003 196.251C346.611 192.963 343.224 190.875 339.424 190.875Z" fill="#F3D3C7"/>
<path d="M339.427 224.259C332.21 224.259 326.344 216.788 326.344 207.567C326.344 198.346 332.211 190.875 339.427 190.875C343.227 190.875 346.615 192.963 349.006 196.25C345.352 197.183 342.756 199.508 342.756 202.25C342.756 205.796 347.077 208.663 352.431 208.696C351.969 217.379 346.36 224.258 339.427 224.258V224.259Z" fill="#8A979A"/>
<path d="M378.665 185.24C378.557 185.24 378.448 185.223 378.344 185.182C378.344 185.182 347.186 172.29 323.102 172.29C321.402 172.29 319.744 172.352 318.127 172.49C318.127 172.49 318.11 171.861 318.135 170.752C327.66 169.994 341.989 169.152 358.568 169.152C367.255 169.152 376.56 169.381 386.118 169.981C384.689 175.548 381.093 185.239 378.664 185.239L378.665 185.24Z" fill="#ADA79E"/>
<path d="M309.998 209.65C309.552 209.65 309.098 209.508 308.719 209.208C306.798 207.708 304.898 206.337 303.019 205.083C303.011 203.45 303.019 201.804 303.044 200.137C305.765 201.833 308.511 203.754 311.286 205.929C312.19 206.637 312.353 207.946 311.636 208.85C311.232 209.375 310.615 209.65 309.998 209.65Z" fill="#B4BCBD"/>
<path d="M408.51 209.154H405.313C404.159 209.154 403.23 208.221 403.23 207.071C403.23 205.921 404.159 204.988 405.313 204.988H408.51C408.514 206.346 408.514 207.737 408.51 209.154Z" fill="#B4BCBD"/>
<path d="M228.226 584.295C228.226 588.391 224.905 591.703 220.818 591.703C216.726 591.703 213.414 588.391 213.414 584.295C213.414 580.203 216.726 576.891 220.818 576.891C224.905 576.891 228.226 580.203 228.226 584.295Z" fill="#647074"/>
<path d="M228.226 712.404C228.226 716.5 224.905 719.812 220.818 719.812C216.726 719.812 213.414 716.5 213.414 712.404C213.414 708.312 216.726 705 220.818 705C224.905 705 228.226 708.312 228.226 712.404Z" fill="#647074"/>
<path d="M228.226 840.513C228.226 844.609 224.905 847.921 220.818 847.921C216.726 847.921 213.414 844.608 213.414 840.513C213.414 836.421 216.726 833.109 220.818 833.109C224.905 833.109 228.226 836.421 228.226 840.513Z" fill="#647074"/>
<path d="M224.015 634.208C224.015 634.208 223.903 634.025 223.669 633.641C221.923 630.758 213.857 617.12 206.277 599.554C198.681 582.012 191.652 560.466 191.685 542.271C191.681 533.429 193.31 525.467 197.031 518.992C200.773 512.517 206.535 507.325 215.694 503.846C220.123 502.175 224.002 501.463 227.402 501.463C231.106 501.467 234.265 502.288 237.148 503.792C242.173 506.404 246.469 511.325 249.981 518.075C255.264 528.167 258.602 542.108 260.498 556.433C262.41 570.766 262.948 585.491 262.944 597.329C262.948 604.583 262.748 610.754 262.548 615.104C262.448 617.279 262.348 618.996 262.277 620.166C262.202 621.337 262.152 621.937 262.152 621.941C261.973 624.233 263.69 626.237 265.981 626.42C268.277 626.599 270.281 624.882 270.46 622.591C270.468 622.512 271.277 612.137 271.281 597.328C271.268 578.895 270.052 553.653 264.302 532.541C261.402 521.978 257.398 512.399 251.481 505.158C248.523 501.541 245.052 498.52 241.01 496.404C236.972 494.287 232.377 493.121 227.402 493.129C222.827 493.129 217.948 494.092 212.756 496.046C202.035 500.063 194.448 506.7 189.802 514.846C185.139 522.988 183.352 532.442 183.352 542.271C183.39 563.867 191.856 587.725 200.194 606.417C208.552 625.088 216.869 638.496 216.936 638.6C218.149 640.558 220.715 641.158 222.673 639.946C224.627 638.733 225.227 636.162 224.015 634.208Z" fill="#1D1B22"/>
<path d="M233.326 636.404C233.326 639.187 229.909 641.441 225.688 641.441C221.471 641.441 218.051 639.187 218.051 636.404C218.051 633.625 221.472 631.371 225.688 631.371C229.909 631.371 233.326 633.625 233.326 636.404Z" fill="#D2BE88"/>
<path d="M268.786 623.962C269.561 626.633 266.903 629.749 262.848 630.924C258.798 632.099 254.886 630.882 254.115 628.207C253.34 625.54 255.998 622.424 260.048 621.249C264.102 620.074 268.015 621.291 268.786 623.962Z" fill="#D2BE88"/>
<path d="M238.557 438.489C225.399 441.251 217.711 446.831 213.59 455.543C205.219 473.235 217.79 497.776 217.919 498.018C218.982 500.06 218.19 502.576 216.148 503.639C215.536 503.96 214.877 504.114 214.223 504.114C212.727 504.114 211.273 503.301 210.535 501.881C209.931 500.731 195.918 473.473 206.039 452.01C211.331 440.802 222.91 433.427 238.776 430.098" fill="#1D1B22"/>
<path d="M306.798 436.254L306.961 436.262C307.89 436.316 312.565 436.77 316.744 438.979C318.84 440.075 320.802 441.583 322.227 443.637C323.652 445.699 324.602 448.32 324.61 451.929C324.61 455.6 323.581 460.304 320.864 466.237C313.476 482.462 307.881 513.099 307.864 545.683C307.889 578.958 313.714 614.158 330.222 637.608L333.63 635.204C317.934 613.037 312.005 578.471 312.03 545.683C312.009 513.629 317.667 483.183 324.655 467.97C327.542 461.649 328.767 456.378 328.776 451.928C328.784 447.274 327.384 443.528 325.259 440.724C322.059 436.507 317.455 434.412 313.734 433.307C310.001 432.207 307.067 432.094 306.955 432.086L306.797 436.253L306.798 436.254Z" fill="#7A7F81"/>
<path d="M360.143 647.234C360.143 657.447 351.868 665.721 341.651 665.721C331.439 665.721 323.164 657.446 323.164 647.234C323.164 637.021 331.439 628.742 341.651 628.742C351.868 628.742 360.143 637.021 360.143 647.234Z" fill="#7A7F81"/>
<path d="M353.318 647.234C353.318 653.68 348.093 658.904 341.647 658.904C335.205 658.904 329.98 653.68 329.98 647.234C329.98 640.788 335.205 635.562 341.647 635.562C348.093 635.562 353.318 640.788 353.318 647.234Z" fill="#B4B6B6"/>
<path d="M156.155 468.438C156.155 468.438 60.6627 548.812 90.8717 616.899C121.08 684.991 287.747 601.657 287.747 601.657C287.747 601.657 285.11 566.69 266.635 556.049C266.635 556.049 158.581 584.416 141.914 576.891C125.247 569.366 157.539 535.287 157.539 535.287L156.156 468.438H156.155Z" fill="white"/>
<path d="M90.8696 608.347C87.3116 600.33 85.5526 592.143 85.1196 583.934C84.4656 594.988 86.0736 606.101 90.8696 616.901C121.078 684.993 287.745 601.659 287.745 601.659C287.745 601.659 287.491 598.422 286.641 593.642C272.187 600.692 119.641 673.197 90.8696 608.347Z" fill="#E4E3E6"/>
<path d="M396.071 468.438C396.071 468.438 491.563 548.812 461.354 616.899C431.146 684.991 228.129 601.657 228.129 601.657C228.129 601.657 230.767 566.69 249.242 556.049C249.242 556.049 393.646 584.416 410.313 576.891C426.98 569.366 394.688 535.287 394.688 535.287L396.071 468.438Z" fill="white"/>
<path d="M461.354 608.347C464.908 600.33 466.671 592.143 467.104 583.934C467.758 594.988 466.146 606.101 461.354 616.901C431.146 684.993 228.129 601.659 228.129 601.659C228.129 601.659 228.383 598.422 229.233 593.642C243.687 600.692 432.583 673.197 461.354 608.347Z" fill="#E4E3E6"/>
<path d="M229.235 593.642C229.235 593.642 206.748 605.68 192.302 572.942L176.965 575.584C176.965 575.584 185.665 559.992 199.727 558.951C199.727 558.951 201.81 545.93 208.06 547.493C214.31 549.055 220.818 547.493 220.818 547.493C220.818 547.493 229.026 542.26 233.326 543.847C237.63 545.435 245.23 558.951 245.23 558.951C245.23 558.951 232.313 568.872 229.234 593.643L229.235 593.642Z" fill="#F9B29B"/>
<path d="M268.922 557.551C268.922 557.551 275.064 541.243 282.705 541.068C290.347 540.893 285.134 554.572 285.134 554.572L272.922 560.522L268.922 557.551Z" fill="#F8A78D"/>
<path d="M270.641 558.95C270.828 558.829 295.145 543.525 323.162 569.679C323.162 569.679 280.999 562.029 272.183 560.387L270.641 558.95Z" fill="#F9B29B"/>
<path d="M57.3875 214.013C57.3875 214.013 57.0044 211.38 56.4414 206.859H57.6334C57.5164 209.055 57.4544 210.838 57.4204 212.076C57.3914 213.297 57.3875 213.988 57.3875 214.013Z" fill="#572C1D"/>
<path d="M57.8989 202.692H55.9319C54.2109 188.217 51.5819 162.121 51.5859 137.904C51.5899 119.942 53.0399 103.012 57.3859 92.6327C68.6529 65.6997 99.2029 56.5207 99.2029 56.5207C99.2029 17.6287 128.37 8.6037 128.37 8.6037C139.095 2.4747 154.066 0.0117188 171.391 0.0117188C187.441 0.0117188 205.516 2.12874 224.095 5.39874C212.045 3.65274 201.32 2.88171 191.762 2.88171C120.175 2.88171 114.479 46.1027 114.479 46.1027C120.383 37.7697 132.187 35.6857 142.517 35.6857C152.846 35.6857 161.7 37.7687 161.7 37.7687C138.087 37.7687 133.921 62.0727 133.921 62.0727C159.509 99.7307 312.567 102.773 312.567 102.773C241.863 102.723 143.763 83.3437 141.604 82.9147H141.591V82.9107H141.574C141.57 82.9107 141.57 82.9067 141.57 82.9067H141.566C128.374 119.019 72.1409 150.961 72.1409 150.961C62.2039 163.278 58.9579 188.14 57.8989 202.69V202.692Z" fill="#572C1D"/>
<path d="M57.6336 206.858H56.4416C56.2836 205.608 56.1126 204.216 55.9336 202.691H57.9006C57.7886 204.204 57.7046 205.595 57.6336 206.858Z" fill="#6D5D57"/>
</svg>
