<svg width="87" height="93" viewBox="0 0 87 93" fill="none" xmlns="http://www.w3.org/2000/svg">
<path d="M80.163 22.2465C77.1388 18.6713 76.1337 13.9232 77.5688 9.43555C77.6649 9.13182 77.7733 8.8306 77.8928 8.5301C78.5963 6.75914 79.7407 4.99571 79.9046 3.05954C80.1202 0.521638 77.9036 0.171317 75.6943 0.0206168C70.1587 -0.360167 71.0586 4.61528 72.2526 8.19536C72.3764 8.56719 72.4811 8.93543 72.5669 9.29847C73.753 14.3006 71.4412 18.4844 68.7564 22.8382C68.5578 23.1604 68.3636 23.4842 68.1751 23.8134C64.2215 30.6148 62.1046 38.3174 57.8765 45.003C53.3223 52.2073 47.5909 58.6295 40.8235 63.8231C29.9523 72.1643 17.1849 77.749 4.08949 81.7794C4.06046 81.788 4.03375 81.7975 4.0049 81.8055C2.78245 82.1813 1.49191 82.6089 0.699163 83.608C-0.211492 84.754 -0.169739 86.3762 0.462989 87.7239C0.684829 88.1979 0.980672 88.6389 1.33386 89.0114C1.43152 89.1155 1.53331 89.2137 1.63724 89.3098C1.67183 89.3418 1.70748 89.3723 1.74278 89.4037C1.78257 89.4384 1.8227 89.473 1.86302 89.5072C1.89742 89.5361 1.93201 89.5649 1.96695 89.5932C2.00476 89.6237 2.04239 89.6536 2.08074 89.6834C2.13109 89.7217 2.18181 89.7597 2.23323 89.797C2.26853 89.8226 2.3042 89.8482 2.34003 89.8733C2.36835 89.893 2.39593 89.9138 2.42442 89.9332C2.54233 90.0133 2.6624 90.0901 2.78479 90.1638C2.78855 90.1665 2.79213 90.1686 2.79607 90.1713C2.81184 90.181 2.82868 90.1889 2.84481 90.1985C2.95412 90.2631 3.06504 90.3251 3.17739 90.3849C3.22022 90.4073 3.26341 90.4297 3.30695 90.4521C3.40533 90.5023 3.50495 90.5508 3.60548 90.5978C3.64383 90.6159 3.682 90.6347 3.7207 90.6523C3.85241 90.7121 3.98555 90.7691 4.11995 90.8241C4.16439 90.8422 4.20954 90.8594 4.25434 90.877C4.35182 90.9153 4.44984 90.9533 4.54839 90.9891C4.60108 91.0089 4.65376 91.0275 4.70662 91.0463C4.81324 91.0841 4.92022 91.1205 5.02773 91.1558C5.06375 91.1676 5.09959 91.1803 5.13579 91.1922C5.27502 91.2364 5.41496 91.2793 5.55509 91.3208C5.60419 91.3352 5.65347 91.3491 5.70275 91.3629C5.80579 91.3929 5.909 91.4217 6.01239 91.4495C6.05934 91.4622 6.10629 91.4751 6.15324 91.4878C6.29695 91.5256 6.44049 91.5631 6.58384 91.5995C13.6639 93.3699 21.1 93.2792 28.3385 92.3361C42.2517 90.5256 55.9445 85.4537 66.7127 76.4572C81.1686 64.3786 94.5629 39.2771 80.1625 22.2469L80.163 22.2465Z" fill="#FFC329"/>
<path d="M80.1632 22.2465C77.139 18.6713 76.1339 13.9232 77.569 9.43555C77.6651 9.13182 77.7735 8.8306 77.893 8.5301C78.5965 6.75914 79.7408 4.99571 79.9048 3.05954C80.1204 0.521638 77.9038 0.171317 75.6945 0.0206168C70.1589 -0.360167 71.0588 4.61528 72.2528 8.19536C72.3766 8.56719 72.4812 8.93543 72.5671 9.29847C73.7531 14.3006 71.4414 18.4844 68.7565 22.8382C68.558 23.1604 68.3637 23.4842 68.1752 23.8134C70.914 23.7021 73.8352 23.1303 75.6112 23.5625C77.9362 24.1304 79.5466 26.2474 80.6072 28.3946C83.4175 34.0876 83.663 40.8513 81.9779 46.9711C80.2906 53.0918 76.7811 58.6014 72.4859 63.2765C68.3001 67.8327 63.3356 71.6726 57.8719 74.5796C54.4792 76.3837 50.9088 77.8244 47.3321 79.2309C33.7064 84.5819 19.2859 89.5262 4.74031 87.8848C4.3907 87.8454 4.03967 87.802 3.68791 87.7626C3.74866 87.5651 3.80402 87.3782 3.85097 87.2085C4.33855 85.4557 4.45234 83.5575 4.0049 81.8057C2.78245 82.1815 1.49191 82.609 0.699163 83.6082C-0.211492 84.7542 -0.169739 86.3764 0.462989 87.7241C0.684829 88.198 0.980672 88.639 1.33386 89.0116C1.43152 89.1157 1.5333 89.2139 1.63723 89.3099C1.67182 89.342 1.70747 89.3725 1.74277 89.4038C1.81624 89.4683 1.89097 89.5319 1.96712 89.5932C2.00493 89.6237 2.04257 89.6536 2.08091 89.6834C2.16585 89.7484 2.2524 89.812 2.34021 89.8733C2.36852 89.893 2.39611 89.9138 2.4246 89.9332C2.54251 90.0133 2.66257 90.0901 2.78496 90.1638C2.78873 90.1665 2.79231 90.1686 2.79625 90.1713C2.79643 90.1708 2.79642 90.1708 2.79642 90.1708C2.81237 90.1804 2.82886 90.1889 2.84481 90.1985C2.95412 90.2631 3.06504 90.3251 3.17739 90.3849C3.22022 90.4073 3.2634 90.4297 3.30694 90.4521C3.40532 90.5023 3.50495 90.5508 3.60548 90.5978C3.64383 90.6159 3.682 90.6347 3.7207 90.6523C3.85241 90.7121 3.98554 90.7691 4.11994 90.8241C4.16438 90.8422 4.20953 90.8594 4.25433 90.877C4.35181 90.9153 4.44984 90.9533 4.54839 90.9891C4.60108 91.0089 4.65376 91.0275 4.70662 91.0463C4.81324 91.0841 4.92022 91.1205 5.02773 91.1558C5.06375 91.1676 5.09958 91.1803 5.13578 91.1922C5.27501 91.2364 5.41496 91.2793 5.55509 91.3208C5.60419 91.3352 5.65346 91.3491 5.70274 91.3629C5.80578 91.3929 5.909 91.4217 6.01239 91.4495C6.05934 91.4622 6.10629 91.4751 6.15324 91.4878C6.29695 91.5256 6.44047 91.5631 6.58383 91.5995C13.6639 93.3699 21.1 93.2792 28.3385 92.3361C42.2517 90.5256 55.9445 85.4537 66.7127 76.4572C81.1686 64.3786 94.5629 39.2771 80.1625 22.2469L80.1632 22.2465Z" fill="#F7A324"/>
<path d="M77.34 9.32338C77.4158 9.35832 77.4916 9.39738 77.5685 9.43555C77.6645 9.13182 77.7729 8.8306 77.8925 8.5301C78.596 6.75914 79.7403 4.99571 79.9043 3.05954C80.1198 0.521638 77.9032 0.171317 75.694 0.0206168C70.1584 -0.360167 71.0583 4.61528 72.2522 8.19536C72.376 8.56719 72.4807 8.93543 72.5665 9.29847C74.1529 8.78509 75.5913 8.48655 77.34 9.32338Z" fill="#733C2C"/>
<path d="M3.68791 87.7625C3.74866 87.5651 3.80402 87.3782 3.85097 87.2085C4.33855 85.4556 4.45234 83.5574 4.0049 81.8057C2.78245 82.1814 1.49191 82.609 0.699163 83.6082C-0.211492 84.7541 -0.169739 86.3763 0.462989 87.724C0.684829 88.198 0.980672 88.639 1.33386 89.0115C1.43152 89.1156 1.53331 89.2138 1.63724 89.3099C1.67183 89.3419 1.70748 89.3724 1.74278 89.4038C1.81625 89.4683 1.89098 89.5319 1.96714 89.5932C2.00495 89.6236 2.04257 89.6536 2.08091 89.6833C2.16585 89.7484 2.2524 89.812 2.34021 89.8732C2.36852 89.893 2.39612 89.9138 2.42461 89.9331C2.54252 90.0132 2.66257 90.0901 2.78496 90.1637C2.78873 90.1664 2.79231 90.1686 2.79625 90.1713C2.79643 90.1707 2.79644 90.1707 2.79644 90.1707C3.1731 89.3097 3.47234 88.4605 3.68755 87.7624L3.68791 87.7625Z" fill="#733C2C"/>
<path d="M62.9825 45.4173C61.962 44.6919 60.7098 45.9328 60.0671 47.0085C57.6833 50.9984 55.0923 54.9505 51.5807 57.995C50.0094 59.3572 48.2399 60.5544 47.0721 62.2746C46.3419 63.3496 45.8797 64.5848 45.1981 65.6913C43.8242 67.9229 41.6359 69.5188 39.429 70.9328C31.7166 75.8739 23.0506 79.321 14.0514 81.0269C12.4147 81.3371 4.80744 82.6495 8.18271 85.1358C9.85582 86.3683 13.557 85.7026 15.4592 85.558C22.567 85.0184 29.3286 82.3932 35.8794 79.7543C40.9213 77.7222 46.0191 75.6117 50.2999 72.2614C52.1215 70.8357 53.8595 69.0502 54.3105 66.7811C54.5042 65.8086 54.4478 64.8003 54.6351 63.8268C55.2239 60.7619 57.9983 58.7031 59.9683 56.2826C62.0079 53.7777 63.2761 50.6529 63.5595 47.435C63.624 46.7042 63.5803 45.8422 62.9825 45.4173Z" fill="#EFDA84"/>
<path d="M61.9302 63.3221C61.5992 63.6531 62.1122 64.166 62.4432 63.8357C67.1814 59.1124 70.9636 53.5148 73.5791 47.3563C74.9268 44.1814 75.9688 40.8783 76.6696 37.5007C77.3367 34.288 77.8856 30.8538 77.5935 27.5713C77.5727 27.3357 77.2572 27.3407 77.2305 27.5713C76.8404 30.9102 76.6705 34.228 75.9597 37.5283C75.2551 40.7981 74.2362 44.0033 72.9177 47.0771C70.3203 53.1317 66.5867 58.6635 61.9302 63.3223V63.3221Z" fill="#F7A324"/>
<path d="M58.6778 67.8885C56.9778 70.2242 54.9975 71.9974 52.7204 73.7497C52.5928 73.8479 52.6974 74.0394 52.8479 73.9685C55.4154 72.7562 57.5489 70.4819 58.896 68.0159C58.9756 67.8702 58.7717 67.7587 58.6778 67.8885Z" fill="#F7A324"/>
<path d="M63.0313 42.294C66.1453 38.1805 68.3141 33.0355 69.0729 27.9274C69.0986 27.7574 68.8568 27.6791 68.8077 27.8543C67.3905 32.9321 65.4407 37.595 62.8131 42.1659C62.7292 42.3112 62.9358 42.4201 63.0313 42.294Z" fill="#F7A324"/>
<path d="M15.3518 83.3482C25.9242 82.2961 36.1818 78.0319 44.0541 70.8363C44.1609 70.7386 44.0072 70.5962 43.8987 70.6804C35.6016 77.1865 25.8385 81.5975 15.3518 82.9853C15.1259 83.0152 15.1162 83.3718 15.3518 83.3484V83.3482Z" fill="#F7A324"/>
<path d="M24.2964 76.3138C27.3468 75.9199 30.3893 74.5539 33.1044 73.1544C36.0224 71.6508 38.6319 69.7202 41.0376 67.497C41.1643 67.3796 40.9797 67.204 40.8509 67.3101C38.423 69.3063 35.7579 71.0267 32.9806 72.495C30.1682 73.9821 27.1945 74.8473 24.2541 76.0002C24.1031 76.0595 24.1027 76.3387 24.2966 76.3136L24.2964 76.3138Z" fill="#F7A324"/>
<path d="M70.9542 59.5323C70.784 59.7085 71.014 60.0437 71.2275 59.8862C76.2465 56.1968 80.1942 49.2659 80.222 42.9653C80.2231 42.7257 79.8606 42.6707 79.8009 42.9081C79.0146 46.0361 78.2498 49.0567 76.7322 51.931C75.2222 54.7904 73.1864 57.2157 70.9542 59.5323Z" fill="#F7A324"/>
<path d="M70.116 36.3871C70.1416 37.9556 69.232 39.3617 68.4454 40.7189C67.6431 42.1035 66.7106 44.0655 67.5865 45.6343C68.4292 47.1439 69.696 46.8706 70.7111 45.7854C72.7058 43.6541 74.9882 38.7448 74.5205 35.7854C74.377 34.8782 73.9756 34.0291 73.8068 33.1258C73.5122 31.5445 73.9503 29.9188 73.8677 28.3124C73.8294 27.5651 73.5543 26.6835 72.8306 26.4945C71.9509 26.2646 71.2506 27.2125 70.8354 28.0215C70.0604 29.5321 69.263 31.1468 69.4103 32.8386C69.5155 34.0429 70.0968 35.1787 70.116 36.3871Z" fill="#F7A324"/>
<path d="M58.4199 78.4194C54.5876 80.446 50.6387 82.2288 46.5352 83.6342C42.5546 84.997 38.4778 85.8877 34.361 86.7199C34.255 86.7412 34.277 86.9222 34.3869 86.9109C42.8189 86.0782 51.3225 83.0155 58.5998 78.7267C58.7978 78.6098 58.6222 78.3126 58.4199 78.4192V78.4194Z" fill="#FFC329"/>
<path d="M31.3173 88.4469C27.2873 89.4194 23.2268 89.9613 19.1346 90.5815C19.0371 90.5958 19.0625 90.7517 19.1575 90.7506C23.2845 90.7196 27.4434 89.872 31.403 88.7575C31.6031 88.7014 31.5193 88.3977 31.3171 88.4468L31.3173 88.4469Z" fill="#FFC329"/>
<path d="M74.5524 65.3296C72.7467 67.4011 70.8204 69.36 68.7322 71.1487C66.5235 73.0405 64.0623 74.5163 61.7713 76.2808C61.6726 76.3571 61.7538 76.5028 61.8695 76.4494C64.327 75.321 66.5929 73.4503 68.643 71.7048C70.8528 69.8238 72.8822 67.7394 74.7097 65.487C74.7983 65.3775 74.6477 65.2201 74.5522 65.3295L74.5524 65.3296Z" fill="#FFC329"/>
<path d="M75.4731 16.9966C75.1187 15.4678 75.0899 13.9172 74.8428 12.3776C74.8304 12.3002 74.7003 12.3009 74.6869 12.3776C74.1803 15.2907 75.2217 19.0434 76.7839 21.5087C76.8608 21.6298 77.0861 21.553 77.0278 21.4057C76.4514 19.944 75.8297 18.5345 75.4731 16.9966Z" fill="#FFC329"/>
<path d="M73.3235 17.2432C73.2339 18.693 73.0881 20.0413 72.5159 21.3927C72.4263 21.6047 72.7279 21.7947 72.8329 21.5782C73.4873 20.2339 73.8785 18.6986 73.6292 17.202C73.5993 17.0203 73.3336 17.0778 73.3234 17.2434L73.3235 17.2432Z" fill="#FFC329"/>
</svg>
