<svg width="642" height="1305" viewBox="0 0 642 1305" fill="none" xmlns="http://www.w3.org/2000/svg">
<path d="M269.119 932.023C269.119 932.023 222.977 1069.34 252.077 1270.57C252.077 1270.57 258.052 1272.82 299.719 1269.49C299.719 1269.49 267.452 1129.85 330.781 961.569L269.119 932.023Z" fill="#26232D"/>
<path d="M261.355 920.067C261.355 920.067 277.638 963.263 356.18 963.263C434.713 963.263 453.722 918.746 453.722 918.746L261.355 920.067Z" fill="#26232D"/>
<path d="M447.003 598.714C410.757 586.635 385.756 582.043 385.756 582.043L352.577 583.064L352.569 582.043H326.606C326.606 582.043 301.606 586.635 265.36 598.714C265.36 598.714 245.647 773.281 254.252 915.76C254.252 915.76 268.273 932.022 356.181 932.022C444.098 932.022 458.098 915.76 458.098 915.76C466.711 773.281 447.003 598.714 447.003 598.714Z" fill="#3A3748"/>
<path d="M305.004 584.969C305.004 584.969 319.1 639.127 356.179 639.127C393.254 639.127 406.854 584.969 406.854 584.969H305.004Z" fill="#1F1B28"/>
<path d="M312.926 598.715C312.926 598.715 327.564 635.79 355.968 635.79C384.389 635.79 398.939 598.715 398.939 598.715H312.926Z" fill="#F7EDEB"/>
<path d="M321.945 579.967C321.945 579.967 313.483 578.717 307.645 583.925C307.645 583.925 309.232 617.329 356.037 617.671C404.304 618.021 404.304 581.638 404.304 581.638C404.304 581.638 396.587 579.276 390.133 579.83L321.946 579.968L321.945 579.967Z" fill="#E7D0C8"/>
<path d="M389.098 539.125H319.102C319.102 539.125 325.769 567.458 319.102 583.287C319.102 583.287 319.51 604.545 356.181 604.545C392.852 604.545 393.26 583.287 393.26 583.287C393.26 583.287 387.439 561.624 389.097 539.125H389.098Z" fill="#F9B29B"/>
<path d="M322.037 566.671L321.941 560.092C322.049 562.25 322.091 564.463 322.041 566.671M390.129 566.667C389.804 564.221 389.512 561.588 389.283 558.812H389.291L390.129 566.667Z" fill="#1F879A"/>
<path d="M357.525 570.259C347.437 570.259 335.417 569.363 322.037 566.671C322.091 564.463 322.05 562.25 321.941 560.092V559.958L325.941 559.87C333.662 560.266 341.687 560.471 350.041 560.471C364.012 560.471 377.074 559.903 389.283 558.812C389.512 561.588 389.804 564.221 390.129 566.667V566.671C390.129 566.671 377.696 570.259 357.525 570.259Z" fill="#F29B81"/>
<mask id="mask0_467_818" style="mask-type:luminance" maskUnits="userSpaceOnUse" x="252" y="582" width="209" height="351">
<path d="M447.003 598.714C410.757 586.635 385.756 582.043 385.756 582.043L352.577 583.064L352.569 582.043H326.606C326.606 582.043 301.606 586.635 265.36 598.714C265.36 598.714 245.647 773.281 254.252 915.76C254.252 915.76 268.273 932.022 356.181 932.022C444.098 932.022 458.098 915.76 458.098 915.76C466.711 773.281 447.003 598.714 447.003 598.714Z" fill="white"/>
</mask>
<g mask="url(#mask0_467_818)">
<path d="M241.251 851.759C241.53 851.801 280.184 857.942 347.23 857.947C380.751 857.947 421.372 856.409 467.834 851.805L466.605 839.367C420.576 843.925 380.367 845.446 347.23 845.446C314.088 845.446 288.017 843.925 270.263 842.413C261.388 841.655 254.592 840.9 250.03 840.338C247.751 840.055 246.03 839.821 244.888 839.659C244.317 839.58 243.892 839.517 243.613 839.476L243.217 839.414L241.25 851.76L241.251 851.759Z" fill="#FFC831"/>
<path d="M236.911 881.763C237.186 881.809 275.84 887.955 342.886 887.955C376.407 887.955 417.028 886.417 463.494 881.809L462.261 869.371C416.236 873.934 376.028 875.454 342.886 875.454C309.744 875.454 283.673 873.933 265.923 872.421C257.044 871.663 250.248 870.904 245.69 870.342C243.411 870.063 241.69 869.825 240.548 869.667C239.977 869.584 239.552 869.521 239.273 869.479L238.877 869.417L236.91 881.763H236.911Z" fill="#FFC831"/>
<path d="M241.251 866.84C241.53 866.886 280.184 873.028 347.23 873.028C380.751 873.028 421.372 871.49 467.834 866.886L466.605 854.449C420.576 859.007 380.367 860.528 347.23 860.528C314.088 860.528 288.017 859.007 270.263 857.495C261.388 856.737 254.592 855.983 250.03 855.42C247.751 855.137 246.03 854.903 244.888 854.741C244.317 854.662 243.892 854.599 243.613 854.558L243.217 854.496L241.25 866.842L241.251 866.84Z" fill="#B7B8B7"/>
<path d="M244.321 705.593C244.554 705.626 271.117 709.005 318.167 709.005C356.505 709.005 408.434 706.759 470.796 698.626L469.179 686.23C407.404 694.288 356.016 696.505 318.166 696.505C294.941 696.505 276.82 695.673 264.533 694.839C258.387 694.426 253.704 694.01 250.566 693.701C248.999 693.547 247.82 693.417 247.037 693.329C246.65 693.283 246.358 693.25 246.17 693.225L245.903 693.197L244.32 705.593H244.321Z" fill="#FFC831"/>
<path d="M240.91 735.713C241.139 735.742 267.727 739.13 314.806 739.13C353.135 739.13 405.048 736.884 467.381 728.755L465.764 716.359C404.022 724.413 352.647 726.63 314.806 726.63C291.564 726.63 273.431 725.792 261.135 724.959C254.985 724.542 250.298 724.13 247.16 723.822C245.589 723.664 244.41 723.539 243.627 723.447C243.24 723.405 242.948 723.368 242.756 723.347L242.494 723.314L240.911 735.714L240.91 735.713Z" fill="#FFC831"/>
<path d="M244.785 720.66C245.014 720.689 271.581 724.068 318.635 724.068C356.968 724.068 408.897 721.826 471.256 713.689L469.639 701.297C407.872 709.351 356.481 711.568 318.635 711.568C295.406 711.568 277.281 710.735 264.993 709.905C258.851 709.488 254.164 709.072 251.03 708.763C249.459 708.609 248.28 708.48 247.501 708.392C247.109 708.346 246.818 708.313 246.63 708.292L246.368 708.259L244.785 720.659V720.66Z" fill="#B7B8B7"/>
<path d="M423.89 901.664C418.273 897.072 411.761 891.914 404.553 886.297C415.44 885.722 426.782 884.98 438.549 884.043C432.861 895.243 423.891 901.664 423.891 901.664H423.89ZM393.582 890.49C393.44 890.49 393.299 890.476 393.161 890.443C390.686 889.889 388.769 888.589 387.315 887.085C390.769 886.952 394.278 886.802 397.84 886.635C396.39 889.031 394.948 890.49 393.582 890.49ZM363.511 875.26C363.103 874.502 362.773 873.714 362.511 872.922C385.428 872.605 411.207 871.564 439.519 869.38C440.894 870.272 441.84 870.885 442.315 871.193C413.365 873.614 386.982 874.826 363.511 875.26ZM355.723 860.494C353.769 859.794 351.581 858.926 349.523 857.943C367.06 857.905 386.494 857.447 407.652 856.356C408.677 857.169 409.685 857.968 410.673 858.756C390.798 859.844 372.44 860.365 355.723 860.494ZM347.227 845.448C346.335 845.448 345.444 845.443 344.565 845.443C345.277 844.61 346.094 843.76 346.969 842.918C316.907 820.747 283.761 796.823 253.148 774.927C253.436 766.252 253.765 757.722 254.135 749.355C281.635 767.147 310.877 786.077 337.927 803.589C338.948 804.343 339.964 805.089 340.981 805.839C337.777 808.931 335.364 812.081 335.789 814.297C336.918 820.276 355.872 825.38 355.872 825.38C355.872 825.38 355.689 826.35 355.605 827.854H354.097V832.021H355.71C355.864 833.363 356.148 834.792 356.643 836.188H354.097V840.355H358.264V839.392C359.227 840.779 360.518 842.014 362.235 842.943C365.152 844.51 367.785 845.035 370.002 845.035C374.481 845.035 377.26 842.892 377.26 842.892C377.26 842.892 377.489 843.767 378.039 845.017C371.218 845.204 364.626 845.325 358.264 845.388V844.521H354.097V845.422C351.776 845.439 349.485 845.447 347.226 845.447L347.227 845.448ZM436.377 836.126C436.494 835.543 436.598 834.955 436.69 834.355C436.69 834.355 425.069 826.827 406.386 814.723C406.448 814.685 406.507 814.652 406.565 814.615C406.603 814.594 406.653 814.564 406.686 814.539C406.732 814.514 406.778 814.485 406.819 814.46C406.869 814.431 406.919 814.399 406.969 814.369C406.998 814.352 407.036 814.33 407.061 814.31C407.34 814.143 407.628 813.968 407.907 813.797C407.911 813.793 407.915 813.789 407.919 813.789C411.932 811.326 415.798 808.881 419.523 806.443C423.198 804.035 426.723 801.652 430.123 799.265L430.14 799.256C433.748 796.727 437.19 794.22 440.502 791.719C440.652 791.602 440.81 791.486 440.96 791.369C444.427 788.74 447.718 786.13 450.864 783.531C453.789 781.118 456.597 778.698 459.256 776.314C459.693 789.893 460.01 803.786 460.168 817.807C460.143 817.824 460.126 817.836 460.11 817.853C459.468 818.407 458.797 818.952 458.143 819.506C456.776 820.652 455.376 821.803 453.939 822.957C453.268 823.503 452.593 824.048 451.902 824.589C450.177 825.951 448.419 827.318 446.602 828.685C446.198 828.993 445.806 829.293 445.389 829.61C443.168 831.281 440.856 832.964 438.497 834.652C437.876 835.089 437.226 835.536 436.593 835.978C436.522 836.028 436.447 836.077 436.376 836.127L436.377 836.126ZM404.477 813.49C404.314 813.382 404.152 813.276 403.985 813.172C403.989 813.155 403.993 813.143 403.993 813.13C404.164 813.259 404.322 813.377 404.476 813.489L404.477 813.49Z" fill="#2E2A38"/>
<path d="M349.523 857.941C345.644 856.083 342.231 853.795 341.769 851.362C341.469 849.762 342.661 847.654 344.565 845.441C345.444 845.441 346.336 845.445 347.227 845.445C349.485 845.445 351.777 845.437 354.098 845.42V848.687H358.265V845.387C364.628 845.325 371.219 845.204 378.04 845.016C379.24 847.729 381.961 852.203 387.173 853.374C387.31 853.403 387.448 853.42 387.585 853.42C389.602 853.42 391.781 850.253 393.893 845.603C398.78 849.378 403.381 852.97 407.651 856.353C386.493 857.445 367.059 857.903 349.522 857.94L349.523 857.941ZM354.098 852.854V857.021H358.265V852.854H354.098Z" fill="#CDA035"/>
<path d="M387.317 887.083C384.292 883.958 383.242 879.962 383.242 879.962C383.242 879.962 380.463 882.108 375.979 882.108C373.767 882.108 371.137 881.583 368.229 880.016C366.025 878.828 364.525 877.133 363.512 875.258C386.983 874.825 413.366 873.612 442.316 871.191C442.553 871.345 442.674 871.424 442.674 871.424C441.953 876.112 440.432 880.336 438.549 884.041C426.782 884.978 415.441 885.72 404.553 886.295C403.028 885.107 401.47 883.899 399.882 882.67C399.207 884.162 398.524 885.499 397.84 886.633C394.278 886.8 390.769 886.95 387.315 887.083H387.317Z" fill="#CDA035"/>
<path d="M362.511 872.921C360.832 867.834 361.853 862.446 361.853 862.446C361.853 862.446 360.399 862.054 358.265 861.358V861.187H357.74C357.111 860.974 356.432 860.745 355.723 860.491C372.44 860.362 390.798 859.841 410.673 858.754C413.219 860.791 415.631 862.737 417.902 864.596C417.902 864.596 420.523 862.717 423.835 859.221C430.989 863.854 436.377 867.346 439.518 869.379C411.206 871.562 385.427 872.604 362.511 872.921Z" fill="#959494"/>
</g>
<path d="M358.265 932.021V927.854H354.098V932.021H358.265ZM358.265 923.688V919.521H354.098V923.688H358.265ZM358.265 915.355V911.188H354.098V915.355H358.265ZM358.265 907.022V902.855H354.098V907.022H358.265ZM358.265 898.689V894.522H354.098V898.689H358.265ZM358.265 890.356V886.189H354.098V890.356H358.265ZM358.265 882.023V877.856H354.098V882.023H358.265ZM358.265 873.69V869.523H354.098V873.69H358.265ZM358.265 865.357V861.19H354.098V865.357H358.265ZM358.265 857.024V852.857H354.098V857.024H358.265ZM358.265 848.691V844.524H354.098V848.691H358.265ZM358.265 840.358V836.191H354.098V840.358H358.265ZM358.265 832.025V827.858H354.098V832.025H358.265ZM358.265 823.692V819.525H354.098V823.692H358.265ZM358.265 815.359V811.192H354.098V815.359H358.265ZM358.265 807.026V802.859H354.098V807.026H358.265ZM358.265 798.693V794.526H354.098V798.693H358.265ZM358.265 790.36V786.193H354.098V790.36H358.265ZM358.265 782.027V777.86H354.098V782.027H358.265ZM358.265 773.694V769.527H354.098V773.694H358.265ZM358.265 765.361V761.194H354.098V765.361H358.265ZM358.265 757.028V752.861H354.098V757.028H358.265ZM358.265 748.695V744.528H354.098V748.695H358.265ZM358.265 740.362V736.195H354.098V740.362H358.265ZM358.265 732.029V727.862H354.098V732.029H358.265ZM358.265 723.696V719.529H354.098V723.696H358.265ZM358.265 715.363V711.196H354.098V715.363H358.265ZM358.265 707.03V702.863H354.098V707.03H358.265ZM358.265 698.697V694.53H354.098V698.697H358.265ZM358.265 690.364V686.197H354.098V690.364H358.265ZM358.265 682.031V677.864H354.098V682.031H358.265ZM358.265 673.698V669.531H354.098V673.698H358.265ZM358.265 665.365V661.198H354.098V665.365H358.265ZM358.265 657.032V652.865H354.098V657.032H358.265ZM358.265 648.699V644.532H354.098V648.699H358.265ZM358.265 640.366V639.137H354.098V640.366H358.265Z" fill="#999E9F"/>
<path d="M355.938 639.492L359.733 657.809L367.316 655.717L359.862 639.125L355.938 639.492Z" fill="#999E9F"/>
<path d="M233.49 1303.23C233.49 1303.23 202.886 1267.28 225.986 1257.61C249.09 1247.95 286.615 1270.43 286.615 1270.43L299.719 1269.49C299.719 1269.49 306.602 1286.98 305.986 1290.73C305.349 1294.49 295.974 1293.23 298.473 1295.11C300.981 1296.98 299.106 1309.48 233.49 1303.23Z" fill="#100B13"/>
<mask id="mask1_467_818" style="mask-type:luminance" maskUnits="userSpaceOnUse" x="242" y="932" width="89" height="340">
<path d="M269.119 932.023C269.119 932.023 222.977 1069.34 252.077 1270.57C252.077 1270.57 258.052 1272.82 299.719 1269.49C299.719 1269.49 267.452 1129.85 330.781 961.569L269.119 932.023Z" fill="white"/>
</mask>
<g mask="url(#mask1_467_818)">
<path d="M293.912 1210.43L295.316 1213.92L293.949 1210.41L293.911 1210.43L295.315 1213.92L293.948 1210.41L293.64 1210.52C292.102 1211.05 284.823 1213.3 272.123 1213.3C263.023 1213.3 251.135 1212.14 236.56 1208.34L233.402 1220.44C248.989 1224.5 261.96 1225.8 272.123 1225.8C288.86 1225.8 297.94 1222.28 298.577 1222.02L293.91 1210.43L293.912 1210.43Z" fill="#B7B8B7"/>
<path d="M297.498 1224.02L297.44 1224.02C296.611 1224.17 287.769 1225.61 274.669 1225.61C264.106 1225.61 250.781 1224.67 236.661 1221.41L233.848 1233.59C249.131 1237.11 263.369 1238.11 274.669 1238.11C289.619 1238.11 299.427 1236.36 299.698 1236.32L297.498 1224.01V1224.02Z" fill="#FFC831"/>
<path d="M297.189 1197.95L297.131 1197.96C296.302 1198.1 287.452 1199.54 274.339 1199.54C263.777 1199.54 250.456 1198.61 236.339 1195.35L233.531 1207.53C248.81 1211.05 263.044 1212.04 274.339 1212.04C289.297 1212.04 299.118 1210.3 299.389 1210.25L297.189 1197.95Z" fill="#FFC831"/>
</g>
<path d="M438.865 932.023C438.865 932.023 485.007 1069.34 455.898 1270.57C455.898 1270.57 449.923 1272.82 408.265 1269.49C408.265 1269.49 440.532 1129.85 377.203 961.569L438.865 932.023Z" fill="#26232D"/>
<path d="M474.496 1303.23C474.496 1303.23 505.1 1267.28 481.996 1257.61C458.892 1247.95 421.371 1270.43 421.371 1270.43L408.267 1269.49C408.267 1269.49 401.384 1286.98 402 1290.73C402.629 1294.49 412.008 1293.23 409.513 1295.11C407.005 1296.98 408.88 1309.48 474.496 1303.23Z" fill="#100B13"/>
<mask id="mask2_467_818" style="mask-type:luminance" maskUnits="userSpaceOnUse" x="377" y="932" width="89" height="340">
<path d="M438.865 932.023C438.865 932.023 485.007 1069.34 455.898 1270.57C455.898 1270.57 449.923 1272.82 408.265 1269.49C408.265 1269.49 440.532 1129.85 377.203 961.569L438.865 932.023Z" fill="white"/>
</mask>
<g mask="url(#mask2_467_818)">
<path d="M409.407 1222.02C410.044 1222.28 419.124 1225.8 435.861 1225.8C446.019 1225.8 458.986 1224.5 474.574 1220.44L471.416 1208.34C456.841 1212.14 444.958 1213.3 435.862 1213.3C428.37 1213.3 422.766 1212.51 419.112 1211.76C417.283 1211.39 415.945 1211.02 415.104 1210.76C414.683 1210.64 414.383 1210.54 414.212 1210.48L414.049 1210.42L414.037 1210.41L412.67 1213.92L414.074 1210.43L414.037 1210.41L412.67 1213.92L414.073 1210.43L409.406 1222.02L409.407 1222.02Z" fill="#B7B8B7"/>
<path d="M408.293 1236.32C408.564 1236.36 418.372 1238.11 433.322 1238.11C444.618 1238.11 458.855 1237.11 474.143 1233.59L471.331 1221.41C457.21 1224.67 443.885 1225.61 433.323 1225.61C426.336 1225.61 420.561 1225.2 416.565 1224.79C414.565 1224.59 413.015 1224.39 411.977 1224.24C411.46 1224.17 411.073 1224.11 410.823 1224.07L410.548 1224.02L410.49 1224.02L408.294 1236.32L408.293 1236.32Z" fill="#FFC831"/>
<path d="M408.602 1210.25C408.873 1210.3 418.689 1212.04 433.648 1212.04C444.944 1212.04 459.177 1211.05 474.46 1207.53L471.652 1195.35C457.527 1198.61 444.21 1199.54 433.648 1199.54C426.656 1199.54 420.877 1199.14 416.877 1198.73C414.877 1198.53 413.327 1198.32 412.29 1198.18C411.773 1198.1 411.382 1198.04 411.132 1198L410.861 1197.96L410.803 1197.95L408.603 1210.25H408.602Z" fill="#FFC831"/>
</g>
<path d="M54.9336 235.947H357.53L619.293 226.86L569.414 210.168L115.506 213.547L54.9346 235.947H54.9336Z" fill="#771D1F"/>
<path d="M148.887 348.825C148.887 379.308 145.241 409.708 114.754 409.708C84.2621 409.708 38.4961 379.308 38.4961 348.825C38.4961 318.338 63.2001 293.625 93.6881 293.625C124.18 293.625 148.887 318.337 148.887 348.825Z" fill="#F9AC95"/>
<path d="M138.641 354.512C138.641 369.912 137.737 386.054 122.333 386.054C106.925 386.054 82.8789 369.912 82.8789 354.512C82.8789 339.112 95.3619 326.629 110.767 326.629C126.167 326.629 138.642 339.112 138.642 354.512H138.641Z" fill="#F0947F"/>
<path d="M531.281 354.512C531.281 384.995 535.931 414.195 566.423 414.195C596.902 414.195 641.677 384.995 641.677 354.512C641.677 324.029 616.969 299.316 586.485 299.316C555.989 299.316 531.281 324.028 531.281 354.512Z" fill="#F9AC95"/>
<path d="M541.523 360.203C541.523 375.603 545.477 392.949 560.873 392.949C576.277 392.949 597.29 375.603 597.29 360.203C597.29 344.803 584.807 332.32 569.411 332.32C554.015 332.32 541.524 344.803 541.524 360.203H541.523Z" fill="#F0947F"/>
<path d="M552.523 322.453C552.523 440.616 525.215 536.411 343.115 536.411C161.028 536.411 133.715 440.615 133.715 322.453C133.715 97.8775 227.465 34.1445 343.115 34.1445C458.773 34.1445 552.523 79.6695 552.523 322.453Z" fill="#F9B29B"/>
<path d="M343.115 536.411C189.611 536.411 146.103 468.323 136.228 376.157C134.936 364.132 134.224 351.715 133.911 338.965C133.778 333.519 133.715 328.007 133.715 322.452C133.715 321.602 133.748 320.806 133.748 319.96C134.431 436.114 163.273 529.581 343.115 529.581C523.648 529.581 552.027 435.419 552.498 318.656C552.506 319.931 552.523 321.173 552.523 322.452C552.523 327.731 552.469 332.96 552.348 338.144C551.952 355.202 550.844 371.711 548.615 387.427C547.673 394.056 546.536 400.535 545.169 406.869C528.702 483.052 479.011 536.411 343.115 536.411Z" fill="#F29B81"/>
<path d="M294.781 364.023C294.781 364.023 296.335 364.235 299.052 364.602C301.748 364.973 305.581 365.459 310.14 366.005C312.415 366.255 314.877 366.527 317.482 366.814C320.07 367.156 322.832 367.214 325.64 367.572C328.461 367.747 331.373 367.926 334.336 368.109C337.294 368.163 340.294 368.459 343.29 368.384C346.294 368.463 349.286 368.48 352.232 368.359C353.707 368.338 355.174 368.317 356.624 368.292C358.066 368.2 359.491 368.105 360.891 368.013C363.708 367.867 366.42 367.663 368.991 367.346C371.57 367.067 374.033 366.888 376.266 366.479C378.508 366.104 380.612 365.875 382.474 365.616C384.287 365.212 385.907 364.937 387.245 364.691C389.932 364.228 391.524 364.02 391.524 364.02C391.524 364.02 390.211 364.87 387.82 366.249C386.62 366.928 385.158 367.774 383.437 368.653C381.687 369.445 379.675 370.27 377.45 371.116C375.25 372.058 372.783 372.803 370.137 373.458C368.812 373.812 367.454 374.174 366.066 374.544C364.67 374.881 363.216 375.041 361.745 375.299C358.807 375.803 355.758 376.307 352.628 376.432C349.507 376.745 346.328 376.749 343.153 376.711C339.974 376.736 336.815 376.407 333.707 376.153C330.599 375.874 327.582 375.278 324.657 374.824C318.845 373.674 313.494 372.291 309.053 370.641C300.099 367.57 294.782 364.02 294.782 364.02L294.781 364.023Z" fill="#D47D6D"/>
<path d="M141.405 251.274C142.73 245.132 144.218 240.37 145.851 238.178C145.851 238.178 214.193 236.007 240.334 223.053C259.351 222.153 279.326 221.332 299.992 220.653C300.434 225.74 300.179 232.753 296.009 235.345C295.213 235.728 294.751 235.945 294.751 235.945C295.209 235.787 295.626 235.582 296.009 235.345C300.401 233.241 314.984 226.149 318.842 223.053C318.842 223.053 317.234 233.345 314.175 242.616C291.95 243.266 270.45 244.087 249.963 245.012C249.75 244.983 249.538 244.97 249.334 244.97C249.013 244.97 248.709 245.003 248.417 245.083C207.921 246.925 171.463 249.166 141.404 251.275L141.405 251.274ZM137.418 251.007C138.243 243.428 139.201 236.069 140.293 228.949C140.301 228.949 140.318 228.949 140.326 228.945C139.222 236.062 138.247 243.415 137.418 251.007ZM530.926 243.407C492.909 241.749 454.384 241.061 416.526 241.061C394.001 241.061 371.713 241.307 349.943 241.736C358.143 237.499 364.751 232.469 366.639 226.794C366.639 226.794 380.293 234.381 395.472 234.381C395.472 234.381 386.764 225.973 385.955 218.802C391.909 218.748 397.855 218.706 403.859 218.681C408.084 221.085 412.417 223.089 415.13 223.089C415.334 223.089 415.53 223.077 415.717 223.051C415.717 223.051 411.234 221.555 408.475 218.668C411.15 218.66 413.833 218.656 416.517 218.656C428.417 218.656 440.375 218.723 452.375 218.868L452.387 218.872C452.387 218.872 494.858 234.468 525.204 235.943C525.204 235.943 527.554 238.135 530.925 243.406L530.926 243.407Z" fill="#ED7164"/>
<path d="M419.085 310.691C419.085 307.949 421.681 305.624 425.335 304.691C422.943 301.403 419.556 299.316 415.756 299.316C408.535 299.316 402.668 306.787 402.668 316.008C402.668 325.229 408.535 332.7 415.756 332.7C422.689 332.7 428.298 325.821 428.76 317.138C423.406 317.105 419.085 314.233 419.085 310.691Z" fill="#130E14"/>
<path d="M270.126 313.344C270.126 310.602 272.73 308.282 276.384 307.344C273.992 304.056 270.609 301.969 266.813 301.969C259.58 301.969 253.73 309.444 253.73 318.661C253.73 327.878 259.58 335.353 266.813 335.353C273.742 335.353 279.346 328.474 279.813 319.791C274.455 319.758 270.126 316.891 270.126 313.345V313.344Z" fill="#130E14"/>
<path d="M239.965 282.02C239.965 282.02 249.536 271.391 277.182 271.391C277.182 271.391 278.286 243.32 271.453 245.595C264.632 247.874 260.832 252.428 260.832 252.428C260.832 252.428 251.732 242.682 247.557 245.47C243.382 248.258 241.87 258.874 241.87 258.874C241.87 258.874 232.766 254.699 230.487 258.874C228.216 263.049 239.966 282.02 239.966 282.02H239.965Z" fill="#1F191E"/>
<path d="M445.161 282.02C445.161 282.02 435.598 271.391 407.944 271.391C407.944 271.391 406.844 243.32 413.665 245.595C420.503 247.874 424.303 252.428 424.303 252.428C424.303 252.428 433.399 242.682 437.565 245.47C441.748 248.258 443.265 258.874 443.265 258.874C443.265 258.874 452.369 254.699 454.64 258.874C456.919 263.049 445.161 282.02 445.161 282.02Z" fill="#1F191E"/>
<path d="M232.955 388.154C233.138 388.271 267.443 414.317 314.788 414.35C320.734 414.35 326.884 413.938 333.192 413.004C334.334 412.837 335.117 411.779 334.95 410.637C334.783 409.5 333.721 408.716 332.583 408.883C326.487 409.783 320.541 410.183 314.787 410.183C291.895 410.183 272.029 403.837 257.895 397.479C250.828 394.304 245.199 391.125 241.349 388.75C239.424 387.562 237.941 386.575 236.949 385.888C236.453 385.546 236.078 385.275 235.828 385.096L235.47 384.833C234.553 384.137 233.245 384.321 232.553 385.237C231.857 386.154 232.036 387.462 232.953 388.154H232.955Z" fill="#F4836C"/>
<path d="M285.657 438.749C269.911 438.749 256.395 427.207 256.395 427.207C269.616 435.553 281.078 437.357 288.52 437.357C294.178 437.357 297.512 436.311 297.512 436.311C293.537 438.053 289.529 438.748 285.658 438.748L285.657 438.749Z" fill="#F29B81"/>
<path d="M542.961 204.923L485.753 160.027L144.799 204.698C138.036 236.035 134.211 272.581 133.816 315.011C134.374 306.744 138.687 247.79 145.849 238.178C145.849 238.178 214.191 236.007 240.332 223.053L299.136 214.903C299.136 214.903 303.286 232.957 294.749 235.945C294.749 235.945 314.282 226.712 318.841 223.053C318.841 223.053 314.283 252.207 305.941 256.574C305.941 256.574 360.574 245.003 366.637 226.795C366.637 226.795 380.291 234.382 395.47 234.382C395.47 234.382 376.891 216.449 391.491 210.619C391.491 210.619 409.42 223.865 415.716 223.052C415.716 223.052 402.295 218.573 407.612 210.165L452.387 218.873C452.387 218.873 494.858 234.469 525.204 235.944C525.204 235.944 545.617 254.973 552.492 315.907C552.175 272.878 548.871 236.161 542.963 204.924L542.961 204.923Z" fill="#1F191E"/>
<path d="M413.3 34.146C390.646 31.021 372.333 0 372.333 0H313.908C313.908 0 295.6 31.021 272.941 34.146C140.92 52.354 138.641 194.613 138.641 194.613H547.604C547.604 194.613 545.325 52.355 413.3 34.146Z" fill="#CD272C"/>
<path d="M284.38 30.2489C284.372 30.2369 284.368 30.2239 284.359 30.2119C301.384 21.0949 313.821 0.148906 313.909 0.00390625C313.821 0.153906 301.392 21.1329 284.38 30.2499V30.2489Z" fill="#6C3E51"/>
<path d="M303.238 183.775C301.884 157.863 297.35 81.6748 289.18 45.4578C289.318 45.3948 306.73 37.4948 313.909 22.0078V180.575L303.242 183.775H303.238Z" fill="#9A2529"/>
<path d="M383.779 185.229L373.129 180.575V22.0078C373.129 22.0078 383.358 35.4998 399.279 40.7038C390.162 74.0668 385.179 158.325 383.779 185.229Z" fill="#9A2529"/>
<path d="M381.446 12.6001C377.358 7.7121 374.454 3.36309 373.129 1.28809V0.996094C373.129 0.996094 376.225 6.2251 381.446 12.6001Z" fill="#6C3E51"/>
<path d="M547.605 194.613L455.097 193.83C489.076 193.118 512.064 192.647 512.918 192.63L547.605 194.613ZM512.905 192.625L383.438 192.113C383.505 190.705 383.617 188.355 383.78 185.23H383.784L512.905 192.625ZM373.13 192.071L313.909 191.838V180.575H373.13V192.071ZM303.634 191.796L138.805 191.142H138.801C140.184 169.242 153.193 50.663 272.943 34.146C276.914 33.596 280.751 32.192 284.38 30.25C286.101 33.65 287.701 38.896 289.18 45.458C289.18 45.458 200.484 59.558 180.372 124.433C163.197 179.862 265.085 183.895 295.101 183.895C300.101 183.895 303.105 183.783 303.238 183.774C303.442 187.716 303.576 190.496 303.634 191.796ZM373.13 22.008H313.909V0H372.334C372.334 0 372.609 0.467018 373.13 1.28702V22.008Z" fill="#B2272D"/>
<path d="M313.908 191.837L303.633 191.795C303.575 190.495 303.441 187.716 303.237 183.774H303.241L313.908 180.574V191.837ZM289.179 45.458C287.7 38.895 286.1 33.65 284.379 30.25C301.392 21.133 313.821 0.153998 313.908 0.0039978V0V22.008C306.729 37.496 289.316 45.396 289.179 45.458Z" fill="#852124"/>
<path d="M492.327 69.0216C454.781 42.3636 411.881 40.6716 401.59 40.6716C400.094 40.6716 399.286 40.7096 399.286 40.7096C399.282 40.7056 399.278 40.7056 399.278 40.7056C400.349 36.7766 401.482 33.5516 402.67 31.2096C394.107 26.6176 386.699 19.0266 381.445 12.6016C388.949 21.5806 400.424 32.3726 413.299 34.1476C447.741 38.8976 473.287 52.1186 492.328 69.0226L492.327 69.0216Z" fill="#B2272D"/>
<path d="M383.437 192.11L373.129 192.068V180.572L383.779 185.226C383.616 188.351 383.504 190.702 383.437 192.11ZM399.279 40.7021C383.358 35.4981 373.129 22.0062 373.129 22.0062V1.28516C374.454 3.36016 377.358 7.71017 381.446 12.5972C386.7 19.0222 394.108 26.6142 402.671 31.2052C401.484 33.5472 400.35 36.7731 399.279 40.7021Z" fill="#852124"/>
<path d="M54.9307 235.945C54.9307 235.945 371.948 204.095 619.289 226.858C619.289 226.858 580.606 207.891 547.601 194.612L138.801 191.141C138.801 191.141 97.8097 211.666 54.9307 235.945Z" fill="#C5272C"/>
<path d="M54.9336 235.945C54.9336 235.945 70.4626 234.387 97.2956 232.203C83.6416 233.349 69.5166 234.595 54.9336 235.945Z" fill="#651719"/>
<path d="M512.915 192.629L512.902 192.625H512.94C512.94 192.625 512.932 192.625 512.915 192.629Z" fill="#B2272D"/>
<path d="M455.097 193.829L383.389 193.221C383.401 192.967 383.418 192.596 383.439 192.113L512.906 192.625L512.919 192.629C512.065 192.646 489.076 193.117 455.097 193.829ZM373.13 193.133L313.642 192.625H313.909V191.838L373.13 192.071V193.133ZM303.668 192.541L138.805 191.141L303.634 191.795C303.651 192.17 303.663 192.42 303.667 192.541H303.668Z" fill="#9A2529"/>
<path d="M313.908 192.626H313.641L303.666 192.543C303.662 192.422 303.649 192.172 303.633 191.797L313.908 191.839V192.626Z" fill="#731C1E"/>
<path d="M383.387 193.22L373.129 193.133V192.07L383.437 192.112C383.416 192.595 383.399 192.966 383.387 193.22Z" fill="#731C1E"/>
<path d="M54.9336 235.945C83.1456 220.758 138.805 191.141 138.805 191.141L303.668 192.541L313.643 192.624L373.131 193.132L383.389 193.219L455.097 193.827C357.497 195.877 169.114 199.935 153.434 201.056C132.196 202.577 107.913 223.052 107.913 223.052C107.913 223.052 246.813 220.148 334.034 219.29C292.705 219.994 211.384 222.64 97.2966 232.202C70.4636 234.385 54.9346 235.944 54.9346 235.944L54.9336 235.945ZM334.034 219.29C345.876 219.086 354.438 219.045 359.538 219.045C362.813 219.045 364.667 219.062 365.05 219.066H364.958C355.795 219.099 345.354 219.179 334.033 219.291L334.034 219.29Z" fill="#AA272C"/>
<path d="M533.93 180.958L487.276 178.304C503.959 175.646 503.78 160.846 503.78 160.846C505.097 118.738 473.613 65.625 473.613 65.625C528.063 100.729 533.93 180.958 533.93 180.958Z" fill="#EB272E"/>
<path d="M174.528 309.682L131.82 301.966L133.716 282.02L168.449 285.578L174.528 309.682Z" fill="#737471"/>
<path d="M511.488 309.682L554.196 301.966L552.296 282.02L517.559 285.578L511.488 309.682Z" fill="#737471"/>
<path d="M443.76 368.32C442.914 368.32 442.056 368.307 441.193 368.278C400.31 366.849 373.618 347.028 359.343 332.374V332.378C353.826 326.241 348.355 324.236 343.568 324.236C334.56 324.236 327.955 331.328 327.955 331.328V331.32C313.955 346.057 286.984 366.816 245.105 368.278C244.242 368.307 243.388 368.32 242.542 368.32C201.971 368.32 182.938 334.108 174.521 309.683H174.525L168.446 285.579C168.446 285.579 165.713 266.758 230.879 263.858C231.3 265.196 231.883 266.675 232.554 268.191C229.954 268.27 227.191 268.378 224.279 268.524L254.933 325.674C255.545 327.361 256.375 328.895 257.37 330.22L272.653 358.716C272.653 358.716 284.078 356.72 296.853 347.62L262.411 272.545C263.711 272.324 265.073 272.133 266.503 271.97L282.045 304.087L285.17 301.966L275.828 271.399C276.274 271.395 276.72 271.391 277.178 271.391C277.178 271.391 277.286 268.57 277.224 264.791C324.011 269.087 343.153 282.541 343.153 282.541C343.153 282.541 361.957 269.312 407.895 264.903C407.833 268.628 407.941 271.391 407.941 271.391C411.712 271.391 415.149 271.591 418.27 271.933L453.32 362.7C453.32 362.7 466.691 359.283 474.095 353.025L448.028 277.113C450.186 273.255 452.995 267.867 454.253 263.809C519.061 266.476 517.936 284.701 517.849 285.547L517.553 285.58L511.482 309.684L511.794 309.626C503.386 334.059 484.361 368.326 443.757 368.322L443.76 368.32ZM415.756 299.316C408.535 299.316 402.668 306.787 402.668 316.008C402.668 325.229 408.535 332.7 415.756 332.7C422.689 332.7 428.298 325.821 428.76 317.138C423.406 317.105 419.085 314.234 419.085 310.692C419.085 307.95 421.681 305.625 425.335 304.692C422.943 301.404 419.556 299.316 415.756 299.316Z" fill="#FCCDB5"/>
<path d="M415.756 332.7C408.535 332.7 402.668 325.229 402.668 316.008C402.668 306.787 408.535 299.316 415.756 299.316C419.556 299.316 422.943 301.404 425.335 304.691C421.681 305.624 419.085 307.949 419.085 310.691C419.085 314.233 423.406 317.104 428.76 317.137C428.297 325.82 422.689 332.699 415.756 332.699V332.7Z" fill="#38332F"/>
<path d="M257.375 330.222C256.379 328.897 255.549 327.364 254.938 325.676L257.375 330.222Z" fill="#38332F"/>
<path d="M262.417 272.545L260.571 268.524C260.571 268.524 254.558 268.016 243.808 268.016C240.496 268.016 236.733 268.066 232.558 268.191C231.887 266.674 231.304 265.195 230.883 263.858C233.708 263.733 236.666 263.637 239.754 263.575C242.412 263.521 245 263.496 247.542 263.496C258.475 263.496 268.346 263.979 277.23 264.792C277.292 268.571 277.184 271.392 277.184 271.392C276.726 271.392 276.28 271.396 275.834 271.4L275.213 269.375C275.213 269.375 273.946 269.125 270.996 269.125C269.521 269.125 267.621 269.187 265.25 269.375L266.508 271.971C265.079 272.134 263.716 272.325 262.416 272.546L262.417 272.545Z" fill="#554C47"/>
<path d="M448.032 277.11L444.907 268.014C444.907 268.014 443.707 267.997 441.736 267.997C436.465 267.997 425.636 268.13 417.19 269.118L418.273 271.93C415.152 271.588 411.715 271.388 407.944 271.388C407.944 271.388 407.836 268.625 407.898 264.9C417.081 264.017 427.344 263.492 438.765 263.492C441.303 263.492 443.894 263.517 446.553 263.571C449.22 263.625 451.791 263.704 454.257 263.804C452.999 267.862 450.19 273.25 448.032 277.108V277.11Z" fill="#554C47"/>
<path d="M272.656 358.715L257.373 330.219C259.752 333.382 263.102 335.348 266.81 335.348C273.739 335.348 279.343 328.469 279.81 319.786C274.452 319.753 270.123 316.886 270.123 313.34C270.123 310.598 272.727 308.278 276.381 307.34C273.989 304.052 270.606 301.965 266.81 301.965C259.577 301.965 253.727 309.44 253.727 318.657C253.727 321.161 254.16 323.54 254.935 325.674L224.281 268.524C227.193 268.378 229.956 268.27 232.556 268.191C235.448 274.729 239.964 282.02 239.964 282.02C239.964 282.02 246.022 275.295 262.414 272.545L296.856 347.62C284.081 356.72 272.656 358.716 272.656 358.716V358.715Z" fill="#FDDCC9"/>
<path d="M266.812 335.349C263.104 335.349 259.754 333.382 257.375 330.22L254.938 325.674C254.163 323.541 253.73 321.161 253.73 318.657C253.73 309.44 259.58 301.965 266.813 301.965C270.609 301.965 273.992 304.053 276.384 307.34C272.73 308.278 270.126 310.598 270.126 313.34C270.126 316.886 274.455 319.753 279.813 319.786C279.346 328.469 273.742 335.348 266.813 335.348L266.812 335.349Z" fill="#736C5C"/>
<path d="M239.967 282.02C239.967 282.02 235.45 274.728 232.559 268.191C236.734 268.066 240.496 268.016 243.809 268.016C254.559 268.016 260.572 268.524 260.572 268.524L262.418 272.545C246.026 275.295 239.968 282.02 239.968 282.02H239.967Z" fill="#8A8372"/>
<path d="M282.05 304.086L266.508 271.969C269.345 271.648 272.45 271.444 275.833 271.398L285.175 301.965L282.05 304.086Z" fill="#FDDCC9"/>
<path d="M266.508 271.971L265.25 269.375C267.621 269.187 269.521 269.125 270.996 269.125C273.946 269.125 275.213 269.375 275.213 269.375L275.834 271.4C272.451 271.446 269.347 271.65 266.509 271.971H266.508Z" fill="#8A8372"/>
<path d="M453.323 362.701L418.273 271.934C438.027 274.097 445.161 282.022 445.161 282.022C445.161 282.022 446.415 279.993 448.032 277.114L474.099 353.026C466.695 359.284 453.323 362.701 453.323 362.701Z" fill="#FDDCC9"/>
<path d="M445.162 282.021C445.162 282.021 438.029 274.096 418.274 271.933L417.191 269.121C425.637 268.134 436.466 268 441.737 268C443.708 268 444.908 268.017 444.908 268.017L448.033 277.113C446.416 279.992 445.162 282.021 445.162 282.021Z" fill="#8A8372"/>
<path d="M174.528 309.682H174.524C169.853 296.119 168.449 285.578 168.449 285.578L174.528 309.682Z" fill="#A1A095"/>
<path d="M511.488 309.684L517.559 285.58L517.855 285.547C517.851 285.568 517.851 285.58 517.851 285.58C517.851 285.58 516.455 296.092 511.801 309.626L511.488 309.684Z" fill="#A1A095"/>
<path d="M446.555 263.576L446.597 261.493C443.93 261.439 441.318 261.41 438.764 261.414C369.851 261.406 342.297 280.593 341.96 280.839L343.16 282.543L344.36 280.839C344.022 280.593 316.46 261.406 247.543 261.414C244.993 261.414 242.381 261.439 239.714 261.493C205.152 262.21 187.056 266.96 177.327 272.126C172.469 274.709 169.694 277.438 168.156 279.838C166.61 282.238 166.348 284.267 166.352 285.259L166.389 285.876L168.451 285.58L166.384 285.851C166.409 285.984 169.167 306.847 179.984 327.905C185.401 338.43 192.842 349.026 203.067 357.034C213.28 365.047 226.313 370.417 242.546 370.405C243.417 370.405 244.296 370.392 245.184 370.359C287.751 368.88 315.247 347.742 329.467 332.755L327.959 331.322H325.876V336.622L329.484 332.747L329.526 332.701C329.822 332.397 331.48 330.755 334.001 329.234C336.522 327.705 339.872 326.317 343.572 326.321C347.76 326.346 352.559 327.984 357.797 333.775L361.43 337.817V332.38H359.347L357.855 333.83C372.355 348.734 399.572 368.917 441.126 370.359C442.014 370.392 442.893 370.405 443.764 370.405C459.997 370.417 473.031 365.047 483.243 357.034C498.572 345.009 507.664 327.213 513.006 312.467C518.339 297.713 519.902 285.95 519.918 285.85L517.851 285.579L519.914 285.875L519.951 285.254C519.955 284.267 519.693 282.237 518.147 279.837C515.826 276.229 510.785 271.92 499.985 268.383C489.172 264.841 472.518 262.025 446.597 261.491L446.555 263.574L446.509 265.657C480.717 266.345 498.28 271.128 507.017 275.799C511.392 278.132 513.555 280.399 514.642 282.091C515.721 283.783 515.779 284.937 515.784 285.254L515.78 285.337L516.659 285.404L515.788 285.279L515.78 285.337L516.659 285.404L515.788 285.279L515.784 285.296V285.304C515.784 285.304 515.747 285.592 515.655 286.179C514.963 290.587 511.28 310.854 500.567 329.8C495.213 339.275 488.121 348.404 478.846 355.129C469.563 361.858 458.121 366.233 443.763 366.237C442.942 366.237 442.109 366.224 441.271 366.195C401.054 364.787 374.884 345.328 360.838 330.924L357.263 327.253V332.378H359.346L360.896 330.986C355.1 324.499 348.958 322.132 343.571 322.153C338.509 322.161 334.25 324.124 331.267 326.024C328.275 327.936 326.517 329.82 326.434 329.907L327.959 331.328H330.042V326.103L326.446 329.886C312.671 344.369 286.229 364.753 245.038 366.194C244.196 366.223 243.367 366.236 242.546 366.236C227.234 366.228 215.229 361.257 205.634 353.753C191.255 342.507 182.396 325.395 177.217 311.049C174.625 303.882 172.946 297.42 171.917 292.762C171.4 290.437 171.05 288.558 170.825 287.27C170.717 286.624 170.638 286.124 170.588 285.791L170.517 285.303L170.513 285.291V285.278L169.638 285.403L170.521 285.336L170.513 285.278L169.638 285.403L170.521 285.336L170.517 285.257C170.521 284.936 170.575 283.782 171.659 282.09C173.276 279.561 177.371 275.703 187.613 272.34C197.842 268.986 214.142 266.177 239.796 265.657C242.438 265.603 245.021 265.578 247.542 265.578C281.617 265.578 305.304 270.311 320.434 275.007C327.997 277.353 333.422 279.695 336.934 281.432C338.688 282.299 339.967 283.015 340.797 283.511C341.209 283.757 341.514 283.948 341.705 284.073L341.913 284.211L341.963 284.244L343.159 285.086L344.359 284.244L344.405 284.211C345.726 283.328 372.747 265.582 438.763 265.574C441.288 265.578 443.871 265.603 446.509 265.657L446.555 263.574V263.576Z" fill="#3E3C42"/>
<path d="M258.434 574.653C258.434 574.653 161.347 675.366 183.109 702.207C204.876 729.044 254.43 647.069 254.43 647.069C254.43 647.069 267.742 584.206 258.434 574.652V574.653Z" fill="#3A3748"/>
<path d="M205.421 656.147C205.421 656.147 179.85 652.339 171.142 665.939C162.438 679.543 179.85 709.022 193.725 707.614C207.596 706.206 229.908 662.131 205.421 656.147Z" fill="#444152"/>
<path d="M162.078 653.973C162.078 653.973 153.378 642.919 162.078 633.748C170.786 624.585 198.715 638.502 194.361 647.069C190.007 655.656 162.078 653.973 162.078 653.973Z" fill="#F39A2A"/>
<path d="M131.609 636.924C131.609 636.924 340.684 782.999 410.976 840.536C410.976 840.536 426.868 829.161 429.764 810.294C429.764 810.294 204.151 664.127 142.493 624.406L131.61 636.923L131.609 636.924Z" fill="#8B5A37"/>
<path d="M142.493 624.406L140.547 626.644C203.093 666.936 427.176 812.111 427.176 812.111C424.98 826.39 415.334 836.378 410.797 840.382L410.976 840.536C410.976 840.536 426.868 829.161 429.764 810.294C429.764 810.294 204.151 664.127 142.493 624.406Z" fill="#A16C45"/>
<path d="M410.973 840.535C407.823 837.956 404.398 835.206 400.723 832.293C396.452 828.91 391.852 825.318 386.965 821.543C387.757 819.801 388.536 817.851 389.298 815.785C398.769 823.089 407.194 829.735 414.236 835.498C414.236 835.498 416.29 834.019 419.053 831.256C416.036 835.448 412.878 838.543 410.795 840.381L410.974 840.535H410.973Z" fill="#72462C"/>
<path d="M334.054 781.78C293.733 752.047 247.872 719.154 210.005 692.241C195.897 682.212 182.892 673.012 171.704 665.112C157.354 654.983 145.976 646.992 139.062 642.146C140.296 640.759 141.624 639.217 142.979 637.562C170.737 657.029 264.425 722.949 338.671 777.741C337.096 779.012 335.496 780.392 334.054 781.78Z" fill="#72462C"/>
<path d="M410.976 840.536L410.797 840.382C412.88 838.545 416.039 835.449 419.055 831.257C420.734 829.574 422.676 827.419 424.58 824.832C418.909 834.832 410.976 840.536 410.976 840.536Z" fill="#855437"/>
<path d="M374.824 757.488C374.824 757.488 354.224 747.13 348.457 755.017C342.678 762.884 347.228 771.463 347.228 771.463C347.228 771.463 327.72 784.255 328.861 790.238C329.99 796.217 348.944 801.321 348.944 801.321C348.944 801.321 346.511 814.138 355.307 818.884C364.119 823.617 370.332 818.834 370.332 818.834C370.332 818.834 372.624 827.605 380.244 829.317C387.869 831.025 398.098 784.654 398.098 784.654L374.823 757.487L374.824 757.488Z" fill="#F39A2A"/>
<path d="M439.529 574.652C439.529 574.652 598.792 669.565 399.383 790.706C399.383 790.706 375.541 775.481 374.816 752.985C374.816 752.985 456.424 702.96 458.058 666.306C458.058 666.306 455.462 648.252 445.608 641.131L439.529 574.652Z" fill="#3A3748"/>
<mask id="mask3_467_818" style="mask-type:luminance" maskUnits="userSpaceOnUse" x="374" y="574" width="126" height="217">
<path d="M439.529 574.652C439.529 574.652 598.792 669.565 399.383 790.706C399.383 790.706 375.541 775.481 374.816 752.985C374.816 752.985 456.424 702.96 458.058 666.306C458.058 666.306 455.462 648.252 445.608 641.131L439.529 574.652Z" fill="white"/>
</mask>
<g mask="url(#mask3_467_818)">
<path d="M391.716 732.202C391.987 733.265 398.92 756.785 432.57 782.998L440.253 773.14C424.536 760.882 415.366 749.544 410.136 741.407C407.519 737.34 405.89 734.074 404.932 731.886C404.453 730.794 404.14 729.969 403.961 729.457L403.778 728.915L403.753 728.828L401.578 729.47L403.761 728.866L403.753 728.828L401.578 729.47L403.761 728.866L391.715 732.203L391.716 732.202Z" fill="#B7B8B7"/>
<path d="M379.684 739.999C379.93 740.42 393.797 767.399 421.859 790.641L429.826 781.008C416.847 770.283 407.018 758.504 400.476 749.446C397.205 744.917 394.759 741.071 393.143 738.379C392.335 737.037 391.735 735.983 391.343 735.279L390.914 734.49L390.814 734.307L390.797 734.27L379.685 739.999H379.684Z" fill="#FFC831"/>
<path d="M400.57 724.421C400.812 724.842 414.703 751.808 442.753 775.058L450.72 765.425C437.749 754.696 427.912 742.917 421.366 733.854C418.095 729.325 415.641 725.479 414.024 722.792C413.216 721.45 412.611 720.396 412.22 719.692L411.791 718.904L411.695 718.717L411.674 718.684L400.57 724.421Z" fill="#FFC831"/>
</g>
<path d="M457.734 664.521C456.813 659.9 453.722 647.509 446.184 641.567V641.562C453.722 647.501 456.813 659.871 457.738 664.505C457.738 664.509 457.734 664.517 457.734 664.521Z" fill="#197E91"/>
<path d="M446.181 641.568C446.023 641.443 445.86 641.322 445.702 641.201C445.86 641.318 446.023 641.443 446.181 641.564V641.568Z" fill="#2E2A38"/>
<path d="M457.738 664.505C456.813 659.872 453.721 647.501 446.184 641.563C446.026 641.442 445.863 641.317 445.705 641.2C445.701 641.2 445.701 641.196 445.692 641.196C445.684 641.188 445.671 641.175 445.659 641.167C445.638 641.155 445.621 641.142 445.609 641.134V636.422C455.463 643.535 458.059 661.601 458.059 661.601C458.013 662.555 457.892 663.526 457.738 664.505Z" fill="#2E2A38"/>
<path d="M399.457 790.663C399.515 790.63 399.578 790.592 399.636 790.555C399.578 790.593 399.519 790.626 399.457 790.663ZM399.757 790.48C399.807 790.451 399.845 790.43 399.89 790.401C399.848 790.426 399.803 790.455 399.757 790.48ZM400.04 790.309C400.078 790.288 400.098 790.276 400.132 790.251C400.107 790.272 400.069 790.293 400.04 790.309ZM400.977 789.738L400.989 789.73C400.985 789.73 400.981 789.734 400.977 789.738Z" fill="#241E2B"/>
<path d="M399.384 790.709C399.384 790.709 398.696 790.272 397.551 789.43C398.697 790.272 399.384 790.709 399.384 790.709C399.409 790.692 399.434 790.68 399.459 790.663C399.434 790.68 399.409 790.696 399.384 790.709Z" fill="#855437"/>
<path d="M399.382 790.706C399.382 790.706 398.694 790.269 397.549 789.427C397.395 789.314 397.237 789.198 397.066 789.069C391.645 785.011 378.358 773.677 375.391 758.148C375.07 756.477 374.87 754.752 374.816 752.986L375.279 752.703C378.658 772.732 399.383 785.995 399.383 785.995C402.933 783.837 406.375 781.687 409.7 779.545C410.642 780.491 411.604 781.437 412.596 782.382C408.871 784.82 405.004 787.265 400.992 789.728L400.98 789.736C400.697 789.907 400.417 790.078 400.134 790.249C400.101 790.274 400.08 790.287 400.042 790.307C399.988 790.34 399.946 790.365 399.892 790.399C399.846 790.428 399.809 790.449 399.759 790.478C399.721 790.503 399.68 790.528 399.638 790.553C399.58 790.591 399.517 790.628 399.459 790.661C399.434 790.678 399.409 790.69 399.384 790.707L399.382 790.706ZM423.194 775.202C422.965 774.989 422.731 774.773 422.502 774.556C422.735 774.768 422.973 774.981 423.21 775.193C423.206 775.197 423.198 775.201 423.193 775.201L423.194 775.202ZM433.573 767.656C432.577 766.798 431.615 765.944 430.686 765.098C430.886 764.948 431.09 764.798 431.29 764.648C432.186 765.535 433.098 766.419 434.032 767.306C433.878 767.423 433.724 767.539 433.574 767.656H433.573ZM443.935 759.469C443.023 758.627 442.139 757.782 441.264 756.931C483.76 722.664 498.843 691.156 499.714 664.16C500.497 691.623 486.835 724.04 443.935 759.469Z" fill="#2E2A38"/>
<path d="M423.211 775.197C422.974 774.984 422.736 774.772 422.503 774.56C421.765 773.868 421.041 773.177 420.328 772.485C423.928 770.01 427.374 767.552 430.686 765.102C431.615 765.948 432.578 766.802 433.573 767.66C430.265 770.16 426.815 772.667 423.211 775.197Z" fill="#959494"/>
<path d="M412.595 782.383C411.603 781.437 410.641 780.491 409.699 779.546C413.374 777.183 416.916 774.825 420.328 772.484C421.04 773.176 421.765 773.867 422.503 774.559C422.732 774.776 422.966 774.992 423.195 775.205C419.795 777.588 416.27 779.979 412.595 782.383Z" fill="#CDA035"/>
<path d="M434.031 767.309C433.098 766.422 432.185 765.538 431.289 764.651C434.772 762.063 438.093 759.493 441.264 756.934C442.139 757.784 443.022 758.63 443.935 759.472C440.793 762.068 437.489 764.684 434.031 767.309Z" fill="#CDA035"/>
<path d="M190.007 689.88C190.007 689.88 162.078 690.972 158.815 668.842C155.548 646.713 167.877 638.738 171.148 647.438C171.148 647.438 176.952 639.813 183.844 643.988C190.74 648.163 190.007 655.659 190.007 655.659C190.007 655.659 197.086 645.267 201.253 650.701C205.42 656.147 205.607 663.397 205.607 663.397C205.607 663.397 214.053 655.422 216.365 663.039C218.669 670.66 216.844 689.88 190.007 689.88Z" fill="#F39A2A"/>
<path d="M163.284 578.982C163.284 578.982 127.417 569.582 116.326 595.232L107.588 585.278C107.588 585.278 92.613 600.278 87.321 609.857C87.321 609.857 95.354 614.078 96.104 615.92C96.104 615.92 29.608 639.203 0 684.003C0 684.003 4.296 687.624 11.583 692.782L15.05 689.974L12.625 693.507C23.471 701.09 40.367 711.615 59.604 718.97C60.892 717.441 62.833 715.691 64.342 716.732C65.284 717.39 64.846 718.907 63.95 720.549C66.033 721.282 68.142 721.966 70.271 722.607L72.513 715.92L73.113 723.416C77.955 724.758 82.896 725.858 87.859 726.57C87.859 726.57 100.001 668.099 120.559 637.045C120.559 637.045 129.421 644.645 132.571 649.016C132.571 649.016 151.279 630.845 155.684 616.808C155.684 616.808 143.605 613.879 139.234 609.979C139.234 609.979 144.559 597.795 163.284 578.982Z" fill="#999E9F"/>
<path d="M87.8595 726.569C87.9055 726.348 90.2265 715.227 94.5215 700.186H94.5255C90.2295 715.232 87.9055 726.348 87.8595 726.569ZM0.105469 683.844C0.105469 683.844 0.109467 683.84 0.109467 683.836C0.109467 683.84 0.109469 683.844 0.105469 683.844Z" fill="#55B5C6"/>
<path d="M87.492 725.986C82.588 725.278 77.871 724.203 73.071 722.878L72.513 715.92L70.271 722.607C68.142 721.965 66.034 721.282 63.95 720.549C64.496 719.549 64.871 718.595 64.867 717.853C64.867 717.378 64.709 716.99 64.342 716.732C64.025 716.511 63.688 716.42 63.342 716.42C62.046 716.42 60.621 717.762 59.604 718.97C40.367 711.616 23.471 701.091 12.625 693.507L15.05 689.974L11.583 692.782C4.295 687.624 0 684.003 0 684.003C0.038 683.949 0.0709963 683.899 0.103996 683.845C0.107996 683.845 0.107994 683.841 0.107994 683.837C4.54499 677.154 9.804 670.975 15.529 665.262C16.462 665.983 17.483 666.758 18.575 667.574C9.038 676.578 5.062 682.432 5.062 682.432L8.87 684.728C11.695 679.945 16.107 674.824 21.42 669.657C36.928 680.803 64.32 697.307 93.574 700.103C89.603 715.061 87.492 725.986 87.492 725.986Z" fill="#B7B8B9"/>
<path d="M21.4202 669.658C20.4202 668.937 19.4742 668.241 18.5742 667.575C30.6112 656.213 51.5122 639.838 84.4822 623.871C84.4822 623.871 44.4942 647.204 21.4202 669.658Z" fill="#BFBFBF"/>
<path d="M8.8705 684.728L5.0625 682.432C5.0625 682.432 9.0375 676.578 18.5755 667.574C19.4755 668.241 20.4215 668.937 21.4215 669.657C16.1085 674.824 11.6955 679.945 8.8705 684.728Z" fill="#D1D0D1"/>
<path d="M140.649 607.287H140.637C143.22 602.708 149.75 592.579 163.283 578.983C163.283 578.983 162.962 578.896 162.375 578.766C164.046 578.958 163.283 578.983 163.283 578.983C149.741 592.595 143.228 602.712 140.649 607.287Z" fill="#14899F"/>
<path d="M140.638 607.286H140.609C143.28 602.328 149.963 591.153 161.776 578.703C162.005 578.728 162.205 578.749 162.376 578.765C162.963 578.894 163.284 578.982 163.284 578.982C149.751 592.578 143.221 602.707 140.638 607.286Z" fill="#868B8D"/>
<path d="M139.33 610.025C139.305 610.025 139.276 610.012 139.247 609.987C139.243 609.983 139.239 609.983 139.234 609.979C139.234 609.979 139.447 609.533 139.847 608.758C139.684 609.4 139.534 610.025 139.33 610.025Z" fill="#14899F"/>
<path d="M139.844 608.756C139.844 608.744 139.848 608.731 139.852 608.718C139.919 608.589 139.998 608.443 140.077 608.289C139.994 608.456 139.914 608.61 139.844 608.756Z" fill="#14899F"/>
<path d="M139.855 608.72C140.03 607.995 140.222 607.266 140.526 607.266C140.551 607.266 140.58 607.27 140.609 607.287C140.413 607.658 140.234 607.991 140.08 608.291C140.001 608.445 139.922 608.591 139.855 608.72Z" fill="#868B8D"/>
<path d="M87.8585 726.57C82.8955 725.857 77.9545 724.757 73.1125 723.416L73.0625 722.879H73.0705L73.1125 723.416C77.9545 724.758 82.8955 725.858 87.8585 726.57Z" fill="#14899F"/>
<path d="M94.5202 700.187C94.2032 700.162 93.8872 700.133 93.5742 700.104C98.8032 680.383 107.262 653.649 118.353 635.678H118.345C118.345 635.678 112.466 628.267 103.678 621.421C103.678 621.421 116.478 629.333 122.599 635.199C125.466 637.778 130.011 642.05 132.078 644.942C132.078 644.942 147.778 629.667 153.782 616.312C154.511 616.508 155.074 616.655 155.39 616.734C155.577 616.784 155.682 616.808 155.682 616.808C154.465 620.679 152.161 624.867 149.461 628.905C148.919 629.717 148.357 630.522 147.79 631.317C146.223 633.5 144.582 635.609 142.978 637.562C141.624 639.217 140.295 640.759 139.061 642.146C135.369 646.296 132.569 649.016 132.569 649.016C129.419 644.645 120.557 637.046 120.557 637.046C108.994 654.513 100.095 680.657 94.5192 700.188L94.5202 700.187Z" fill="#868B8D"/>
<path d="M87.8583 726.572C82.8953 725.859 77.9543 724.758 73.1123 723.417L73.0703 722.88C77.8703 724.205 82.5873 725.281 87.4913 725.989C87.4913 725.989 89.6033 715.063 93.5743 700.105C93.8873 700.134 94.2033 700.163 94.5203 700.188C90.2243 715.23 87.9033 726.351 87.8583 726.572Z" fill="#A0A3A5"/>
<path d="M144.252 616.041C139.04 613.916 134.514 611.658 130.598 609.383C138.061 613.345 144.252 616.041 144.252 616.041ZM130.598 609.383C121.81 604.712 111.265 598.287 106.998 592.429C106.998 592.429 106.736 592.408 106.327 592.408C105.181 592.408 102.873 592.546 101.91 593.587C101.91 593.587 104.197 590.504 107.406 588.016C107.406 588.016 112.518 598.883 130.598 609.383Z" fill="#BFBFBF"/>
<path d="M127.207 584.605C127.207 584.605 134.54 579.484 149.195 579.484C152.045 579.484 155.17 579.676 158.57 580.142L156.349 582.238C156.349 582.238 151.249 580.305 144.166 580.305C139.141 580.305 133.115 581.28 127.207 584.605Z" fill="#BFBFBF"/>
</svg>
