<svg width="1065" height="1288" viewBox="0 0 1065 1288" fill="none" xmlns="http://www.w3.org/2000/svg">
<path d="M260.799 942.061C258.4 942.494 263.14 941.851 261.701 941.953C260.119 942.061 258.548 942.253 256.961 942.328C254.683 942.433 252.397 942.43 250.118 942.346C248.928 942.299 247.739 942.215 246.552 942.136C244.947 942.032 241.914 941.627 243.33 941.834C227.062 939.449 213.355 933.333 201.3 922.038C181.449 903.434 172.033 876.664 167.062 850.537C162.982 829.08 162.069 807.059 162.494 785.259C162.677 775.874 162.604 767.351 161.185 758.033C155.997 723.995 136.712 693.546 99.9879 689.969C87.0204 688.705 87.1076 708.974 99.9879 710.231C128.671 713.025 139.926 743.212 142.136 767.868C143.317 781.022 141.921 794.315 142.366 807.518C143.041 827.555 145.198 847.771 149.985 867.27C160.746 911.105 188.708 952.832 235.844 961.039C245.804 962.774 256.177 963.403 266.185 961.6C278.998 959.291 273.569 939.759 260.799 942.059L260.799 942.061Z" fill="#D86A0B"/>
<path d="M123.926 697.996C124.961 689.679 122.518 680.879 116.056 672.544C103.65 656.543 83.6127 649.747 63.9824 647.455C59.4135 646.923 55.694 651.093 56.6831 655.586C57.6372 659.929 54.1997 663.989 49.7585 663.735C40.1524 663.186 23.7565 663.008 5.55982 666.091C0.56029 666.937 -1.69064 672.87 1.43625 676.863C3.09671 678.984 4.46402 680.76 4.77461 681.106C13.3477 690.555 22.5351 699.518 32.4957 707.501C52.0332 723.156 81.2459 740.498 105.576 724.552C116.217 717.578 122.661 708.147 123.927 697.997L123.926 697.996Z" fill="#D86A0B"/>
<path d="M305.987 851.592C243.352 851.592 192.579 922.334 192.579 1009.6C192.579 1042.14 199.649 1072.38 211.753 1097.52C183.281 1102.74 161.996 1123.57 161.996 1148.49C161.996 1177.35 190.523 1200.74 225.709 1200.74C253.796 1200.74 277.623 1185.82 286.1 1165.13C292.559 1166.72 299.199 1167.61 305.987 1167.61C368.621 1167.61 419.394 1096.86 419.394 1009.6C419.394 922.335 368.62 851.592 305.987 851.592Z" fill="#FCAC2B"/>
<path d="M843.72 851.592C906.351 851.592 957.128 922.334 957.128 1009.6C957.128 1042.14 950.058 1072.38 937.951 1097.52C966.422 1102.74 987.708 1123.57 987.708 1148.49C987.708 1177.35 959.184 1200.74 923.998 1200.74C895.908 1200.74 872.081 1185.82 863.604 1165.13C857.145 1166.72 850.508 1167.61 843.72 1167.61C781.083 1167.61 730.31 1096.86 730.31 1009.6C730.31 922.335 781.084 851.592 843.72 851.592Z" fill="#FCAC2B"/>
<path d="M913.014 1245.59L786.072 1286.14C770.757 1291.03 754.396 1282.49 749.629 1267.12L748.736 1264.27C737.013 1266.46 724.857 1268.42 712.267 1270.18C715.734 1247.17 717.569 1222.93 717.569 1197.91C717.569 1047.34 650.823 925.268 568.481 925.268C486.141 925.268 419.395 1047.34 419.395 1197.91C419.395 1223.03 421.256 1247.4 424.746 1270.51C411.493 1268.73 398.703 1266.66 386.393 1264.4C380.76 1278.26 365.317 1285.68 350.788 1281.04L223.875 1240.49C208.203 1235.5 199.845 1218.45 205.501 1202.98L218.905 1166.38C219.643 1163.04 220.819 1159.73 222.525 1156.49L379.742 662.647L801.543 660.454L913.98 1161.1C914.033 1161.26 914.082 1161.41 914.134 1161.56L914.338 1161.59L931.389 1208.07C937.045 1223.54 928.687 1240.59 913.015 1245.59L913.014 1245.59Z" fill="#FFC04B"/>
<path d="M1065 406.688C1065 350.496 1017.86 304.599 958.528 301.621C965.632 288.13 969.637 272.958 969.637 256.905C969.637 200.884 921.039 155.47 861.089 155.47C841.389 155.47 822.933 160.4 807.005 168.973C807.194 166.704 807.322 164.419 807.322 162.106C807.322 114.462 765.99 75.8403 715.004 75.8403C691.421 75.8403 669.915 84.114 653.6 97.7097C633.609 40.9741 576.475 0 509.066 0C425.025 0 356.895 63.6636 356.895 142.196C356.895 152.095 357.982 161.754 360.041 171.08C341.271 156.592 317.201 147.884 290.954 147.884C231.002 147.884 182.406 193.299 182.406 249.319C182.406 267.242 187.399 284.066 196.127 298.677C139.123 305.846 95.1602 351.455 95.1602 406.688C95.1602 459.995 136.119 504.339 190.223 513.808C170.541 529.629 158.055 553.054 158.055 579.219C158.055 626.864 199.39 665.485 250.376 665.485C260.357 665.485 269.96 663.987 278.961 661.248C278.175 666.029 277.765 670.926 277.765 675.914C277.765 728.793 323.639 771.66 380.226 771.66C410.247 771.66 437.253 759.595 455.993 740.368C471.247 803.851 531.889 851.293 604.425 851.293C673.878 851.293 732.42 807.795 750.666 748.378C770.244 766.292 797.032 777.349 826.596 777.349C886.546 777.349 935.144 731.938 935.144 675.914C935.144 661.876 932.091 648.504 926.571 636.342C930.378 636.79 934.249 637.048 938.187 637.048C989.173 637.048 1030.51 598.424 1030.51 550.78C1030.51 530.408 1022.93 511.699 1010.3 496.94C1043.07 478.543 1065 445.011 1065 406.688L1065 406.688Z" fill="#D86A0B"/>
<path d="M856.442 283.375L826.441 181.949C821.029 163.65 804.438 152.887 788.289 157.194L692.865 182.652C692.865 182.652 753.748 299.437 856.443 283.374L856.442 283.375Z" fill="#FCAC2B"/>
<path d="M279.101 316.031L293.072 211.188C295.59 192.274 310.32 179.076 326.941 180.835L425.15 191.247C425.15 191.247 383.042 316.034 279.101 316.031Z" fill="#FCAC2B"/>
<path d="M577.127 743.806C505.897 744.995 428.091 723.594 368.705 689.71C291.097 645.431 241.626 566.342 229.341 486.724C214.92 393.264 259.822 315.548 332.443 250.047C349.092 235.031 366.841 220.904 385.773 208.149C415.105 188.387 447.528 172.305 481.843 160.256C559.326 133.041 629.39 137.549 703.394 170.865C839.847 232.298 954.616 366.322 931.784 506.721C920.43 576.55 876.813 643.25 811.826 684.548C744.258 727.491 659.222 742.433 577.127 743.806Z" fill="#FFC04B"/>
<path d="M909.829 574.654C892.511 608.392 868.141 639.059 837.846 663.667C774.814 714.858 691.564 738.707 609.867 748.147C539.006 756.328 459.31 741.688 396.729 712.292C314.947 673.886 257.726 596.555 237.523 515.064C216.7 431.119 242.618 355.32 293.723 287.256C263.664 342.765 251.665 402.997 267.823 468.143C288.056 549.66 345.275 626.963 427.055 665.397C489.613 694.796 569.306 709.436 640.194 701.226C721.864 691.786 805.118 667.965 868.173 616.772C883.658 604.176 897.604 590.002 909.829 574.652V574.654Z" fill="#FCAC2B"/>
<path d="M455.693 396.481C455.693 412.755 442.501 425.949 426.224 425.949C409.949 425.949 396.758 412.755 396.758 396.481C396.758 380.206 409.949 367.012 426.224 367.012C442.501 367.012 455.693 380.206 455.693 396.481Z" fill="#5B462B"/>
<path d="M446.707 386.927C446.707 390.542 443.775 393.476 440.158 393.476C436.543 393.476 433.611 390.542 433.611 386.927C433.611 383.31 436.543 380.378 440.158 380.378C443.775 380.378 446.707 383.31 446.707 386.927Z" fill="white"/>
<path d="M780.972 392.334C780.972 408.609 767.78 421.8 751.506 421.8C735.229 421.8 722.037 408.609 722.037 392.334C722.037 376.06 735.229 362.865 751.506 362.865C767.78 362.865 780.972 376.06 780.972 392.334Z" fill="#5B462B"/>
<path d="M776.9 381.413C776.9 385.031 773.969 387.962 770.354 387.962C766.736 387.962 763.805 385.031 763.805 381.413C763.805 377.799 766.736 374.867 770.354 374.867C773.969 374.867 776.9 377.799 776.9 381.413Z" fill="white"/>
<path d="M770.755 547.948C770.755 605.92 693.58 652.914 598.377 652.914C503.175 652.914 426 605.92 426 547.948C426 489.976 503.175 442.979 598.377 442.979C693.58 442.979 770.755 489.976 770.755 547.948Z" fill="white"/>
<path d="M570.862 421.793H620.598C635.735 421.793 643.186 438.998 632.306 448.828L607.439 471.297C600.91 477.197 590.551 477.197 584.025 471.297L559.157 448.828C548.278 438.998 555.725 421.793 570.862 421.793Z" fill="#5B462B"/>
<path d="M595.73 453.912L596.451 515.903" stroke="#5B462B" stroke-width="20.83" stroke-miterlimit="2"/>
<path d="M482.39 505.105C491.839 512.55 501.328 518.992 511.201 523.802C521.042 528.618 531.253 531.465 541.406 531.41C551.564 531.46 561.708 528.461 571.497 523.543C581.373 518.713 590.778 512.032 600.675 505.105C595.367 515.97 587.593 525.652 577.557 533.239C567.643 540.806 554.809 546.052 541.438 545.944C528.077 546.02 515.261 540.992 505.236 533.512C495.203 525.969 487.13 516.298 482.39 505.105Z" fill="#5B462B"/>
<path d="M590.819 504.996C600.267 512.438 609.757 518.88 619.63 523.693C629.472 528.509 639.68 531.353 649.835 531.298C659.993 531.347 670.137 528.352 679.926 523.431C689.802 518.6 699.207 511.923 709.101 504.996C703.796 515.858 696.022 525.54 685.986 533.127C676.072 540.697 663.238 545.94 649.866 545.836C636.509 545.911 623.69 540.883 613.665 533.4C603.632 525.856 595.558 516.186 590.818 504.996L590.819 504.996Z" fill="#5B462B"/>
<path d="M681.541 460.962C681.541 463.815 679.229 466.129 676.373 466.129C673.52 466.129 671.205 463.815 671.205 460.962C671.205 458.105 673.52 455.791 676.373 455.791C679.229 455.791 681.541 458.106 681.541 460.962Z" fill="#FCAC2B"/>
<path d="M657.913 465.391C657.913 468.244 655.601 470.559 652.745 470.559C649.892 470.559 647.577 468.244 647.577 465.391C647.577 462.535 649.892 460.223 652.745 460.223C655.601 460.223 657.913 462.536 657.913 465.391Z" fill="#FCAC2B"/>
<path d="M668.252 480.156C668.252 483.012 665.937 485.323 663.082 485.323C660.229 485.323 657.914 483.012 657.914 480.156C657.914 477.303 660.229 474.988 663.082 474.988C665.938 474.988 668.252 477.303 668.252 480.156Z" fill="#FCAC2B"/>
<path d="M650.533 493.446C650.533 496.302 648.218 498.613 645.362 498.613C642.51 498.613 640.197 496.301 640.197 493.446C640.197 490.593 642.51 488.278 645.362 488.278C648.218 488.278 650.533 490.593 650.533 493.446Z" fill="#FCAC2B"/>
<path d="M693.352 478.68C693.352 481.533 691.04 483.848 688.184 483.848C685.332 483.848 683.017 481.533 683.017 478.68C683.017 475.824 685.332 473.513 688.184 473.513C691.04 473.513 693.352 475.825 693.352 478.68Z" fill="#FCAC2B"/>
<path d="M678.588 494.92C678.588 497.776 676.273 500.091 673.418 500.091C670.565 500.091 668.253 497.776 668.253 494.92C668.253 492.067 670.565 489.755 673.418 489.755C676.274 489.755 678.588 492.067 678.588 494.92Z" fill="#FCAC2B"/>
<path d="M516.939 460.962C516.939 463.815 519.252 466.129 522.107 466.129C524.96 466.129 527.275 463.815 527.275 460.962C527.275 458.105 524.96 455.791 522.107 455.791C519.251 455.791 516.939 458.106 516.939 460.962Z" fill="#FCAC2B"/>
<path d="M540.562 465.391C540.562 468.244 542.878 470.559 545.733 470.559C548.586 470.559 550.901 468.244 550.901 465.391C550.901 462.535 548.586 460.223 545.733 460.223C542.877 460.223 540.562 462.536 540.562 465.391Z" fill="#FCAC2B"/>
<path d="M530.229 480.156C530.229 483.012 532.542 485.323 535.394 485.323C538.251 485.323 540.562 483.012 540.562 480.156C540.562 477.303 538.25 474.988 535.394 474.988C532.542 474.988 530.229 477.303 530.229 480.156Z" fill="#FCAC2B"/>
<path d="M547.945 493.446C547.945 496.302 550.26 498.613 553.113 498.613C555.969 498.613 558.284 496.301 558.284 493.446C558.284 490.593 555.968 488.278 553.113 488.278C550.26 488.278 547.945 490.593 547.945 493.446Z" fill="#FCAC2B"/>
<path d="M505.126 478.68C505.126 481.533 507.441 483.848 510.294 483.848C513.15 483.848 515.461 481.533 515.461 478.68C515.461 475.824 513.15 473.513 510.294 473.513C507.441 473.513 505.126 475.825 505.126 478.68Z" fill="#FCAC2B"/>
<path d="M519.892 494.92C519.892 497.776 522.207 500.091 525.059 500.091C527.915 500.091 530.23 497.776 530.23 494.92C530.23 492.067 527.915 489.755 525.059 489.755C522.206 489.755 519.892 492.067 519.892 494.92Z" fill="#FCAC2B"/>
<path d="M425.767 1018.52C425.243 1039.45 423.359 1060.16 421.265 1080.84C419.087 1101.51 416.315 1122.08 413.195 1142.6C406.867 1183.61 399.283 1224.43 388.906 1264.8L388.752 1265.39L388.685 1265.5C387.835 1266.86 386.966 1268 385.998 1269.16C385.043 1270.3 384.052 1271.41 382.999 1272.46C380.902 1274.54 378.468 1276.41 375.755 1277.45C377.91 1275.51 379.414 1273.16 380.775 1270.76C381.443 1269.55 382.043 1268.3 382.592 1267.04C383.121 1265.79 383.666 1264.47 384.081 1263.28L383.863 1263.99C386.615 1222.4 392.157 1181.26 398.954 1140.31C402.4 1119.85 406.193 1099.44 410.578 1079.13C415.048 1058.83 419.727 1038.56 425.768 1018.52L425.767 1018.52Z" fill="#D86A0B"/>
<path d="M244.838 1247.32C246.673 1242.99 248.572 1238.94 250.556 1234.84C252.536 1230.76 254.584 1226.73 256.71 1222.75C260.941 1214.78 265.487 1207 270.312 1199.46C267.22 1207.87 264.489 1216.35 262.11 1224.92C260.909 1229.19 259.798 1233.49 258.769 1237.79C257.745 1242.07 256.762 1246.46 255.989 1250.63L244.838 1247.32Z" fill="#D86A0B"/>
<path d="M310.05 1268.8C311.798 1264.93 313.49 1260.76 315.093 1256.67C316.698 1252.55 318.236 1248.38 319.687 1244.18C322.619 1235.79 325.216 1227.26 327.472 1218.6C327.135 1227.54 326.428 1236.52 325.358 1245.48C324.835 1249.97 324.215 1254.45 323.518 1258.93C322.811 1263.43 322.064 1267.83 321.098 1272.43L310.05 1268.8Z" fill="#D86A0B"/>
<path d="M708.651 1018.52C714.836 1038.98 719.661 1059.66 724.28 1080.39C728.811 1101.12 732.748 1121.95 736.34 1142.84C743.433 1184.63 749.27 1226.62 752.321 1269.08L752.099 1268.38C752.515 1269.57 753.062 1270.89 753.588 1272.14C754.138 1273.4 754.737 1274.65 755.409 1275.86C756.77 1278.26 758.27 1280.61 760.425 1282.54C757.715 1281.51 755.277 1279.64 753.183 1277.56C752.127 1276.51 751.136 1275.4 750.182 1274.26C749.217 1273.1 748.344 1271.95 747.498 1270.6L747.428 1270.49L747.277 1269.9C736.609 1228.7 728.731 1187.04 722.106 1145.17C718.843 1124.23 715.924 1103.23 713.594 1082.14C711.355 1061.03 709.322 1039.88 708.65 1018.52L708.651 1018.52Z" fill="#D86A0B"/>
<path d="M880.196 1255.73C879.42 1251.55 878.44 1247.17 877.416 1242.89C876.384 1238.59 875.276 1234.29 874.075 1230.01C871.696 1221.45 868.963 1212.96 865.874 1204.56C870.698 1212.1 875.241 1219.88 879.473 1227.85C881.599 1231.83 883.648 1235.86 885.626 1239.94C887.613 1244.04 889.512 1248.08 891.347 1252.41L880.196 1255.73Z" fill="#D86A0B"/>
<path d="M815.081 1277.53C814.118 1272.92 813.371 1268.52 812.661 1264.02C811.963 1259.55 811.346 1255.07 810.823 1250.58C809.749 1241.62 809.046 1232.64 808.706 1223.69C810.965 1232.36 813.56 1240.89 816.491 1249.28C817.945 1253.48 819.483 1257.64 821.089 1261.76C822.691 1265.86 824.384 1270.02 826.132 1273.9L815.081 1277.53Z" fill="#D86A0B"/>
<path d="M717.57 1197.91C717.57 1222.93 715.735 1247.17 712.269 1270.18C668.105 1276.3 618.968 1279.74 567.208 1279.74C516.469 1279.74 468.249 1276.45 424.748 1270.51C421.258 1247.4 419.396 1223.03 419.396 1197.91C419.396 1047.34 486.142 925.269 568.482 925.269C650.825 925.269 717.57 1047.34 717.57 1197.91Z" fill="#F9E3C2"/>
</svg>
