<svg width="80" height="94" viewBox="0 0 80 94" fill="none" xmlns="http://www.w3.org/2000/svg">
<path d="M37.9216 17.6727C34.3495 -4.02011 11.1933 0.363071 11.1933 0.363071C11.1933 0.363071 4.80139 26.3697 37.4619 26.7444C37.4476 23.3437 37.71 19.8981 37.9214 17.6727H37.9216Z" fill="#72AC6F"/>
<path d="M79.9104 49.6583C79.2147 38.9433 74.3739 29.3137 62.0751 25.3883C53.7874 22.743 48.1849 28.9946 40.4373 29.7794C33.5541 30.4767 29.5323 25.3883 20.0046 26.4773C3.9378 28.3138 -1.1237 44.0474 0.201281 57.8234C1.82175 74.6731 11.4718 91.4293 29.0757 93.048C32.7337 93.3844 33.2227 91.5556 36.5169 90.1261C40.5993 88.355 44.1886 89.9446 47.912 91.6209C63.7135 98.7357 73.8617 81.3662 77.5573 68.5886C79.3123 62.5198 80.3156 55.9048 79.9102 49.6581L79.9104 49.6583Z" fill="#E12C43"/>
<path d="M23.3464 30.8427C18.0047 34.0185 14.4237 38.8149 13.362 45.0677C12.8099 48.3181 12.9757 51.6658 13.5378 54.9025C14.1363 58.3487 15.2049 61.7182 16.6632 64.8958C18.0366 67.889 19.7749 70.7578 21.9863 73.2093C23.9876 75.4274 26.2327 77.82 29.1786 78.7133C30.4009 79.0835 31.687 79.1664 32.9573 79.1166C34.6141 79.051 36.264 78.8077 37.8966 78.5314C39.6883 78.2281 41.508 78.0393 43.3268 78.1361C44.8042 78.2147 46.2545 78.4977 47.6928 78.8317C50.7942 79.5516 53.8788 80.3861 57.0727 80.5549C59.3733 80.6769 61.7068 80.4829 63.9197 79.8225C65.8363 79.2511 67.6322 78.3277 69.2069 77.0955C70.7667 75.8746 72.0842 74.3685 73.1712 72.7174C74.3259 70.9636 75.2235 69.0482 75.9379 67.077C76.7082 64.9524 77.2663 62.7541 77.6814 60.5342C78.1159 58.2126 78.3946 55.8622 78.5634 53.5065C78.7341 51.1218 78.7912 48.7294 78.7611 46.3388C78.7438 44.9245 78.6919 43.5101 78.6157 42.0972C79.3241 44.5092 79.741 47.0512 79.9104 49.6588C80.316 55.9055 79.3126 62.5205 77.5575 68.5893C73.862 81.3669 63.7136 98.7365 47.9122 91.6217C44.189 89.9453 40.5991 88.3557 36.5171 90.1268C33.2229 91.5561 32.734 93.3851 29.0759 93.0487C11.472 91.43 1.822 74.6741 0.20153 57.8241C-1.12345 44.0481 3.93785 28.3143 20.0048 26.4781C25.1984 25.8844 28.7552 27.1261 32.0323 28.2657C30.151 27.6114 26.2457 29.2904 24.6611 30.1125C24.2119 30.3457 23.7736 30.5891 23.3464 30.8431V30.8427Z" fill="#B41F34"/>
<path d="M59.0626 30.6257C56.5662 30.1366 53.8337 30.2262 51.7532 31.8563C45.5972 36.68 50.9331 45.3937 56.3578 48.0915C61.5363 50.6666 70.8674 50.8433 71.982 44.2577C73.0281 38.0758 65.7281 31.9319 59.0626 30.6257Z" fill="#EE505A"/>
<path d="M73.9378 52.8368C73.9378 54.5408 72.5565 55.922 70.8526 55.922C69.1486 55.922 67.7673 54.5408 67.7673 52.8368C67.7673 51.1328 69.1486 49.7516 70.8526 49.7516C72.5565 49.7516 73.9378 51.1328 73.9378 52.8368Z" fill="#EE505A"/>
<path d="M20.9563 36.8063C19.7914 38.0553 16.8726 44.0137 20.549 44.141C23.391 44.239 25.7539 33.8706 20.9563 36.8063Z" fill="#B41F34"/>
<path d="M22.7264 47.9327C22.7984 48.5528 22.3542 49.1139 21.7342 49.1861C21.1142 49.2581 20.5533 48.8136 20.481 48.1935C20.409 47.5741 20.8532 47.013 21.473 46.9408C22.093 46.8688 22.6544 47.3127 22.7264 47.9327Z" fill="#B41F34"/>
<path d="M24.9259 57.1842C25.0341 58.1143 24.3678 58.956 23.4378 59.0641C22.5077 59.1716 21.6662 58.506 21.5581 57.5759C21.45 56.6459 22.1162 55.8042 23.0463 55.6961C23.9763 55.588 24.8176 56.2542 24.9259 57.1842Z" fill="#B41F34"/>
<path d="M26.9709 49.7148C27.0632 50.5085 26.4944 51.227 25.7006 51.3195C24.9067 51.4115 24.1884 50.8431 24.096 50.0488C24.0036 49.2551 24.5724 48.5373 25.3663 48.4447C26.16 48.3521 26.8785 48.9211 26.9709 49.7148Z" fill="#B41F34"/>
<path d="M21.4568 51.8129C21.5491 52.6066 20.9803 53.3251 20.1864 53.4171C19.3927 53.5097 18.6743 52.9407 18.5821 52.147C18.4897 51.3533 19.0585 50.6348 19.8522 50.5428C20.6461 50.4502 21.3644 51.0192 21.4568 51.8129Z" fill="#B41F34"/>
<path d="M25.068 42.0837C24.5044 42.7918 24.3614 44.6338 25.0285 45.3428C26.8605 47.2906 28.6413 39.987 24.9661 42.0956" fill="#B41F34"/>
<path d="M24.8865 68.9205C24.7677 69.8174 25.5928 71.4704 26.5297 71.7352C29.1028 72.4628 26.8716 65.2836 24.8052 68.9828" fill="#B41F34"/>
<path d="M20.9997 61.1449C20.2024 62.8829 22.1155 66.9212 23.2638 64.224C23.8088 62.9436 22.3638 59.4733 20.9983 61.2675" fill="#B41F34"/>
<path d="M26.31 60.1629C25.1039 60.3745 25.6995 63.0186 26.8335 62.5073C28.0499 61.9593 27.2542 59.9574 26.31 60.1629Z" fill="#B41F34"/>
<path d="M48.2223 73.4662C47.982 74.6671 50.6617 75.0721 50.5973 73.8296C50.5281 72.497 48.3738 72.5121 48.2223 73.4662Z" fill="#B41F34"/>
<path d="M43.1485 70.4629C42.3554 71.808 45.4136 73.4194 45.8563 71.8964C46.3321 70.2622 43.7312 69.3771 43.1485 70.4629Z" fill="#B41F34"/>
<path d="M53.9462 73.4501C53.873 75.0105 57.3294 75.0075 57.0105 73.4538C56.668 71.7865 53.9547 72.2185 53.9462 73.4501Z" fill="#B41F34"/>
<path d="M50.6128 69.3386C50.5672 70.3054 52.7091 70.3036 52.5114 69.341C52.2992 68.3083 50.6182 68.575 50.6128 69.3386Z" fill="#B41F34"/>
<path d="M37.5619 22.6142C36.4973 21.4215 35.4055 20.2535 34.2838 19.1143C34.3076 19.034 34.3233 18.9473 34.3199 18.8478C34.2449 16.6212 34.3199 14.388 34.3098 12.1604C34.305 11.12 32.6881 11.118 32.6928 12.1604C32.7008 13.9443 32.6579 15.7319 32.6774 17.517C31.8236 16.6878 30.9563 15.8721 30.0741 15.0726C29.6656 14.7025 29.2544 14.3354 28.8405 13.9713C28.8417 13.9049 28.8393 13.8378 28.8288 13.7702C28.4728 11.4738 28.1168 9.17744 27.7608 6.88107C27.6938 6.44922 27.1524 6.21021 26.7662 6.3163C26.3053 6.44297 26.1344 6.87784 26.2014 7.31089C26.4632 9.00034 26.7252 10.6898 26.987 12.3793C25.7153 11.3068 24.4218 10.26 23.1103 9.23634C23.1136 9.19781 23.1174 9.15949 23.1125 9.11975C22.8209 6.74875 22.5292 4.37754 22.2376 2.00654C22.1843 1.57328 21.9042 1.19812 21.4291 1.19812C21.0336 1.19812 20.5669 1.57026 20.6207 2.00654C20.8614 3.96325 21.102 5.91975 21.3428 7.87646C20.8087 7.47205 20.2728 7.07006 19.7338 6.6723C17.6654 5.14562 15.561 3.66836 13.4343 2.22397C13.073 1.9785 12.5379 2.1552 12.3282 2.51402C12.0948 2.91299 12.256 3.37428 12.6182 3.62015C15.2377 5.39916 17.8237 7.23001 20.3498 9.13992C18.1299 9.5284 15.9128 9.93745 13.6826 10.2606C13.2499 10.3231 13.0125 10.8719 13.118 11.2552C13.2455 11.7195 13.6786 11.8827 14.1126 11.8199C16.7787 11.4337 19.4258 10.9226 22.0817 10.4734C22.0835 10.4732 22.0849 10.4722 22.0867 10.472C22.5264 10.8153 22.9639 11.1612 23.3992 11.5101C24.3004 12.2324 25.1915 12.9676 26.0725 13.7147C23.6317 14.2313 21.1909 14.748 18.7501 15.2648C18.3227 15.3552 18.0748 15.8564 18.1856 16.2594C18.3072 16.7019 18.7514 16.9147 19.18 16.8242C21.9889 16.2295 24.7978 15.6351 27.6067 15.0405C29.0135 16.2757 30.3908 17.5448 31.7311 18.8519C29.7001 19.4368 27.6692 20.0217 25.6381 20.6069C24.64 20.8943 25.0644 22.4551 26.0679 22.166C28.3939 21.496 30.7199 20.8261 33.046 20.1561C33.0625 20.1728 33.0794 20.1891 33.096 20.2061C34.611 21.7418 36.0703 23.3313 37.4773 24.966C37.4947 24.1669 37.5241 23.3776 37.5615 22.615L37.5619 22.6142Z" fill="#33864C"/>
<path d="M46.6156 7.99866C42.324 7.6245 38.9072 8.49404 38.0846 16.0702C37.658 19.9965 36.0763 36.3123 40.5167 37.4538C44.5326 39.904 53.1808 8.92306 46.6156 7.99866Z" fill="#6E3637"/>
</svg>
