<svg width="215" height="112" viewBox="0 0 215 112" fill="none" xmlns="http://www.w3.org/2000/svg">
<ellipse cx="78" cy="54" rx="78" ry="46" fill="#56A74F"/>
<ellipse cx="155" cy="75" rx="60" ry="25" fill="#56A74F"/>
<ellipse cx="78" cy="46" rx="78" ry="46" fill="#FEFEFE"/>
<ellipse cx="155" cy="67" rx="60" ry="25" fill="#FEFEFE"/>
<circle cx="19.5" cy="52.5" r="7.5" fill="url(#paint0_linear_350_539)"/>
<circle cx="29.5" cy="44.5" r="4.5" fill="url(#paint1_linear_350_539)"/>
<circle cx="22.5" cy="37.5" r="2.5" fill="url(#paint2_linear_350_539)"/>
<circle cx="29.5" cy="25.5" r="7.5" fill="url(#paint3_linear_350_539)"/>
<circle cx="40.5" cy="12.5" r="4.5" fill="url(#paint4_linear_350_539)"/>
<circle cx="29.5" cy="10.5" r="2.5" fill="url(#paint5_linear_350_539)"/>
<circle cx="36.7779" cy="67.3211" r="7.5" transform="rotate(73.7552 36.7779 67.3211)" fill="url(#paint6_linear_350_539)"/>
<circle cx="47.2559" cy="74.6842" r="4.5" transform="rotate(73.7552 47.2559 74.6842)" fill="url(#paint7_linear_350_539)"/>
<circle cx="52.0179" cy="66.0053" r="2.5" transform="rotate(73.7552 52.0179 66.0053)" fill="url(#paint8_linear_350_539)"/>
<circle cx="140.928" cy="77.9281" r="7.5" transform="rotate(-3.37246 140.928 77.9281)" fill="url(#paint9_linear_350_539)"/>
<circle cx="162.928" cy="83.9281" r="7.5" transform="rotate(-3.37246 162.928 83.9281)" fill="url(#paint10_linear_350_539)"/>
<circle cx="152.616" cy="63.5866" r="4.5" transform="rotate(-36.0157 152.616 63.5866)" fill="url(#paint11_linear_350_539)"/>
<circle cx="172.285" cy="73.2858" r="4.5" transform="rotate(-36.0157 172.285 73.2858)" fill="url(#paint12_linear_350_539)"/>
<circle cx="130.476" cy="48.4767" r="7.5" transform="rotate(-36.0157 130.476 48.4767)" fill="url(#paint13_linear_350_539)"/>
<circle cx="141.285" cy="40.2858" r="4.5" transform="rotate(-36.0157 141.285 40.2858)" fill="url(#paint14_linear_350_539)"/>
<circle cx="132.624" cy="36.0858" r="2.5" transform="rotate(-36.0157 132.624 36.0858)" fill="url(#paint15_linear_350_539)"/>
<circle cx="198.689" cy="65.6894" r="7.5" transform="rotate(-1.46607 198.689 65.6894)" fill="url(#paint16_linear_350_539)"/>
<circle cx="184.727" cy="77.5612" r="4.5" transform="rotate(-0.208531 184.727 77.5612)" fill="url(#paint17_linear_350_539)"/>
<circle cx="183.476" cy="67.7407" r="2.5" transform="rotate(-0.878882 183.476 67.7407)" fill="url(#paint18_linear_350_539)"/>
<circle cx="159.538" cy="72.538" r="2.5" transform="rotate(-0.878882 159.538 72.538)" fill="url(#paint19_linear_350_539)"/>
<defs>
<linearGradient id="paint0_linear_350_539" x1="19.5" y1="45" x2="19.5" y2="60" gradientUnits="userSpaceOnUse">
<stop stop-color="#CDD2F3"/>
<stop offset="1" stop-color="white"/>
</linearGradient>
<linearGradient id="paint1_linear_350_539" x1="29.5" y1="40" x2="29.5" y2="49" gradientUnits="userSpaceOnUse">
<stop stop-color="#CDD2F3"/>
<stop offset="1" stop-color="white"/>
</linearGradient>
<linearGradient id="paint2_linear_350_539" x1="22.5" y1="35" x2="22.5" y2="40" gradientUnits="userSpaceOnUse">
<stop stop-color="#CDD2F3"/>
<stop offset="1" stop-color="white"/>
</linearGradient>
<linearGradient id="paint3_linear_350_539" x1="29.5" y1="18" x2="29.5" y2="33" gradientUnits="userSpaceOnUse">
<stop stop-color="#CDD2F3"/>
<stop offset="1" stop-color="white"/>
</linearGradient>
<linearGradient id="paint4_linear_350_539" x1="40.5" y1="8" x2="40.5" y2="17" gradientUnits="userSpaceOnUse">
<stop stop-color="#CDD2F3"/>
<stop offset="1" stop-color="white"/>
</linearGradient>
<linearGradient id="paint5_linear_350_539" x1="29.5" y1="8" x2="29.5" y2="13" gradientUnits="userSpaceOnUse">
<stop stop-color="#CDD2F3"/>
<stop offset="1" stop-color="white"/>
</linearGradient>
<linearGradient id="paint6_linear_350_539" x1="36.7779" y1="59.8211" x2="36.7779" y2="74.8211" gradientUnits="userSpaceOnUse">
<stop stop-color="#CDD2F3"/>
<stop offset="1" stop-color="white"/>
</linearGradient>
<linearGradient id="paint7_linear_350_539" x1="47.2559" y1="70.1842" x2="47.2559" y2="79.1842" gradientUnits="userSpaceOnUse">
<stop stop-color="#CDD2F3"/>
<stop offset="1" stop-color="white"/>
</linearGradient>
<linearGradient id="paint8_linear_350_539" x1="52.0179" y1="63.5053" x2="52.0179" y2="68.5053" gradientUnits="userSpaceOnUse">
<stop stop-color="#CDD2F3"/>
<stop offset="1" stop-color="white"/>
</linearGradient>
<linearGradient id="paint9_linear_350_539" x1="140.928" y1="70.4281" x2="140.928" y2="85.4281" gradientUnits="userSpaceOnUse">
<stop stop-color="#CDD2F3"/>
<stop offset="1" stop-color="white"/>
</linearGradient>
<linearGradient id="paint10_linear_350_539" x1="162.928" y1="76.4281" x2="162.928" y2="91.4281" gradientUnits="userSpaceOnUse">
<stop stop-color="#CDD2F3"/>
<stop offset="1" stop-color="white"/>
</linearGradient>
<linearGradient id="paint11_linear_350_539" x1="152.616" y1="59.0866" x2="152.616" y2="68.0866" gradientUnits="userSpaceOnUse">
<stop stop-color="#CDD2F3"/>
<stop offset="1" stop-color="white"/>
</linearGradient>
<linearGradient id="paint12_linear_350_539" x1="172.285" y1="68.7858" x2="172.285" y2="77.7858" gradientUnits="userSpaceOnUse">
<stop stop-color="#CDD2F3"/>
<stop offset="1" stop-color="white"/>
</linearGradient>
<linearGradient id="paint13_linear_350_539" x1="130.476" y1="40.9767" x2="130.476" y2="55.9767" gradientUnits="userSpaceOnUse">
<stop stop-color="#CDD2F3"/>
<stop offset="1" stop-color="white"/>
</linearGradient>
<linearGradient id="paint14_linear_350_539" x1="141.285" y1="35.7858" x2="141.285" y2="44.7858" gradientUnits="userSpaceOnUse">
<stop stop-color="#CDD2F3"/>
<stop offset="1" stop-color="white"/>
</linearGradient>
<linearGradient id="paint15_linear_350_539" x1="132.624" y1="33.5858" x2="132.624" y2="38.5858" gradientUnits="userSpaceOnUse">
<stop stop-color="#CDD2F3"/>
<stop offset="1" stop-color="white"/>
</linearGradient>
<linearGradient id="paint16_linear_350_539" x1="198.689" y1="58.1894" x2="198.689" y2="73.1894" gradientUnits="userSpaceOnUse">
<stop stop-color="#CDD2F3"/>
<stop offset="1" stop-color="white"/>
</linearGradient>
<linearGradient id="paint17_linear_350_539" x1="184.727" y1="73.0612" x2="184.727" y2="82.0612" gradientUnits="userSpaceOnUse">
<stop stop-color="#CDD2F3"/>
<stop offset="1" stop-color="white"/>
</linearGradient>
<linearGradient id="paint18_linear_350_539" x1="183.476" y1="65.2407" x2="183.476" y2="70.2407" gradientUnits="userSpaceOnUse">
<stop stop-color="#CDD2F3"/>
<stop offset="1" stop-color="white"/>
</linearGradient>
<linearGradient id="paint19_linear_350_539" x1="159.538" y1="70.038" x2="159.538" y2="75.038" gradientUnits="userSpaceOnUse">
<stop stop-color="#CDD2F3"/>
<stop offset="1" stop-color="white"/>
</linearGradient>
</defs>
</svg>
